<?xml version="1.0" encoding="UTF-8" standalone="no"?>
<svg width="32px" height="33px" viewBox="0 0 32 33" version="1.1" xmlns="http://www.w3.org/2000/svg" xmlns:xlink="http://www.w3.org/1999/xlink" xmlns:sketch="http://www.bohemiancoding.com/sketch/ns">
    <!-- Generator: Sketch 3.2.2 (9983) - http://www.bohemiancoding.com/sketch -->
    <title>airport</title>
    <desc>Created with Sketch.</desc>
    <defs></defs>
    <g id="p" stroke="none" stroke-width="1" fill="none" fill-rule="evenodd" sketch:type="MSPage">
        <g id="airport" sketch:type="MSLayerGroup" transform="translate(-1.000000, 0.000000)" fill="#888888">
            <path d="M33.004,0.723 L32.74,0.983 C32.656,1.691 32.38,3.1 31.476,4.738 C30.173,7.093 29.328,7.791 29.328,7.791 L25.029,12.09 L25.267,14.818 L26.29,13.794 L27.704,15.208 L25.492,17.42 L25.828,21.256 L27.29,19.794 L28.704,21.208 L26.056,23.857 L26.556,29.564 L24.972,31.148 L19.431,17.688 L9.365,25.945 L9.761,31.769 L9.027,32.502 L6.508,28.146 L4.2,29.3 L5.353,26.992 L0.996,24.472 L1.73,23.739 L7.555,24.135 L15.812,14.069 L2.352,8.527 L3.936,6.944 L9.643,7.443 L12.292,4.794 L13.706,6.208 L12.244,7.67 L16.08,8.006 L18.292,5.794 L19.706,7.208 L18.682,8.232 L21.411,8.47 L25.71,4.172 C25.71,4.172 26.407,3.324 28.764,2.024 C30.403,1.12 31.811,0.844 32.518,0.76 L32.78,0.496 C32.78,0.496 32.78,0.581 32.768,0.735 C32.919,0.723 33.004,0.723 33.004,0.723 L33.004,0.723 Z" id="Shape" sketch:type="MSShapeGroup"></path>
        </g>
    </g>
</svg>