<svg width="32" height="33" xmlns="http://www.w3.org/2000/svg"><path d="m32.004.723-.264.26c-.084.708-.36 2.117-1.264 3.755-1.303 2.355-2.148 3.053-2.148 3.053l-4.299 4.299.238 2.728 1.023-1.024 1.414 1.414-2.212 2.212.336 3.836 1.462-1.462 1.414 1.414-2.648 2.649.5 5.707-1.584 1.584-5.541-13.46-10.066 8.257.396 5.824-.734.733-2.519-4.356L3.2 29.3l1.153-2.308-4.357-2.52.734-.733 5.825.396 8.257-10.066-13.46-5.542 1.584-1.583 5.707.499 2.649-2.649 1.414 1.414-1.462 1.462 3.836.336 2.212-2.212 1.414 1.414-1.024 1.024 2.729.238 4.299-4.298s.697-.848 3.054-2.148C29.403 1.12 30.811.844 31.518.76l.262-.264s0 .085-.012.239c.151-.012.236-.012.236-.012Z" fill="#888" fill-rule="evenodd"/></svg>