<svg width="34" height="33" xmlns="http://www.w3.org/2000/svg"><path d="M7.047 0C2.05 0 0 4.051 0 9.047c0 4.842 2.382 8.76 7.047 9v-5.952c-.877-.273-1.734-2.082-1.734-3.049 0-1.191.965-3.156 2.156-3.156h19.063c1.19 0 2.156 1.965 2.156 3.156 0 .805-1.081 2.678-1.736 3.049v5.952c4.349-.46 7.047-4.313 7.047-9.001C34.001 4.05 31.95 0 26.952 0H7.047ZM27 33H7V9h20v24ZM9 31h16V11H9v20Zm9.167-3.017V30h-1.37v-1.961a7.708 7.708 0 0 1-3.544-.855v-2.576c.363.292.904.561 1.622.808.72.25 1.36.392 1.922.43v-3.384c-1.463-.538-2.462-1.123-2.995-1.752-.534-.628-.802-1.396-.802-2.3a3.37 3.37 0 0 1 1.04-2.486c.695-.685 1.613-1.084 2.757-1.196V13h1.369v1.69c1.32.064 2.303.274 2.953.633v2.51c-.874-.527-1.86-.848-2.953-.966v3.524c1.37.489 2.35 1.048 2.943 1.678.593.628.891 1.388.891 2.282 0 1.028-.332 1.857-.994 2.486-.662.627-1.607 1.01-2.84 1.146Zm-1.202-8.1v-2.885c-.843.152-1.265.592-1.265 1.32 0 .625.422 1.147 1.265 1.565ZM18 25.715c.867-.133 1.301-.566 1.301-1.301 0-.593-.434-1.078-1.301-1.455v2.756Z" fill="#888" fill-rule="evenodd"/></svg>