<svg width="33" height="28" xmlns="http://www.w3.org/2000/svg"><path d="M33 6.904C33 3.226 29.974.233 26.252.233a6.757 6.757 0 0 0-5.736 3.145 12.781 12.781 0 0 0-4.252-.733c-1.265 0-2.53.192-3.768.573A6.73 6.73 0 0 0 6.749 0C3.028-.001 0 2.998 0 6.685a6.675 6.675 0 0 0 3.743 5.992c-.184.86-.277 1.747-.277 2.646C3.466 22.313 9.207 28 16.263 28c7.056 0 12.798-5.687 12.798-12.676 0-.737-.07-1.491-.209-2.25C31.351 12.04 33 9.613 33 6.905ZM9 11a2 2 0 0 1 4 0 2 2 0 0 1-4 0Zm7.501 15A6.507 6.507 0 0 1 10 19.5c0-3.585 2.916-6.5 6.501-6.5A6.506 6.506 0 0 1 23 19.5c0 3.584-2.918 6.5-6.499 6.5Zm.29-7.021v1.747c.454.947 1.015 1.461 1.668 1.523.798.078 1.563-.536 1.858-.94a.38.38 0 0 1 .526-.085c.17.12.208.353.085.518-.455.626-1.359 1.258-2.332 1.258-.07 0-.141-.004-.212-.01-.542-.054-1.274-.338-1.92-1.313-.4.717-1.035 1.178-1.794 1.28-1.01.134-2.038-.41-2.618-1.384a.37.37 0 0 1 .134-.51.38.38 0 0 1 .516.134c.426.715 1.16 1.117 1.867 1.022.693-.093 1.225-.626 1.466-1.463v-1.81A2.002 2.002 0 0 1 16.5 15a2 2 0 0 1 .291 3.979ZM22 13a2 2 0 1 1 0-4 2 2 0 0 1 0 4Z" fill="#888" fill-rule="evenodd"/></svg>