<svg width="22" height="30" xmlns="http://www.w3.org/2000/svg"><path d="M14.258 7.061c-.063-.046-.143-.078-.21-.12v5.43c1.656.432 2.956.873 3.883 1.326 1.274.623 2.27 1.474 2.99 2.554.72 1.08 1.079 2.415 1.079 4.004 0 1.44-.43 2.789-1.291 4.047-.862 1.257-2.08 2.19-3.656 2.804-.878.34-1.887.576-3.005.727V30h-2.011v-2.006c-.289.01-.567.028-.87.028-.392 0-.77-.012-1.141-.03V30H8.015v-2.229c-1.926-.326-3.507-.972-4.73-1.949C1.453 24.354.358 22.214 0 19.402l5.316-.48c.319 1.657.968 2.874 1.947 3.65.23.185.483.342.752.48v-6.9c-2.075-.59-3.596-1.278-4.545-2.067C1.809 12.702.977 11.015.977 9.026c0-1.28.391-2.478 1.173-3.592.781-1.114 1.906-1.963 3.377-2.546a11.762 11.762 0 0 1 2.487-.662V0h2.01v2.042c.275-.012.542-.03.827-.03.407 0 .802.01 1.185.03V0h2.01v2.263c1.852.312 3.347.916 4.474 1.823 1.716 1.383 2.618 3.228 2.703 5.538l-5.465.223c-.23-1.292-.73-2.22-1.5-2.786ZM7.998 7c-.378.127-.736.272-1.042.456-.638.38-.956.89-.956 1.528 0 .582.298 1.08.896 1.493.249.173.625.347 1.104.523l-.001-4Zm6.927 16.364C15.643 22.626 16 21.761 16 20.77c0-.636-.152-1.176-.453-1.622-.296-.44-.815-.823-1.547-1.148v6c.349-.169.666-.37.925-.636ZM10 23.927c.375.05.771.073 1.189.073.288 0 .547-.022.811-.04v-6.484c-.572-.142-1.217-.295-2-.476v6.927ZM10.768 6c-.271 0-.517.022-.768.04v5.443A39.387 39.387 0 0 0 12 12V6.082A9.41 9.41 0 0 0 10.768 6Z" fill="#888" fill-rule="evenodd"/></svg>