<svg width="32" height="26" xmlns="http://www.w3.org/2000/svg"><path d="m22.528 15.266-1.3 1.632.353.63s-.805.938-1.18 2.48c-.377 1.538-.295 3.136-1.479 4.554C17.868 25.822 17.15 26 16.358 26c-.434 0-2.57-.771-2.34-3.416.23-2.644 2.05-3.583 4.158-4.721 2.11-1.138 2.457-2.032 2.457-2.032l.034.06L31 0v2c0-.255-4.68 8.179-6.576 12.701-.22.521-1.896.565-1.896.565Zm-4.913 4.735c-1.052-.04-2.179 1.047-2.518 2.428-.34 1.38.238 2.532 1.288 2.57 1.052.04 2.178-1.048 2.518-2.427.338-1.382-.238-2.532-1.288-2.571ZM15 1.941V0l8 10.622L21.402 13C19.362 8.429 15 1.717 15 1.942ZM9 24a1 1 0 1 1 0 2H2c-1.104 0-2-.832-2-1.857V1.857C0 .832.896 0 2 0h7a1 1 0 1 1 0 2H3v2h6a1 1 0 1 1 0 2H3v2h6a1 1 0 1 1 0 2H3v2h6a1 1 0 1 1 0 2H3v2h6a1 1 0 1 1 0 2H3v2h6a1 1 0 1 1 0 2H3v2h6Zm15.794-9 .426.752.035-.06s.352.906 2.496 2.059 3.997 2.103 4.232 4.786C32.215 25.22 30.043 26 29.6 26c-.806 0-1.538-.184-2.608-1.458-1.205-1.438-1.122-3.057-1.503-4.617-.382-1.563-1.2-2.514-1.2-2.514l.36-.639-.65-.81.794-.962Zm2.302 7.572c.34 1.379 1.467 2.466 2.519 2.427 1.05-.038 1.626-1.19 1.288-2.57-.34-1.38-1.466-2.467-2.518-2.428-1.05.04-1.626 1.189-1.289 2.57Z" fill="#888" fill-rule="evenodd"/></svg>