<svg xmlns="http://www.w3.org/2000/svg" width="29" height="19"><path fill="gray" d="M5.698 18.26c.787 0 1.524-.15 2.21-.45a5.75 5.75 0 0 0 1.81-1.246c.523-.53.931-1.145 1.226-1.845.296-.7.443-1.446.443-2.24a5.779 5.779 0 0 0-1.66-4.095 5.675 5.675 0 0 0-1.815-1.24 5.532 5.532 0 0 0-2.214-.446c-.787 0-1.525.149-2.214.446a5.675 5.675 0 0 0-1.816 1.24A5.839 5.839 0 0 0 .443 10.23C.148 10.93 0 11.68 0 12.48s.148 1.548.443 2.245c.295.697.703 1.31 1.225 1.84.522.53 1.127.945 1.816 1.245.689.3 1.427.45 2.214.45Zm0-1.428a4.14 4.14 0 0 1-1.668-.336 4.34 4.34 0 0 1-2.286-2.318 4.357 4.357 0 0 1-.33-1.7 4.324 4.324 0 0 1 1.252-3.08c.393-.4.85-.712 1.368-.936a4.15 4.15 0 0 1 1.664-.337c.59 0 1.145.112 1.664.337.519.224.975.536 1.368.936a4.365 4.365 0 0 1 1.253 3.08A4.365 4.365 0 0 1 8.73 15.56c-.394.4-.85.713-1.37.937a4.149 4.149 0 0 1-1.663.336Zm17.613 1.427c.787 0 1.524-.15 2.21-.45.685-.3 1.289-.715 1.81-1.245.523-.53.931-1.143 1.226-1.84A5.695 5.695 0 0 0 29 12.479c0-.8-.148-1.55-.443-2.25a5.786 5.786 0 0 0-3.037-3.08 5.453 5.453 0 0 0-2.21-.45c-.786 0-1.524.15-2.213.45-.689.3-1.295.713-1.82 1.24a5.748 5.748 0 0 0-1.673 4.09c0 .8.148 1.55.443 2.25.295.7.705 1.314 1.23 1.844s1.131.944 1.82 1.24a5.533 5.533 0 0 0 2.214.446Zm0-1.427a4.145 4.145 0 0 1-2.165-.581 4.35 4.35 0 0 1-2.129-3.772c0-.6.112-1.164.336-1.69.223-.528.53-.991.921-1.391a4.223 4.223 0 0 1 3.037-1.273c.59 0 1.145.114 1.664.341a4.3 4.3 0 0 1 1.364.94c.39.4.698.863.921 1.387a4.25 4.25 0 0 1 .336 1.686c0 .6-.112 1.163-.336 1.69-.223.527-.53.991-.921 1.39-.39.4-.846.713-1.364.937a4.149 4.149 0 0 1-1.664.336ZM15.25.71c0 .194.069.359.206.495a.673.673 0 0 0 .492.205h2.317c.054 0 .092.02.116.063l4.258 11.27 1.297-.454L19.482.608C19.327.204 19.002 0 18.507 0H15.95a.673.673 0 0 0-.492.204.683.683 0 0 0-.206.505Zm5.591 5.517V4.917l-9.49 1.418v1.309l9.49-1.418Zm-7.335 7.08v-1.309h-7.72v1.309h7.72Zm.984 1.109c.346 0 .66-.087.944-.26.283-.172.51-.4.68-.686.17-.284.255-.602.255-.954a1.85 1.85 0 0 0-.255-.959 1.931 1.931 0 0 0-.68-.686 1.802 1.802 0 0 0-.944-.254c-.346 0-.66.084-.944.254-.283.17-.51.399-.68.686a1.85 1.85 0 0 0-.254.96c-.006.345.074.661.241.949.167.288.394.518.68.69.286.173.605.26.957.26Zm.009-1.245a.627.627 0 0 1-.465-.191.626.626 0 0 1-.188-.455c0-.182.063-.338.188-.468a.62.62 0 0 1 .465-.195c.179 0 .33.063.452.19a.656.656 0 0 1 .183.473.633.633 0 0 1-.183.455.602.602 0 0 1-.452.19Zm-8.802.49c.322 0 .598-.115.827-.345.23-.23.345-.509.345-.836 0-.333-.113-.615-.34-.845a1.122 1.122 0 0 0-.832-.346c-.328 0-.604.114-.827.341-.224.227-.336.51-.336.85-.006.327.105.606.331.836.227.23.504.345.832.345Zm17.613.01c.322 0 .596-.117.823-.35.226-.234.34-.514.34-.841 0-.333-.112-.614-.336-.84-.223-.228-.5-.342-.827-.342-.322 0-.596.112-.823.337a1.17 1.17 0 0 0-.349.845c-.006.327.106.607.336.84.23.234.508.35.836.35Zm-9.124-2.582 1.154.664 5.564-6.062-1.62-.055-5.098 5.453Zm-9.017.936 1.145.664 5.323-5.526-1.128-.773-5.34 5.635Zm8.078-.09 1.145-.837L10.448 3.5l-1.342.291 4.142 8.143ZM7.433 3.316a.68.68 0 0 0 .202.496.67.67 0 0 0 .496.204h3.516a.67.67 0 0 0 .496-.204.68.68 0 0 0 .201-.496.688.688 0 0 0-.206-.5.666.666 0 0 0-.491-.209H8.13c-.19 0-.355.07-.492.21a.688.688 0 0 0-.206.5Z"/></svg>