<svg xmlns="http://www.w3.org/2000/svg" width="29" height="19" viewBox="0 0 29 19">
  <path fill="gray" d="M383.698022,419.259259 C384.485189,419.259259 385.221666,419.109295 385.907452,418.809366 C386.593251,418.509434 387.197045,418.09438 387.718835,417.564203 C388.240637,417.034027 388.649132,416.419023 388.944321,415.71919 C389.23951,415.019364 389.387105,414.272575 389.387105,413.478824 C389.387105,412.679018 389.241,411.929195 388.948791,411.229356 C388.656582,410.52953 388.249583,409.914526 387.727793,409.384346 C387.205991,408.854165 386.600701,408.44063 385.911922,408.143741 C385.223156,407.84684 384.485189,407.698389 383.698022,407.698389 C382.910856,407.698389 382.172883,407.84684 381.484104,408.143741 C380.795338,408.44063 380.190054,408.854165 379.668252,409.384346 C379.146462,409.914526 378.737973,410.52953 378.442784,411.229356 C378.147595,411.929195 378,412.679018 378,413.478824 C378,414.278631 378.147595,415.026935 378.442784,415.723736 C378.737973,416.420538 379.146462,417.034027 379.668252,417.564203 C380.190054,418.09438 380.795338,418.509434 381.484104,418.809366 C382.172883,419.109295 382.910856,419.259259 383.698022,419.259259 Z M383.698022,417.83232 C383.101684,417.83232 382.545594,417.720226 382.029752,417.496037 C381.513922,417.271849 381.059219,416.961317 380.665642,416.564443 C380.272052,416.167569 379.964937,415.705558 379.744296,415.178411 C379.523643,414.651267 379.413317,414.084738 379.413317,413.478824 C379.413317,412.87291 379.523643,412.307891 379.744296,411.783766 C379.964937,411.259653 380.272052,410.797642 380.665642,410.397732 C381.059219,409.997835 381.515419,409.685789 382.034241,409.461593 C382.55305,409.237409 383.107644,409.125317 383.698022,409.125317 C384.288401,409.125317 384.842994,409.237409 385.361804,409.461593 C385.880626,409.685789 386.336826,409.997835 386.730403,410.397732 C387.123993,410.797642 387.431108,411.261167 387.651748,411.788308 C387.872401,412.315461 387.982728,412.878966 387.982728,413.478824 C387.982728,414.078682 387.872401,414.642182 387.651748,415.169322 C387.431108,415.696469 387.123993,416.159995 386.730403,416.559899 C386.336826,416.959803 385.880626,417.271849 385.361804,417.496037 C384.842994,417.720226 384.288401,417.83232 383.698022,417.83232 Z M401.310863,419.259259 C402.098115,419.259259 402.834622,419.109295 403.520384,418.809366 C404.206146,418.509434 404.809958,418.09438 405.331821,417.564203 C405.853562,417.034027 406.262027,416.420538 406.557216,415.723736 C406.852405,415.026935 407,414.278631 407,413.478824 C407,412.679018 406.852405,411.929195 406.557216,411.229356 C406.262027,410.52953 405.853562,409.91604 405.331821,409.388887 C404.809958,408.861747 404.206146,408.448212 403.520384,408.148283 C402.834622,407.848354 402.098115,407.698389 401.310863,407.698389 C400.523732,407.698389 399.78576,407.848354 399.096945,408.148283 C398.408251,408.448212 397.801508,408.861747 397.276714,409.388887 C396.75192,409.91604 396.341928,410.52953 396.046739,411.229356 C395.75155,411.929195 395.603955,412.679018 395.603955,413.478824 C395.603955,414.278631 395.75155,415.028449 396.046739,415.728279 C396.341928,416.428112 396.75192,417.043116 397.276714,417.573292 C397.801508,418.103468 398.408251,418.517006 399.096945,418.813907 C399.78576,419.110809 400.523732,419.259259 401.310863,419.259259 Z M401.310863,417.83232 C400.517748,417.83232 399.796202,417.638427 399.146224,417.250642 C398.496246,416.862856 397.978902,416.33874 397.594192,415.678292 C397.209603,415.017843 397.017309,414.284687 397.017309,413.478824 C397.017309,412.878966 397.129119,412.315461 397.35274,411.788308 C397.576361,411.261167 397.883457,410.797642 398.27403,410.397732 C398.664603,409.997835 399.120821,409.685789 399.642684,409.461593 C400.164425,409.237409 400.720484,409.125317 401.310863,409.125317 C401.901241,409.125317 402.455835,409.238929 402.974644,409.466153 C403.493454,409.693364 403.948207,410.006925 404.338902,410.406834 C404.729475,410.806732 405.036571,411.268743 405.260192,411.792868 C405.483813,412.316981 405.595623,412.878966 405.595623,413.478824 C405.595623,414.078682 405.483813,414.642182 405.260192,415.169322 C405.036571,415.696469 404.729475,416.159995 404.338902,416.559899 C403.948207,416.959803 403.493454,417.271849 402.974644,417.496037 C402.455835,417.720226 401.901241,417.83232 401.310863,417.83232 Z M393.251376,401.708904 C393.251376,401.902809 393.319959,402.067925 393.457123,402.204252 C393.594276,402.340579 393.758266,402.408742 393.949095,402.408742 L396.265841,402.408742 C396.319578,402.408742 396.358354,402.429949 396.38217,402.472364 L400.640001,413.742395 L401.937025,413.287959 L397.482442,401.608929 C397.327337,401.202976 397.002348,401 396.507476,401 L393.949095,401 C393.758266,401 393.594276,401.068163 393.457123,401.20449 C393.319959,401.340817 393.251376,401.508955 393.251376,401.708904 Z M398.84212,407.225768 L398.84212,405.917 L389.351327,407.334845 L389.351327,408.643613 L398.84212,407.225768 Z M391.50708,414.305888 L391.50708,412.99712 L383.787477,412.99712 L383.787477,414.305888 L391.50708,414.305888 Z M392.491042,415.414718 C392.836927,415.414718 393.151498,415.328375 393.434755,415.15569 C393.718012,414.983004 393.944619,414.754269 394.114576,414.469484 C394.284581,414.184706 394.369584,413.866604 394.369584,413.515177 C394.369584,413.16375 394.284581,412.844127 394.114576,412.55631 C393.944619,412.268504 393.718012,412.039773 393.434755,411.870115 C393.151498,411.700457 392.836927,411.615628 392.491042,411.615628 C392.145169,411.615628 391.830604,411.700457 391.547347,411.870115 C391.264077,412.039773 391.037465,412.268504 390.867508,412.55631 C390.697551,412.844127 390.612573,413.16375 390.612573,413.515177 C390.606613,413.860548 390.687121,414.177137 390.854098,414.464942 C391.021075,414.752755 391.247681,414.983004 391.533918,415.15569 C391.820167,415.328375 392.139209,415.414718 392.491042,415.414718 Z M392.5,414.169561 C392.315131,414.169561 392.160081,414.105939 392.034848,413.978696 C391.909616,413.851452 391.847,413.699974 391.847,413.52426 C391.847,413.342491 391.909616,413.186471 392.034848,413.0562 C392.160081,412.925929 392.315131,412.860793 392.5,412.860793 C392.678897,412.860793 392.829471,412.924415 392.951724,413.051658 C393.073976,413.178889 393.135102,413.336423 393.135102,413.52426 C393.135102,413.699974 393.073976,413.851452 392.951724,413.978696 C392.829471,414.105939 392.678897,414.169561 392.5,414.169561 Z M383.698022,414.660349 C384.020043,414.660349 384.29585,414.545229 384.525443,414.31499 C384.755036,414.084738 384.869833,413.806016 384.869833,413.478824 C384.869833,413.145564 384.756526,412.863815 384.529913,412.633575 C384.3033,412.403323 384.026003,412.288198 383.698022,412.288198 C383.370029,412.288198 383.094222,412.401803 382.870601,412.629015 C382.646969,412.856239 382.535152,413.139509 382.535152,413.478824 C382.529192,413.806016 382.639519,414.084738 382.866131,414.31499 C383.092732,414.545229 383.370029,414.660349 383.698022,414.660349 Z M401.310863,414.669451 C401.63292,414.669451 401.907225,414.552811 402.133777,414.319532 C402.360451,414.086252 402.473788,413.806016 402.473788,413.478824 C402.473788,413.145564 402.361978,412.865328 402.138357,412.638117 C401.914736,412.410893 401.638905,412.297281 401.310863,412.297281 C400.988927,412.297281 400.714622,412.409379 400.487948,412.633575 C400.261396,412.857759 400.145128,413.139509 400.139144,413.478824 C400.13316,413.806016 400.24497,414.086252 400.474575,414.319532 C400.70418,414.552811 400.982943,414.669451 401.310863,414.669451 Z M392.186919,412.088249 L393.340831,412.751716 L398.904589,406.689544 L397.28569,406.635006 L392.186919,412.088249 Z M383.170254,413.024389 L384.315226,413.687856 L389.63757,408.161908 L388.510478,407.389364 L383.170254,413.024389 Z M391.247675,412.933498 L392.392647,412.097333 L388.447861,404.499156 L387.106101,404.789995 L391.247675,412.933498 Z M385.43336,404.317374 C385.43336,404.511267 385.500453,404.676383 385.634637,404.812723 C385.76881,404.94905 385.93429,405.017213 386.131079,405.017213 L389.64651,405.017213 C389.843298,405.017213 390.008785,404.94905 390.14297,404.812723 C390.277142,404.676383 390.344228,404.511267 390.344228,404.317374 C390.344228,404.123482 390.275646,403.956858 390.138481,403.817503 C390.001329,403.678136 389.837338,403.608452 389.64651,403.608452 L386.131079,403.608452 C385.94025,403.608452 385.77626,403.678136 385.639107,403.817503 C385.501943,403.956858 385.43336,404.123482 385.43336,404.317374 Z" transform="translate(-378 -401)"/>
</svg>
