<svg xmlns="http://www.w3.org/2000/svg" width="27" height="33"><path fill="gray" d="M5.305 33c.733 0 1.419-.14 2.057-.419.639-.28 1.2-.666 1.687-1.16a5.436 5.436 0 0 0 1.14-1.717 5.311 5.311 0 0 0 .413-2.086 5.38 5.38 0 0 0-1.545-3.812 5.283 5.283 0 0 0-1.69-1.155 5.15 5.15 0 0 0-2.062-.415c-.733 0-1.42.139-2.061.415a5.283 5.283 0 0 0-1.69 1.155 5.436 5.436 0 0 0-1.142 1.718A5.333 5.333 0 0 0 0 27.618c0 .745.137 1.442.412 2.09a5.45 5.45 0 0 0 1.141 1.714c.486.493 1.05.88 1.69 1.16.642.278 1.33.418 2.062.418zm0-1.329a3.854 3.854 0 0 1-1.553-.313 4.04 4.04 0 0 1-2.128-2.157 4.056 4.056 0 0 1-.308-1.583 4.025 4.025 0 0 1 1.166-2.868 3.993 3.993 0 0 1 1.274-.872c.483-.209 1-.313 1.55-.313.549 0 1.065.104 1.548.313.483.209.908.5 1.274.872a4.064 4.064 0 0 1 1.166 2.868 4.064 4.064 0 0 1-1.166 2.869 3.993 3.993 0 0 1-1.274.871c-.483.21-1 .313-1.549.313zM21.703 33c.733 0 1.419-.14 2.057-.419.639-.28 1.201-.666 1.687-1.16a5.45 5.45 0 0 0 1.14-1.713 5.302 5.302 0 0 0 .413-2.09c0-.744-.137-1.443-.412-2.094a5.387 5.387 0 0 0-2.828-2.869 5.077 5.077 0 0 0-2.057-.419c-.733 0-1.42.14-2.061.42a5.426 5.426 0 0 0-1.695 1.154 5.352 5.352 0 0 0-1.557 3.808c0 .745.137 1.443.412 2.095a5.401 5.401 0 0 0 2.84 2.872 5.151 5.151 0 0 0 2.061.415zm0-1.329c-.738 0-1.41-.18-2.015-.541a4.05 4.05 0 0 1-1.982-3.512c0-.558.104-1.083.312-1.574a4.16 4.16 0 0 1 .858-1.294 3.932 3.932 0 0 1 2.827-1.185c.55 0 1.066.106 1.55.317.482.212.906.504 1.27.876.363.372.649.803.857 1.29.208.488.312 1.012.312 1.57 0 .559-.104 1.083-.312 1.574a4.16 4.16 0 0 1-.858 1.295 3.946 3.946 0 0 1-1.27.871c-.483.21-1 .313-1.549.313zM14.2 16.66c0 .18.063.334.191.461s.28.19.458.19h2.157c.05 0 .086.02.108.06l3.965 10.493 1.207-.423-4.147-10.874c-.145-.378-.447-.567-.908-.567H14.85a.627.627 0 0 0-.458.19.636.636 0 0 0-.191.47zm5.205 5.136v-1.218l-8.837 1.32v1.218l8.837-1.32zm-6.83 6.592V27.17H5.389v1.218h7.188zm.917 1.033c.322 0 .615-.08.878-.242.264-.16.475-.373.633-.638a1.7 1.7 0 0 0 .238-.889c0-.327-.08-.625-.238-.893a1.798 1.798 0 0 0-.633-.639 1.677 1.677 0 0 0-.878-.236c-.322 0-.615.078-.879.236-.264.158-.475.371-.633.64a1.723 1.723 0 0 0-.237.892c-.006.322.07.616.225.884s.366.483.633.643c.266.161.563.242.89.242zm.008-1.16a.583.583 0 0 1-.433-.177.582.582 0 0 1-.175-.423c0-.17.058-.315.175-.436a.577.577 0 0 1 .433-.182.56.56 0 0 1 .42.178.61.61 0 0 1 .171.44.59.59 0 0 1-.17.423.56.56 0 0 1-.421.177zm-8.195.457c.3 0 .557-.107.77-.321.214-.215.321-.474.321-.779 0-.31-.105-.572-.316-.787a1.045 1.045 0 0 0-.775-.321c-.305 0-.562.105-.77.317a1.083 1.083 0 0 0-.313.791 1.04 1.04 0 0 0 .309.779c.21.214.469.321.774.321zm16.398.009c.3 0 .555-.109.766-.326.211-.217.317-.478.317-.783 0-.31-.104-.571-.312-.783a1.038 1.038 0 0 0-.77-.317c-.3 0-.556.105-.767.313a1.09 1.09 0 0 0-.325.787c-.005.305.099.566.313.783.213.217.473.326.778.326zm-8.494-2.403 1.074.617 5.18-5.644-1.507-.05-4.747 5.077zm-8.395.871 1.066.618 4.955-5.145-1.05-.72-4.971 5.247zm7.52-.085 1.066-.778-3.673-7.074-1.249.27 3.856 7.582zM6.921 19.09c0 .18.062.334.187.46.125.128.28.191.462.191h3.273a.623.623 0 0 0 .463-.19.633.633 0 0 0 .187-.461.64.64 0 0 0-.192-.466.62.62 0 0 0-.458-.194H7.57a.62.62 0 0 0-.458.194.64.64 0 0 0-.191.466zm7.624-14.544A4.545 4.545 0 0 0 10 0H0v20h3.636v-8.182H10a4.545 4.545 0 0 0 4.545-4.545V4.545zM8.182 9.091H3.636V2.727h4.546a2.728 2.728 0 0 1 2.727 2.728v.909A2.727 2.727 0 0 1 8.182 9.09z"/></svg>