<svg width="26" height="32" xmlns="http://www.w3.org/2000/svg"><path d="M23 27H3a3 3 0 0 1-3-3v-8L1 3a3 3 0 0 1 3-3h18a3 3 0 0 1 3 3l1 13v8c0 1.656-1.344 3-3 3ZM4 24a2 2 0 1 0-.001-4.001A2 2 0 0 0 4 24ZM20 2H6a1 1 0 1 0 0 2h14a1 1 0 1 0 0-2Zm3 4c0-1.104-.896-1-2-1H5c-1.104 0-2-.104-2 1l-1 8c0 1.104.896 3 2 3h18c1.104 0 2-1.896 2-3l-1-8Zm-1 14a2 2 0 1 0 .001 4.001A2 2 0 0 0 22 20ZM3 28h2a1 1 0 0 1 1 1v2a1 1 0 0 1-1 1H3a1 1 0 0 1-1-1v-2a1 1 0 0 1 1-1Zm18 0h2a1 1 0 0 1 1 1v2a1 1 0 0 1-1 1h-2a1 1 0 0 1-1-1v-2a1 1 0 0 1 1-1Z" fill="#888" fill-rule="evenodd"/></svg>