<svg width="29" height="32" xmlns="http://www.w3.org/2000/svg"><path d="M23.865 24.937c-.855 1.752-2.133 3.182-3.689 4.063H28v1a2 2 0 0 1-2 2H2a2 2 0 0 1-2-2v-1h7.824C4.972 27.383 3 23.967 3 20v-6h22v2.051c2.246.252 4 2.135 4 4.449 0 3.444-3.82 4.265-5.135 4.437Zm1.137-6.774c.04.323 0 1.052 0 2.35 0 1.297.01 1.41 0 2.349-.006.52 2.029-.464 1.998-2.35-.005-2.178-2.064-2.865-1.998-2.349ZM20.169 5.751c.79 2.075.88 3.775.206 5.249l-1.903-.561c.5-1.123.425-2.465-.25-4.24-.654-1.72.288-2.914.87-4.199L21 2.562c-.44.985-1.348 1.835-.83 3.19ZM14.375 12l-1.904-.686c.502-1.373.427-3.012-.249-5.183-.654-2.101.288-4.56.87-6.131L15 .688c-.44 1.204-1.347 3.241-.83 4.897.788 2.537.879 4.615.205 6.415ZM8.169 5.751c.79 2.075.879 3.775.206 5.249l-1.904-.561c.502-1.123.426-2.465-.249-4.24-.654-1.72.288-2.914.87-4.199L9 2.562c-.44.985-1.347 1.835-.83 3.19Z" fill="#888" fill-rule="evenodd"/></svg>