<svg width="29" height="34" xmlns="http://www.w3.org/2000/svg"><g fill="#888" fill-rule="evenodd"><path d="M12.947 14H.054s-.121-1.461 0-2.37c.12-.908.153-1.566.73-1.913.576-.351 3.01-1.37 3.01-1.37s.112-.204.457-.548c.34-.343.547-.457.547-.457v-.364s-.252-.402-.365-.729a5.1 5.1 0 0 1-.182-.82s-.266.184-.365-.184c-.1-.365-.312-1.005-.366-1.185-.053-.185-.083-.427 0-.457.084-.03.183 0 .183 0s.207-.954.199-1.524c-.012-.57.24-1.201.476-1.415.24-.214.24-.239.477-.264.187-.02.64-.5 1.646-.381A1.572 1.572 0 0 1 7.75.396s.157-.026.397 0c.24.025.24.05.477.264.24.214.489.846.477 1.415-.012.57.199 1.524.199 1.524s.1-.03.182 0c.083.03.054.272 0 .457-.054.184-.266.82-.365 1.185-.1.364-.365.184-.365.184s-.071.494-.183.82c-.115.327-.365.728-.365.728v.365s.207.113.548.457c.34.343.456.549.456.549s2.43 1.018 3.007 1.369c.576.347.61 1.005.73 1.913.123.917.002 2.374.002 2.374ZM27.947 14H15.054s-.121-1.461 0-2.37c.12-.908.153-1.566.73-1.913.576-.351 3.01-1.37 3.01-1.37s.112-.204.457-.548c.34-.343.547-.457.547-.457v-.364s-.252-.402-.365-.729a5.1 5.1 0 0 1-.182-.82s-.266.184-.365-.184c-.1-.365-.312-1.005-.366-1.185-.053-.185-.083-.427 0-.457.084-.03.183 0 .183 0s.207-.954.199-1.524c-.012-.57.24-1.201.476-1.415.24-.214.24-.239.477-.264.187-.02.64-.5 1.646-.381a1.572 1.572 0 0 1 1.249.377s.157-.026.397 0c.24.025.24.05.477.264.24.214.489.846.477 1.415-.012.57.199 1.524.199 1.524s.1-.03.182 0c.083.03.054.272 0 .457-.054.184-.266.82-.365 1.185-.1.364-.365.184-.365.184s-.071.494-.183.82c-.115.327-.365.728-.365.728v.365s.207.113.548.457c.34.343.456.549.456.549s2.43 1.018 3.007 1.369c.576.347.61 1.005.73 1.913.123.917.002 2.374.002 2.374ZM25.372 20.777l-1.694-2.353a3.444 3.444 0 0 0-1.205-1.048A3.3 3.3 0 0 0 20.946 17H8.05c-.515 0-1.036.12-1.527.376a3.45 3.45 0 0 0-1.205 1.048l-1.693 2.353H.905c-.5 0-.905.423-.905.945 0 .521.406.945.907.945h1.397l-.547.77a4.227 4.227 0 0 0-.85 2.547v7.07c0 .243.09.485.267.669a.886.886 0 0 0 .64.277h1.813a.882.882 0 0 0 .64-.277.963.963 0 0 0 .267-.668v-.945h19.933v.945c0 .242.089.484.266.668a.886.886 0 0 0 .641.277h1.812a.882.882 0 0 0 .641-.277.963.963 0 0 0 .266-.668v-7.07a4.23 4.23 0 0 0-.85-2.547l-.586-.77h1.436c.5 0 .907-.423.907-.945-.002-.523-.41-.946-.91-.946h-2.718ZM18.997 28v2c0 .553-.403 1-.9 1H10.9c-.498 0-.901-.446-.901-1v-3c0-.553.402-1 .9-1H18.1c.497 0 .901.446.901 1v1h-.003Zm6.145 0h-4.284c-.474 0-.858-.446-.858-1s.383-1 .858-1h4.284c.473 0 .858.446.858 1 0 .555-.384 1-.858 1Zm-17 0H3.858C3.384 28 3 27.554 3 27s.383-1 .858-1h4.284c.473 0 .858.446.858 1 0 .555-.384 1-.858 1ZM5.14 22.803l2.38-3.332c.1-.14.238-.261.409-.346.17-.085.354-.125.535-.125h13.074c.181 0 .365.04.535.125.17.085.31.206.409.346l2.38 3.332a.72.72 0 0 1 .039.79.83.83 0 0 1-.726.407H5.823a.832.832 0 0 1-.725-.407.725.725 0 0 1 .04-.79Z"/></g></svg>