<?xml version="1.0" encoding="UTF-8" standalone="no"?>
<svg width="29px" height="34px" viewBox="0 0 29 34" version="1.1" xmlns="http://www.w3.org/2000/svg" xmlns:xlink="http://www.w3.org/1999/xlink" xmlns:sketch="http://www.bohemiancoding.com/sketch/ns">
    <!-- Generator: Sketch 3.2.2 (9983) - http://www.bohemiancoding.com/sketch -->
    <title>car_rental</title>
    <desc>Created with Sketch.</desc>
    <defs></defs>
    <g id="p" stroke="none" stroke-width="1" fill="none" fill-rule="evenodd" sketch:type="MSPage">
        <g id="car_rental" sketch:type="MSLayerGroup" fill="#888888">
            <path d="M22.7393898,0 L20.1573127,0 C16.7786162,0 15.8086034,2.94020319 14.6225918,3.71335269 C12.3199259,3.88301887 12.1950826,3.53251089 11.1943543,4.45297533 L10.4066524,5.11843251 C9.87953612,5.56545718 8.39826012,4.65616836 7.61452145,4.7222061 L2.81697068,4.7222061 C1.77462797,4.73134978 -0.0128114264,6.41480406 6.92344436e-05,7.1605225 C0.0109682552,7.71523948 1.05529261,8.36240929 1.87668244,9.02278665 C2.65943029,9.65268505 3.38173812,9.35805515 4.22096272,9.01059507 C5.47732256,8.4934688 5.31978217,9.4586357 6.50579379,9.4586357 L8.34970993,9.4586357 C8.93429377,9.4586357 9.57535436,8.70275762 10.0053703,8.70275762 C10.8267601,8.55341074 11.5233066,10.2165457 12.7182356,10.2165457 L14.6225918,10.2165457 C16.2871695,11.3584906 17.6287399,14 20.1573127,14 L22.7403806,14 C26.6937526,14 28.9488591,10.236865 28.9993909,6.89332366 C29.0419962,4.04557329 26.8483206,0 22.7393898,0 L22.7393898,0 L22.7393898,0 Z M25,7.5 C25,8.88012295 23.880123,10 22.5,10 C21.119877,10 20,8.88114754 20,7.5 C20,6.11987705 21.119877,5 22.5,5 C23.880123,5.00204918 25,6.11987705 25,7.5 L25,7.5 L25,7.5 Z" id="Shape" sketch:type="MSShapeGroup"></path>
            <g id="car" transform="translate(0.000000, 17.000000)" sketch:type="MSShapeGroup">
                <path d="M25.3723954,3.77720333 L23.6776611,1.4238185 C23.3700688,0.995742351 22.9642454,0.632808223 22.47309,0.376376133 C21.9819345,0.120978043 21.4600198,0 20.946043,0 L15.4044206,0 L14.4985117,0 L13.5916105,0 L8.04998802,0 C7.53501899,0 7.01409655,0.119944042 6.52294112,0.376376133 C6.03277791,0.631774223 5.62794676,0.994708351 5.31837,1.4238185 L3.62462791,3.77720333 L0.90590892,3.77720333 C0.405823382,3.77720333 0,4.20010948 0,4.72227967 C0,5.24341585 0.405823382,5.667356 0.906901153,5.667356 L2.30396551,5.667356 L1.75724501,6.43768627 C1.49132651,6.7882124 1.27402744,7.18940454 1.12618469,7.6360927 C0.976357478,8.08278085 0.907893386,8.53670701 0.907893386,8.98442917 L0.907893386,16.0549237 C0.907893386,16.2968798 0.996202142,16.5388358 1.17381189,16.7228879 C1.3504294,16.90694 1.58261197,17 1.81479454,17 L3.62661238,17 C3.85879495,17 4.09097752,16.907974 4.26759503,16.7228879 C4.44421254,16.5388358 4.53351353,16.2968798 4.53351353,16.0549237 L4.53351353,15.1098473 L13.5945872,15.1098473 L15.406405,15.1098473 L24.4674787,15.1098473 L24.4674787,16.0549237 C24.4674787,16.2968798 24.5557875,16.5388358 24.7333972,16.7228879 C24.9100147,16.90694 25.1421973,17 25.3743799,17 L27.1861977,17 C27.4183803,17 27.6505628,16.907974 27.8271803,16.7228879 C28.0037979,16.5388358 28.0930988,16.2968798 28.0930988,16.0549237 L28.0930988,8.98442917 C28.0930988,8.53670701 28.0226503,8.08278085 27.8728231,7.6360927 C27.7229959,7.18940454 27.5086735,6.7882124 27.242755,6.43768627 L26.6573374,5.66839 L28.0930988,5.66839 C28.5931844,5.66839 29,5.24548385 29,4.72331367 C28.9980155,4.20010948 28.5902077,3.77720333 28.0901221,3.77720333 L25.3723954,3.77720333 Z M18.997044,11 L18.997044,12 L18.997044,13 C18.997044,13.5525164 18.5940442,14 18.0964528,14 L17.1958616,14 L15.3976352,14 L13.5984235,14 L11.7992117,14 L10.9005912,14 C10.4029998,14 10,13.5536105 10,13 L10,12 L10,11 L10,10 C10,9.44748359 10.4020145,9 10.9005912,9 L11.8011824,9 L13.6003941,9 L15.3996059,9 L17.1988176,9 L18.0994088,9 C18.5960149,9 19,9.4463895 19,10 L19,11 L18.997044,11 L18.997044,11 Z M25.1423209,11 L20.8576791,11 C20.3837973,11 20,10.5536105 20,10 C20,9.4463895 20.3828589,9 20.8576791,9 L25.1423209,9 C25.6152643,9 26,9.4463895 26,10 C26,10.5547046 25.6162027,11 25.1423209,11 L25.1423209,11 Z M8.14232093,11 L3.85767907,11 C3.38379731,11 3,10.5536105 3,10 C3,9.4463895 3.38285893,9 3.85767907,9 L8.14232093,9 C8.61526431,9 9,9.4463895 9,10 C9,10.5547046 8.61620269,11 8.14232093,11 L8.14232093,11 Z M5.13886953,5.80313811 L7.5198852,2.47071702 C7.61962385,2.33023171 7.75749786,2.20981573 7.92764025,2.12497719 C8.09876047,2.04013866 8.28161466,2 8.46251318,2 L14.1075249,2 L15.0002835,2 L15.89402,2 L21.5370761,2 C21.7179746,2 21.9018066,2.03922642 22.071949,2.12497719 C22.2420914,2.20981573 22.381921,2.33114395 22.4806819,2.47071702 L24.8616975,5.80313811 C25.025973,6.03211093 25.0504187,6.33497537 24.8998329,6.59313994 C24.7521806,6.85221675 24.4686099,7 24.1742832,7 L15.8930422,7 L15.0002835,7 L14.1065471,7 L5.82335042,7 C5.53000147,7 5.24545298,6.85221675 5.09780067,6.59313994 C4.94917054,6.33406313 4.97557194,6.03211093 5.13886953,5.80313811 L5.13886953,5.80313811 Z"></path>
            </g>
        </g>
    </g>
</svg>