<?xml version="1.0" encoding="UTF-8" standalone="no"?>
<svg width="29px" height="32px" viewBox="0 0 29 32" version="1.1" xmlns="http://www.w3.org/2000/svg" xmlns:xlink="http://www.w3.org/1999/xlink" xmlns:sketch="http://www.bohemiancoding.com/sketch/ns">
    <!-- Generator: Sketch 3.2.2 (9983) - http://www.bohemiancoding.com/sketch -->
    <title>carservice</title>
    <desc>Created with Sketch.</desc>
    <defs></defs>
    <g id="p" stroke="none" stroke-width="1" fill="none" fill-rule="evenodd" sketch:type="MSPage">
        <g id="carservice" sketch:type="MSLayerGroup" fill="#888888">
            <path d="M2.96814164e-16,1.99979415 C0.881372793,0.791477974 2.28898284,0 3.86570505,0 C5.44143248,0 7.7314101,1.00041169 8.69833375,3.00020585 L13.5309624,3.00020585 L15.4690376,3.00020585 L20.3016663,3.00020585 C21.2685899,1.00041169 23.5575727,0 25.134295,0 C26.7100224,0 28.1176324,0.791477974 29,1.99979415 L25.134295,1.99979415 L23.2014424,3.99958831 L23.2014424,6.00041169 L25.134295,8.00020585 L29,8.00020585 C28.1176324,9.20852203 26.7090276,10 25.134295,10 C23.5575727,10 21.2685899,8.99958831 20.3016663,6.99979415 L15.4690376,6.99979415 L13.5309624,6.99979415 L8.69833375,6.99979415 C7.7314101,8.99958831 5.44143248,10 3.86570505,10 C2.28898284,10 0.881372793,9.20852203 0,8.00020585 L3.86570505,8.00020585 L5.79855757,6.00041169 L5.79855757,3.99958831 L3.86570505,1.99979415 L2.96814164e-16,1.99979415 Z" id="Shape" sketch:type="MSShapeGroup"></path>
            <g id="car" transform="translate(0.000000, 15.000000)" sketch:type="MSShapeGroup">
                <path d="M25.3723954,3.77720333 L23.6776611,1.4238185 C23.3700688,0.995742351 22.9642454,0.632808223 22.47309,0.376376133 C21.9819345,0.120978043 21.4600198,0 20.946043,0 L15.4044206,0 L14.4985117,0 L13.5916105,0 L8.04998802,0 C7.53501899,0 7.01409655,0.119944042 6.52294112,0.376376133 C6.03277791,0.631774223 5.62794676,0.994708351 5.31837,1.4238185 L3.62462791,3.77720333 L0.90590892,3.77720333 C0.405823382,3.77720333 0,4.20010948 0,4.72227967 C0,5.24341585 0.405823382,5.667356 0.906901153,5.667356 L2.30396551,5.667356 L1.75724501,6.43768627 C1.49132651,6.7882124 1.27402744,7.18940454 1.12618469,7.6360927 C0.976357478,8.08278085 0.907893386,8.53670701 0.907893386,8.98442917 L0.907893386,16.0549237 C0.907893386,16.2968798 0.996202142,16.5388358 1.17381189,16.7228879 C1.3504294,16.90694 1.58261197,17 1.81479454,17 L3.62661238,17 C3.85879495,17 4.09097752,16.907974 4.26759503,16.7228879 C4.44421254,16.5388358 4.53351353,16.2968798 4.53351353,16.0549237 L4.53351353,15.1098473 L13.5945872,15.1098473 L15.406405,15.1098473 L24.4674787,15.1098473 L24.4674787,16.0549237 C24.4674787,16.2968798 24.5557875,16.5388358 24.7333972,16.7228879 C24.9100147,16.90694 25.1421973,17 25.3743799,17 L27.1861977,17 C27.4183803,17 27.6505628,16.907974 27.8271803,16.7228879 C28.0037979,16.5388358 28.0930988,16.2968798 28.0930988,16.0549237 L28.0930988,8.98442917 C28.0930988,8.53670701 28.0226503,8.08278085 27.8728231,7.6360927 C27.7229959,7.18940454 27.5086735,6.7882124 27.242755,6.43768627 L26.6573374,5.66839 L28.0930988,5.66839 C28.5931844,5.66839 29,5.24548385 29,4.72331367 C28.9980155,4.20010948 28.5902077,3.77720333 28.0901221,3.77720333 L25.3723954,3.77720333 Z M18.997044,11 L18.997044,12 L18.997044,13 C18.997044,13.5525164 18.5940442,14 18.0964528,14 L17.1958616,14 L15.3976352,14 L13.5984235,14 L11.7992117,14 L10.9005912,14 C10.4029998,14 10,13.5536105 10,13 L10,12 L10,11 L10,10 C10,9.44748359 10.4020145,9 10.9005912,9 L11.8011824,9 L13.6003941,9 L15.3996059,9 L17.1988176,9 L18.0994088,9 C18.5960149,9 19,9.4463895 19,10 L19,11 L18.997044,11 L18.997044,11 Z M25.1423209,11 L20.8576791,11 C20.3837973,11 20,10.5536105 20,10 C20,9.4463895 20.3828589,9 20.8576791,9 L25.1423209,9 C25.6152643,9 26,9.4463895 26,10 C26,10.5547046 25.6162027,11 25.1423209,11 L25.1423209,11 Z M8.14232093,11 L3.85767907,11 C3.38379731,11 3,10.5536105 3,10 C3,9.4463895 3.38285893,9 3.85767907,9 L8.14232093,9 C8.61526431,9 9,9.4463895 9,10 C9,10.5547046 8.61620269,11 8.14232093,11 L8.14232093,11 Z M5.13886953,5.80313811 L7.5198852,2.47071702 C7.61962385,2.33023171 7.75749786,2.20981573 7.92764025,2.12497719 C8.09876047,2.04013866 8.28161466,2 8.46251318,2 L14.1075249,2 L15.0002835,2 L15.89402,2 L21.5370761,2 C21.7179746,2 21.9018066,2.03922642 22.071949,2.12497719 C22.2420914,2.20981573 22.381921,2.33114395 22.4806819,2.47071702 L24.8616975,5.80313811 C25.025973,6.03211093 25.0504187,6.33497537 24.8998329,6.59313994 C24.7521806,6.85221675 24.4686099,7 24.1742832,7 L15.8930422,7 L15.0002835,7 L14.1065471,7 L5.82335042,7 C5.53000147,7 5.24545298,6.85221675 5.09780067,6.59313994 C4.94917054,6.33406313 4.97557194,6.03211093 5.13886953,5.80313811 L5.13886953,5.80313811 Z"></path>
            </g>
        </g>
    </g>
</svg>