<svg width="29" height="34" xmlns="http://www.w3.org/2000/svg"><g fill="#888" fill-rule="evenodd"><path d="M22.74 0h-2.583c-3.378 0-4.348 2.94-5.534 3.713-2.303.17-2.428-.18-3.429.74l-.787.665c-.527.447-2.009-.462-2.792-.396H2.817C1.775 4.732-.013 6.415 0 7.161c.011.554 1.055 1.201 1.877 1.862.782.63 1.505.335 2.344-.012 1.256-.518 1.099.448 2.285.448H8.35c.584 0 1.225-.756 1.655-.756.822-.15 1.518 1.514 2.713 1.514h1.905C16.287 11.358 17.629 14 20.157 14h2.583c3.954 0 6.209-3.763 6.26-7.107C29.041 4.046 26.847 0 22.74 0ZM25 7.5a2.5 2.5 0 1 1-5.002-.002A2.5 2.5 0 0 1 25 7.5ZM25.372 20.777l-1.694-2.353a3.444 3.444 0 0 0-1.205-1.048A3.3 3.3 0 0 0 20.946 17H8.05c-.515 0-1.036.12-1.527.376a3.45 3.45 0 0 0-1.205 1.048l-1.693 2.353H.905c-.5 0-.905.423-.905.945 0 .521.406.945.907.945h1.397l-.547.77a4.227 4.227 0 0 0-.85 2.547v7.07c0 .243.09.485.267.669a.886.886 0 0 0 .64.277h1.813a.882.882 0 0 0 .64-.277.963.963 0 0 0 .267-.668v-.945h19.933v.945c0 .242.089.484.266.668a.886.886 0 0 0 .641.277h1.812a.882.882 0 0 0 .641-.277.963.963 0 0 0 .266-.668v-7.07a4.23 4.23 0 0 0-.85-2.547l-.586-.77h1.436c.5 0 .907-.423.907-.945-.002-.523-.41-.946-.91-.946h-2.718ZM18.997 28v2c0 .553-.403 1-.9 1H10.9c-.498 0-.901-.446-.901-1v-3c0-.553.402-1 .9-1H18.1c.497 0 .901.446.901 1v1h-.003Zm6.145 0h-4.284c-.474 0-.858-.446-.858-1s.383-1 .858-1h4.284c.473 0 .858.446.858 1 0 .555-.384 1-.858 1Zm-17 0H3.858C3.384 28 3 27.554 3 27s.383-1 .858-1h4.284c.473 0 .858.446.858 1 0 .555-.384 1-.858 1ZM5.14 22.803l2.38-3.332c.1-.14.238-.261.409-.346.17-.085.354-.125.535-.125h13.074c.181 0 .365.04.535.125.17.085.31.206.409.346l2.38 3.332a.72.72 0 0 1 .039.79.83.83 0 0 1-.726.407H5.823a.832.832 0 0 1-.725-.407.725.725 0 0 1 .04-.79Z"/></g></svg>