<?xml version="1.0" encoding="UTF-8" standalone="no"?>
<svg width="29px" height="34px" viewBox="0 0 29 34" version="1.1" xmlns="http://www.w3.org/2000/svg" xmlns:xlink="http://www.w3.org/1999/xlink" xmlns:sketch="http://www.bohemiancoding.com/sketch/ns">
    <!-- Generator: Sketch 3.2.2 (9983) - http://www.bohemiancoding.com/sketch -->
    <title>car_sharing</title>
    <desc>Created with Sketch.</desc>
    <defs></defs>
    <g id="p" stroke="none" stroke-width="1" fill="none" fill-rule="evenodd" sketch:type="MSPage">
        <g id="car_sharing" sketch:type="MSLayerGroup" fill="#888888">
            <path d="M12.9469528,14 L6.50232654,14 L0.0536432361,14 C0.0536432361,14 -0.0670540451,12.5385723 0.0536432361,11.6301725 C0.174340517,10.7217728 0.206796929,10.064284 0.7839125,9.71710526 C1.36001381,9.36583006 3.79424469,8.34784887 3.79424469,8.34784887 C3.79424469,8.34784887 3.9058136,8.14302368 4.25066298,7.79891736 C4.59044104,7.45583516 4.79836493,7.34215718 4.79836493,7.34215718 L4.79836493,6.97756834 C4.79836493,6.97756834 4.54581347,6.57611097 4.43323029,6.24941479 C4.31760433,5.92271861 4.25066298,5.4290899 4.25066298,5.4290899 C4.25066298,5.4290899 3.98492611,5.61343257 3.88552835,5.24474723 C3.78613058,4.88015839 3.57414965,4.24007967 3.52039371,4.0598335 C3.46663778,3.87549083 3.43722416,3.63277298 3.52039371,3.60307333 C3.60356327,3.57337367 3.70296103,3.60307333 3.70296103,3.60307333 C3.70296103,3.60307333 3.90987065,2.64858794 3.90175655,2.07917391 C3.8895854,1.50975988 4.14213685,0.877874165 4.3784601,0.663831841 C4.6188404,0.449789517 4.6188404,0.425210494 4.85516365,0.399607345 C5.04178801,0.379124826 5.49414925,-0.0991419938 6.50131228,0.0186324908 C7.28533747,-0.073538845 7.74986987,0.395510841 7.74986987,0.395510841 C7.74986987,0.395510841 7.90708061,0.369907693 8.14746091,0.395510841 C8.38784121,0.42111399 8.38784121,0.445693013 8.62416446,0.659735337 C8.86454476,0.873777661 9.11303916,1.50566337 9.10086801,2.0750774 C9.08869685,2.64449143 9.29966353,3.59897682 9.29966353,3.59897682 C9.29966353,3.59897682 9.39906129,3.56927717 9.48223084,3.59897682 C9.5654004,3.62867647 9.53598678,3.87139433 9.48223084,4.055737 C9.42847491,4.24007967 9.21649397,4.87606189 9.11709621,5.24065072 C9.01769845,5.60523956 8.75196158,5.4249934 8.75196158,5.4249934 C8.75196158,5.4249934 8.68096318,5.91862211 8.56939426,6.24531828 C8.4537683,6.57201446 8.20425963,6.97347184 8.20425963,6.97347184 L8.20425963,7.33806068 C8.20425963,7.33806068 8.41116926,7.45071453 8.75196158,7.79482085 C9.09173964,8.13790305 9.20837987,8.34375236 9.20837987,8.34375236 C9.20837987,8.34375236 11.6385537,9.36173356 12.214655,9.71300876 C12.7907563,10.0601875 12.824227,10.7176763 12.9449243,11.626076 C13.0676501,12.5426688 12.9469528,14 12.9469528,14 L12.9469528,14 Z" id="man" sketch:type="MSShapeGroup"></path>
            <path d="M27.9469528,14 L21.5023265,14 L15.0536432,14 C15.0536432,14 14.932946,12.5385723 15.0536432,11.6301725 C15.1743405,10.7217728 15.2067969,10.064284 15.7839125,9.71710526 C16.3600138,9.36583006 18.7942447,8.34784887 18.7942447,8.34784887 C18.7942447,8.34784887 18.9058136,8.14302368 19.250663,7.79891736 C19.590441,7.45583516 19.7983649,7.34215718 19.7983649,7.34215718 L19.7983649,6.97756834 C19.7983649,6.97756834 19.5458135,6.57611097 19.4332303,6.24941479 C19.3176043,5.92271861 19.250663,5.4290899 19.250663,5.4290899 C19.250663,5.4290899 18.9849261,5.61343257 18.8855283,5.24474723 C18.7861306,4.88015839 18.5741496,4.24007967 18.5203937,4.0598335 C18.4666378,3.87549083 18.4372242,3.63277298 18.5203937,3.60307333 C18.6035633,3.57337367 18.702961,3.60307333 18.702961,3.60307333 C18.702961,3.60307333 18.9098707,2.64858794 18.9017566,2.07917391 C18.8895854,1.50975988 19.1421369,0.877874165 19.3784601,0.663831841 C19.6188404,0.449789517 19.6188404,0.425210494 19.8551636,0.399607345 C20.041788,0.379124826 20.4941493,-0.0991419938 21.5013123,0.0186324908 C22.2853375,-0.073538845 22.7498699,0.395510841 22.7498699,0.395510841 C22.7498699,0.395510841 22.9070806,0.369907693 23.1474609,0.395510841 C23.3878412,0.42111399 23.3878412,0.445693013 23.6241645,0.659735337 C23.8645448,0.873777661 24.1130392,1.50566337 24.100868,2.0750774 C24.0886969,2.64449143 24.2996635,3.59897682 24.2996635,3.59897682 C24.2996635,3.59897682 24.3990613,3.56927717 24.4822308,3.59897682 C24.5654004,3.62867647 24.5359868,3.87139433 24.4822308,4.055737 C24.4284749,4.24007967 24.216494,4.87606189 24.1170962,5.24065072 C24.0176985,5.60523956 23.7519616,5.4249934 23.7519616,5.4249934 C23.7519616,5.4249934 23.6809632,5.91862211 23.5693943,6.24531828 C23.4537683,6.57201446 23.2042596,6.97347184 23.2042596,6.97347184 L23.2042596,7.33806068 C23.2042596,7.33806068 23.4111693,7.45071453 23.7519616,7.79482085 C24.0917396,8.13790305 24.2083799,8.34375236 24.2083799,8.34375236 C24.2083799,8.34375236 26.6385537,9.36173356 27.214655,9.71300876 C27.7907563,10.0601875 27.824227,10.7176763 27.9449243,11.626076 C28.0676501,12.5426688 27.9469528,14 27.9469528,14 L27.9469528,14 Z" id="man-2" sketch:type="MSShapeGroup"></path>
            <g id="car" transform="translate(0.000000, 17.000000)" sketch:type="MSShapeGroup">
                <path d="M25.3723954,3.77720333 L23.6776611,1.4238185 C23.3700688,0.995742351 22.9642454,0.632808223 22.47309,0.376376133 C21.9819345,0.120978043 21.4600198,0 20.946043,0 L15.4044206,0 L14.4985117,0 L13.5916105,0 L8.04998802,0 C7.53501899,0 7.01409655,0.119944042 6.52294112,0.376376133 C6.03277791,0.631774223 5.62794676,0.994708351 5.31837,1.4238185 L3.62462791,3.77720333 L0.90590892,3.77720333 C0.405823382,3.77720333 0,4.20010948 0,4.72227967 C0,5.24341585 0.405823382,5.667356 0.906901153,5.667356 L2.30396551,5.667356 L1.75724501,6.43768627 C1.49132651,6.7882124 1.27402744,7.18940454 1.12618469,7.6360927 C0.976357478,8.08278085 0.907893386,8.53670701 0.907893386,8.98442917 L0.907893386,16.0549237 C0.907893386,16.2968798 0.996202142,16.5388358 1.17381189,16.7228879 C1.3504294,16.90694 1.58261197,17 1.81479454,17 L3.62661238,17 C3.85879495,17 4.09097752,16.907974 4.26759503,16.7228879 C4.44421254,16.5388358 4.53351353,16.2968798 4.53351353,16.0549237 L4.53351353,15.1098473 L13.5945872,15.1098473 L15.406405,15.1098473 L24.4674787,15.1098473 L24.4674787,16.0549237 C24.4674787,16.2968798 24.5557875,16.5388358 24.7333972,16.7228879 C24.9100147,16.90694 25.1421973,17 25.3743799,17 L27.1861977,17 C27.4183803,17 27.6505628,16.907974 27.8271803,16.7228879 C28.0037979,16.5388358 28.0930988,16.2968798 28.0930988,16.0549237 L28.0930988,8.98442917 C28.0930988,8.53670701 28.0226503,8.08278085 27.8728231,7.6360927 C27.7229959,7.18940454 27.5086735,6.7882124 27.242755,6.43768627 L26.6573374,5.66839 L28.0930988,5.66839 C28.5931844,5.66839 29,5.24548385 29,4.72331367 C28.9980155,4.20010948 28.5902077,3.77720333 28.0901221,3.77720333 L25.3723954,3.77720333 Z M18.997044,11 L18.997044,12 L18.997044,13 C18.997044,13.5525164 18.5940442,14 18.0964528,14 L17.1958616,14 L15.3976352,14 L13.5984235,14 L11.7992117,14 L10.9005912,14 C10.4029998,14 10,13.5536105 10,13 L10,12 L10,11 L10,10 C10,9.44748359 10.4020145,9 10.9005912,9 L11.8011824,9 L13.6003941,9 L15.3996059,9 L17.1988176,9 L18.0994088,9 C18.5960149,9 19,9.4463895 19,10 L19,11 L18.997044,11 L18.997044,11 Z M25.1423209,11 L20.8576791,11 C20.3837973,11 20,10.5536105 20,10 C20,9.4463895 20.3828589,9 20.8576791,9 L25.1423209,9 C25.6152643,9 26,9.4463895 26,10 C26,10.5547046 25.6162027,11 25.1423209,11 L25.1423209,11 Z M8.14232093,11 L3.85767907,11 C3.38379731,11 3,10.5536105 3,10 C3,9.4463895 3.38285893,9 3.85767907,9 L8.14232093,9 C8.61526431,9 9,9.4463895 9,10 C9,10.5547046 8.61620269,11 8.14232093,11 L8.14232093,11 Z M5.13886953,5.80313811 L7.5198852,2.47071702 C7.61962385,2.33023171 7.75749786,2.20981573 7.92764025,2.12497719 C8.09876047,2.04013866 8.28161466,2 8.46251318,2 L14.1075249,2 L15.0002835,2 L15.89402,2 L21.5370761,2 C21.7179746,2 21.9018066,2.03922642 22.071949,2.12497719 C22.2420914,2.20981573 22.381921,2.33114395 22.4806819,2.47071702 L24.8616975,5.80313811 C25.025973,6.03211093 25.0504187,6.33497537 24.8998329,6.59313994 C24.7521806,6.85221675 24.4686099,7 24.1742832,7 L15.8930422,7 L15.0002835,7 L14.1065471,7 L5.82335042,7 C5.53000147,7 5.24545298,6.85221675 5.09780067,6.59313994 C4.94917054,6.33406313 4.97557194,6.03211093 5.13886953,5.80313811 L5.13886953,5.80313811 Z"></path>
            </g>
        </g>
    </g>
</svg>