<svg width="33" height="26" xmlns="http://www.w3.org/2000/svg"><path d="M32.307 24.312a2.4 2.4 0 0 1-1.688.692H2.403A2.37 2.37 0 0 1 .022 22.66l-.02-.662a2.353 2.353 0 0 1 1.283-2.104l13.755-7.562c.203-2.539.504-2.929 1.46-3.83.834-.789 1.935-1.781 1.939-3.139.005-1.463-.599-2.674-2.429-2.648-1.779.025-2.383 1-2.43 2.68l.002-.029H10.82c0-2.558 1.635-5.362 5.188-5.362 1.86 0 5.237.749 5.188 5.362-.026 2.512-1.466 3.896-2.437 4.812-.482.455-.66 1.355-.728 2.198l13.666 7.617a2.36 2.36 0 0 1 1.271 2.066l.032.572a2.359 2.359 0 0 1-.693 1.681Zm-15.803-8.935L3.002 22.002h26l-12.498-6.625Z" fill="#888" fill-rule="evenodd"/></svg>