<svg width="21" height="32" xmlns="http://www.w3.org/2000/svg"><path d="M20.98 7.637c-.129 3.045-2.377 5.699-2.81 7.613-.433 1.914.261 3.828.647 5.872.391 2.045.648 5.743.218 8.05C18.602 31.479 17.522 32 17.522 32s-.778-.219-1.082-1.307c-.3-1.087-.3-2.478-.432-4.134-.129-1.651-1.037-4.088-1.943-5.871-.885-1.736-2.258-2.975-3.565-3.04-1.31.066-2.682 1.304-3.565 3.04-.907 1.783-1.815 4.22-1.944 5.871-.13 1.653-.13 3.047-.433 4.134C4.256 31.781 3.478 32 3.478 32s-1.082-.522-1.514-2.827c-.432-2.308-.173-6.006.216-8.05.39-2.045 1.081-3.959.648-5.873C2.396 13.336.15 10.682.02 7.637-.11 4.591.41 2.417 1.532 1.33 2.656.241 3.694-.367 5.64.241 7.256.748 11.87 2.558 13 2.997c1.092.424 3 1 3 1s.302-1.545-3.267-2.769c.783-.3 1.617-.67 2.627-.987 1.945-.608 2.982 0 4.105 1.088 1.127 1.087 1.645 3.262 1.515 6.308Z" fill="#888" fill-rule="evenodd"/></svg>