<svg xmlns="http://www.w3.org/2000/svg" xmlns:xlink="http://www.w3.org/1999/xlink" width="32" height="32" viewBox="0 0 32 32"><defs><rect id="a" width="32" height="32" x="0" y="0"/></defs><g fill="none" fill-rule="evenodd"><mask id="b" fill="#fff"><use xlink:href="#a"/></mask><use xlink:href="#a" fill="#032607"/><g mask="url(#b)"><g transform="translate(19 19.313)"><path fill="#1A5120" d="M3.21412363,4.0625 C4.02939192,4.0625 4.6181968,3.42495438 4.67858705,2.38708942 C4.73897729,1.34922445 4.49741631,0 3.80292851,0 C3.10844071,0 2.066709,1.02303832 1.90063583,2.03125 C1.73456266,3.03946168 2.39885534,4.0625 3.21412363,4.0625 Z"/><path fill="#1A5120" d="M6.65162363,4.0625 C7.46689192,4.0625 8.0556968,3.42495438 8.11608705,2.38708942 C8.17647729,1.34922445 7.93491631,0 7.24042851,0 C6.54594071,0 5.504209,1.02303832 5.33813583,2.03125 C5.17206266,3.03946168 5.83635534,4.0625 6.65162363,4.0625 Z" transform="matrix(-1 0 0 1 13.438 0)"/><path fill="#1A5120" d="M1.47159891,6.40625 C2.10904334,6.40625 2.66907646,5.65441946 2.45266486,4.73718619 C2.23625325,3.81995293 1.51488123,2.8125 1.00992082,2.8125 C0.504960412,2.8125 0,3.51554076 0,4.58682008 C0,5.65809941 0.834154492,6.40625 1.47159891,6.40625 Z"/><path fill="#1A5120" d="M8.97159891,6.40625 C9.60904334,6.40625 10.1690765,5.65441946 9.95266486,4.73718619 C9.73625325,3.81995293 9.01488123,2.8125 8.50992082,2.8125 C8.00496041,2.8125 7.5,3.51554076 7.5,4.58682008 C7.5,5.65809941 8.33415449,6.40625 8.97159891,6.40625 Z" transform="matrix(-1 0 0 1 17.5 0)"/><path fill="#1A5120" d="M3.58384479,9.52665203 C4.28439077,9.52665203 4.40363264,9.27175278 5.05946292,9.27175278 C5.7152932,9.27175278 5.81962983,9.57163425 6.81828049,9.52665203 C7.81693114,9.48166981 8.63671899,8.8069365 8.59200329,7.7873395 C8.54728759,6.7677425 7.42939507,6.21296178 7.08657469,5.77813365 C6.72884909,5.26833515 6.43074441,4.21875 5.07436815,4.21875 C3.71799189,4.21875 3.35612604,5.3949143 2.95782497,5.82311587 C2.55952391,6.25131744 1.45089562,6.88778081 1.57163825,8.08722097 C1.69088012,9.27175278 2.88329881,9.52665203 3.58384479,9.52665203 Z"/></g></g><g mask="url(#b)"><g transform="translate(3 3.313)"><path fill="#1A5120" d="M3.21412363,4.0625 C4.02939192,4.0625 4.6181968,3.42495438 4.67858705,2.38708942 C4.73897729,1.34922445 4.49741631,0 3.80292851,0 C3.10844071,0 2.066709,1.02303832 1.90063583,2.03125 C1.73456266,3.03946168 2.39885534,4.0625 3.21412363,4.0625 Z"/><path fill="#1A5120" d="M6.65162363,4.0625 C7.46689192,4.0625 8.0556968,3.42495438 8.11608705,2.38708942 C8.17647729,1.34922445 7.93491631,0 7.24042851,0 C6.54594071,0 5.504209,1.02303832 5.33813583,2.03125 C5.17206266,3.03946168 5.83635534,4.0625 6.65162363,4.0625 Z" transform="matrix(-1 0 0 1 13.438 0)"/><path fill="#1A5120" d="M1.47159891,6.40625 C2.10904334,6.40625 2.66907646,5.65441946 2.45266486,4.73718619 C2.23625325,3.81995293 1.51488123,2.8125 1.00992082,2.8125 C0.504960412,2.8125 0,3.51554076 0,4.58682008 C0,5.65809941 0.834154492,6.40625 1.47159891,6.40625 Z"/><path fill="#1A5120" d="M8.97159891,6.40625 C9.60904334,6.40625 10.1690765,5.65441946 9.95266486,4.73718619 C9.73625325,3.81995293 9.01488123,2.8125 8.50992082,2.8125 C8.00496041,2.8125 7.5,3.51554076 7.5,4.58682008 C7.5,5.65809941 8.33415449,6.40625 8.97159891,6.40625 Z" transform="matrix(-1 0 0 1 17.5 0)"/><path fill="#1A5120" d="M3.58384479,9.52665203 C4.28439077,9.52665203 4.40363264,9.27175278 5.05946292,9.27175278 C5.7152932,9.27175278 5.81962983,9.57163425 6.81828049,9.52665203 C7.81693114,9.48166981 8.63671899,8.8069365 8.59200329,7.7873395 C8.54728759,6.7677425 7.42939507,6.21296178 7.08657469,5.77813365 C6.72884909,5.26833515 6.43074441,4.21875 5.07436815,4.21875 C3.71799189,4.21875 3.35612604,5.3949143 2.95782497,5.82311587 C2.55952391,6.25131744 1.45089562,6.88778081 1.57163825,8.08722097 C1.69088012,9.27175278 2.88329881,9.52665203 3.58384479,9.52665203 Z"/></g></g></g></svg>