<svg width="25" height="30" xmlns="http://www.w3.org/2000/svg"><g fill="#888" fill-rule="evenodd"><path d="M19.627 5.082c-.548.543-1.288.755-2.108.755-1.041 0-1.989-.434-2.533-1.255-.54.838-1.491 1.255-2.546 1.255-1.041 0-1.98-.443-2.524-1.263-.54.846-1.492 1.263-2.558 1.263-.77 0-1.476-.177-2.007-.66l-.403-2.95a2.996 2.996 0 0 0 2.41 1.228 3.018 3.018 0 0 0 2.558-1.38c.544.82 1.483 1.38 2.524 1.38a3.024 3.024 0 0 0 2.546-1.372 3.066 3.066 0 0 0 2.533 1.372c1.062 0 2.002-.56 2.537-1.406l-.429 3.033Z"/><path d="M20.397 30 25 0l-3.099.03-4.186 26.806H7.285L3.098.032 0 0l4.603 30h15.794Z"/></g></svg>