<?xml version="1.0" encoding="UTF-8" standalone="no"?>
<svg width="29px" height="34px" viewBox="0 0 29 34" version="1.1" xmlns="http://www.w3.org/2000/svg" xmlns:xlink="http://www.w3.org/1999/xlink" xmlns:sketch="http://www.bohemiancoding.com/sketch/ns">
    <!-- Generator: Sketch 3.2.2 (9983) - http://www.bohemiancoding.com/sketch -->
    <title>fast-food</title>
    <desc>Created with Sketch.</desc>
    <defs></defs>
    <g id="p" stroke="none" stroke-width="1" fill="none" fill-rule="evenodd" sketch:type="MSPage">
        <g id="fast-food" sketch:type="MSLayerGroup" transform="translate(0.000000, -1.000000)" fill="#888888">
            <path d="M28.223,3.046 L22.2,4.697 L21,8 L19,8 L20.24,3.662 C20.318,3.277 20.611,2.968 20.997,2.862 L27.648,1.039 C28.213,0.883 28.8,1.207 28.96,1.762 C29.119,2.315 28.789,2.891 28.223,3.046 L28.223,3.046 Z M24.104,10.009 L26.897,10.009 C27.514,10.009 28.014,10.457 28.014,11.01 C28.014,11.562 27.514,12.01 26.897,12.01 L10.134,12.01 C9.517,12.01 9.017,11.562 9.017,11.01 C9.017,10.457 9.517,10.009 10.134,10.009 L12.649,10.009 C12.649,9.456 13.514,8.946 14.101,8.946 L22.881,8.946 C23.469,8.946 24.104,9.456 24.104,10.009 L24.104,10.009 Z M23.984,24.991 L0.996,24.991 C1.138,23.083 2.39,17.992 12.093,17.992 C22.657,17.992 23.854,23.188 23.984,24.991 L23.984,24.991 Z M12.985,23.986 C13.539,23.986 13.987,23.539 13.987,22.986 C13.987,22.433 13.539,21.986 12.985,21.986 C12.431,21.986 11.982,22.433 11.982,22.986 C11.982,23.539 12.432,23.986 12.985,23.986 L12.985,23.986 Z M5.993,20.992 C5.445,20.992 5.001,21.44 5.001,21.992 C5.001,22.545 5.445,22.992 5.993,22.992 C6.541,22.992 6.985,22.545 6.985,21.992 C6.985,21.44 6.541,20.992 5.993,20.992 L5.993,20.992 Z M9.994,19.993 C9.445,19.993 9.002,20.44 9.002,20.992 C9.002,21.545 9.445,21.992 9.994,21.992 C10.542,21.992 10.986,21.545 10.986,20.992 C10.986,20.44 10.542,19.993 9.994,19.993 L9.994,19.993 Z M3.908,26.009 C3.908,26.009 6.504,26.28 7.034,26.899 C8.026,28.055 8.263,28.21 8.988,28.229 C11.442,28.298 12.085,26.009 14.459,26.009 L23.445,26.009 C24.308,26.009 25.008,26.805 25.008,27.785 L25.008,28.228 C25.008,29.208 24.308,30.003 23.445,30.003 L1.563,30.003 C0.699,30.003 0,29.208 0,28.228 L0,27.785 C0,26.805 0.699,26.009 1.563,26.009 L3.908,26.009 L3.908,26.009 Z M24,32.712 C24,33.977 23.29,35 22.415,35 L2.596,35 C1.72,35 1.01,33.977 1.01,32.712 L1.01,30.996 L24,30.996 L24,32.712 L24,32.712 Z M23.438,19.494 C21.046,17.163 17.324,16.223 12.464,16.223 C12.003,16.223 11.565,16.24 11.136,16.263 L10.99,14.013 C10.99,13.454 11.449,13.002 12.015,13.002 L24.965,13.002 C25.532,13.002 25.991,13.454 25.991,14.013 L25.663,22.977 C25.27,21.863 24.596,20.622 23.438,19.494 L23.438,19.494 Z" id="Shape" sketch:type="MSShapeGroup"></path>
        </g>
    </g>
</svg>