<svg width="29" height="34" xmlns="http://www.w3.org/2000/svg"><path d="M28.223 2.046 22.2 3.697 21 7h-2l1.24-4.338c.078-.385.371-.694.757-.8L27.648.039a1.068 1.068 0 0 1 1.312.723 1.039 1.039 0 0 1-.737 1.284Zm-4.119 6.963h2.793c.617 0 1.117.448 1.117 1.001 0 .552-.5 1-1.117 1H10.134c-.617 0-1.117-.448-1.117-1 0-.553.5-1.001 1.117-1.001h2.515c0-.553.865-1.063 1.452-1.063h8.78c.588 0 1.223.51 1.223 1.063Zm-.12 14.982H.996c.142-1.908 1.394-6.999 11.097-6.999 10.564 0 11.761 5.196 11.891 6.999Zm-10.999-1.005a1 1 0 1 0 0-2 1.001 1.001 0 1 0 0 2Zm-6.992-2.994a.996.996 0 0 0-.992 1c0 .553.444 1 .992 1a.995.995 0 0 0 .992-1c0-.552-.444-1-.992-1Zm4.001-.999a.995.995 0 0 0-.992.999c0 .553.443 1 .992 1a.995.995 0 0 0 .992-1 .995.995 0 0 0-.992-.999Zm-6.086 6.016s2.596.271 3.126.89c.992 1.156 1.229 1.311 1.954 1.33 2.454.069 3.097-2.22 5.471-2.22h8.986c.863 0 1.563.796 1.563 1.776v.443c0 .98-.7 1.775-1.563 1.775H1.563C.699 29.003 0 28.208 0 27.228v-.443c0-.98.699-1.776 1.563-1.776h2.345ZM24 31.712C24 32.977 23.29 34 22.415 34H2.596c-.876 0-1.586-1.023-1.586-2.288v-1.716H24v1.716Zm-.562-13.218c-2.392-2.331-6.114-3.271-10.974-3.271-.461 0-.899.017-1.328.04l-.146-2.25c0-.559.459-1.011 1.025-1.011h12.95c.567 0 1.026.452 1.026 1.011l-.328 8.964a9.005 9.005 0 0 0-2.225-3.483Z" fill="#888" fill-rule="evenodd"/></svg>