<svg xmlns="http://www.w3.org/2000/svg" width="26" height="30"><path fill="gray" d="M11.723 1.977c3.267 6.705-13.874 11.1 1.03 20.285l.645-.235c-3.71-5.37 11.35-11.666-1.675-20.05Zm6.777 6.87c2.1 6.176-5.072 7.946-2.82 12.348l3.379-1.226c1.355-3.307 4.827-5.974-.559-11.121ZM2.95 19.998a1 1 0 0 0-.29 1.944l8.43 3.067-8.426 3.062a.989.989 0 0 0 .672 1.86l10.644-3.871 10.68 3.882a1 1 0 0 0 .68-1.882l-8.43-3.067 8.426-3.062a.988.988 0 1 0-.672-1.86L14.02 23.941 3.34 20.06a1 1 0 0 0-.39-.063Z"/></svg>