<svg xmlns="http://www.w3.org/2000/svg" width="28" height="28" viewBox="0 0 28 28">
  <path fill="gray" d="M0,0 L0,10 C0,13.3137085 2.6862915,16 6,16 C9.3137085,16 12,13.3137085 12,10 L12,6 L8,10 L10,10 C10,12.209139 8.209139,14 6,14 C3.790861,14 2,12.209139 2,10 L2,0 L0,0 Z M11,18 C6.2857152,18 1.57142958,20.5 0,23 C1.57142914,25.5 6.285714,28 11,28 C15.7142882,28 20.428568,25.5 22,23 C20.428572,20.5 15.7142872,18 11,18 Z M22,23 L28,28 L28,18 L22,23 Z M6,20 C7.1045695,20 8,20.8954305 8,22 C8,23.1045695 7.1045695,24 6,24 C4.8954305,24 4,23.1045695 4,22 C4,20.8954305 4.8954305,20 6,20 Z"/>
</svg>
