<svg width="32" height="32" xmlns="http://www.w3.org/2000/svg"><path d="M31.611 13.77c-.615.616-1.739.491-2.51-.279L18.509 2.897c-.771-.77-.896-1.893-.278-2.509.615-.616 1.738-.491 2.51.278L31.334 11.26c.77.771.895 1.894.277 2.51ZM25 3l2-2 4 4-2 2-4-4Zm5.125 16.717a2.63 2.63 0 0 1-3.718 0L12.283 5.592A2.627 2.627 0 1 1 16 1.875L30.125 16a2.63 2.63 0 0 1 0 3.717ZM12 17l5-5 3 3-5 5-3-3Zm7.717 13.125a2.63 2.63 0 0 1-3.717 0L1.875 16a2.63 2.63 0 0 1 3.717-3.717l14.125 14.125a2.63 2.63 0 0 1 0 3.717ZM2.897 18.509l10.594 10.595c.77.77.895 1.894.278 2.508-.615.617-1.739.492-2.509-.278L.667 20.739c-.77-.771-.895-1.895-.278-2.509.615-.616 1.739-.491 2.508.279ZM7 29l-2 2-4-4 2-2 4 4Z" fill="#888" fill-rule="evenodd"/></svg>