<?xml version="1.0" encoding="UTF-8" standalone="no"?>
<svg width="32px" height="32px" viewBox="0 0 32 32" version="1.1" xmlns="http://www.w3.org/2000/svg" xmlns:xlink="http://www.w3.org/1999/xlink" xmlns:sketch="http://www.bohemiancoding.com/sketch/ns">
    <!-- Generator: Sketch 3.2.2 (9983) - http://www.bohemiancoding.com/sketch -->
    <title>fitness</title>
    <desc>Created with Sketch.</desc>
    <defs></defs>
    <g id="p" stroke="none" stroke-width="1" fill="none" fill-rule="evenodd" sketch:type="MSPage">
        <g id="fitness" sketch:type="MSLayerGroup" transform="translate(-1.000000, -1.000000)" fill="#888888">
            <path d="M32.611,14.77 C31.996,15.386 30.872,15.261 30.101,14.491 L19.509,3.897 C18.738,3.127 18.613,2.004 19.231,1.388 C19.846,0.772 20.969,0.897 21.741,1.666 L32.334,12.26 C33.104,13.031 33.229,14.154 32.611,14.77 L32.611,14.77 Z M26,4 L28,2 L32,6 L30,8 L26,4 L26,4 Z M31.125,20.717 C30.1,21.743 28.434,21.743 27.407,20.717 L13.283,6.592 C12.256,5.566 12.256,3.902 13.283,2.875 C14.309,1.849 15.973,1.849 17,2.875 L31.125,17 C32.15,18.026 32.15,19.69 31.125,20.717 L31.125,20.717 Z M13,18 L18,13 L21,16 L16,21 L13,18 L13,18 Z M20.717,31.125 C19.692,32.15 18.028,32.15 17,31.125 L2.875,17 C1.849,15.974 1.849,14.31 2.875,13.283 C3.901,12.256 5.565,12.256 6.592,13.283 L20.717,27.408 C21.743,28.434 21.743,30.098 20.717,31.125 L20.717,31.125 Z M3.897,19.509 L14.491,30.104 C15.261,30.874 15.386,31.998 14.769,32.612 C14.154,33.229 13.03,33.104 12.26,32.334 L1.667,21.739 C0.897,20.968 0.772,19.844 1.389,19.23 C2.004,18.614 3.128,18.739 3.897,19.509 L3.897,19.509 Z M8,30 L6,32 L2,28 L4,26 L8,30 L8,30 Z" id="Shape" sketch:type="MSShapeGroup"></path>
        </g>
    </g>
</svg>