<?xml version="1.0" encoding="UTF-8" standalone="no"?>
<svg width="30px" height="31px" viewBox="0 0 30 31" version="1.1" xmlns="http://www.w3.org/2000/svg" xmlns:xlink="http://www.w3.org/1999/xlink" xmlns:sketch="http://www.bohemiancoding.com/sketch/ns">
    <!-- Generator: Sketch 3.2.2 (9983) - http://www.bohemiancoding.com/sketch -->
    <title>jewellery</title>
    <desc>Created with Sketch.</desc>
    <defs></defs>
    <g id="p" stroke="none" stroke-width="1" fill="none" fill-rule="evenodd" sketch:type="MSPage">
        <g id="jewellery" sketch:type="MSLayerGroup" transform="translate(-0.597656, -0.500000)" fill="#888888">
            <path d="M21.5976562,11.5 L15.5976562,31.5 L30.5976562,11.5 L21.5976562,11.5 Z M14.5976562,0.5 L8.59765625,0.5 L10.5976562,7.5 L14.5976562,0.5 Z M22.5976562,0.5 L16.5976562,0.5 L20.5976562,7.5 L22.5976562,0.5 Z M11.6134033,9.5 L19.5925293,9.5 L19.5925293,8.5 L15.5976562,1.5 L11.6134033,8.5 L11.6134033,9.5 Z M6.59924316,0.5 L0.59765625,9.5 L9.59765625,9.5 L6.59924316,0.5 Z M0.59765625,11.5 L15.5976562,31.5 L9.59765625,11.5 L0.59765625,11.5 Z M19.5955811,11.5 L11.5976562,11.5 L15.5898438,26.5028076 L19.5955811,11.5 Z M30.5976562,9.5 L24.5771484,0.46105957 L21.5976562,9.5 L30.5976562,9.5 Z" id="Shape" sketch:type="MSShapeGroup"></path>
        </g>
    </g>
</svg>