<?xml version="1.0" encoding="UTF-8" standalone="no"?>
<svg width="29px" height="34px" viewBox="0 0 29 34" version="1.1" xmlns="http://www.w3.org/2000/svg" xmlns:xlink="http://www.w3.org/1999/xlink" xmlns:sketch="http://www.bohemiancoding.com/sketch/ns">
    <!-- Generator: Sketch 3.2.2 (9983) - http://www.bohemiancoding.com/sketch -->
    <title>marketplace</title>
    <desc>Created with Sketch.</desc>
    <defs></defs>
    <g id="p" stroke="none" stroke-width="1" fill="none" fill-rule="evenodd" sketch:type="MSPage">
        <g id="marketplace" sketch:type="MSLayerGroup" transform="translate(-1.000000, -1.000000)" fill="#888888">
            <path d="M4,12 C5.500776,12 6.79899983,10.6856803 7,9 C6.79899983,10.6846731 8.099224,12 10,12 C11.2997758,12 12.6,10.6856803 13,9 C12.6,10.6846731 13.899224,12 15,12 C17.1017762,12 18.4,10.6856803 18,9 C18.4,10.6846731 19.699224,12 21,12 C22.9017762,12 24.2,10.6856803 24,9 C24.2,10.6846731 25.499224,12 27,12 C28.7017762,12 30,10.6856803 30,9 C30,8.1919978 29.616934,7.41851309 29,7 L26,1 L5,1 L2,7 C1.38206587,7.41649881 1,8.1919978 1,9 C1,10.6846731 2.29822383,12 4,12 Z M25,13 L25,29 L6,29 L6,13 C5.02257422,13.6707517 4.50642523,13.8602239 3,14 L3,33 L1,33 L1,35 L30,35 L30,33 L28,33 L28,14 C26.5792675,13.92507 25.7711655,13.676831 25,13 Z" id="Shape" sketch:type="MSShapeGroup"></path>
        </g>
    </g>
</svg>