<svg xmlns="http://www.w3.org/2000/svg" xmlns:xlink="http://www.w3.org/1999/xlink" width="256" height="256" viewBox="0 0 256 256"><defs><path id="a" d="M0,0 L256,0 L256,256 L0,256 L0,0 Z"/></defs><g fill="none"><use xlink:href="#a" fill="#000" fill-rule="evenodd"/><polygon fill="#393939" points="16 256 17 256 17 0 16 0"/><polygon fill="#393939" points="32 256 33 256 33 0 32 0"/><polygon fill="#393939" points="48 256 49 256 49 0 48 0"/><polygon fill="#393939" points="64 256 65 256 65 0 64 0"/><polygon fill="#393939" points="80 256 81 256 81 0 80 0"/><polygon fill="#393939" points="96 256 97 256 97 0 96 0"/><polygon fill="#393939" points="112 256 113 256 113 0 112 0"/><polygon fill="#393939" points="144 256 145 256 145 0 144 0"/><polygon fill="#393939" points="160 256 161 256 161 0 160 0"/><polygon fill="#393939" points="176 256 177 256 177 0 176 0"/><polygon fill="#393939" points="192 256 193 256 193 0 192 0"/><polygon fill="#393939" points="208 256 209 256 209 0 208 0"/><polygon fill="#393939" points="224 256 225 256 225 0 224 0"/><polygon fill="#393939" points="240 256 241 256 241 0 240 0"/><polygon fill="#393939" points="0 17 256 17 256 16 0 16"/><polygon fill="#393939" points="0 33 256 33 256 32 0 32"/><polygon fill="#393939" points="0 49 256 49 256 48 0 48"/><polygon fill="#393939" points="0 65 256 65 256 64 0 64"/><polygon fill="#393939" points="0 81 256 81 256 80 0 80"/><polygon fill="#393939" points="0 97 256 97 256 96 0 96"/><polygon fill="#393939" points="0 113 256 113 256 112 0 112"/><polygon fill="#393939" points="0 145 256 145 256 144 0 144"/><polygon fill="#393939" points="0 161 256 161 256 160 0 160"/><polygon fill="#393939" points="0 177 256 177 256 176 0 176"/><polygon fill="#393939" points="0 193 256 193 256 192 0 192"/><polygon fill="#393939" points="0 209 256 209 256 208 0 208"/><polygon fill="#393939" points="0 225 256 225 256 224 0 224"/><polygon fill="#393939" points="0 241 256 241 256 240 0 240"/><polygon fill="#5D5D5D" points="0 129 256 129 256 128 0 128"/><polygon fill="#5D5D5D" points="128 256 129 256 129 0 128 0"/><polygon fill="gray" points="0 256 1 256 1 0 0 0"/><polygon fill="gray" points="255 256 256 256 256 0 255 0"/><polygon fill="gray" points="0 1 256 1 256 0 0 0"/><polygon fill="gray" points="0 256 256 256 256 255 0 255"/></g></svg>