<?xml version="1.0" encoding="UTF-8" standalone="no"?>
<svg width="30px" height="30px" viewBox="0 0 30 30" version="1.1" xmlns="http://www.w3.org/2000/svg" xmlns:xlink="http://www.w3.org/1999/xlink" xmlns:sketch="http://www.bohemiancoding.com/sketch/ns">
    <!-- Generator: Sketch 3.2.2 (9983) - http://www.bohemiancoding.com/sketch -->
    <title>parking</title>
    <desc>Created with Sketch.</desc>
    <defs></defs>
    <g id="p" stroke="none" stroke-width="1" fill="none" fill-rule="evenodd" sketch:type="MSPage">
        <g id="parking" sketch:type="MSLayerGroup" fill="#888888">
            <path d="M27,30 L3,30 C1.343,30 0,28.656 0,27 L0,3 C0,1.343 1.343,0 3,0 L27,0 C28.656,0 30,1.343 30,3 L30,27 C30,28.656 28.656,30 27,30 L27,30 Z M24,9 C24,6.238 21.762,4 19,4 L8,4 L8,26 L12,26 L12,17 L19,17 C21.762,17 24,14.762 24,12 L24,9 L24,9 Z M17,14 L12,14 L12,7 L17,7 C18.656,7 20,8.343 20,10 L20,11 C20,12.658 18.656,14 17,14 L17,14 Z" id="Shape" sketch:type="MSShapeGroup"></path>
        </g>
    </g>
</svg>