<svg xmlns="http://www.w3.org/2000/svg" width="30" height="30"><g fill="gray" fill-rule="evenodd"><path d="M7.5 1a6.5 6.5 0 1 1 0 13 6.5 6.5 0 0 1 0-13Zm4.364 4.894-8.97 2.242.242.97 8.97-2.242-.242-.97Z"/><path fill-rule="nonzero" d="M19.463 7.387c.142-.141.289-.274.44-.398a5.977 5.977 0 0 1 8.166.237l.016.017a6 6 0 0 1 .048 8.437c-.06.065-.121.13-.184.193l-12.021 12.02a6 6 0 1 1-8.485-8.485l12.02-12.02Zm-5.068 6.483L8.15 20.115a5 5 0 0 0 6.914 7.221l.157-.15 6.236-6.236-7.062-7.08Z"/></g></svg>