<?xml version="1.0" encoding="UTF-8" standalone="no"?>
<svg width="26px" height="34px" viewBox="0 0 26 34" version="1.1" xmlns="http://www.w3.org/2000/svg" xmlns:xlink="http://www.w3.org/1999/xlink" xmlns:sketch="http://www.bohemiancoding.com/sketch/ns">
    <!-- Generator: Sketch 3.2.2 (9983) - http://www.bohemiancoding.com/sketch -->
    <title>apotheke</title>
    <desc>Created with Sketch.</desc>
    <defs></defs>
    <g id="p" stroke="none" stroke-width="1" fill="none" fill-rule="evenodd" sketch:type="MSPage">
        <g id="apotheke" sketch:type="MSLayerGroup" transform="translate(-1.000000, -1.000000)" fill="#888888">
            <path d="M10,8 C11.2258898,8.64333697 10.6441263,8.3870558 11,8 C11.4569448,8.48977166 12.3863222,8.0789082 13,8 C14.5906281,6.94699969 15.0558326,5.91882403 15,5 C15.4024151,4.17163731 15.4601789,3.91535614 17,4 C19.1725312,3.70890742 22.1339548,4.68521665 23,10 C22.887978,9.98677915 22.8869465,9.99288108 23,10 L26,10 C25.885504,6.68054863 24.0009617,3.76992675 22,2 C18.5948937,0.00706826705 15.4024151,1.18880923 13,3 C10.5038429,3.7923005 9.68586699,6.74461892 10,8 C10.1634494,7.95280159 10.2470005,8.06568734 10,8 Z M26,11 L23,11 L1,11 C1,11.0009357 1.289,11.6203716 2,12 C2.853,13.4590295 4.437,14.8111215 7,15 C10.836,16.2259056 12.337,16.5618233 13,18 L15,17 C16.101,16.3550327 17.47,16.1164283 20,16 C20.613,15.4389787 22.22,15.024462 23,15 C24.521,14.0953081 25.504,13.1773827 26,12 C26.745,11.6269215 27,11 27,11 L26,11 Z M18,33 C16.0949535,32.7188841 15.6171297,31.6620172 16,32 C15.6171297,31.6620172 15.6171297,31.6244635 16,32 C15.615092,31.4667382 15.615092,31.2714592 16,31 L13,31 C13.3828703,31.5311159 13.3808327,31.6630901 13,32 C13.3808327,31.6630901 13.3288732,31.7553648 13,32 C13.1179787,32.0193133 12.9743259,32.1781116 13,32 C12.6584935,32.4678112 12.4343544,32.6545064 12,33 C11.7762005,32.9527897 11.5337227,33.0525751 11,33 C10.7920261,33.3347639 10.2612239,33.5107296 10,34 C8.47014875,34.0590129 7.31888881,34.333691 7,34 L7,35 L11,35 L18,35 L22,35 L22,34 C21.6790736,34.333691 20.2435645,33.945279 18,33 Z M19,17 C18.9758197,16.9938372 18.6924094,17.1862425 18,17 C17.6408595,17.8462026 16.8541517,18.2150625 16,19 C16.1045803,18.5869132 7.15272437,20.8220047 7,23 C6.98170092,23.7629146 7.05206486,24.0729563 7,24 C7.60031717,25.4038427 8.87370891,25.6869676 10,26 C10.077714,25.9182527 10.9064448,25.9571325 12,26 L12,24 C11.3569694,24.0589995 10.8487854,24.0350734 10,24 C7.98243242,23.9941997 9.58223462,23.3342396 12,23 C11.6159477,22.717147 17.7073144,21.8757477 22,18 C22.5673121,16.9400036 23.0852689,16.3189233 24,16 C23.7068169,15.4266812 23.8631812,15.2253036 24,15 C23.5074525,15.306054 23.0061094,15.5941635 23,16 C21.8372863,16.1135581 20.251166,16.6040421 19,17 Z M15,25 L15,24 L13,24 L13,25 L13,26 L13,27 L15,27 L15,25 Z M9,31 C9.23506158,31.1892214 9.30662423,31.3288671 9,31 C9.56640647,31.6863183 9.81442498,31.8551437 10,32 L11,31 C10.8966876,30.9880899 11.036872,30.5034986 12,30 C11.9534621,30.0887301 12.471066,30.0136966 13,30 C13.1151299,29.9324103 13.1151299,29.9344946 13,30 L15,30 C15.2512261,29.6489504 15.2512261,29.6468662 15,30 C16.7511009,29.3936281 18.2441135,28.9715647 19,28 C18.9224882,27.8940003 19.0107162,27.6449308 19,27 C18.9430748,26.0806908 17.7618008,25.3866309 16,25 L16,27 C16.3736814,26.9248176 16.6167984,26.9133542 17,27 C16.8275651,27.30728 16.6226802,27.5157064 16,28 C15.8933293,27.7741551 15.5649254,27.852315 15,28 C14.6277487,28.0159297 13.9670195,28.0951318 13,28 C12.6504628,28.2108084 12.04169,28.2556201 11,28 C9.26937244,28.4390353 8.65471786,29.8792616 9,31 Z" id="Shape" sketch:type="MSShapeGroup"></path>
        </g>
    </g>
</svg>