<svg width="17" height="14" viewBox="0 0 17 14" fill="none" xmlns="http://www.w3.org/2000/svg">
<path d="M2 1.5C2 1.22386 2.22386 1 2.5 1H3.5C3.77614 1 4 1.22386 4 1.5V12.5C4 12.7761 3.77614 13 3.5 13H2.5C2.22386 13 2 12.7761 2 12.5V1.5Z" fill="#808080"/>
<path fill-rule="evenodd" clip-rule="evenodd" d="M2.5 0H3.5C4.32843 0 5 0.671573 5 1.5V12.5C5 13.3284 4.32843 14 3.5 14H2.5C1.67157 14 1 13.3284 1 12.5V1.5C1 0.671574 1.67157 0 2.5 0ZM2.5 1C2.22386 1 2 1.22386 2 1.5V12.5C2 12.7761 2.22386 13 2.5 13H3.5C3.77614 13 4 12.7761 4 12.5V1.5C4 1.22386 3.77614 1 3.5 1H2.5Z" fill="white"/>
<path d="M14 1.5C14 1.22386 14.2239 1 14.5 1H15.5C15.7761 1 16 1.22386 16 1.5V12.5C16 12.7761 15.7761 13 15.5 13H14.5C14.2239 13 14 12.7761 14 12.5V1.5Z" fill="#808080"/>
<path fill-rule="evenodd" clip-rule="evenodd" d="M14.5 0H15.5C16.3284 0 17 0.671573 17 1.5V12.5C17 13.3284 16.3284 14 15.5 14H14.5C13.6716 14 13 13.3284 13 12.5V1.5C13 0.671574 13.6716 0 14.5 0ZM14.5 1C14.2239 1 14 1.22386 14 1.5V12.5C14 12.7761 14.2239 13 14.5 13H15.5C15.7761 13 16 12.7761 16 12.5V1.5C16 1.22386 15.7761 1 15.5 1H14.5Z" fill="white"/>
<path fill-rule="evenodd" clip-rule="evenodd" d="M7.00001 7.5V9.06574C7.00001 9.46509 7.44509 9.70329 7.77736 9.48177L10.876 7.41603C11.1728 7.21812 11.1728 6.78189 10.876 6.58398L7.77736 4.51824C7.44509 4.29672 7.00001 4.53492 7.00001 4.93427V6.5H1.5C1.22386 6.5 1 6.72386 1 7C1 7.27615 1.22386 7.5 1.5 7.5H7.00001Z" fill="#808080"/>
<path fill-rule="evenodd" clip-rule="evenodd" d="M6 9.06575V8.50001H1.5C0.671574 8.50001 0 7.82844 0 7.00001C0 6.17158 0.671573 5.50001 1.5 5.50001H6V4.93427C6 3.73623 7.33522 3.02164 8.33205 3.68619L11.4307 5.75194C12.3213 6.34567 12.3213 7.65435 11.4307 8.24809L8.33205 10.3138C7.33522 10.9784 6 10.2638 6 9.06575ZM7.00001 4.93427C7.00001 4.53492 7.44509 4.29672 7.77736 4.51824L10.876 6.58398C11.1728 6.78189 11.1728 7.21812 10.876 7.41603L7.77736 9.48177C7.44509 9.70329 7.00001 9.46509 7.00001 9.06574V7.5H1.5C1.22386 7.5 1 7.27615 1 7C1 6.72386 1.22386 6.5 1.5 6.5H7.00001V4.93427Z" fill="white"/>
</svg>
