<svg width="18" height="18" viewBox="0 0 18 18" fill="none" xmlns="http://www.w3.org/2000/svg">
<circle cx="9" cy="9" r="8.5" fill="#808080" stroke="white"/>
<path d="M9 14C8.30833 14 7.71875 13.7563 7.23125 13.2688C6.74375 12.7812 6.5 12.1917 6.5 11.5V7C6.225 7 5.98958 6.90208 5.79375 6.70625C5.59792 6.51042 5.5 6.275 5.5 6V5C5.5 4.725 5.59792 4.48958 5.79375 4.29375C5.98958 4.09792 6.225 4 6.5 4H11.5C11.775 4 12.0104 4.09792 12.2063 4.29375C12.4021 4.48958 12.5 4.725 12.5 5V6C12.5 6.275 12.4021 6.51042 12.2063 6.70625C12.0104 6.90208 11.775 7 11.5 7V11.5C11.5 12.1917 11.2562 12.7812 10.7688 13.2688C10.2812 13.7563 9.69167 14 9 14ZM9 13C9.41667 13 9.77083 12.8542 10.0625 12.5625C10.3542 12.2708 10.5 11.9167 10.5 11.5H9.5C9.35833 11.5 9.23958 11.4521 9.14375 11.3563C9.04792 11.2604 9 11.1417 9 11C9 10.8583 9.04792 10.7396 9.14375 10.6438C9.23958 10.5479 9.35833 10.5 9.5 10.5H10.5V9.5H9.5C9.35833 9.5 9.23958 9.45208 9.14375 9.35625C9.04792 9.26042 9 9.14167 9 9C9 8.85833 9.04792 8.73958 9.14375 8.64375C9.23958 8.54792 9.35833 8.5 9.5 8.5H10.5V7H7.5V11.5C7.5 11.9167 7.64583 12.2708 7.9375 12.5625C8.22917 12.8542 8.58333 13 9 13Z" fill="white"/>
</svg>
