<svg width="18" height="18" viewBox="0 0 18 18" fill="none" xmlns="http://www.w3.org/2000/svg">
<circle cx="9" cy="9" r="8.5" fill="#808080" stroke="white"/>
<path d="M9 14C8.85833 14 8.73967 13.952 8.644 13.856C8.548 13.7603 8.5 13.6417 8.5 13.5V12H6.3125C6.2125 12 6.1145 11.9792 6.0185 11.9375C5.92283 11.8958 5.84167 11.8417 5.775 11.775L5.025 11.025C4.95 10.95 4.89583 10.8667 4.8625 10.775C4.82917 10.6833 4.8125 10.5917 4.8125 10.5C4.8125 10.4083 4.82917 10.3167 4.8625 10.225C4.89583 10.1333 4.95 10.05 5.025 9.975L5.775 9.225C5.84167 9.15833 5.92283 9.10417 6.0185 9.0625C6.1145 9.02083 6.2125 9 6.3125 9H8.5V8H5.75C5.54167 8 5.36467 7.927 5.219 7.781C5.073 7.63533 5 7.45833 5 7.25V5.75C5 5.54167 5.073 5.36467 5.219 5.219C5.36467 5.073 5.54167 5 5.75 5H8.5V4.5C8.5 4.35833 8.548 4.2395 8.644 4.1435C8.73967 4.04783 8.85833 4 9 4C9.14167 4 9.2605 4.04783 9.3565 4.1435C9.45217 4.2395 9.5 4.35833 9.5 4.5V5H11.6875C11.7875 5 11.8853 5.02083 11.981 5.0625C12.077 5.10417 12.1583 5.15833 12.225 5.225L12.975 5.975C13.05 6.05 13.1042 6.13333 13.1375 6.225C13.1708 6.31667 13.1875 6.40833 13.1875 6.5C13.1875 6.59167 13.1708 6.68333 13.1375 6.775C13.1042 6.86667 13.05 6.95 12.975 7.025L12.225 7.775C12.1583 7.84167 12.077 7.89583 11.981 7.9375C11.8853 7.97917 11.7875 8 11.6875 8H9.5V9H12.25C12.4583 9 12.6353 9.073 12.781 9.219C12.927 9.36467 13 9.54167 13 9.75V11.25C13 11.4583 12.927 11.6353 12.781 11.781C12.6353 11.927 12.4583 12 12.25 12H9.5V13.5C9.5 13.6417 9.45217 13.7603 9.3565 13.856C9.2605 13.952 9.14167 14 9 14Z" fill="white"/>
</svg>
