<svg width="18" height="18" viewBox="0 0 18 18" fill="none" xmlns="http://www.w3.org/2000/svg">
<circle cx="9" cy="9" r="8.5" fill="#808080" stroke="white"/>
<path d="M10.175 13.3875L7.5 12.45L5.175 13.35C5.00833 13.4167 4.85417 13.3978 4.7125 13.2935C4.57083 13.1895 4.5 13.05 4.5 12.875V5.87501C4.5 5.76667 4.53133 5.67084 4.594 5.58751C4.65633 5.50417 4.74167 5.44167 4.85 5.40001L7.175 4.61251C7.28333 4.57917 7.39167 4.56034 7.5 4.55601C7.60833 4.55201 7.71667 4.57084 7.825 4.61251L10.5 5.55001L12.825 4.65001C12.9917 4.58334 13.1458 4.60201 13.2875 4.70601C13.4292 4.81034 13.5 4.95001 13.5 5.12501V12.125C13.5 12.2333 13.4687 12.3292 13.406 12.4125C13.3437 12.4958 13.2583 12.5583 13.15 12.6L10.825 13.3875C10.7167 13.4208 10.6083 13.4395 10.5 13.4435C10.3917 13.4478 10.2833 13.4292 10.175 13.3875ZM10 12.275V6.42501L8 5.72501V11.575L10 12.275Z" fill="white"/>
</svg>
