<svg width="18" height="18" viewBox="0 0 18 18" fill="none" xmlns="http://www.w3.org/2000/svg">
<circle cx="9" cy="9" r="8.5" fill="#808080" stroke="white"/>
<path d="M9 14C9 12.8583 9.37083 11.8667 10.1125 11.025C10.8542 10.1833 11.775 9.6875 12.875 9.5375C13.0417 9.5125 13.1875 9.5625 13.3125 9.6875C13.4375 9.8125 13.4875 9.95833 13.4625 10.125C13.3125 11.225 12.8167 12.1458 11.975 12.8875C11.1333 13.6292 10.1417 14 9 14ZM9 14C9 12.8583 8.62917 11.8667 7.8875 11.025C7.14583 10.1833 6.225 9.6875 5.125 9.5375C4.95833 9.5125 4.8125 9.5625 4.6875 9.6875C4.5625 9.8125 4.5125 9.95833 4.5375 10.125C4.6875 11.225 5.18333 12.1458 6.025 12.8875C6.86667 13.6292 7.85833 14 9 14ZM9 8.25C9.35 8.25 9.64583 8.12917 9.8875 7.8875C10.1292 7.64583 10.25 7.35 10.25 7C10.25 6.65 10.1292 6.35417 9.8875 6.1125C9.64583 5.87083 9.35 5.75 9 5.75C8.65 5.75 8.35417 5.87083 8.1125 6.1125C7.87083 6.35417 7.75 6.65 7.75 7C7.75 7.35 7.87083 7.64583 8.1125 7.8875C8.35417 8.12917 8.65 8.25 9 8.25ZM9 10.5C8.675 10.5 8.38133 10.4103 8.119 10.231C7.85633 10.052 7.66667 9.81667 7.55 9.525C7.50833 9.525 7.47083 9.527 7.4375 9.531C7.40417 9.53533 7.36667 9.5375 7.325 9.5375C6.89167 9.5375 6.52083 9.38333 6.2125 9.075C5.90417 8.76667 5.75 8.39583 5.75 7.9625C5.75 7.7875 5.77917 7.61867 5.8375 7.456C5.89583 7.29367 5.98333 7.14167 6.1 7C5.99167 6.85833 5.90833 6.70617 5.85 6.5435C5.79167 6.38117 5.7625 6.2125 5.7625 6.0375C5.7625 5.60417 5.91467 5.23333 6.219 4.925C6.523 4.61667 6.89167 4.4625 7.325 4.4625C7.36667 4.4625 7.40417 4.4645 7.4375 4.4685C7.47083 4.47283 7.50833 4.475 7.55 4.475C7.66667 4.18333 7.85633 3.94783 8.119 3.7685C8.38133 3.5895 8.675 3.5 9 3.5C9.325 3.5 9.61883 3.5895 9.8815 3.7685C10.1438 3.94783 10.3333 4.18333 10.45 4.475C10.4917 4.475 10.5292 4.47283 10.5625 4.4685C10.5958 4.4645 10.6333 4.4625 10.675 4.4625C11.1083 4.4625 11.477 4.61667 11.781 4.925C12.0853 5.23333 12.2375 5.60417 12.2375 6.0375C12.2375 6.2125 12.2103 6.38117 12.156 6.5435C12.102 6.70617 12.0167 6.85833 11.9 7C12.0083 7.14167 12.0917 7.29367 12.15 7.456C12.2083 7.61867 12.2375 7.7875 12.2375 7.9625C12.2375 8.39583 12.0853 8.76667 11.781 9.075C11.477 9.38333 11.1083 9.5375 10.675 9.5375C10.6333 9.5375 10.5958 9.53533 10.5625 9.531C10.5292 9.527 10.4917 9.525 10.45 9.525C10.3333 9.81667 10.1438 10.052 9.8815 10.231C9.61883 10.4103 9.325 10.5 9 10.5Z" fill="white"/>
</svg>
