<svg width="18" height="18" viewBox="0 0 18 18" fill="none" xmlns="http://www.w3.org/2000/svg">
<circle cx="9" cy="9" r="8.5" fill="#808080" stroke="white"/>
<path d="M8.5 13.8625V9.2875L4.5 6.975V10.9875C4.5 11.1709 4.54375 11.3375 4.63125 11.4875C4.71875 11.6375 4.84166 11.7584 5 11.85L8.5 13.8625ZM9.5 13.8625L13 11.85C13.1584 11.7584 13.2812 11.6375 13.3687 11.4875C13.4562 11.3375 13.5 11.1709 13.5 10.9875V6.975L9.5 9.2875V13.8625ZM11.4875 6.9875L12.9625 6.125L9.5 4.1375C9.34165 4.04584 9.175 4 9 4C8.825 4 8.65835 4.04584 8.5 4.1375L7.5125 4.7L11.4875 6.9875ZM9 8.425L10.4875 7.575L6.525 5.275L5.025 6.1375L9 8.425Z" fill="white"/>
</svg>
