<svg width="18" height="18" viewBox="0 0 18 18" fill="none" xmlns="http://www.w3.org/2000/svg">
<circle cx="9" cy="9" r="8.5" fill="#808080" stroke="white"/>
<path fill-rule="evenodd" clip-rule="evenodd" d="M5 3.99957C4.44772 3.99957 4 4.44729 4 4.99957V9.99957C4 10.5519 4.44772 10.9996 5 10.9996H13C13.5523 10.9996 14 10.5519 14 9.99957V4.99957C14 4.44729 13.5523 3.99957 13 3.99957H5ZM9.25 5.49957C9.25 5.77572 9.02614 5.99957 8.75 5.99957C8.47386 5.99957 8.25 5.77572 8.25 5.49957C8.25 5.22343 8.47386 4.99957 8.75 4.99957C9.02614 4.99957 9.25 5.22343 9.25 5.49957ZM8.875 6.49957C9.08211 6.49957 9.25 6.66747 9.25 6.87457V9.24957H9.875C10.0821 9.24957 10.25 9.41747 10.25 9.62457C10.25 9.83168 10.0821 9.99957 9.875 9.99957H7.875C7.66789 9.99957 7.5 9.83168 7.5 9.62457C7.5 9.41747 7.66789 9.24957 7.875 9.24957H8.5V7.24957H8.125C7.91789 7.24957 7.75 7.08168 7.75 6.87457C7.75 6.66747 7.91789 6.49957 8.125 6.49957H8.875Z" fill="white"/>
<path d="M12 10.9996H13V12.9996C13 13.2757 12.7761 13.4996 12.5 13.4996C12.2239 13.4996 12 13.2757 12 12.9996V10.9996Z" fill="white"/>
<path d="M5 10.9996H6V12.9996C6 13.2757 5.77614 13.4996 5.5 13.4996C5.22386 13.4996 5 13.2757 5 12.9996L5 10.9996Z" fill="white"/>
</svg>
