<svg width="18" height="18" viewBox="0 0 18 18" fill="none" xmlns="http://www.w3.org/2000/svg">
<circle cx="9" cy="9" r="8.5" fill="#808080" stroke="white"/>
<path fill-rule="evenodd" clip-rule="evenodd" d="M9 4C8 4 7.75 5 7.75 5H8V6.5L7.82611 7.80418L10.0652 6.98921L10 6.5V5H10.25C10.25 5 10 4 9 4ZM8.75 5C8.61193 5 8.5 5.11193 8.5 5.25V6.25C8.5 6.38807 8.61193 6.5 8.75 6.5H9.25C9.38807 6.5 9.5 6.38807 9.5 6.25V5.25C9.5 5.11193 9.38807 5 9.25 5H8.75Z" fill="white"/>
<path d="M7.54584 9.90619L7.67698 8.92264L10.2006 8.00414L10.3196 8.89665L7.54584 9.90619Z" fill="white"/>
<path d="M10.4549 9.91157L7.39671 11.0246L7.26557 12.0082L10.5739 10.8041L10.4549 9.91157Z" fill="white"/>
<path d="M7.03774 13.717L7.11645 13.1267L10.7092 11.819L10.9623 13.717C10.9822 13.8668 10.8657 14 10.7145 14H7.28555C7.13435 14 7.01776 13.8668 7.03774 13.717Z" fill="white"/>
<path d="M10.5 5.81981V5.68019C10.5 5.57258 10.5689 5.47705 10.6709 5.44302L13.1709 4.60969C13.3328 4.55572 13.5 4.67622 13.5 4.84686V6.65314C13.5 6.82378 13.3328 6.94428 13.1709 6.89031L10.6709 6.05698C10.5689 6.02295 10.5 5.92742 10.5 5.81981Z" fill="white"/>
<path d="M7.5 5.68019V5.81981C7.5 5.92742 7.43114 6.02295 7.32906 6.05698L4.82906 6.89031C4.66717 6.94428 4.5 6.82378 4.5 6.65314V4.84686C4.5 4.67622 4.66717 4.55572 4.82906 4.60969L7.32906 5.44302C7.43114 5.47705 7.5 5.57258 7.5 5.68019Z" fill="white"/>
</svg>
