<svg width="12" height="12" viewBox="0 0 12 12" fill="none" xmlns="http://www.w3.org/2000/svg">
  <path d="M5 1a1.5 1.5 0 0 0-1.5 1.5V3a.5.5 0 0 0 1 0v-.5a.5.5 0 0 1 1 0V4a.5.5 0 0 0 1 0V2.5a.5.5 0 0 1 1 0V3a.5.5 0 0 0 1 0v-.5A1.5 1.5 0 0 0 6 1.382 1.5 1.5 0 0 0 5 1ZM2.33 5a.31.31 0 0 0-.303.244 1.47 1.47 0 0 0 .399 1.314l.189.192a.84.84 0 0 0 .601.25H5.5v1H1.413a.38.38 0 0 0-.379.305c-.116.593.07 1.204.498 1.642l.236.24c.196.2.468.313.752.313h6.96c.284 0 .556-.113.752-.313l.236-.24a1.84 1.84 0 0 0 .498-1.642.38.38 0 0 0-.38-.305H6.5V7h2.284a.84.84 0 0 0 .601-.25l.189-.192c.343-.35.492-.84.399-1.314A.31.31 0 0 0 9.669 5z" stroke="#fff" stroke-width="2"/>
  <path d="M5 1a1.5 1.5 0 0 0-1.5 1.5V3a.5.5 0 0 0 1 0v-.5a.5.5 0 0 1 1 0V4a.5.5 0 0 0 1 0V2.5a.5.5 0 0 1 1 0V3a.5.5 0 0 0 1 0v-.5A1.5 1.5 0 0 0 6 1.382 1.5 1.5 0 0 0 5 1M2.33 5a.31.31 0 0 0-.303.244 1.47 1.47 0 0 0 .399 1.314l.189.192a.84.84 0 0 0 .601.25H5.5v1H1.413a.38.38 0 0 0-.379.305c-.116.593.07 1.204.498 1.642l.236.24c.196.2.468.313.752.313h6.96c.284 0 .556-.113.752-.313l.236-.24a1.84 1.84 0 0 0 .498-1.642.38.38 0 0 0-.38-.305H6.5V7h2.284a.84.84 0 0 0 .601-.25l.189-.192c.343-.35.492-.84.399-1.314A.31.31 0 0 0 9.669 5z" fill="gray"/>
</svg>
