<svg width="18" height="18" viewBox="0 0 18 18" fill="none" xmlns="http://www.w3.org/2000/svg">
<circle cx="9" cy="9" r="8.5" fill="#808080" stroke="white"/>
<path d="M6 14.0002C5.725 14.0002 5.48967 13.9024 5.294 13.7067C5.098 13.5107 5 13.2752 5 13.0002V7.00018C5 6.72518 5.098 6.48985 5.294 6.29418C5.48967 6.09818 5.725 6.00018 6 6.00018H7C7 5.45018 7.19583 4.97935 7.5875 4.58768C7.97917 4.19602 8.45 4.00018 9 4.00018C9.55 4.00018 10.0208 4.19602 10.4125 4.58768C10.8042 4.97935 11 5.45018 11 6.00018H12C12.275 6.00018 12.5105 6.09818 12.7065 6.29418C12.9022 6.48985 13 6.72518 13 7.00018V13.0002C13 13.2752 12.9022 13.5107 12.7065 13.7067C12.5105 13.9024 12.275 14.0002 12 14.0002H6ZM7.5 8.50018C7.64167 8.50018 7.7605 8.45218 7.8565 8.35618C7.95217 8.26052 8 8.14185 8 8.00018V7.00018H7V8.00018C7 8.14185 7.048 8.26052 7.144 8.35618C7.23967 8.45218 7.35833 8.50018 7.5 8.50018ZM8 6.00018H10C10 5.72518 9.90217 5.48985 9.7065 5.29418C9.5105 5.09818 9.275 5.00018 9 5.00018C8.725 5.00018 8.48967 5.09818 8.294 5.29418C8.098 5.48985 8 5.72518 8 6.00018ZM10.5 8.50018C10.6417 8.50018 10.7605 8.45218 10.8565 8.35618C10.9522 8.26052 11 8.14185 11 8.00018V7.00018H10V8.00018C10 8.14185 10.048 8.26052 10.144 8.35618C10.2397 8.45218 10.3583 8.50018 10.5 8.50018Z" fill="white"/>
</svg>
