<svg width="18" height="18" viewBox="0 0 18 18" fill="none" xmlns="http://www.w3.org/2000/svg">
<circle cx="9" cy="9" r="8.5" fill="#808080" stroke="white"/>
<path d="M5.73087 14.4251C5.6142 14.3501 5.54137 14.2437 5.51237 14.1061C5.48304 13.9687 5.50587 13.8417 5.58087 13.7251L7.55587 10.7001C7.03087 10.4584 6.5892 10.1062 6.23087 9.64356C5.87254 9.18123 5.64754 8.65006 5.55587 8.05006C5.53087 7.9084 5.57054 7.78123 5.67487 7.66856C5.77887 7.55623 5.91004 7.50006 6.06837 7.50006H11.9434C12.1017 7.50006 12.233 7.55623 12.3374 7.66856C12.4414 7.78123 12.4809 7.9084 12.4559 8.05006C12.3642 8.65006 12.1392 9.18123 11.7809 9.64356C11.4225 10.1062 10.9809 10.4584 10.4559 10.7001L10.7434 11.1501C10.5684 11.2334 10.4247 11.3167 10.3124 11.4001C10.1997 11.4834 10.0767 11.6001 9.94337 11.7501L9.44337 10.9751C9.36004 10.9917 9.2142 11.0001 9.00587 11.0001H8.78087C8.70587 11.0001 8.63504 10.9917 8.56837 10.9751L7.58087 12.5001H10.1059C10.2142 12.2001 10.3955 11.9584 10.6499 11.7751C10.9039 11.5917 11.1892 11.5001 11.5059 11.5001C11.9225 11.5001 12.2767 11.6459 12.5684 11.9376C12.86 12.2292 13.0059 12.5834 13.0059 13.0001C13.0059 13.4167 12.86 13.7709 12.5684 14.0626C12.2767 14.3542 11.9225 14.5001 11.5059 14.5001C11.1892 14.5001 10.9039 14.4084 10.6499 14.2251C10.3955 14.0417 10.2142 13.8001 10.1059 13.5001H6.93087L6.43087 14.2751C6.35587 14.3917 6.2497 14.4646 6.11237 14.4936C5.9747 14.5229 5.84754 14.5001 5.73087 14.4251ZM11.5059 13.5001C11.6475 13.5001 11.7662 13.4521 11.8619 13.3561C11.9579 13.2604 12.0059 13.1417 12.0059 13.0001C12.0059 12.8584 11.9579 12.7397 11.8619 12.6441C11.7662 12.5481 11.6475 12.5001 11.5059 12.5001C11.3642 12.5001 11.2455 12.5481 11.1499 12.6441C11.0539 12.7397 11.0059 12.8584 11.0059 13.0001C11.0059 13.1417 11.0539 13.2604 11.1499 13.3561C11.2455 13.4521 11.3642 13.5001 11.5059 13.5001ZM7.98087 7.00006C7.90587 7.00006 7.84554 6.97506 7.79987 6.92506C7.75387 6.87506 7.73087 6.80839 7.73087 6.72506C7.73087 6.55839 7.7017 6.40623 7.64337 6.26856C7.58504 6.13123 7.48504 5.97923 7.34337 5.81256C7.2017 5.62923 7.09954 5.45423 7.03687 5.28756C6.97454 5.12089 6.9517 4.92923 6.96837 4.71256C6.9767 4.65423 7.00387 4.60423 7.04987 4.56256C7.09554 4.52089 7.1517 4.50006 7.21837 4.50006C7.29337 4.50006 7.35387 4.52506 7.39987 4.57506C7.44554 4.62506 7.46837 4.69173 7.46837 4.77506C7.46837 4.94173 7.49754 5.09173 7.55587 5.22506C7.6142 5.35839 7.7142 5.50839 7.85587 5.67506C8.00587 5.86673 8.11004 6.04589 8.16837 6.21256C8.2267 6.37923 8.24754 6.57089 8.23087 6.78756C8.22254 6.84589 8.19554 6.89589 8.14987 6.93756C8.10387 6.97923 8.04754 7.00006 7.98087 7.00006ZM9.23087 7.00006C9.15587 7.00006 9.09554 6.97506 9.04987 6.92506C9.00387 6.87506 8.98087 6.80839 8.98087 6.72506C8.9892 6.55839 8.9642 6.40623 8.90587 6.26856C8.84754 6.13123 8.74754 5.97923 8.60587 5.81256C8.45587 5.63756 8.34954 5.46456 8.28687 5.29356C8.22454 5.12289 8.2017 4.92923 8.21837 4.71256C8.2267 4.65423 8.25387 4.60423 8.29987 4.56256C8.34554 4.52089 8.4017 4.50006 8.46837 4.50006C8.54337 4.50006 8.60387 4.52506 8.64987 4.57506C8.69554 4.62506 8.71837 4.69173 8.71837 4.77506C8.71837 4.94173 8.74754 5.09173 8.80587 5.22506C8.8642 5.35839 8.9642 5.50839 9.10587 5.67506C9.24754 5.85839 9.34954 6.03539 9.41187 6.20606C9.47454 6.37706 9.49754 6.57089 9.48087 6.78756C9.47254 6.84589 9.44554 6.89589 9.39987 6.93756C9.35387 6.97923 9.29754 7.00006 9.23087 7.00006ZM10.4809 7.00006C10.4059 7.00006 10.3455 6.97506 10.2999 6.92506C10.2539 6.87506 10.2309 6.80839 10.2309 6.72506C10.2392 6.55839 10.2142 6.40623 10.1559 6.26856C10.0975 6.13123 9.99754 5.97923 9.85587 5.81256C9.70587 5.63756 9.59954 5.46456 9.53687 5.29356C9.47454 5.12289 9.4517 4.92923 9.46837 4.71256C9.47671 4.65423 9.50387 4.60423 9.54987 4.56256C9.59554 4.52089 9.65171 4.50006 9.71837 4.50006C9.79337 4.50006 9.85387 4.52506 9.89987 4.57506C9.94554 4.62506 9.96837 4.69173 9.96837 4.77506C9.96837 4.94173 9.99754 5.09173 10.0559 5.22506C10.1142 5.35839 10.2142 5.50839 10.3559 5.67506C10.4975 5.85839 10.5995 6.03539 10.6619 6.20606C10.7245 6.37706 10.7475 6.57089 10.7309 6.78756C10.7225 6.84589 10.6955 6.89589 10.6499 6.93756C10.6039 6.97923 10.5475 7.00006 10.4809 7.00006Z" fill="white"/>
</svg>
