<svg width="18" height="18" viewBox="0 0 18 18" fill="none" xmlns="http://www.w3.org/2000/svg">
<circle cx="9" cy="9" r="8.5" fill="#808080" stroke="white"/>
<path d="M7.75 13.92C7.60833 13.9617 7.48967 13.945 7.394 13.87C7.298 13.795 7.25 13.6867 7.25 13.545C7.25 13.4784 7.26883 13.4095 7.3065 13.3385C7.34383 13.2679 7.3875 13.2117 7.4375 13.17L8.25 12.5575V9.80753L4.6375 10.87C4.4625 10.92 4.3125 10.8992 4.1875 10.8075C4.0625 10.7159 4 10.5742 4 10.3825C4 10.2909 4.02717 10.197 4.0815 10.101C4.1355 10.0054 4.20417 9.93669 4.2875 9.89503L8.25 7.55753V4.80753C8.25 4.59086 8.32083 4.41169 8.4625 4.27003C8.60417 4.12836 8.78333 4.05753 9 4.05753C9.21667 4.05753 9.39583 4.12836 9.5375 4.27003C9.67917 4.41169 9.75 4.59086 9.75 4.80753V7.55753L13.7125 9.89503C13.7958 9.93669 13.8645 10.0075 13.9185 10.1075C13.9728 10.2075 14 10.3034 14 10.395C14 10.5784 13.9375 10.7159 13.8125 10.8075C13.6875 10.8992 13.5375 10.92 13.3625 10.87L9.75 9.80753V12.5575L10.5625 13.17C10.6125 13.2117 10.6562 13.2679 10.6935 13.3385C10.7312 13.4095 10.75 13.4784 10.75 13.545C10.75 13.6867 10.7022 13.795 10.6065 13.87C10.5105 13.945 10.3917 13.9617 10.25 13.92L9 13.5575L7.75 13.92Z" fill="white"/>
</svg>
