<svg width="18" height="18" viewBox="0 0 18 18" fill="none" xmlns="http://www.w3.org/2000/svg">
<circle cx="9" cy="9" r="8.5" fill="#808080" stroke="white"/>
<path fill-rule="evenodd" clip-rule="evenodd" d="M6 4C5.44772 4 5 4.44772 5 5V13H4.5C4.22386 13 4 13.2239 4 13.5C4 13.7761 4.22386 14 4.5 14H11C11.2761 14 11.5 13.7761 11.5 13.5C11.5 13.2239 11.2761 13 11 13H10.5V9.25H11V11C11 11.8284 11.6716 12.5 12.5 12.5C13.3279 12.5 14 11.8297 14 11.0007V8C14.5523 8 15 7.55228 15 7V6.5C15 6.22386 14.7761 6 14.5 6V5.25C14.5 5.11193 14.3881 5 14.25 5C14.1119 5 14 5.11193 14 5.25V6H13V5.25C13 5.11193 12.8881 5 12.75 5C12.6119 5 12.5 5.11193 12.5 5.25V6C12.2239 6 12 6.22386 12 6.5V7C12 7.55228 12.4477 8 13 8V11.0007C13 11.2764 12.7766 11.5 12.5 11.5C12.2239 11.5 12 11.2761 12 11V8.99074C12 8.58164 11.6684 8.25 11.2593 8.25H10.5V5C10.5 4.44772 10.0523 4 9.5 4H6ZM7.5 13V11H6.5L8 9V11H9L7.5 13ZM6.5 5C6.22386 5 6 5.22386 6 5.5V7.5C6 7.77614 6.22386 8 6.5 8H9C9.27614 8 9.5 7.77614 9.5 7.5V5.5C9.5 5.22386 9.27614 5 9 5H6.5Z" fill="white"/>
</svg>
