<svg width="18" height="18" viewBox="0 0 18 18" fill="none" xmlns="http://www.w3.org/2000/svg">
<circle cx="9" cy="9" r="8.5" fill="#808080" stroke="white"/>
<path d="M7.5 11.75C7.64167 11.75 7.7605 11.702 7.8565 11.606C7.95217 11.5104 8 11.3917 8 11.25C8 11.1084 7.95217 10.9895 7.8565 10.8935C7.7605 10.7979 7.64167 10.75 7.5 10.75C7.35833 10.75 7.23967 10.7979 7.144 10.8935C7.048 10.9895 7 11.1084 7 11.25C7 11.3917 7.048 11.5104 7.144 11.606C7.23967 11.702 7.35833 11.75 7.5 11.75ZM10.5 11.75C10.6417 11.75 10.7605 11.702 10.8565 11.606C10.9522 11.5104 11 11.3917 11 11.25C11 11.1084 10.9522 10.9895 10.8565 10.8935C10.7605 10.7979 10.6417 10.75 10.5 10.75C10.3583 10.75 10.2397 10.7979 10.144 10.8935C10.048 10.9895 10 11.1084 10 11.25C10 11.3917 10.048 11.5104 10.144 11.606C10.2397 11.702 10.3583 11.75 10.5 11.75ZM6 14C5.85833 14 5.7395 13.952 5.6435 13.856C5.54783 13.7604 5.5 13.6417 5.5 13.5V10.3L6.325 7.90002C6.36667 7.78336 6.43533 7.68752 6.531 7.61252C6.627 7.53752 6.73333 7.50002 6.85 7.50002H11.15C11.2667 7.50002 11.373 7.53752 11.469 7.61252C11.5647 7.68752 11.6333 7.78336 11.675 7.90002L12.5 10.3V13.5C12.5 13.6417 12.452 13.7604 12.356 13.856C12.2603 13.952 12.1417 14 12 14C11.8583 14 11.7397 13.952 11.644 13.856C11.548 13.7604 11.5 13.6417 11.5 13.5V13H6.5V13.5C6.5 13.6417 6.45217 13.7604 6.3565 13.856C6.2605 13.952 6.14167 14 6 14ZM6.825 9.50002H11.175L10.825 8.50002H7.175L6.825 9.50002Z" fill="white"/>
<path d="M11.8179 5.51143C11.7502 5.57913 11.6732 5.63079 11.587 5.6664C11.5006 5.70187 11.4066 5.71961 11.3051 5.71961L9.26902 5.71453C9.2284 5.80931 9.1802 5.89813 9.12442 5.981C9.0685 6.064 9.00161 6.14442 8.92375 6.22228C8.58526 6.56078 8.17906 6.73002 7.70516 6.73002C7.23126 6.73002 6.82507 6.56078 6.48657 6.22228C6.36471 6.10042 6.26566 5.96752 6.18943 5.82359C6.11334 5.6798 6.05668 5.52836 6.01944 5.36926H7.50206V4.63811H6.01944C6.05668 4.47901 6.11334 4.32757 6.18943 4.18377C6.26566 4.03984 6.36471 3.90695 6.48657 3.78509C6.82507 3.44659 7.23126 3.27734 7.70516 3.27734C8.17906 3.27734 8.58526 3.44659 8.92375 3.78509C9.00161 3.86295 9.06843 3.94331 9.12421 4.02617C9.18013 4.10917 9.2284 4.19806 9.26902 4.29284L11.3102 4.28268C11.4117 4.28268 11.5057 4.30042 11.5921 4.3359C11.6783 4.37151 11.7553 4.42316 11.823 4.49086C11.8907 4.55856 11.9423 4.63723 11.9778 4.72686C12.0134 4.81663 12.0312 4.9089 12.0312 5.00368C12.0312 5.10523 12.0126 5.19832 11.9753 5.28295C11.9381 5.36757 11.8856 5.44373 11.8179 5.51143Z" fill="white"/>
</svg>
