<svg width="14" height="10" viewBox="0 0 14 10" fill="none" xmlns="http://www.w3.org/2000/svg">
<path fill-rule="evenodd" clip-rule="evenodd" d="M3.00005 1C2.44776 1 2.00005 1.44772 2.00005 2V3C2.00005 3.55228 2.44776 4 3.00005 4H4.00005V5H2.30906C2.11968 5 1.94655 5.107 1.86185 5.27639L1.36185 6.27639C1.19563 6.60884 1.43737 7 1.80906 7H3.00005V8.5C3.00005 8.77614 3.22391 9 3.50005 9C3.77619 9 4.00005 8.77614 4.00005 8.5V7H10V8.5C10 8.77614 10.2239 9 10.5 9C10.7762 9 11 8.77614 11 8.5V7H12.191C12.5627 7 12.8045 6.60884 12.6382 6.27639L12.1382 5.27639C12.0535 5.107 11.8804 5 11.691 5H10V4H11C11.5523 4 12 3.55228 12 3V2C12 1.44772 11.5523 1 11 1H3.00005ZM9.00005 4H5.00005V5H9.00005V4Z" fill="#808080"/>
<path fill-rule="evenodd" clip-rule="evenodd" d="M1.00005 2C1.00005 0.89543 1.89548 0 3.00005 0H11C12.1046 0 13 0.89543 13 2V3C13 3.48132 12.83 3.92292 12.5468 4.26804C12.7495 4.40881 12.9181 4.59995 13.0327 4.82918L13.5327 5.82918C14.0313 6.82653 13.3061 8 12.191 8H12V8.5C12 9.32843 11.3285 10 10.5 10C9.67162 10 9.00005 9.32843 9.00005 8.5V8H5.00005V8.5C5.00005 9.32843 4.32847 10 3.50005 10C2.67162 10 2.00005 9.32843 2.00005 8.5V8H1.80906C0.693993 8 -0.0312529 6.82653 0.467423 5.82918L0.967423 4.82918C1.08204 4.59995 1.25063 4.40881 1.45333 4.26804C1.17007 3.92292 1.00005 3.48132 1.00005 3V2ZM3.00005 4C2.44776 4 2.00005 3.55228 2.00005 3V2C2.00005 1.44772 2.44776 1 3.00005 1H11C11.5523 1 12 1.44772 12 2V3C12 3.55228 11.5523 4 11 4H10V5H11.691C11.8804 5 12.0535 5.107 12.1382 5.27639L12.6382 6.27639C12.8045 6.60884 12.5627 7 12.191 7H11V8.5C11 8.77614 10.7762 9 10.5 9C10.2239 9 10 8.77614 10 8.5V7H4.00005V8.5C4.00005 8.77614 3.77619 9 3.50005 9C3.22391 9 3.00005 8.77614 3.00005 8.5V7H1.80906C1.43737 7 1.19563 6.60884 1.36185 6.27639L1.86185 5.27639C1.94655 5.107 2.11968 5 2.30906 5H4.00005V4H3.00005ZM9.00005 4V5H5.00005V4H9.00005Z" fill="white"/>
</svg>
