<svg width="10" height="13" viewBox="0 0 10 13" fill="none" xmlns="http://www.w3.org/2000/svg">
  <path fill-rule="evenodd" clip-rule="evenodd" d="M8.194 11.961a.5.5 0 0 1-.491-.059L5 9.936l-2.703 1.966-.017.012a.496.496 0 0 1-.76-.272.5.5 0 0 1-.004-.267l.84-3.361L2.337 8H1.5a.5.5 0 1 1 0-1h7a.5.5 0 1 1 0 1h-.837l-.02.014.841 3.361a.5.5 0 0 1-.29.586M6.772 8.648l-.922.67 1.331.968zm-2.622.67-1.331.968.41-1.638zM5 8.7l.962-.7H4.038zm.295-7.61a.52.52 0 0 0-.59 0L1.7 3.169c-.382.264-.181.831.296.831H2.5v1.5A.5.5 0 0 0 3 6h4a.5.5 0 0 0 .5-.5V4h.504c.477 0 .678-.567.295-.832zM6.25 4h-.5a.25.25 0 0 0-.25.25v.5c0 .138.112.25.25.25h.5a.25.25 0 0 0 .25-.25v-.5A.25.25 0 0 0 6.25 4m-2 0h-.5a.25.25 0 0 0-.25.25v.5c0 .138.112.25.25.25h.5a.25.25 0 0 0 .25-.25v-.5A.25.25 0 0 0 4.25 4" fill="gray"/>
  <path fill-rule="evenodd" clip-rule="evenodd" d="m8.583 12.882-.002.001a1.5 1.5 0 0 1-1.469-.174L5 11.172l-2.12 1.543-.034.023a1.496 1.496 0 0 1-2.285-.812 1.5 1.5 0 0 1-.014-.797l.546-2.185A1.5 1.5 0 0 1 1.5 6h.086a1.5 1.5 0 0 1-.086-.5v-.58a1.48 1.48 0 0 1-.916-.902 1.434 1.434 0 0 1 .547-1.671L4.138.267a1.52 1.52 0 0 1 1.724 0h.002l3.004 2.079c.585.405.752 1.097.549 1.672a1.48 1.48 0 0 1-.917.901V5.5q-.001.259-.086.5H8.5a1.5 1.5 0 0 1 .407 2.944l.546 2.186a1.5 1.5 0 0 1-.87 1.752m-.88-.98a.5.5 0 0 0 .781-.527l-.841-3.361.02-.014H8.5a.5.5 0 1 0 0-1h-7a.5.5 0 1 0 0 1h.837l.019.014-.84 3.361a.5.5 0 0 0 .764.539l.017-.012L5 9.936zM4.038 8 5 8.7l.962-.7zM5.85 9.318l1.33.968-.408-1.638zm-2.621-.67-.41 1.638 1.33-.968zM1.7 3.169c-.382.264-.181.831.296.831H2.5v1.5A.5.5 0 0 0 3 6h4a.5.5 0 0 0 .5-.5V4h.504c.477 0 .678-.567.295-.832L5.295 1.09a.52.52 0 0 0-.59 0zM6.25 5a.25.25 0 0 0 .25-.25v-.5A.25.25 0 0 0 6.25 4h-.5a.25.25 0 0 0-.25.25v.5c0 .138.112.25.25.25zm-2 0a.25.25 0 0 0 .25-.25v-.5A.25.25 0 0 0 4.25 4h-.5a.25.25 0 0 0-.25.25v.5c0 .138.112.25.25.25z" fill="#fff"/>
</svg>
