<svg width="13" height="11" viewBox="0 0 13 11" fill="none" xmlns="http://www.w3.org/2000/svg">
<path d="M10.5048 10H1.59237C1.21113 10 0.970141 9.59044 1.15529 9.25718L1.84345 7.55933C1.88214 7.4897 1.9369 7.43031 2.00318 7.38613L3.29184 6.52702C3.36424 6.47875 3.42279 6.41243 3.46171 6.3346L4.98154 3.29494C5.08237 3.09327 5.30571 2.98404 5.52681 3.02826L6.01327 3.12555C6.24113 3.17112 6.47035 3.0537 6.56651 2.84216L7.27059 1.29318C7.43485 0.931804 8.28688 0.896747 8.5 1.23165L9.70648 3.12755C9.73839 3.17769 9.7611 3.23311 9.77355 3.29122L10.5047 6.70337L10.998 9.4178C11.0488 9.72257 10.8138 10 10.5048 10Z" fill="#808080"/>
<path fill-rule="evenodd" clip-rule="evenodd" d="M11.4873 6.5163L11.9844 9.2534C12.1368 10.1677 11.4317 11 10.5048 11H1.59237C0.448642 11 -0.274311 9.77133 0.281132 8.77153L0.969296 7.07369L1.84345 7.55933L1.15529 9.25718C0.970141 9.59044 1.21113 10 1.59237 10H10.5048C10.8138 10 11.0488 9.72257 10.998 9.4178L10.5047 6.70337L9.77355 3.29122C9.7611 3.23311 9.73839 3.17769 9.70648 3.12755L8.5 1.23165C8.28688 0.896747 7.43485 0.931804 7.27059 1.29318L6.56651 2.84216C6.47035 3.0537 6.24113 3.17112 6.01327 3.12555L5.52681 3.02826C5.30571 2.98404 5.08237 3.09327 4.98154 3.29494L3.46171 6.3346C3.42279 6.41243 3.36424 6.47875 3.29184 6.52702L2.00318 7.38613C1.9369 7.43031 1.88214 7.4897 1.84345 7.55933L0.969296 7.07369C1.08535 6.86478 1.24964 6.68664 1.44848 6.55408L2.62666 5.76862L4.08711 2.84773C4.38962 2.24271 5.05963 1.91502 5.72293 2.04768L5.82033 2.06716L6.36022 0.87938C6.85301 -0.204756 8.70431 -0.309926 9.34366 0.694772L10.5501 2.59068C10.6459 2.74109 10.714 2.90736 10.7514 3.0817L11.4873 6.5163Z" fill="white"/>
</svg>
