<svg width="18" height="18" viewBox="0 0 18 18" fill="none" xmlns="http://www.w3.org/2000/svg">
<circle cx="9" cy="9" r="8.5" fill="#808080" stroke="white"/>
<path d="M8.99988 12.0399L6.71589 13.4157C6.61499 13.4799 6.5095 13.5074 6.39943 13.4983C6.28936 13.4891 6.19305 13.4524 6.1105 13.3882C6.02795 13.324 5.96374 13.2439 5.91787 13.1477C5.87201 13.0512 5.86284 12.9433 5.89036 12.8241L6.49575 10.2237L4.4732 8.4763C4.38147 8.39375 4.32423 8.29965 4.30149 8.19395C4.27837 8.08865 4.28516 7.98558 4.32185 7.88468C4.35854 7.78378 4.41358 7.70122 4.48696 7.63701C4.56034 7.5728 4.66123 7.53153 4.78965 7.51319L7.45886 7.27928L8.49078 4.83021C8.53663 4.72014 8.60783 4.63759 8.70433 4.58256C8.80043 4.52752 8.89898 4.5 8.99988 4.5C9.10078 4.5 9.19943 4.52752 9.29593 4.58256C9.39208 4.63759 9.46308 4.72014 9.50893 4.83021L10.5408 7.27928L13.2101 7.51319C13.3385 7.53153 13.4394 7.5728 13.5128 7.63701C13.5861 7.70122 13.6412 7.78378 13.6779 7.88468C13.7145 7.98558 13.7215 8.08865 13.6988 8.19395C13.6757 8.29965 13.6182 8.39375 13.5265 8.4763L11.504 10.2237L12.1093 12.8241C12.1369 12.9433 12.1277 13.0512 12.0818 13.1477C12.036 13.2439 11.9718 13.324 11.8892 13.3882C11.8067 13.4524 11.7103 13.4891 11.6003 13.4983C11.4902 13.5074 11.3847 13.4799 11.2838 13.4157L8.99988 12.0399Z" fill="white"/>
</svg>
