<svg width="18" height="18" viewBox="0 0 18 18" fill="none" xmlns="http://www.w3.org/2000/svg">
<circle cx="9" cy="9" r="8.5" fill="#808080" stroke="white"/>
<path d="M7.6 7.62491L8.925 4.99991H9.075L10.4 7.62491H7.6ZM8.625 13.5499L4.3125 8.37491H8.625V13.5499ZM9.375 13.5499V8.37491H13.6875L9.375 13.5499ZM11.225 7.62491L9.925 4.99991H11.8875C12.0792 4.99991 12.252 5.04991 12.406 5.14991C12.5603 5.24991 12.6833 5.38324 12.775 5.54991L13.8125 7.62491H11.225ZM4.1875 7.62491L5.225 5.54991C5.31667 5.38324 5.43967 5.24991 5.594 5.14991C5.748 5.04991 5.92083 4.99991 6.1125 4.99991H8.075L6.775 7.62491H4.1875Z" fill="white"/>
</svg>
