<svg width="18" height="18" viewBox="0 0 18 18" fill="none" xmlns="http://www.w3.org/2000/svg">
  <circle cx="9" cy="9" r="8.5" fill="gray" stroke="#fff"/>
  <path d="M10 7.388a.4.4 0 0 1 .082-.232.4.4 0 0 1 .18-.156q.363-.125.726-.187a4.5 4.5 0 0 1 1.256-.032q.244.031.481.082.113.024.194.124a.35.35 0 0 1 .081.226q0 .212-.137.312-.138.1-.35.05a3 3 0 0 0-.369-.056 4 4 0 0 0-.394-.019q-.326 0-.637.063a4.5 4.5 0 0 0-.6.162q-.225.087-.369-.012Q10 7.612 10 7.388m0 2.75a.4.4 0 0 1 .082-.232.4.4 0 0 1 .18-.156q.363-.125.726-.187a4.5 4.5 0 0 1 1.256-.032q.244.031.481.082.113.024.194.125a.35.35 0 0 1 .081.225q0 .211-.137.312-.138.1-.35.05a3 3 0 0 0-.369-.056 4 4 0 0 0-.394-.019q-.326 0-.637.056-.314.057-.6.157-.225.087-.369-.007-.144-.093-.144-.319m0-1.376a.4.4 0 0 1 .082-.231.4.4 0 0 1 .18-.156q.363-.125.726-.187a4.5 4.5 0 0 1 1.256-.032q.244.031.481.082.113.024.194.125a.35.35 0 0 1 .081.225q0 .211-.137.312-.138.1-.35.05a3 3 0 0 0-.369-.056 4 4 0 0 0-.394-.019q-.326 0-.637.063a4.5 4.5 0 0 0-.6.162q-.225.087-.369-.012-.144-.1-.144-.325m-.5 2.763a5.5 5.5 0 0 1 1.107-.394q.555-.13 1.143-.131.45 0 .882.075.43.075.868.225V6.35a4.3 4.3 0 0 0-.856-.262 4.6 4.6 0 0 0-2.056.062q-.575.15-1.088.45zM9 12.738q-.175 0-.331-.044a1.4 1.4 0 0 1-.294-.119 4 4 0 0 0-1.025-.431A4.2 4.2 0 0 0 6.25 12q-.525 0-1.031.137-.506.138-.969.388a.48.48 0 0 1-.506-.013.48.48 0 0 1-.244-.437V6.05q0-.138.069-.263a.43.43 0 0 1 .206-.187q.574-.3 1.2-.45A5.44 5.44 0 0 1 9 5.75 5.4 5.4 0 0 1 11.75 5q.65 0 1.275.15.626.15 1.2.45.137.063.207.188.068.124.068.262v6.025a.48.48 0 0 1-.243.438.48.48 0 0 1-.507.012 4.5 4.5 0 0 0-.969-.388A4 4 0 0 0 11.75 12q-.563 0-1.1.144t-1.025.431q-.138.075-.293.119a1.2 1.2 0 0 1-.332.043" fill="#fff"/>
</svg>
