<svg width="18" height="18" viewBox="0 0 18 18" fill="none" xmlns="http://www.w3.org/2000/svg">
<path fill-rule="evenodd" clip-rule="evenodd" d="M4.0785 15.6715C4.297 15.8905 4.5625 16 4.875 16C5.1875 16 5.453 15.8905 5.6715 15.6715C5.8905 15.453 6 15.1875 6 14.875V14.5H12V14.875C12 15.1875 12.1095 15.453 12.3285 15.6715C12.547 15.8905 12.8125 16 13.125 16C13.4375 16 13.703 15.8905 13.9215 15.6715C14.1405 15.453 14.25 15.1875 14.25 14.875V13.7125C14.475 13.4625 14.6563 13.1843 14.7938 12.8778C14.9313 12.5718 15 12.2375 15 11.875V5C15 3.925 14.5375 3.15625 13.6125 2.69375C12.6875 2.23125 11.15 2 9 2C6.925 2 5.40625 2.2405 4.44375 2.7215C3.48125 3.203 3 3.9625 3 5V11.875C3 12.2375 3.06875 12.5718 3.20625 12.8778C3.34375 13.1843 3.525 13.4625 3.75 13.7125V14.875C3.75 15.1875 3.8595 15.453 4.0785 15.6715ZM6 12C6.55228 12 7 11.5523 7 11C7 10.4477 6.55228 10 6 10C5.44772 10 5 10.4477 5 11C5 11.5523 5.44772 12 6 12ZM13 11C13 11.5523 12.5523 12 12 12C11.4477 12 11 11.5523 11 11C11 10.4477 11.4477 10 12 10C12.5523 10 13 10.4477 13 11ZM5.5 5C5.22386 5 5 5.22386 5 5.5V7.5C5 7.77614 5.22386 8 5.5 8H12.5C12.7761 8 13 7.77614 13 7.5V5.5C13 5.22386 12.7761 5 12.5 5H5.5Z" fill="#808080"/>
<path fill-rule="evenodd" clip-rule="evenodd" d="M3.99672 1.82698C5.17498 1.23816 6.8882 1 9 1C11.1725 1 12.9125 1.22572 14.0597 1.79932C14.6655 2.10219 15.1667 2.53102 15.51 3.10167C15.8519 3.67003 16 4.31705 16 5V11.875C16 12.3673 15.9059 12.8426 15.7059 13.2876C15.5815 13.5648 15.4293 13.8251 15.25 14.0673V14.875C15.25 15.4497 15.0372 15.9705 14.6286 16.3786C14.2205 16.7872 13.6997 17 13.125 17C12.5499 17 12.0288 16.787 11.6206 16.3778C11.3667 16.124 11.1886 15.8267 11.0902 15.5H6.90984C6.81133 15.8271 6.63289 16.1247 6.37861 16.3786C5.97049 16.7872 5.4497 17 4.875 17C4.29992 17 3.77882 16.787 3.37059 16.3778C2.96247 15.9698 2.75 15.4493 2.75 14.875V14.0673C2.5706 13.8249 2.41832 13.5645 2.29386 13.2871C2.09407 12.8422 2 12.3671 2 11.875V5C2 4.32153 2.15932 3.68029 2.51624 3.11701C2.87181 2.55586 3.38506 2.13297 3.99672 1.82698ZM3.20625 12.8778C3.34375 13.1843 3.525 13.4625 3.75 13.7125V14.875C3.75 15.1875 3.8595 15.453 4.0785 15.6715C4.297 15.8905 4.5625 16 4.875 16C5.1875 16 5.453 15.8905 5.6715 15.6715C5.8905 15.453 6 15.1875 6 14.875V14.5H12V14.875C12 15.1875 12.1095 15.453 12.3285 15.6715C12.547 15.8905 12.8125 16 13.125 16C13.4375 16 13.703 15.8905 13.9215 15.6715C14.1405 15.453 14.25 15.1875 14.25 14.875V13.7125C14.475 13.4625 14.6563 13.1843 14.7938 12.8778C14.9313 12.5718 15 12.2375 15 11.875V5C15 3.925 14.5375 3.15625 13.6125 2.69375C12.6875 2.23125 11.15 2 9 2C6.925 2 5.40625 2.2405 4.44375 2.7215C3.48125 3.203 3 3.9625 3 5V11.875C3 12.2375 3.06875 12.5718 3.20625 12.8778ZM7 11C7 11.5523 6.55228 12 6 12C5.44772 12 5 11.5523 5 11C5 10.4477 5.44772 10 6 10C6.55228 10 7 10.4477 7 11ZM12 12C12.5523 12 13 11.5523 13 11C13 10.4477 12.5523 10 12 10C11.4477 10 11 10.4477 11 11C11 11.5523 11.4477 12 12 12ZM5 5.5C5 5.22386 5.22386 5 5.5 5H12.5C12.7761 5 13 5.22386 13 5.5V7.5C13 7.77614 12.7761 8 12.5 8H5.5C5.22386 8 5 7.77614 5 7.5V5.5Z" fill="white"/>
</svg>
