<svg width="18" height="18" viewBox="0 0 18 18" fill="none" xmlns="http://www.w3.org/2000/svg">
<circle cx="9" cy="9" r="8.5" fill="#808080" stroke="white"/>
<path d="M11 14C10.8583 14 10.7397 13.952 10.644 13.856C10.548 13.7603 10.5 13.6417 10.5 13.5C10.5 13.3583 10.548 13.2397 10.644 13.144C10.7397 13.048 10.8583 13 11 13H12.5V12.5H11C10.8583 12.5 10.7397 12.452 10.644 12.356C10.548 12.2603 10.5 12.1417 10.5 12C10.5 11.8583 10.548 11.7397 10.644 11.644C10.7397 11.548 10.8583 11.5 11 11.5H12.5V11H11C10.8583 11 10.7397 10.952 10.644 10.856C10.548 10.7603 10.5 10.6417 10.5 10.5C10.5 10.3583 10.548 10.2395 10.644 10.1435C10.7397 10.0478 10.8583 10 11 10H12.5V9.5H11C10.8583 9.5 10.7397 9.452 10.644 9.356C10.548 9.26033 10.5 9.14167 10.5 9C10.5 8.85833 10.548 8.7395 10.644 8.6435C10.7397 8.54783 10.8583 8.5 11 8.5H12.5V8H11C10.8583 8 10.7397 7.952 10.644 7.856C10.548 7.76033 10.5 7.64167 10.5 7.5C10.5 7.35833 10.548 7.2395 10.644 7.1435C10.7397 7.04783 10.8583 7 11 7H12.5V6.5H11C10.8583 6.5 10.7397 6.45217 10.644 6.3565C10.548 6.2605 10.5 6.14167 10.5 6C10.5 5.85833 10.548 5.7395 10.644 5.6435C10.7397 5.54783 10.8583 5.5 11 5.5H13C13.275 5.5 13.5105 5.598 13.7065 5.794C13.9022 5.98967 14 6.225 14 6.5V13C14 13.275 13.9022 13.5105 13.7065 13.7065C13.5105 13.9022 13.275 14 13 14H11ZM7 10C7.55 10 8.02083 9.72917 8.4125 9.1875C8.80417 8.64583 9 8 9 7.25C9 6.5 8.80417 5.85417 8.4125 5.3125C8.02083 4.77083 7.55 4.5 7 4.5C6.45 4.5 5.97917 4.77083 5.5875 5.3125C5.19583 5.85417 5 6.5 5 7.25C5 8 5.19583 8.64583 5.5875 9.1875C5.97917 9.72917 6.45 10 7 10ZM7 14C6.6 14 6.27083 13.8522 6.0125 13.5565C5.75417 13.2605 5.65417 12.9125 5.7125 12.5125L5.9125 10.75C5.34583 10.475 4.88533 10.0228 4.531 9.3935C4.177 8.7645 4 8.05 4 7.25C4 6.20833 4.29167 5.323 4.875 4.594C5.45833 3.86467 6.16667 3.5 7 3.5C7.83333 3.5 8.54167 3.86467 9.125 4.594C9.70833 5.323 10 6.20833 10 7.25C10 8.05 9.823 8.7645 9.469 9.3935C9.11467 10.0228 8.65417 10.475 8.0875 10.75L8.2875 12.5125C8.34583 12.9125 8.24583 13.2605 7.9875 13.5565C7.72917 13.8522 7.4 14 7 14Z" fill="white"/>
</svg>
