<svg width="18" height="18" viewBox="0 0 18 18" fill="none" xmlns="http://www.w3.org/2000/svg">
<circle cx="9" cy="9" r="8.5" fill="#808080" stroke="white"/>
<path d="M4.39994 13.1999C4.07494 13.1999 3.86244 13.0457 3.76244 12.7374C3.66244 12.4291 3.74161 12.1832 3.99994 11.9999L8.33744 8.78742V7.97492C8.33744 7.79158 8.39994 7.63525 8.52494 7.50592C8.64994 7.37692 8.80828 7.31242 8.99994 7.31242C9.19161 7.32075 9.35411 7.25825 9.48744 7.12492C9.62078 6.99158 9.68744 6.82492 9.68744 6.62492C9.68744 6.43325 9.62294 6.26858 9.49394 6.13091C9.36461 5.99358 9.20411 5.92491 9.01244 5.92491C8.87078 5.92491 8.73961 5.96441 8.61894 6.04341C8.49794 6.12275 8.40828 6.22491 8.34994 6.34991C8.29994 6.47491 8.22078 6.57075 8.11244 6.63741C8.00411 6.70408 7.88744 6.73741 7.76244 6.73741C7.51244 6.73741 7.32278 6.63741 7.19344 6.43742C7.06444 6.23741 7.04994 6.02491 7.14994 5.79991C7.31661 5.43325 7.56661 5.14158 7.89994 4.92491C8.23328 4.70825 8.59994 4.59991 8.99994 4.59991C9.55828 4.59991 10.0333 4.79358 10.4249 5.18091C10.8166 5.56858 11.0124 6.04158 11.0124 6.59991C11.0124 7.02491 10.8854 7.40408 10.6314 7.73742C10.3771 8.07075 10.0541 8.31242 9.66244 8.46242V8.78742L13.9999 11.9999C14.2583 12.1916 14.3374 12.4394 14.2374 12.7434C14.1374 13.0477 13.9249 13.1999 13.5999 13.1999H4.39994ZM6.36244 11.8749H11.6374L8.99994 9.92492L6.36244 11.8749Z" fill="white"/>
</svg>
