<svg width="18" height="18" viewBox="0 0 18 18" fill="none" xmlns="http://www.w3.org/2000/svg">
<circle cx="9" cy="9" r="8.5" fill="#808080" stroke="white"/>
<path d="M9.0001 14C8.85843 14 8.73977 13.952 8.6441 13.856C8.5481 13.7603 8.5001 13.6417 8.5001 13.5V7.50001H4.7876C4.6626 7.50001 4.58343 7.44167 4.5501 7.32501C4.51676 7.20834 4.5501 7.11667 4.6501 7.05001L8.4251 4.40001C8.6001 4.28334 8.79177 4.22501 9.0001 4.22501C9.20843 4.22501 9.4001 4.28334 9.5751 4.40001L13.3501 7.05001C13.4501 7.11667 13.4834 7.20834 13.4501 7.32501C13.4168 7.44167 13.3376 7.50001 13.2126 7.50001H9.5001V13.5C9.5001 13.6417 9.45227 13.7603 9.3566 13.856C9.2606 13.952 9.14177 14 9.0001 14ZM5.0001 14C4.85843 14 4.73976 13.952 4.6441 13.856C4.5481 13.7603 4.5001 13.6417 4.5001 13.5V11.375L4.1876 9.66251C4.1626 9.52084 4.1876 9.39584 4.2626 9.28751C4.3376 9.17917 4.44593 9.11251 4.5876 9.08751C4.72093 9.06251 4.84393 9.08951 4.9566 9.16851C5.06893 9.24784 5.1376 9.35417 5.1626 9.48751L5.4501 11H7.0001C7.14177 11 7.2606 11.048 7.3566 11.144C7.45227 11.2397 7.5001 11.3583 7.5001 11.5V13.5C7.5001 13.6417 7.45227 13.7603 7.3566 13.856C7.2606 13.952 7.14177 14 7.0001 14C6.85843 14 6.7396 13.952 6.6436 13.856C6.54793 13.7603 6.5001 13.6417 6.5001 13.5V12H5.5001V13.5C5.5001 13.6417 5.45226 13.7603 5.3566 13.856C5.2606 13.952 5.14176 14 5.0001 14ZM11.0001 14C10.8584 14 10.7398 13.952 10.6441 13.856C10.5481 13.7603 10.5001 13.6417 10.5001 13.5V11.5C10.5001 11.3583 10.5481 11.2397 10.6441 11.144C10.7398 11.048 10.8584 11 11.0001 11H12.5501L12.8376 9.48751C12.8626 9.35417 12.9313 9.24784 13.0436 9.16851C13.1563 9.08951 13.2793 9.06251 13.4126 9.08751C13.5543 9.11251 13.6626 9.17917 13.7376 9.28751C13.8126 9.39584 13.8376 9.52084 13.8126 9.66251L13.5001 11.375V13.5C13.5001 13.6417 13.4521 13.7603 13.3561 13.856C13.2604 13.952 13.1418 14 13.0001 14C12.8584 14 12.7398 13.952 12.6441 13.856C12.5481 13.7603 12.5001 13.6417 12.5001 13.5V12H11.5001V13.5C11.5001 13.6417 11.4521 13.7603 11.3561 13.856C11.2604 13.952 11.1418 14 11.0001 14Z" fill="white"/>
</svg>
