<svg width="18" height="18" viewBox="0 0 18 18" fill="none" xmlns="http://www.w3.org/2000/svg">
<circle cx="9" cy="9" r="8.5" fill="#808080" stroke="white"/>
<path d="M12 14.0001C11.8583 14.0001 11.7397 13.9521 11.644 13.8561C11.548 13.7604 11.5 13.6417 11.5 13.5001V10.0001H11C10.725 10.0001 10.4897 9.90206 10.294 9.70606C10.098 9.5104 10 9.27506 10 9.00006V6.50006C10 5.80839 10.2438 5.21889 10.7315 4.73156C11.2188 4.24389 11.8083 4.00006 12.5 4.00006V13.5001C12.5 13.6417 12.452 13.7604 12.356 13.8561C12.2603 13.9521 12.1417 14.0001 12 14.0001ZM7 14.0001C6.85833 14.0001 6.7395 13.9521 6.6435 13.8561C6.54783 13.7604 6.5 13.6417 6.5 13.5001V9.42506C6.075 9.3084 5.71883 9.07506 5.4315 8.72506C5.14383 8.37506 5 7.96673 5 7.50006V4.50006C5 4.35839 5.04783 4.23956 5.1435 4.14356C5.2395 4.04789 5.35833 4.00006 5.5 4.00006C5.64167 4.00006 5.7605 4.04789 5.8565 4.14356C5.95217 4.23956 6 4.35839 6 4.50006V7.50006H6.5V4.50006C6.5 4.35839 6.54783 4.23956 6.6435 4.14356C6.7395 4.04789 6.85833 4.00006 7 4.00006C7.14167 4.00006 7.2605 4.04789 7.3565 4.14356C7.45217 4.23956 7.5 4.35839 7.5 4.50006V7.50006H8V4.50006C8 4.35839 8.048 4.23956 8.144 4.14356C8.23967 4.04789 8.35833 4.00006 8.5 4.00006C8.64167 4.00006 8.7605 4.04789 8.8565 4.14356C8.95217 4.23956 9 4.35839 9 4.50006V7.50006C9 7.96673 8.85617 8.37506 8.5685 8.72506C8.28117 9.07506 7.925 9.3084 7.5 9.42506V13.5001C7.5 13.6417 7.45217 13.7604 7.3565 13.8561C7.2605 13.9521 7.14167 14.0001 7 14.0001Z" fill="white"/>
</svg>
