<?xml version="1.0" encoding="UTF-8"?>
<svg width="18" height="18" version="1.1" viewBox="0 0 18 18" xmlns="http://www.w3.org/2000/svg">
 <circle cx="9" cy="9" r="8.5" fill="#808080" stroke="white"/>
 <path d="m11.839 6.1762s2.8093 6.1446 2.8339 6.1982" fill="none" stroke="#ffffff" stroke-linecap="round" stroke-linejoin="round" stroke-width=".8" style="paint-order:fill markers stroke"/>
 <path d="m7.5763 6.4319c-0.19526-0.19527-0.19526-0.51185 0-0.70711l0.79289-0.79289c0.19527-0.19527 0.19527-0.51185 0-0.70711-0.19526-0.19526-0.51184-0.19526-0.7071 0l-0.7929 0.79289c-0.58578 0.58579-0.58578 1.5355 0 2.1213l0.11716 0.11716c0.17794 0.17794 0.17794 0.46643 0 0.64437-0.49359 0.49359-0.55026 1.2366-0.2136 1.7885-0.11371 0.06489-0.22073 0.14585-0.31777 0.24289l-0.79289 0.79286c-0.19527 0.1953-0.19527 0.5119 0 0.7071 0.19526 0.1953 0.51184 0.1953 0.7071 0l0.7929-0.7929c0.19526-0.1952 0.51184-0.1952 0.7071 0l0.08579 0.0858c0.58579 0.5858 1.5355 0.5858 2.1213 0l0.08579-0.0858c0.19526-0.1952 0.51184-0.1952 0.7071 0l0.79664 0.80971c0.13862 0.10185 0.37328 0.22024 0.62367-0.0017 0.21882-0.19394 0.20434-0.53352 0.05998-0.68977l-0.77314-0.8253c-0.091723-0.097137-0.21124-0.16895-0.30288-0.24224l-0.51056-0.38074c-0.23924-0.15949-0.27275-0.49798-0.06944-0.70129 0.56846-0.56846 0.56846-1.4901 0-2.0586l-0.11716-0.11715c-0.19526-0.19527-0.19526-0.51185 0-0.70711l0.79289-0.79289c0.19525-0.19527 0.19525-0.51185 0-0.70711-0.19526-0.19526-0.51184-0.19526-0.7071 0l-0.7929 0.79289c-0.58578 0.58579-0.58578 1.5355 0 2.1213l0.11716 0.11716c0.17794 0.17794 0.17794 0.46643 0 0.64437-0.49359 0.49359-0.55026 1.2366-0.2136 1.7885-0.11371 0.06489-0.22073 0.14585-0.31777 0.24289l-0.08579 0.08578c-0.19526 0.19528-0.51184 0.19528-0.7071 0l-0.08579-0.08578c-0.04454-0.04455-0.09119-0.0857-0.13962-0.12347-0.03616-0.05647-0.08433-0.10654-0.14369-0.14611l-0.53009-0.3534c-0.23924-0.15949-0.27275-0.49798-0.06944-0.70129 0.56846-0.56846 0.56846-1.4901 0-2.0586z" fill="#ffffff"/>
 <path d="m6.3536 13.061c-0.19526-0.1952-0.51184-0.1952-0.7071 0l-0.7929 0.7929c-0.19526 0.1953-0.51184 0.1953-0.7071 0-0.19527-0.1952-0.19527-0.5118 0-0.7071l0.79289-0.7929c0.58579-0.5857 1.5355-0.5858 2.1213 0l0.08579 0.0858c0.19526 0.1953 0.51184 0.1953 0.7071 0l0.08579-0.0858c0.58579-0.5857 1.5355-0.5858 2.1214 0l0.0857 0.0858c0.1953 0.1953 0.5119 0.1953 0.7072 0l0.0857-0.0858c0.5858-0.5857 1.5356-0.5858 2.1214 0l0.7929 0.7929c0.1952 0.1953 0.1952 0.5119 0 0.7071-0.1953 0.1953-0.5119 0.1953-0.7072 0l-0.7928-0.7929c-0.1953-0.1952-0.5119-0.1952-0.7072 0l-0.0857 0.0858c-0.5858 0.5858-1.5356 0.5858-2.1214 0l-0.08579-0.0858c-0.19526-0.1952-0.51184-0.1952-0.7071 0l-0.08579 0.0858c-0.58579 0.5858-1.5355 0.5858-2.1213 0l-0.08579-0.0858z" fill="white"/>
 <path d="m5.7866 6.0799c-0.052065 0.010938-1.3866 4.2405-2.4116 6.2639" fill="none" stroke="#ffffff" stroke-linecap="round" stroke-linejoin="round" stroke-width=".8" style="paint-order:fill markers stroke"/>
</svg>
