<svg width="18" height="18" viewBox="0 0 18 18" fill="none" xmlns="http://www.w3.org/2000/svg">
<circle cx="9" cy="9" r="8.5" fill="#808080" stroke="white"/>
<path d="M5.5 13.4998C5.225 13.4998 4.9895 13.402 4.7935 13.2063C4.59783 13.0103 4.5 12.7748 4.5 12.4998V7.49982C4.5 7.22482 4.59783 6.98932 4.7935 6.79332C4.9895 6.59765 5.225 6.49982 5.5 6.49982H6.5V5.49982C6.5 5.22482 6.598 4.98932 6.794 4.79332C6.98967 4.59765 7.225 4.49982 7.5 4.49982H10.5C10.775 4.49982 11.0105 4.59765 11.2065 4.79332C11.4022 4.98932 11.5 5.22482 11.5 5.49982V8.49982H12.5C12.775 8.49982 13.0105 8.59765 13.2065 8.79332C13.4022 8.98932 13.5 9.22482 13.5 9.49982V12.4998C13.5 12.7748 13.4022 13.0103 13.2065 13.2063C13.0105 13.402 12.775 13.4998 12.5 13.4998H9.5V11.4998H8.5V13.4998H5.5ZM5.5 12.4998H6.5V11.4998H5.5V12.4998ZM5.5 10.4998H6.5V9.49982H5.5V10.4998ZM5.5 8.49982H6.5V7.49982H5.5V8.49982ZM7.5 10.4998H8.5V9.49982H7.5V10.4998ZM7.5 8.49982H8.5V7.49982H7.5V8.49982ZM7.5 6.49982H8.5V5.49982H7.5V6.49982ZM9.5 10.4998H10.5V9.49982H9.5V10.4998ZM9.5 8.49982H10.5V7.49982H9.5V8.49982ZM9.5 6.49982H10.5V5.49982H9.5V6.49982ZM11.5 12.4998H12.5V11.4998H11.5V12.4998ZM11.5 10.4998H12.5V9.49982H11.5V10.4998Z" fill="white"/>
</svg>
