<svg width="18" height="18" viewBox="0 0 18 18" fill="none" xmlns="http://www.w3.org/2000/svg">
<path d="M5.61855 11.9402C5.20491 11.9402 4.94558 11.5007 5.15081 11.1474L8.53226 5.32679C8.73907 4.9708 9.26093 4.9708 9.46774 5.32679L12.8492 11.1474C13.0544 11.5007 12.7951 11.9402 12.3814 11.9402H5.61855Z" fill="#888888"/>
<path fill-rule="evenodd" clip-rule="evenodd" d="M4.21533 10.6216L7.59678 4.80098C8.21721 3.733 9.78279 3.73301 10.4032 4.80098L13.7847 10.6216C14.4003 11.6814 13.6224 13 12.3814 13H5.61855C4.37762 13 3.59966 11.6814 4.21533 10.6216ZM5.15081 11.1474C4.94558 11.5007 5.20491 11.9402 5.61855 11.9402H12.3814C12.7951 11.9402 13.0544 11.5007 12.8492 11.1474L9.46774 5.32679C9.26093 4.9708 8.73907 4.9708 8.53226 5.32679L5.15081 11.1474Z" fill="white"/>
</svg>
