<svg width="14" height="16" viewBox="0 0 14 16" fill="none" xmlns="http://www.w3.org/2000/svg">
<path fill-rule="evenodd" clip-rule="evenodd" d="M5.36856 1.91426C5.48785 1.38014 5.96517 1 6.51654 1H7.48346C8.03483 1 8.51215 1.38014 8.63144 1.91426L8.96655 3.41477L11.3767 4.69584C11.7588 4.89894 11.9973 5.29414 11.9973 5.72422V6.24995C11.9973 6.57212 11.734 6.83328 11.4093 6.83328C11.0847 6.83328 10.8214 6.57212 10.8214 6.24995L10.7131 5.66663H9.46947L9.77509 7.03509L12.5721 8.70901C13.337 9.16681 13.0099 10.3333 12.1166 10.3333H10.5117L11.3954 14.2903C11.4657 14.6049 11.2656 14.9164 10.9486 14.9861C10.6316 15.0558 10.3177 14.8573 10.2474 14.5427L10.0848 13.8144C10.0461 13.8043 10.0078 13.7901 9.9706 13.7716L7 12.2979L4.0294 13.7716C3.99218 13.7901 3.95394 13.8043 3.91523 13.8144L3.75256 14.5427C3.68231 14.8573 3.36838 15.0558 3.05137 14.9861C2.73437 14.9164 2.53433 14.6049 2.60458 14.2903L3.48832 10.3333H1.8834C0.990072 10.3333 0.662968 9.16681 1.42792 8.70901L4.22491 7.03509L4.53053 5.66663H3.28693L3.17857 6.24995C3.17857 6.57212 2.91535 6.83328 2.59065 6.83328C2.26596 6.83328 2.00274 6.57212 2.00274 6.24995V5.72422C2.00274 5.29414 2.24122 4.89894 2.62331 4.69584L5.03345 3.41477L5.36856 1.91426ZM3.87369 8.60774L2.93989 9.16659H3.74888L3.87369 8.60774ZM4.95323 9.16659L5.21378 7.99994H8.78622L9.04677 9.16659H4.95323ZM5.66899 10.3333L7 10.9936L8.33099 10.3333H5.66899ZM10.2511 9.16659H11.0601L10.1263 8.60774L10.2511 9.16659ZM8.52567 6.83328H5.47433L5.73488 5.66663H8.26512L8.52567 6.83328ZM9.47219 11.0715L9.76066 12.3631L8.31461 11.6457L9.47219 11.0715ZM4.23934 12.3631L4.5278 11.0715L5.68538 11.6457L4.23934 12.3631ZM7.48346 2.16666L8.00457 4.49997H5.99543L6.51654 2.16666H7.48346Z" fill="#808080"/>
<path fill-rule="evenodd" clip-rule="evenodd" d="M8.00457 4.49997L7.48346 2.16666H6.51654L5.99543 4.49997H8.00457ZM5.67424 1.35328C5.74486 1.28124 5.82461 1.21848 5.91141 1.16665C6.0895 1.06031 6.29702 1 6.51654 1H7.48346C7.70298 1 7.9105 1.06031 8.08859 1.16665C8.17539 1.21848 8.25514 1.28124 8.32576 1.35328C8.474 1.50449 8.58285 1.69659 8.63144 1.91426L8.96554 3.41475L11.3744 4.69582C11.4455 4.7336 11.5116 4.77803 11.5721 4.8281C11.8368 5.04716 11.9947 5.37412 11.9947 5.72419V6.24992C11.9947 6.57208 11.7316 6.83325 11.4071 6.83325C11.3987 6.83325 11.3903 6.83307 11.382 6.83273C11.1759 6.82416 10.9972 6.71017 10.8993 6.54366C10.8485 6.4574 10.8195 6.35703 10.8195 6.24992L10.7112 5.6666H9.46819L9.77366 7.03506L12.5692 8.70896C12.7488 8.81648 12.8681 8.96309 12.9341 9.12449C13.0835 9.48999 12.959 9.93136 12.6398 10.1665C12.4998 10.2697 12.3223 10.3332 12.114 10.3332H10.5099L11.3932 14.2903C11.4634 14.6048 11.2634 14.9163 10.9466 14.986C10.6297 15.0557 10.316 14.8572 10.2458 14.5427L10.0832 13.8143C10.0445 13.8042 10.0063 13.79 9.96907 13.7716L7 12.2979L4.03093 13.7716C3.99374 13.79 3.95551 13.8042 3.91682 13.8143L3.75423 14.5427C3.68402 14.8572 3.37025 15.0557 3.05341 14.986C2.73657 14.9163 2.53663 14.6048 2.60684 14.2903L3.49014 10.3332H1.88604C1.67773 10.3332 1.50023 10.2697 1.3602 10.1665C1.041 9.93136 0.916546 9.48999 1.06591 9.1245C1.13187 8.96309 1.25123 8.81648 1.4308 8.70896L4.22634 7.03506L4.53181 5.6666H3.28884L3.18054 6.24992C3.18054 6.35703 3.15146 6.4574 3.10071 6.54366C3.00276 6.71017 2.82408 6.82415 2.61795 6.83273C2.60965 6.83307 2.60131 6.83325 2.59293 6.83325C2.2684 6.83325 2.00532 6.57208 2.00532 6.24992V5.72419C2.00532 5.37412 2.16324 5.04716 2.42795 4.8281C2.48845 4.77803 2.55453 4.7336 2.62557 4.69582L5.03446 3.41475L5.36856 1.91426C5.41715 1.69659 5.526 1.50449 5.67424 1.35328ZM4.15925 2.74771L2.15646 3.81281C1.45071 4.18814 1.00583 4.92145 1.00583 5.72419V6.24992C1.00583 6.73813 1.2259 7.17107 1.56986 7.4603L0.917531 7.8509C0.170392 8.29827 -0.0889077 9.05386 0.0261075 9.74711L0.144737 10.1665C0.410644 10.8198 1.02922 11.3332 1.88604 11.3332H2.24281L1.63139 14.0723C1.43912 14.9337 1.98814 15.7755 2.83879 15.9627C3.68698 16.1492 4.53799 15.6194 4.72968 14.7606L4.78481 14.5137L7 13.4141L9.21519 14.5137L9.27032 14.7606C9.46201 15.6194 10.313 16.1492 11.1612 15.9627C12.0119 15.7755 12.5609 14.9337 12.3686 14.0723L11.7572 11.3332H12.114C12.9708 11.3332 13.5894 10.8198 13.8553 10.1665L13.9739 9.74711C14.0889 9.05386 13.8296 8.29827 13.0825 7.8509L12.4301 7.4603C12.7741 7.17107 12.9942 6.73813 12.9942 6.24992V5.72419C12.9942 4.92145 12.5493 4.18814 11.8435 3.81281L9.84075 2.74771L9.60605 1.69629C9.3837 0.700159 8.49725 0 7.48321 0H6.51679C5.50275 0 4.6163 0.700157 4.39395 1.69629L4.15925 2.74771ZM8.26512 5.66663H5.73488L5.47433 6.83328H8.52567L8.26512 5.66663ZM8.78622 7.99994H5.21378L4.95428 9.16655H9.04572L8.78622 7.99994ZM8.31461 11.6457L9.75924 12.3631L9.47092 11.0714L8.31461 11.6457ZM5.66899 10.3333L7 10.9936L8.33099 10.3333H5.66899ZM10.1247 8.6077L11.058 9.16655H10.2494L10.1247 8.6077ZM4.52908 11.0714L4.24076 12.3631L5.68538 11.6457L4.52908 11.0714ZM2.94198 9.16655L3.8753 8.6077L3.75055 9.16655H2.94198Z" fill="white"/>
</svg>
