<svg width="18" height="18" viewBox="0 0 18 18" fill="none" xmlns="http://www.w3.org/2000/svg">
<circle cx="9" cy="9" r="8.5" fill="#808080" stroke="white"/>
<path d="M9.03733 13.7874C8.854 13.7874 8.69767 13.7249 8.56833 13.5999C8.43933 13.4749 8.37483 13.3207 8.37483 13.1374V12.6374C7.9665 12.5457 7.61433 12.3832 7.31833 12.1499C7.02267 11.9166 6.78317 11.6041 6.59983 11.2124C6.5165 11.0374 6.52283 10.8519 6.61883 10.6559C6.7145 10.4602 6.86233 10.3249 7.06233 10.2499C7.23733 10.1832 7.41233 10.1874 7.58733 10.2624C7.76233 10.3374 7.9165 10.4749 8.04983 10.6749C8.18317 10.8666 8.3415 11.0082 8.52483 11.0999C8.70817 11.1916 8.9165 11.2374 9.14983 11.2374C9.4665 11.2374 9.70817 11.1811 9.87483 11.0684C10.0415 10.9561 10.1248 10.7874 10.1248 10.5624C10.1248 10.3457 10.027 10.1541 9.83133 9.9874C9.63533 9.82074 9.23317 9.6499 8.62483 9.4749C7.90817 9.26657 7.402 8.9749 7.10633 8.5999C6.81033 8.2249 6.66233 7.79574 6.66233 7.3124C6.66233 6.79574 6.82267 6.3644 7.14333 6.0184C7.46433 5.67274 7.87483 5.44157 8.37483 5.3249V4.8624C8.37483 4.67907 8.43933 4.5249 8.56833 4.3999C8.69767 4.2749 8.854 4.2124 9.03733 4.2124C9.22067 4.2124 9.37483 4.2749 9.49983 4.3999C9.62483 4.5249 9.68733 4.67907 9.68733 4.8624V5.3249C9.98733 5.3999 10.2645 5.51657 10.5188 5.6749C10.7728 5.83324 10.9873 6.0374 11.1623 6.2874C11.279 6.45407 11.2978 6.64157 11.2188 6.8499C11.1395 7.05824 10.9873 7.20824 10.7623 7.2999C10.6207 7.35824 10.4645 7.3624 10.2938 7.3124C10.1228 7.2624 9.93733 7.15407 9.73733 6.9874C9.64567 6.9124 9.53733 6.8519 9.41233 6.8059C9.28733 6.76024 9.14983 6.7374 8.99983 6.7374C8.69983 6.7374 8.48733 6.79157 8.36233 6.8999C8.23733 7.00824 8.17483 7.12907 8.17483 7.2624C8.17483 7.4624 8.25817 7.6249 8.42483 7.7499C8.5915 7.8749 9.0165 8.04157 9.69983 8.2499C10.3248 8.44157 10.804 8.73324 11.1373 9.1249C11.4707 9.51657 11.6373 9.9874 11.6373 10.5374C11.629 11.1791 11.4437 11.6707 11.0813 12.0124C10.7187 12.3541 10.254 12.5749 9.68733 12.6749V13.1374C9.68733 13.3207 9.62483 13.4749 9.49983 13.5999C9.37483 13.7249 9.22067 13.7874 9.03733 13.7874Z" fill="white"/>
</svg>
