<?xml version="1.0" encoding="UTF-8"?>
<svg width="12" height="8" version="1.1" viewBox="0 0 12 8" xmlns="http://www.w3.org/2000/svg">
 <path d="m3.5635 0.77433c0.00595 4.3822e-4 0.011888 0.001091 0.017798 0.001957 0.60439 0.10903 1.313 0.28168 1.9365 0.61331 0.48445 0.25765 0.86104 0.62589 1.1712 0.86803 0.012023 0.00943 0.023333 0.019913 0.033818 0.031351 0.60139 0.6493 0.78501 0.80995 1.5592 1.7164 0.0012 0.00129 0.00238 0.0026 0.00357 0.00392 0.27613 0.33691 0.67707 0.827 1.1143 1.0248 0.49284 0.11948 0.86701 0.11091 1.0039 0.037229 0.07013-0.03775 0.08877-0.06411 0.1068-0.13324 0.01616-0.061976 0.0088-0.19218-0.02847-0.35662-0.06322-0.10388-0.11387-0.14973-0.14951-0.16068-0.04122-0.012655-0.08209-0.00454-0.18867-0.00195-0.15978 0.00387-0.1116 0.01992-0.10857 0.011757l-0.0019 0.00195c0.03753 0.16127-0.051 0.21964-0.19757 0.2606-0.14698 0.0412-0.39249-0.033788-0.42889-0.19594-0.094757-0.24147-0.065362-0.72733 0.11391-0.84256 0.13144-0.084484 0.30987-0.19482 0.60695-0.19007 0.21428 0.00342 0.41663 0.035171 0.58496 0.10562 0.38929 0.16292 0.4578 0.371 0.59334 0.62917 0.10913 0.34 0.08846 1.3-0.05162 1.5009-0.18297 0.21606-0.52333 0.41666-0.76002 0.46831-0.56861 0.070202-1.0828-0.061513-1.4416-0.20378-0.62729-0.27191-1.1691-0.99723-1.4356-1.3223-0.75239-0.88069-0.85614-1.0219-1.4464-1.6583-0.34254-0.2692-0.58473-0.5715-0.97641-0.77982-0.53834-0.28631-1.1116-0.39422-1.6878-0.49893-0.72404-0.075206-1.4663-0.044656-2.3424 0.20966-0.41923-0.25764-0.26697-0.77248-0.13884-0.91353 0.94175-0.27339 1.7625-0.30839 2.5382-0.22729z" color="#000000" fill="#7f7f7f" stroke="#ffffff" stroke-linecap="round" stroke-linejoin="round" stroke-width=".38247" style="paint-order:fill markers stroke"/>
 <path d="m5.927 4.6807c-0.15397-0.44982-0.15386-0.37747-0.29438-0.67001-0.23407-0.28645-0.52358-0.53583-0.85357-0.75815l-0.97187-0.48136c-0.13541-0.078222-0.53491-0.0015921-0.83322 0.010398-0.28742 0.030794-0.57843-0.082369-1.2487 0.67859-0.50014 0.86123-0.67247 1.04-0.75131 1.6758-0.16105 1.0161 0.16172 1.915 0.75073 2.2143 1.6509 0.14792 3.4383 0.056159 5.0495 0.018051 0.99015-0.33868 0.8695-1.0894 0.07713-2.0699-0.17779-0.1268-0.59993-0.30177-0.92425-0.61763z" fill="#585858" stroke="#ffffff" stroke-linecap="round" stroke-linejoin="round" stroke-width=".764" style="paint-order:fill markers stroke"/>
</svg>
