<svg width="18" height="18" viewBox="0 0 18 18" fill="none" xmlns="http://www.w3.org/2000/svg">
<circle cx="9" cy="9" r="8.5" fill="#808080" stroke="white"/>
<path d="M8 11H8.5C8.5 11.1417 8.548 11.2603 8.644 11.356C8.73967 11.452 8.85833 11.5 9 11.5C9.14167 11.5 9.2605 11.452 9.3565 11.356C9.45217 11.2603 9.5 11.1417 9.5 11H10C10.1417 11 10.2605 10.952 10.3565 10.856C10.4522 10.7603 10.5 10.6417 10.5 10.5V9C10.5 8.85833 10.4522 8.7395 10.3565 8.6435C10.2605 8.54783 10.1417 8.5 10 8.5H8.5V8H10C10.1417 8 10.2605 7.952 10.3565 7.856C10.4522 7.76033 10.5 7.64167 10.5 7.5C10.5 7.35833 10.4522 7.2395 10.3565 7.1435C10.2605 7.04783 10.1417 7 10 7H9.5C9.5 6.85833 9.45217 6.7395 9.3565 6.6435C9.2605 6.54783 9.14167 6.5 9 6.5C8.85833 6.5 8.73967 6.54783 8.644 6.6435C8.548 6.7395 8.5 6.85833 8.5 7H8C7.85833 7 7.73967 7.04783 7.644 7.1435C7.548 7.2395 7.5 7.35833 7.5 7.5V9C7.5 9.14167 7.548 9.26033 7.644 9.356C7.73967 9.452 7.85833 9.5 8 9.5H9.5V10H8C7.85833 10 7.73967 10.0478 7.644 10.1435C7.548 10.2395 7.5 10.3583 7.5 10.5C7.5 10.6417 7.548 10.7603 7.644 10.856C7.73967 10.952 7.85833 11 8 11ZM5 13C4.725 13 4.48967 12.9022 4.294 12.7065C4.098 12.5105 4 12.275 4 12V6C4 5.725 4.098 5.48967 4.294 5.294C4.48967 5.098 4.725 5 5 5H13C13.275 5 13.5105 5.098 13.7065 5.294C13.9022 5.48967 14 5.725 14 6V12C14 12.275 13.9022 12.5105 13.7065 12.7065C13.5105 12.9022 13.275 13 13 13H5Z" fill="white"/>
</svg>
