<svg width="18" height="18" viewBox="0 0 18 18" fill="none" xmlns="http://www.w3.org/2000/svg">
<g clip-path="url(#clip0_2002_2307)">
<path d="M9.00781 17.4688C13.7022 17.4688 17.5078 13.6632 17.5078 8.9688C17.5078 4.27438 13.7022 0.468796 9.00781 0.468796C4.31339 0.468796 0.507812 4.27438 0.507812 8.9688C0.507812 13.6632 4.31339 17.4688 9.00781 17.4688Z" fill="#808080" stroke="white"/>
<path fill-rule="evenodd" clip-rule="evenodd" d="M11.4832 5.59835C11.7593 5.59433 11.9864 5.81491 11.9904 6.09102C11.9928 6.25136 11.9948 6.41366 11.9969 6.57764C12.0266 8.92099 12.0606 11.6071 12.9688 13.7953C13.0746 14.0504 12.9537 14.343 12.6986 14.4488C12.4436 14.5547 12.151 14.4337 12.0452 14.1787C11.0592 11.803 11.0248 8.92858 10.9972 6.62683C10.9951 6.44952 10.993 6.2756 10.9905 6.10557C10.9865 5.82946 11.2071 5.60237 11.4832 5.59835Z" fill="white"/>
<path fill-rule="evenodd" clip-rule="evenodd" d="M6.50389 5.57635C6.78 5.58037 7.00058 5.80746 6.99656 6.08357C6.99408 6.25364 6.992 6.42759 6.98987 6.60495C6.96229 8.90668 6.92785 11.781 5.94192 14.1567C5.83607 14.4117 5.5435 14.5327 5.28845 14.4268C5.0334 14.321 4.91245 14.0284 5.0183 13.7733C5.92644 11.5852 5.96049 8.8991 5.99019 6.55577C5.99227 6.39174 5.99433 6.22939 5.99666 6.06902C6.00068 5.7929 6.22778 5.57233 6.50389 5.57635Z" fill="white"/>
<path fill-rule="evenodd" clip-rule="evenodd" d="M3.00244 4.99337C3.00273 4.71723 3.22683 4.49361 3.50297 4.4939L14.01 4.50495C14.2861 4.50524 14.5097 4.72933 14.5094 5.00547C14.5092 5.28161 14.2851 5.50524 14.0089 5.50495L3.50192 5.4939C3.22577 5.49361 3.00215 5.26951 3.00244 4.99337Z" fill="white"/>
<path fill-rule="evenodd" clip-rule="evenodd" d="M4.62085 7.8494C4.62085 7.57325 4.84471 7.3494 5.12085 7.3494H13.1089C13.3851 7.3494 13.6089 7.57325 13.6089 7.8494C13.6089 8.12554 13.3851 8.3494 13.1089 8.3494H5.12085C4.84471 8.3494 4.62085 8.12554 4.62085 7.8494Z" fill="white"/>
<path fill-rule="evenodd" clip-rule="evenodd" d="M9.01064 5.0112C9.28678 5.0124 9.50967 5.23722 9.50848 5.51336L9.5 7.47666C9.4988 7.7528 9.27398 7.97569 8.99784 7.9745C8.7217 7.9733 8.49881 7.74848 8.5 7.47234L8.50848 5.50904C8.50968 5.2329 8.7345 5.01001 9.01064 5.0112Z" fill="white"/>
</g>
<defs>
<clipPath id="clip0_2002_2307">
<rect width="18" height="18" fill="white"/>
</clipPath>
</defs>
</svg>
