<svg width="18" height="18" viewBox="0 0 18 18" fill="none" xmlns="http://www.w3.org/2000/svg">
<circle cx="9" cy="9" r="8.5" fill="#808080" stroke="white"/>
<path d="M4.075 10.5C3.91667 10.5 3.7875 10.4437 3.6875 10.331C3.5875 10.2187 3.55 10.0917 3.575 9.95C3.73333 9.125 4.175 8.51033 4.9 8.106C5.625 7.702 6.41667 7.5 7.275 7.5C8.13333 7.5 8.925 7.702 9.65 8.106C10.375 8.51033 10.8167 9.125 10.975 9.95C11 10.0917 10.9625 10.2187 10.8625 10.331C10.7625 10.4437 10.6333 10.5 10.475 10.5H4.075ZM12.025 14.5V10.5C12.025 9.54167 11.7313 8.72717 11.144 8.0565C10.5563 7.3855 9.72917 6.91667 8.6625 6.65L8.6 6.0625C8.58333 5.9125 8.623 5.78133 8.719 5.669C8.81467 5.55633 8.9375 5.5 9.0875 5.5H11.025V4C11.025 3.85833 11.0728 3.7395 11.1685 3.6435C11.2645 3.54783 11.3833 3.5 11.525 3.5C11.6667 3.5 11.7855 3.54783 11.8815 3.6435C11.9772 3.7395 12.025 3.85833 12.025 4V5.5H13.975C14.125 5.5 14.25 5.55417 14.35 5.6625C14.45 5.77083 14.4917 5.9 14.475 6.05L13.7 13.775C13.675 13.975 13.5855 14.1458 13.4315 14.2875C13.2772 14.4292 13.0917 14.5 12.875 14.5H12.025ZM4 12.5C3.85833 12.5 3.73967 12.452 3.644 12.356C3.548 12.2603 3.5 12.1417 3.5 12C3.5 11.8583 3.548 11.7397 3.644 11.644C3.73967 11.548 3.85833 11.5 4 11.5H10.5C10.6417 11.5 10.7605 11.548 10.8565 11.644C10.9522 11.7397 11 11.8583 11 12C11 12.1417 10.9522 12.2603 10.8565 12.356C10.7605 12.452 10.6417 12.5 10.5 12.5H4ZM4 14.5C3.85833 14.5 3.73967 14.452 3.644 14.356C3.548 14.2603 3.5 14.1417 3.5 14C3.5 13.8583 3.548 13.7397 3.644 13.644C3.73967 13.548 3.85833 13.5 4 13.5H10.5C10.6417 13.5 10.7605 13.548 10.8565 13.644C10.9522 13.7397 11 13.8583 11 14C11 14.1417 10.9522 14.2603 10.8565 14.356C10.7605 14.452 10.6417 14.5 10.5 14.5H4Z" fill="white"/>
</svg>
