<svg width="18" height="18" viewBox="0 0 18 18" fill="none" xmlns="http://www.w3.org/2000/svg">
<path fill-rule="evenodd" clip-rule="evenodd" d="M3.00002 12V5C3.00002 3.9625 3.48127 3.203 4.44377 2.7215C5.40627 2.2405 6.92502 2 9.00002 2C11.15 2 12.6875 2.23125 13.6125 2.69375C14.5375 3.15625 15 3.925 15 5V12C15 13.0615 15 14 13.6125 14.5C13.4723 14.5505 13.2816 14.5959 13.0505 14.6362L13.2427 14.8284C13.6332 15.2189 13.6332 15.8521 13.2427 16.2426C12.8522 16.6332 12.219 16.6332 11.8285 16.2426L10.4388 14.853C9.48944 14.8839 8.46078 14.8823 7.51581 14.8482L6.12134 16.2426C5.73082 16.6332 5.09766 16.6332 4.70713 16.2426C4.31661 15.8521 4.31661 15.2189 4.70713 14.8284L4.91779 14.6178C4.72785 14.5822 4.56776 14.5429 4.44377 14.5C3.00002 14 3.00002 13.0749 3.00002 12ZM7.00002 11C7.00002 11.5523 6.55231 12 6.00002 12C5.44774 12 5.00002 11.5523 5.00002 11C5.00002 10.4477 5.44774 10 6.00002 10C6.55231 10 7.00002 10.4477 7.00002 11ZM12 12C12.5523 12 13 11.5523 13 11C13 10.4477 12.5523 10 12 10C11.4477 10 11 10.4477 11 11C11 11.5523 11.4477 12 12 12ZM9.50002 5.5C9.50002 5.22386 9.72388 5 10 5H12.5C12.7762 5 13 5.22386 13 5.5V7.5C13 7.77614 12.7762 8 12.5 8H10C9.72388 8 9.50002 7.77614 9.50002 7.5V5.5ZM5.50002 5C5.22388 5 5.00002 5.22386 5.00002 5.5V7.5C5.00002 7.77614 5.22388 8 5.50002 8H8.00002C8.27617 8 8.50002 7.77614 8.50002 7.5V5.5C8.50002 5.22386 8.27617 5 8.00002 5H5.50002Z" fill="#808080"/>
<path fill-rule="evenodd" clip-rule="evenodd" d="M3.99675 1.82698C5.175 1.23816 6.88823 1 9.00002 1C11.1726 1 12.9125 1.22572 14.0597 1.79932C14.6655 2.10219 15.1667 2.53102 15.51 3.10167C15.852 3.67003 16 4.31705 16 5V12C16 12.0227 16.0001 12.0459 16.0001 12.0695C16.0007 12.5479 16.0016 13.2209 15.7539 13.8347C15.5209 14.4123 15.1086 14.8665 14.5064 15.194C14.613 15.8128 14.4275 16.472 13.9498 16.9497C13.1687 17.7308 11.9024 17.7308 11.1214 16.9497L10.0359 15.8643C9.33822 15.8796 8.6131 15.8785 7.91728 15.8609L6.82845 16.9497C6.0474 17.7308 4.78107 17.7308 4.00002 16.9497C3.51101 16.4607 3.32817 15.7815 3.45149 15.1502C2.88787 14.8341 2.49108 14.4045 2.25901 13.854C1.99826 13.2354 1.99925 12.5545 1.99995 12.0719C1.99999 12.0474 2.00002 12.0234 2.00002 12V5C2.00002 4.32153 2.15934 3.68029 2.51626 3.11701C2.87183 2.55586 3.38508 2.13297 3.99675 1.82698ZM3.88508 14.2463C4.01676 14.3249 4.16802 14.3973 4.34179 14.4631C4.37496 14.4756 4.40895 14.4879 4.44377 14.5C4.56776 14.5429 4.72785 14.5822 4.91779 14.6178L4.70713 14.8284C4.51277 15.0228 4.41515 15.2772 4.41425 15.532C4.41334 15.7891 4.51097 16.0465 4.70713 16.2426C5.09766 16.6332 5.73082 16.6332 6.12134 16.2426L7.51581 14.8482C8.46078 14.8823 9.48944 14.8839 10.4388 14.853L11.8285 16.2426C12.219 16.6332 12.8522 16.6332 13.2427 16.2426C13.4319 16.0534 13.5295 15.8072 13.5353 15.5592C13.5415 15.2955 13.444 15.0297 13.2427 14.8284L13.0505 14.6362C13.2489 14.6016 13.4175 14.5633 13.5499 14.5212C13.5718 14.5142 13.5927 14.5072 13.6125 14.5C13.7956 14.434 13.9545 14.3604 14.0925 14.2799C15 13.7502 15 12.9214 15 12V5C15 3.925 14.5375 3.15625 13.6125 2.69375C12.6875 2.23125 11.15 2 9.00002 2C6.92502 2 5.40627 2.2405 4.44377 2.7215C3.48127 3.203 3.00002 3.9625 3.00002 5V12C3.00002 12.9131 3.00002 13.7181 3.88508 14.2463ZM9.50002 5.5V7.5C9.50002 7.77614 9.72388 8 10 8H12.5C12.7762 8 13 7.77614 13 7.5V5.5C13 5.22386 12.7762 5 12.5 5H10C9.72388 5 9.50002 5.22386 9.50002 5.5ZM6.00002 12C6.55231 12 7.00002 11.5523 7.00002 11C7.00002 10.4477 6.55231 10 6.00002 10C5.44774 10 5.00002 10.4477 5.00002 11C5.00002 11.5523 5.44774 12 6.00002 12ZM13 11C13 11.5523 12.5523 12 12 12C11.4477 12 11 11.5523 11 11C11 10.4477 11.4477 10 12 10C12.5523 10 13 10.4477 13 11ZM5.00002 5.5C5.00002 5.22386 5.22388 5 5.50002 5H8.00002C8.27617 5 8.50002 5.22386 8.50002 5.5V7.5C8.50002 7.77614 8.27617 8 8.00002 8H5.50002C5.22388 8 5.00002 7.77614 5.00002 7.5V5.5Z" fill="white"/>
</svg>
