<svg width="18" height="18" viewBox="0 0 18 18" fill="none" xmlns="http://www.w3.org/2000/svg">
<circle cx="9" cy="9" r="8.5" fill="#808080" stroke="white"/>
<path d="M10 4C10 4.55228 9.55228 5 9 5C8.44771 5 8 4.55228 8 4C8 3.44772 8.44771 3 9 3C9.55228 3 10 3.44772 10 4Z" fill="white"/>
<path d="M8.5 5.5C7.94772 5.5 7.5 5.94772 7.5 6.5V9C7.5 9.27614 7.72386 9.5 8 9.5V12C8 12.2761 8.22386 12.5 8.5 12.5H9.5C9.77614 12.5 10 12.2761 10 12V9.5C10.2761 9.5 10.5 9.27614 10.5 9V6.5C10.5 5.94772 10.0523 5.5 9.5 5.5H8.5Z" fill="white"/>
<path d="M6.5 13C6.22386 13 6 13.2239 6 13.5V14.5C6 14.7761 6.22386 15 6.5 15H11.5C11.7761 15 12 14.7761 12 14.5V13.5C12 13.2239 11.7761 13 11.5 13H6.5Z" fill="white"/>
</svg>
