<svg width="15" height="14" viewBox="0 0 15 14" fill="none" xmlns="http://www.w3.org/2000/svg">
<g clip-path="url(#clip0_1367_3093)">
<path fill-rule="evenodd" clip-rule="evenodd" d="M4.48971 1.22327C4.77362 0.925557 5.22625 0.925557 5.51016 1.22327L8.77754 4.64942C9.2474 5.14211 8.9233 5.99998 8.26731 5.99998H8.00004V7.25H8.25002C9.7688 7.25 11 8.48121 11 10V10.25C11 10.9404 11.5597 11.5 12.25 11.5H12.75C13.1642 11.5 13.5 11.8358 13.5 12.25C13.5 12.6642 13.1642 13 12.75 13H12.25C10.7312 13 9.50002 11.7688 9.50002 10.25V10C9.50002 9.30964 8.94037 8.75 8.25002 8.75H8.00004V12.5C8.00004 12.7761 7.77619 13 7.50004 13H2.50004C2.2239 13 2.00004 12.7761 2.00004 12.5V5.99998H1.73256C1.07657 5.99998 0.752475 5.14211 1.22233 4.64942L4.48971 1.22327ZM5.00004 8.99999C5.55233 8.99999 6.00004 8.55227 6.00004 7.99999C6.00004 7.44771 5.55233 6.99999 5.00004 6.99999C4.44776 6.99999 4.00004 7.44771 4.00004 7.99999C4.00004 8.55227 4.44776 8.99999 5.00004 8.99999Z" fill="#808080"/>
<path fill-rule="evenodd" clip-rule="evenodd" d="M3.76603 0.533129C4.44395 -0.177729 5.55592 -0.177731 6.23384 0.533128L9.50121 3.95928C10.0353 4.51929 10.102 5.27538 9.88009 5.86287C9.79909 6.07727 9.67215 6.28597 9.50407 6.46482C10.9584 6.98076 12 8.36874 12 10V10.25C12 10.3881 12.1119 10.5 12.25 10.5H12.75C13.7165 10.5 14.5 11.2835 14.5 12.25C14.5 13.2165 13.7165 14 12.75 14H12.25C10.8608 14 9.64803 13.2446 9.00004 12.1221V12.5C9.00004 13.3284 8.32847 14 7.50004 14H2.50004C1.67162 14 1.00004 13.3284 1.00004 12.5V6.83631C0.571746 6.63052 0.268411 6.25629 0.119782 5.86287C-0.102162 5.27538 -0.0354008 4.51929 0.498658 3.95928L3.76603 0.533129ZM8.00004 8.75H8.25002C8.53143 8.75 8.79112 8.84299 9.00004 8.99993C9.30364 9.22798 9.50002 9.59106 9.50002 10V10.25C9.50002 11.7688 10.7312 13 12.25 13H12.75C13.1642 13 13.5 12.6642 13.5 12.25C13.5 11.8358 13.1642 11.5 12.75 11.5H12.25C11.5597 11.5 11 10.9404 11 10.25V10C11 8.48121 9.7688 7.25 8.25002 7.25H8.00004V5.99998H8.26731C8.9233 5.99998 9.2474 5.14211 8.77754 4.64942L5.51016 1.22327C5.22625 0.925557 4.77362 0.925557 4.48971 1.22327L1.22233 4.64942C0.752475 5.14211 1.07657 5.99998 1.73256 5.99998H2.00004V12.5C2.00004 12.7761 2.2239 13 2.50004 13H7.50004C7.77619 13 8.00004 12.7761 8.00004 12.5V8.75ZM6.00004 7.99999C6.00004 8.55227 5.55233 8.99999 5.00004 8.99999C4.44776 8.99999 4.00004 8.55227 4.00004 7.99999C4.00004 7.44771 4.44776 6.99999 5.00004 6.99999C5.55233 6.99999 6.00004 7.44771 6.00004 7.99999Z" fill="white"/>
</g>
<defs>
<clipPath id="clip0_1367_3093">
<rect width="15" height="14" fill="white"/>
</clipPath>
</defs>
</svg>
