<svg width="18" height="18" viewBox="0 0 18 18" fill="none" xmlns="http://www.w3.org/2000/svg">
<circle cx="9" cy="9" r="8.5" fill="#808080" stroke="white"/>
<path d="M6.5 13.4999C6.35833 13.4999 6.2395 13.4519 6.1435 13.3559C6.04783 13.2603 6 13.1416 6 12.9999C6 12.8583 6.04783 12.7396 6.1435 12.6439C6.2395 12.5479 6.35833 12.4999 6.5 12.4999H8.5V9.99994L4.675 5.69994C4.625 5.64161 4.58333 5.56861 4.55 5.48094C4.51667 5.39361 4.5 5.30827 4.5 5.22494C4.5 5.02494 4.57083 4.85411 4.7125 4.71244C4.85417 4.57077 5.025 4.49994 5.225 4.49994H12.775C12.975 4.49994 13.1458 4.57077 13.2875 4.71244C13.4292 4.85411 13.5 5.02911 13.5 5.23744C13.5 5.31244 13.4833 5.39361 13.45 5.48094C13.4167 5.56861 13.375 5.64161 13.325 5.69994L9.5 9.99994V12.4999H11.5C11.6417 12.4999 11.7603 12.5479 11.856 12.6439C11.952 12.7396 12 12.8583 12 12.9999C12 13.1416 11.952 13.2603 11.856 13.3559C11.7603 13.4519 11.6417 13.4999 11.5 13.4999H6.5ZM6.725 6.49994H11.275L12.175 5.49994H5.825L6.725 6.49994Z" fill="white"/>
</svg>
