<svg width="13" height="14" viewBox="0 0 13 14" fill="none" xmlns="http://www.w3.org/2000/svg">
<g clip-path="url(#clip0_1318_3151)">
<path fill-rule="evenodd" clip-rule="evenodd" d="M5 1C4.44771 1 4 1.44772 4 2V5.49998H2.5C1.67157 5.49998 1 6.17156 1 6.99998C1 7.82841 1.67157 8.49998 2.5 8.49998H4V12C4 12.5523 4.44771 13 5 13H11C11.5523 13 12 12.5523 12 12V2C12 1.44772 11.5523 1 11 1H5Z" fill="#808080"/>
<path fill-rule="evenodd" clip-rule="evenodd" d="M3 2C3 0.895432 3.89543 0 5 0H11C12.1046 0 13 0.89543 13 2V12C13 13.1046 12.1046 14 11 14H5C3.89543 14 3 13.1046 3 12V9.49998H2.5C1.11929 9.49998 0 8.3807 0 6.99998C0 5.61927 1.11929 4.49998 2.5 4.49998H3V2ZM4 2C4 1.44772 4.44771 1 5 1H11C11.5523 1 12 1.44772 12 2V12C12 12.5523 11.5523 13 11 13H5C4.44771 13 4 12.5523 4 12V8.49998H2.5C2.49676 8.49998 2.49353 8.49998 2.4903 8.49995C1.66634 8.49474 1 7.82518 1 6.99998C1 6.17156 1.67157 5.49998 2.5 5.49998H4V2Z" fill="white"/>
<path fill-rule="evenodd" clip-rule="evenodd" d="M6 7.5V8.99999C6 9.41201 6.47038 9.64721 6.8 9.39999L9.46667 7.39999C9.73333 7.19999 9.73333 6.79999 9.46667 6.59999L6.8 4.59999C6.47038 4.35278 6 4.58797 6 4.99999V6.5L2.5 6.49998C2.22386 6.49998 2 6.72384 2 6.99998C2 7.27613 2.22386 7.49998 2.5 7.49998L6 7.5Z" fill="white"/>
</g>
<defs>
<clipPath id="clip0_1318_3151">
<rect width="13" height="14" fill="white"/>
</clipPath>
</defs>
</svg>
