<svg width="18" height="18" viewBox="0 0 18 18" fill="none" xmlns="http://www.w3.org/2000/svg">
<circle cx="9" cy="9" r="8.5" fill="#808080" stroke="white"/>
<path d="M5.51255 13.4999C5.23755 13.4999 5.00221 13.4021 4.80655 13.2064C4.61055 13.0104 4.51255 12.7749 4.51255 12.4999V8.52494C4.32088 8.34994 4.17305 8.12494 4.06905 7.84994C3.96471 7.57494 3.96255 7.27494 4.06255 6.94994L4.58755 5.24994C4.65421 5.03327 4.77305 4.85411 4.94405 4.71244C5.11471 4.57077 5.31255 4.49994 5.53755 4.49994H12.4875C12.7125 4.49994 12.9084 4.56861 13.075 4.70594C13.2417 4.84361 13.3625 5.02494 13.4375 5.24994L13.9625 6.94994C14.0625 7.27494 14.0605 7.57077 13.9565 7.83744C13.8522 8.10411 13.7042 8.33327 13.5125 8.52494V12.4999C13.5125 12.7749 13.4147 13.0104 13.219 13.2064C13.023 13.4021 12.7875 13.4999 12.5125 13.4999H5.51255ZM10.1125 7.99994C10.3375 7.99994 10.5084 7.92277 10.625 7.76844C10.7417 7.61444 10.7875 7.44161 10.7625 7.24994L10.4875 5.49994H9.51255V7.34994C9.51255 7.52494 9.57088 7.67711 9.68755 7.80644C9.80421 7.93544 9.94588 7.99994 10.1125 7.99994ZM7.86255 7.99994C8.05421 7.99994 8.21055 7.93544 8.33155 7.80644C8.45221 7.67711 8.51255 7.52494 8.51255 7.34994V5.49994H7.53755L7.26255 7.24994C7.22921 7.44994 7.27305 7.62494 7.39405 7.77494C7.51471 7.92494 7.67088 7.99994 7.86255 7.99994ZM5.63755 7.99994C5.78755 7.99994 5.91871 7.94577 6.03105 7.83744C6.14371 7.72911 6.21255 7.59161 6.23755 7.42494L6.51255 5.49994H5.53755L5.03755 7.17494C4.98755 7.34161 5.01455 7.52077 5.11855 7.71244C5.22288 7.90411 5.39588 7.99994 5.63755 7.99994ZM12.3875 7.99994C12.6292 7.99994 12.8042 7.90411 12.9125 7.71244C13.0209 7.52077 13.0459 7.34161 12.9875 7.17494L12.4625 5.49994H11.5125L11.7875 7.42494C11.8125 7.59161 11.8814 7.72911 11.994 7.83744C12.1064 7.94577 12.2375 7.99994 12.3875 7.99994Z" fill="white"/>
</svg>
