<svg width="12" height="12" viewBox="0 0 12 12" fill="none" xmlns="http://www.w3.org/2000/svg">
<path d="M1 3C1 1.89543 1.89543 1 3 1H9C10.1046 1 11 1.89543 11 3V9C11 10.1046 10.1046 11 9 11H3C1.89543 11 1 10.1046 1 9V3Z" fill="#808080"/>
<path fill-rule="evenodd" clip-rule="evenodd" d="M3 0H9C10.6569 0 12 1.34315 12 3V9C12 10.6569 10.6569 12 9 12H3C1.34315 12 0 10.6569 0 9V3C0 1.34315 1.34315 0 3 0ZM3 1C1.89543 1 1 1.89543 1 3V9C1 10.1046 1.89543 11 3 11H9C10.1046 11 11 10.1046 11 9V3C11 1.89543 10.1046 1 9 1H3Z" fill="white"/>
<path fill-rule="evenodd" clip-rule="evenodd" d="M4.5 3C4.22386 3 4 3.22386 4 3.5V8.5C4 8.77614 4.22386 9 4.5 9C4.77614 9 5 8.77614 5 8.5V7H6.5C7.60457 7 8.5 6.10457 8.5 5C8.5 3.89543 7.60457 3 6.5 3H4.5ZM5 4V6H6.5C7.05228 6 7.5 5.55228 7.5 5C7.5 4.44772 7.05228 4 6.5 4H5Z" fill="white"/>
</svg>
