<svg width="18" height="18" viewBox="0 0 18 18" fill="none" xmlns="http://www.w3.org/2000/svg">
<circle cx="9" cy="9" r="8.5" fill="#808080" stroke="white"/>
<path d="M11.5 5C12.05 5 12.5208 5.19583 12.9125 5.5875C13.3042 5.97917 13.5 6.45 13.5 7C13.5 7.09167 13.4937 7.2145 13.481 7.3685C13.4687 7.52283 13.45 7.7 13.425 7.9L12.7375 12.9375C12.6958 13.2542 12.5522 13.5125 12.3065 13.7125C12.0605 13.9125 11.7792 14.0125 11.4625 14.0125C11.2708 14.0125 11.0938 13.9708 10.9315 13.8875C10.7688 13.8042 10.6333 13.6875 10.525 13.5375L9.1875 11.5875C9.17083 11.5542 9.14383 11.5312 9.1065 11.5185C9.06883 11.5062 9.02917 11.5 8.9875 11.5C8.95417 11.5 8.8875 11.5375 8.7875 11.6125L7.4875 13.5C7.37083 13.6667 7.22717 13.7937 7.0565 13.881C6.8855 13.9687 6.70417 14.0125 6.5125 14.0125C6.19583 14.0125 5.91667 13.9105 5.675 13.7065C5.43333 13.5022 5.29167 13.2417 5.25 12.925L4.575 7.9C4.55 7.7 4.53133 7.52283 4.519 7.3685C4.50633 7.2145 4.5 7.09167 4.5 7C4.5 6.45 4.69583 5.97917 5.0875 5.5875C5.47917 5.19583 5.95 5 6.5 5C6.8 5 7.03967 5.0395 7.219 5.1185C7.398 5.19783 7.57083 5.28333 7.7375 5.375C7.90417 5.46667 8.08133 5.552 8.269 5.631C8.45633 5.71033 8.7 5.75 9 5.75C9.3 5.75 9.54383 5.71033 9.7315 5.631C9.91883 5.552 10.0958 5.46667 10.2625 5.375C10.4292 5.28333 10.6042 5.19783 10.7875 5.1185C10.9708 5.0395 11.2083 5 11.5 5Z" fill="white"/>
</svg>
