<svg width="18" height="18" viewBox="0 0 18 18" fill="none" xmlns="http://www.w3.org/2000/svg">
<circle cx="9" cy="9" r="8.5" fill="#808080" stroke="white"/>
<path d="M10.7408 7.5C13.5 9.5 13 14 8.99994 14C4.99987 14 4.5 9.5 7.25912 7.5M10.7408 7.5C10.1905 7.10117 10.2475 6.20671 10.3461 5.5M10.7408 7.5C10.7408 7.5 12.5 7 12.5 6C12.5 5 10.3461 5.5 10.3461 5.5M7.25912 7.5C7.25912 7.5 5.5 7 5.5 6C5.5 5 7.65376 5.5 7.65376 5.5M7.25912 7.5C7.80933 7.10117 7.75236 6.2067 7.65376 5.5M7.65376 5.5C7.54104 4.69213 7.25912 4 7.25912 4H10.7408C10.7408 4 10.4588 4.69213 10.3461 5.5M6 11L7 10L8 11L8.99994 10L10 11L11 10L12 11" stroke="white" stroke-linecap="round"/>
</svg>
