<svg width="18" height="18" viewBox="0 0 18 18" fill="none" xmlns="http://www.w3.org/2000/svg">
<circle cx="9" cy="9" r="8.5" fill="#808080" stroke="white"/>
<path fill-rule="evenodd" clip-rule="evenodd" d="M4.147 8.35313C4.24483 8.45096 4.3625 8.49988 4.5 8.49988C4.6375 8.49988 4.75525 8.45096 4.85325 8.35313C4.95108 8.25513 5 8.13738 5 7.99988V6.99988H5.75C6.16667 6.99988 6.52083 6.85404 6.8125 6.56238C7.10417 6.27071 7.25 5.91654 7.25 5.49988C7.25 5.08321 7.10417 4.72904 6.8125 4.43738C6.52083 4.14571 6.16667 3.99988 5.75 3.99988H4.5C4.3625 3.99988 4.24483 4.04879 4.147 4.14663C4.049 4.24463 4 4.36238 4 4.49988V7.99988C4 8.13738 4.049 8.25513 4.147 8.35313ZM5.8 5.99988H5V4.99988H5.8C5.9375 4.99988 6.05525 5.04879 6.15325 5.14663C6.25108 5.24463 6.3 5.36238 6.3 5.49988C6.3 5.63738 6.25108 5.75504 6.15325 5.85288C6.05525 5.95088 5.9375 5.99988 5.8 5.99988Z" fill="white"/>
<path fill-rule="evenodd" clip-rule="evenodd" d="M4.37913 13.8712C4.79825 14.2906 5.31771 14.5003 5.9375 14.5003C6.47708 14.5003 6.94375 14.3345 7.3375 14.0029C7.73125 13.671 7.97917 13.2535 8.08125 12.7503H9.91875C10.0281 13.2608 10.2816 13.68 10.6791 14.0082C11.0764 14.3363 11.5375 14.5003 12.0625 14.5003C12.675 14.5003 13.1927 14.2852 13.6156 13.855C14.0385 13.4248 14.25 12.9035 14.25 12.291C14.25 11.6858 14.0368 11.1698 13.6104 10.7431C13.1837 10.3167 12.6677 10.1035 12.0625 10.1035H11.7125L10.9688 8.06909C10.9031 7.89409 10.7956 7.75554 10.6463 7.65346C10.4967 7.55138 10.3271 7.50034 10.1375 7.50034H9.4375C9.31354 7.50034 9.20971 7.54219 9.126 7.6259C9.042 7.7099 9 7.81388 9 7.93784C9 8.06179 9.042 8.16577 9.126 8.24977C9.20971 8.33348 9.31354 8.37534 9.4375 8.37534H10.1375L10.7719 10.1253H8.67188L8.51875 9.68784H8.5625C8.68646 9.68784 8.79044 9.64584 8.87444 9.56184C8.95815 9.47813 9 9.37429 9 9.25034C9 9.12638 8.95815 9.0224 8.87444 8.9384C8.79044 8.85469 8.68646 8.81284 8.5625 8.81284H7.25C7.12604 8.81284 7.02206 8.85469 6.93806 8.9384C6.85436 9.0224 6.8125 9.12638 6.8125 9.25034C6.8125 9.37429 6.85436 9.47813 6.93806 9.56184C7.02206 9.64584 7.12604 9.68784 7.25 9.68784H7.57813L8.36563 11.8753H8.08125C7.97917 11.3795 7.73679 10.9639 7.35413 10.6285C6.97117 10.293 6.49896 10.1253 5.9375 10.1253C5.33229 10.1253 4.81648 10.335 4.39006 10.7545C3.96335 11.1736 3.75 11.693 3.75 12.3128C3.75 12.9326 3.95971 13.4521 4.37913 13.8712ZM9.91875 11.8753H9.30625L8.97813 11.0003H10.3125C10.2104 11.1243 10.1285 11.2592 10.0666 11.405C10.0045 11.5509 9.95521 11.7076 9.91875 11.8753ZM12.2869 12.0888C12.2321 12.2017 12.15 12.2764 12.0406 12.3128C11.924 12.3493 11.8092 12.342 11.6963 12.291C11.5831 12.2399 11.5083 12.1597 11.4719 12.0503L11.2094 11.3066L12.0188 11.0003L12.3031 11.7441C12.3469 11.8608 12.3415 11.9757 12.2869 12.0888ZM7.1625 12.7503H6.375C6.25104 12.7503 6.14706 12.7083 6.06306 12.6243C5.97935 12.5406 5.9375 12.4368 5.9375 12.3128C5.9375 12.1889 5.97935 12.0849 6.06306 12.0009C6.14706 11.9172 6.25104 11.8753 6.375 11.8753H7.1625V12.7503Z" fill="white"/>
</svg>
