<svg width="18" height="18" viewBox="0 0 18 18" fill="none" xmlns="http://www.w3.org/2000/svg">
<circle cx="9" cy="9" r="8.5" fill="#808080" stroke="white"/>
<path d="M5.8802 7.55336C5.62694 7.89981 5.5 8.30137 5.5 8.725V13C5.5 13.3625 5.59154 13.7012 5.7662 14H4.85C4.61625 14 4.41622 13.9168 4.2499 13.7505C4.0833 13.5839 4 13.3837 4 13.15V8.59125C4 8.40708 4.05313 8.24232 4.15938 8.09697C4.26563 7.95191 4.40375 7.8475 4.57375 7.78375L4.9775 7.635C5.07667 7.59958 5.15104 7.54816 5.20062 7.48073C5.25021 7.41357 5.275 7.33042 5.275 7.23125V5.425C5.275 5.30458 5.3158 5.20358 5.3974 5.12197C5.47872 5.04066 5.57958 5 5.7 5H6.475C6.59542 5 6.69628 5.04066 6.7776 5.12197C6.8592 5.20358 6.9 5.30458 6.9 5.425V6.8106L6.82929 6.83664L6.82388 6.83867C6.4435 6.98131 6.1214 7.22404 5.8802 7.55336Z" fill="white"/>
<path d="M11.1 6.8106V5.425C11.1 5.30458 11.1408 5.20358 11.2224 5.12197C11.3037 5.04066 11.4046 5 11.525 5H12.3C12.4204 5 12.5213 5.04066 12.6026 5.12197C12.6842 5.20358 12.725 5.30458 12.725 5.425V7.23125C12.725 7.33042 12.7498 7.41357 12.7994 7.48073C12.8489 7.54816 12.9233 7.59958 13.0225 7.635L13.4262 7.78375C13.5962 7.8475 13.7344 7.95191 13.8406 8.09697C13.9469 8.24232 14 8.40708 14 8.59125V13.15C14 13.3837 13.9168 13.5839 13.7505 13.7505C13.5839 13.9168 13.3837 14 13.15 14H12.234C12.4086 13.7011 12.5 13.3624 12.5 13V8.725C12.5 8.30137 12.3731 7.89982 12.1198 7.55336C11.8786 7.22404 11.5565 6.9813 11.1761 6.83866L11.1 6.8106Z" fill="white"/>
<path d="M10.5888 13.9965C10.826 13.9774 11.0319 13.8808 11.2065 13.7065C11.4022 13.5105 11.5 13.275 11.5 13V8.725C11.5 8.50833 11.4375 8.3145 11.3125 8.1435C11.1875 7.97283 11.025 7.85 10.825 7.775L10.35 7.6C10.2333 7.55833 10.1458 7.49783 10.0875 7.4185C10.0292 7.3395 10 7.24167 10 7.125V4.5C10 4.35833 9.952 4.2395 9.856 4.1435C9.76033 4.04783 9.64167 4 9.5 4H8.5C8.35833 4 8.23967 4.04783 8.144 4.1435C8.048 4.2395 8 4.35833 8 4.5V7.125C8 7.24167 7.97083 7.3395 7.9125 7.4185C7.85417 7.49783 7.76667 7.55833 7.65 7.6L7.175 7.775C6.975 7.85 6.8125 7.97283 6.6875 8.1435C6.5625 8.3145 6.5 8.50833 6.5 8.725V13C6.5 13.275 6.598 13.5105 6.794 13.7065C6.9677 13.8802 7.17266 13.9768 7.40889 13.9963C7.43876 13.9988 7.46913 14 7.5 14H10.5C10.5301 14 10.5597 13.9988 10.5888 13.9965Z" fill="white"/>
</svg>
