<svg width="18" height="18" viewBox="0 0 18 18" fill="none" xmlns="http://www.w3.org/2000/svg">
<circle cx="9" cy="9" r="8.5" fill="#808080" stroke="white"/>
<path d="M8.25 4.99982C7.83579 4.99982 7.5 5.3356 7.5 5.74982V7.49982H5.75C5.33579 7.49982 5 7.8356 5 8.24982V9.74982C5 10.164 5.33579 10.4998 5.75 10.4998H7.5V12.2498C7.5 12.664 7.83579 12.9998 8.25 12.9998H9.75C10.1642 12.9998 10.5 12.664 10.5 12.2498V10.4998H12.25C12.6642 10.4998 13 10.164 13 9.74982V8.24982C13 7.8356 12.6642 7.49982 12.25 7.49982H10.5V5.74982C10.5 5.3356 10.1642 4.99982 9.75 4.99982H8.25Z" fill="white"/>
</svg>
