<svg width="18" height="18" viewBox="0 0 18 18" fill="none" xmlns="http://www.w3.org/2000/svg"><circle cx="9" cy="9" r="8.5" fill="gray" stroke="#fff"/><path d="M6.95 10.05c-.166.166-.437.167-.582-.017a3.4 3.4 0 0 1-.462-.783A3.2 3.2 0 0 1 5.65 8q0-.638.256-1.25.178-.426.469-.792c.142-.179.406-.177.567-.016.167.167.156.439.015.629q-.165.22-.27.479A2.5 2.5 0 0 0 6.5 8q0 .45.188.913.11.273.286.515c.138.19.142.456-.024.622m5.888 1.189a.4.4 0 0 1-.588.011.46.46 0 0 1-.016-.615q.391-.483.616-1.066.3-.782.3-1.569 0-.788-.3-1.569a3.9 3.9 0 0 0-.62-1.07.454.454 0 0 1 .016-.607.396.396 0 0 1 .588.018q.506.62.798 1.34Q14 7.026 14 8q0 .976-.35 1.888a4.6 4.6 0 0 1-.812 1.35m-7.084.007a.396.396 0 0 1-.588-.018 5.2 5.2 0 0 1-.798-1.34A5 5 0 0 1 4 8q0-.976.369-1.887.291-.722.797-1.34a.396.396 0 0 1 .588-.02.454.454 0 0 1 .015.608 3.9 3.9 0 0 0-.619 1.07A4.4 4.4 0 0 0 4.85 8q0 .788.3 1.569a3.9 3.9 0 0 0 .62 1.07.454.454 0 0 1-.016.607m5.871-1.204c-.142.179-.406.177-.567.016-.168-.167-.156-.439-.015-.629q.165-.22.27-.479.187-.462.187-.95 0-.45-.187-.912a2.4 2.4 0 0 0-.287-.516c-.138-.19-.142-.456.024-.622s.437-.167.58.018q.282.361.445.782.237.612.275 1.25 0 .638-.256 1.25a3.4 3.4 0 0 1-.469.792M7.159 14a.475.475 0 0 1-.45-.625l1.479-4.437a1.3 1.3 0 0 1-.319-.413A1.16 1.16 0 0 1 7.75 8q0-.525.363-.887.362-.363.887-.363t.887.363.363.887q0 .288-.119.525a1.3 1.3 0 0 1-.319.413l1.48 4.44a.473.473 0 1 1-.898.295L10.175 13H7.837l-.228.677a.475.475 0 0 1-.45.323m1.003-2h1.675L9 9.5z" fill="#fff"/></svg>