<svg width="18" height="18" viewBox="0 0 18 18" fill="none" xmlns="http://www.w3.org/2000/svg">
<circle cx="9" cy="9" r="8.5" fill="#808080" stroke="white"/>
<path fill-rule="evenodd" clip-rule="evenodd" d="M6.5 7.33144C6.53852 7.34973 6.57782 7.36667 6.61782 7.38218C6.87135 8.03625 7.50612 8.5 8.25 8.5C8.78983 8.5 9.27195 8.25569 9.59272 7.87223C9.79575 7.95457 10.0177 8 10.25 8C10.7367 8 11.1767 7.80109 11.4935 7.48127C11.5774 7.49362 11.663 7.5 11.75 7.5C12.0184 7.5 12.2727 7.43958 12.5 7.33159V12.5C12.5 13.3284 11.8284 14 11 14H8C7.17157 14 6.5 13.3284 6.5 12.5H6C5.17157 12.5 4.5 11.8284 4.5 11V9C4.5 8.17157 5.17157 7.5 6 7.5H6.5V7.33144ZM6.5 11.5V8.5H6C5.72386 8.5 5.5 8.72386 5.5 9V11C5.5 11.2761 5.72386 11.5 6 11.5H6.5Z" fill="white"/>
<path d="M6.5185 6.76373C6.66525 6.8698 6.83595 6.9448 7.02094 6.97906C7.12853 7.56002 7.63788 8 8.25 8C8.60524 8 8.92586 7.85182 9.15344 7.61389C9.26982 7.49221 9.36187 7.34706 9.42176 7.18625C9.54764 7.29768 9.69614 7.38412 9.85951 7.4378C9.98237 7.47816 10.1136 7.5 10.25 7.5C10.6943 7.5 11.0845 7.26819 11.3062 6.91891C11.4441 6.97131 11.5937 7 11.75 7C12.0232 7 12.2758 6.91239 12.4815 6.76373C12.5032 6.74801 12.5245 6.73161 12.5451 6.71456C12.8229 6.48529 13 6.13833 13 5.75C13 5.05964 12.4404 4.5 11.75 4.5C11.5937 4.5 11.4441 4.52869 11.3062 4.58109C11.0845 4.23181 10.6943 4 10.25 4C10.0223 4 9.80879 4.06089 9.62491 4.16728C9.47861 4.25193 9.35105 4.36538 9.25 4.49988C9.14895 4.36538 9.02139 4.25193 8.87509 4.16728C8.69121 4.06089 8.47772 4 8.25 4C7.84105 4 7.47796 4.19639 7.24991 4.5C6.55959 4.50005 6 5.05967 6 5.75C6 6.1672 6.20439 6.53667 6.5185 6.76373Z" fill="white"/>
</svg>
