<svg width="18" height="18" viewBox="0 0 18 18" fill="none" xmlns="http://www.w3.org/2000/svg">
<path d="M2 6C2 3.79086 3.79086 2 6 2H12C14.2091 2 16 3.79086 16 6V15C16 15.5523 15.5523 16 15 16H3C2.44772 16 2 15.5523 2 15V6Z" fill="#808080"/>
<path fill-rule="evenodd" clip-rule="evenodd" d="M6 4C4.89543 4 4 4.89543 4 6V11C4 12.2262 4.73565 13.2806 5.78968 13.7458L5.35355 14.182C5.15829 14.3772 5.15829 14.6938 5.35355 14.8891C5.54882 15.0843 5.8654 15.0843 6.06066 14.8891L6.95014 13.9996C6.96673 13.9999 6.98335 14 7 14H11L11.8891 14.8891C12.0844 15.0843 12.401 15.0843 12.5962 14.8891C12.7915 14.6938 12.7915 14.3772 12.5962 14.182L12.1753 13.761C13.248 13.3038 14 12.2397 14 11V6C14 4.89543 13.1046 4 12 4H6ZM6 12C6.55228 12 7 11.5523 7 11C7 10.4477 6.55228 10 6 10C5.44772 10 5 10.4477 5 11C5 11.5523 5.44772 12 6 12ZM13 11C13 11.5523 12.5523 12 12 12C11.4477 12 11 11.5523 11 11C11 10.4477 11.4477 10 12 10C12.5523 10 13 10.4477 13 11ZM5.5 6C5.22386 6 5 6.22386 5 6.5V8.5C5 8.77614 5.22386 9 5.5 9H12.5C12.7761 9 13 8.77614 13 8.5V6.5C13 6.22386 12.7761 6 12.5 6H5.5Z" fill="white"/>
<path fill-rule="evenodd" clip-rule="evenodd" d="M3 16C2.44772 16 2 15.5523 2 15V6C2 3.79086 3.79086 2 6 2H12C14.2091 2 16 3.79086 16 6V15C16 15.5523 15.5523 16 15 16H3ZM6 1H12C14.7614 1 17 3.23858 17 6V15C17 16.1046 16.1046 17 15 17H3C1.89543 17 1 16.1046 1 15V6C1 3.23858 3.23858 1 6 1Z" fill="white"/>
</svg>
