<svg width="18" height="18" viewBox="0 0 18 18" fill="none" xmlns="http://www.w3.org/2000/svg">
<circle cx="9" cy="9" r="8.5" fill="#808080" stroke="white"/>
<path d="M8.96245 13.7127C8.81245 13.571 8.73745 13.4002 8.73745 13.2002C8.73745 13.0002 8.81245 12.8252 8.96245 12.6752L10.2375 11.4252L6.57495 7.76271L5.32495 9.03771C5.17495 9.17938 4.99995 9.25221 4.79995 9.25622C4.59995 9.26055 4.42912 9.19188 4.28745 9.05021C4.14578 8.90022 4.07495 8.72305 4.07495 8.51871C4.07495 8.31471 4.14578 8.14188 4.28745 8.00021L4.47495 7.81271L4.32495 7.65021C4.16662 7.49188 4.08745 7.29605 4.08745 7.06271C4.08745 6.82938 4.16662 6.62938 4.32495 6.46271L4.79995 5.98771L4.64995 5.83771C4.49162 5.67938 4.41245 5.48355 4.41245 5.25021C4.41245 5.01688 4.49162 4.82105 4.64995 4.66271C4.80828 4.49605 5.00412 4.41271 5.23745 4.41271C5.47078 4.41271 5.66662 4.49605 5.82495 4.66271L5.98745 4.81271L6.46245 4.32521C6.62912 4.16688 6.82912 4.08771 7.06245 4.08771C7.29579 4.08771 7.49162 4.16688 7.64995 4.32521L7.79995 4.47521L7.99995 4.28771C8.14995 4.13771 8.32495 4.06271 8.52495 4.06271C8.72495 4.06271 8.89579 4.13771 9.03745 4.28771C9.18745 4.42938 9.26245 4.60021 9.26245 4.80021C9.26245 5.00021 9.18745 5.17521 9.03745 5.32521L7.76245 6.57521L11.425 10.2377L12.675 8.96271C12.825 8.82105 13.0021 8.75021 13.2065 8.75021C13.4105 8.75021 13.5833 8.82105 13.725 8.96271C13.8666 9.10438 13.9375 9.27521 13.9375 9.47521C13.9375 9.67521 13.8666 9.84605 13.725 9.98772L13.525 10.1877L13.675 10.3502C13.8333 10.5085 13.9125 10.7044 13.9125 10.9377C13.9125 11.171 13.8333 11.371 13.675 11.5377L13.2 12.0127L13.35 12.1627C13.5083 12.321 13.5875 12.519 13.5875 12.7567C13.5875 12.994 13.5083 13.1919 13.35 13.3502C13.1916 13.5085 12.9958 13.5877 12.7625 13.5877C12.5291 13.5877 12.3291 13.5085 12.1625 13.3502L12.0125 13.1877L11.5375 13.6752C11.3708 13.8335 11.1708 13.9127 10.9375 13.9127C10.7041 13.9127 10.5083 13.8335 10.35 13.6752L10.2 13.5252L9.99995 13.7127C9.84995 13.8627 9.67495 13.9377 9.47495 13.9377C9.27495 13.9377 9.10412 13.8627 8.96245 13.7127Z" fill="white"/>
</svg>
