<svg width="18" height="18" viewBox="0 0 18 18" fill="none" xmlns="http://www.w3.org/2000/svg">
<circle cx="9" cy="9" r="8.5" fill="#808080" stroke="white"/>
<path d="M7.5 11.7501C7.64167 11.7501 7.7605 11.7021 7.8565 11.6061C7.95217 11.5105 8 11.3918 8 11.2501C8 11.1085 7.95217 10.9896 7.8565 10.8936C7.7605 10.798 7.64167 10.7501 7.5 10.7501C7.35833 10.7501 7.23967 10.798 7.144 10.8936C7.048 10.9896 7 11.1085 7 11.2501C7 11.3918 7.048 11.5105 7.144 11.6061C7.23967 11.7021 7.35833 11.7501 7.5 11.7501ZM10.5 11.7501C10.6417 11.7501 10.7605 11.7021 10.8565 11.6061C10.9522 11.5105 11 11.3918 11 11.2501C11 11.1085 10.9522 10.9896 10.8565 10.8936C10.7605 10.798 10.6417 10.7501 10.5 10.7501C10.3583 10.7501 10.2397 10.798 10.144 10.8936C10.048 10.9896 10 11.1085 10 11.2501C10 11.3918 10.048 11.5105 10.144 11.6061C10.2397 11.7021 10.3583 11.7501 10.5 11.7501ZM6 14.0001C5.85833 14.0001 5.7395 13.9521 5.6435 13.8561C5.54783 13.7605 5.5 13.6418 5.5 13.5001V10.3001L6.325 7.90012C6.36667 7.78346 6.43533 7.68762 6.531 7.61262C6.627 7.53762 6.73333 7.50012 6.85 7.50012H11.15C11.2667 7.50012 11.373 7.53762 11.469 7.61262C11.5647 7.68762 11.6333 7.78346 11.675 7.90012L12.5 10.3001V13.5001C12.5 13.6418 12.452 13.7605 12.356 13.8561C12.2603 13.9521 12.1417 14.0001 12 14.0001C11.8583 14.0001 11.7397 13.9521 11.644 13.8561C11.548 13.7605 11.5 13.6418 11.5 13.5001V13.0001H6.5V13.5001C6.5 13.6418 6.45217 13.7605 6.3565 13.8561C6.2605 13.9521 6.14167 14.0001 6 14.0001ZM6.825 9.50012H11.175L10.825 8.50012H7.175L6.825 9.50012Z" fill="white"/>
<path d="M5.79167 6.50012C5.70903 6.50012 5.63981 6.47212 5.584 6.41612C5.528 6.36032 5.5 6.29109 5.5 6.20846V6.04075C5.5 5.82686 5.60694 5.65546 5.82083 5.52654C6.03472 5.39782 6.31667 5.33346 6.66667 5.33346C6.72986 5.33346 6.78946 5.33589 6.84546 5.34075C6.90126 5.34561 6.9559 5.3529 7.00938 5.36262C6.94132 5.45984 6.89144 5.56436 6.85975 5.67616C6.82825 5.78797 6.8125 5.90707 6.8125 6.03346V6.50012H5.79167ZM7.54167 6.50012C7.45903 6.50012 7.38971 6.47212 7.33371 6.41612C7.2779 6.36032 7.25 6.29109 7.25 6.20846V6.03346C7.25 5.71748 7.41168 5.46101 7.73504 5.26404C8.05821 5.06726 8.47986 4.96887 9 4.96887C9.525 4.96887 9.94792 5.06726 10.2688 5.26404C10.5896 5.46101 10.75 5.71748 10.75 6.03346V6.20846C10.75 6.29109 10.722 6.36032 10.666 6.41612C10.6102 6.47212 10.541 6.50012 10.4583 6.50012H7.54167ZM11.1875 6.50012V6.03346C11.1875 5.90707 11.1705 5.78797 11.1365 5.67616C11.1024 5.56436 11.0538 5.45984 10.9906 5.36262C11.0441 5.3529 11.0988 5.34561 11.1548 5.34075C11.2106 5.33589 11.2701 5.33346 11.3333 5.33346C11.6833 5.33346 11.9653 5.39782 12.1792 5.52654C12.3931 5.65546 12.5 5.82686 12.5 6.04075V6.20846C12.5 6.29109 12.472 6.36032 12.416 6.41612C12.3602 6.47212 12.291 6.50012 12.2083 6.50012H11.1875ZM6.66667 5.04179C6.50625 5.04179 6.36897 4.98462 6.25483 4.87029C6.1405 4.75615 6.08333 4.61887 6.08333 4.45846C6.08333 4.29804 6.1405 4.16066 6.25483 4.04633C6.36897 3.93219 6.50625 3.87512 6.66667 3.87512C6.82708 3.87512 6.96436 3.93219 7.0785 4.04633C7.19283 4.16066 7.25 4.29804 7.25 4.45846C7.25 4.61887 7.19283 4.75615 7.0785 4.87029C6.96436 4.98462 6.82708 5.04179 6.66667 5.04179ZM11.3333 5.04179C11.1729 5.04179 11.0355 4.98462 10.9212 4.87029C10.8071 4.75615 10.75 4.61887 10.75 4.45846C10.75 4.29804 10.8071 4.16066 10.9212 4.04633C11.0355 3.93219 11.1729 3.87512 11.3333 3.87512C11.4938 3.87512 11.6311 3.93219 11.7455 4.04633C11.8596 4.16066 11.9167 4.29804 11.9167 4.45846C11.9167 4.61887 11.8596 4.75615 11.7455 4.87029C11.6311 4.98462 11.4938 5.04179 11.3333 5.04179ZM9 4.75012C8.75695 4.75012 8.55035 4.66505 8.38021 4.49491C8.21007 4.32477 8.125 4.11818 8.125 3.87512C8.125 3.63207 8.21007 3.42547 8.38021 3.25533C8.55035 3.08519 8.75695 3.00012 9 3.00012C9.24306 3.00012 9.44965 3.08519 9.61979 3.25533C9.78993 3.42547 9.875 3.63207 9.875 3.87512C9.875 4.11818 9.78993 4.32477 9.61979 4.49491C9.44965 4.66505 9.24306 4.75012 9 4.75012Z" fill="white"/>
</svg>
