<svg width="18" height="18" viewBox="0 0 18 18" fill="none" xmlns="http://www.w3.org/2000/svg">
<circle cx="9" cy="9" r="8.5" fill="#808080" stroke="white"/>
<path d="M10.7049 5.5L7.70307 4.04366C7.37243 3.8967 7 4.13873 7 4.50056V11.4999C7 11.776 7.22386 12 7.5 12C7.77614 12 8 11.7761 8 11.5V7.28674L10.7049 6.41381C10.8874 6.33269 11 6.18359 11 6C11 5.81641 10.9183 5.59484 10.7049 5.5Z" fill="white"/>
<path d="M9 11.4999V11.1443C10.1825 11.3851 11 11.9016 11 12.5C11 13.3284 9.433 14 7.5 14C5.567 14 4 13.3284 4 12.5C4 11.9016 4.81753 11.3851 6 11.1443V11.4999C6 12.3283 6.67157 12.9999 7.5 12.9999C8.32843 12.9999 9 12.3283 9 11.4999Z" fill="white"/>
<path d="M14 12C14 12.5523 13.5523 13 13 13C12.4477 13 12 12.5523 12 12C12 11.4477 12.4477 11 13 11C13.5523 11 14 11.4477 14 12Z" fill="white"/>
</svg>
