<svg width="17" height="14" viewBox="0 0 17 14" fill="none" xmlns="http://www.w3.org/2000/svg">
<path d="M1 1.5C1 1.22386 1.22386 1 1.5 1H2.5C2.77614 1 3 1.22386 3 1.5V12.5C3 12.7761 2.77614 13 2.5 13H1.5C1.22386 13 1 12.7761 1 12.5V1.5Z" fill="#808080"/>
<path fill-rule="evenodd" clip-rule="evenodd" d="M1.5 0H2.5C3.32843 0 4 0.671573 4 1.5V12.5C4 13.3284 3.32843 14 2.5 14H1.5C0.671573 14 0 13.3284 0 12.5V1.5C0 0.671574 0.671572 0 1.5 0ZM1.5 1C1.22386 1 1 1.22386 1 1.5V12.5C1 12.7761 1.22386 13 1.5 13H2.5C2.77614 13 3 12.7761 3 12.5V1.5C3 1.22386 2.77614 1 2.5 1H1.5Z" fill="white"/>
<path d="M14 1.5C14 1.22386 14.2239 1 14.5 1H15.5C15.7761 1 16 1.22386 16 1.5V12.5C16 12.7761 15.7761 13 15.5 13H14.5C14.2239 13 14 12.7761 14 12.5V1.5Z" fill="#808080"/>
<path fill-rule="evenodd" clip-rule="evenodd" d="M14.5 0H15.5C16.3284 0 17 0.671573 17 1.5V12.5C17 13.3284 16.3284 14 15.5 14H14.5C13.6716 14 13 13.3284 13 12.5V1.5C13 0.671574 13.6716 0 14.5 0ZM14.5 1C14.2239 1 14 1.22386 14 1.5V12.5C14 12.7761 14.2239 13 14.5 13H15.5C15.7761 13 16 12.7761 16 12.5V1.5C16 1.22386 15.7761 1 15.5 1H14.5Z" fill="white"/>
<path d="M8.44664 12C8.29905 12 8.17113 11.9454 8.0629 11.8363C7.95466 11.7272 7.90055 11.5883 7.90055 11.4196V10.8095C7.48728 10.7004 7.1183 10.5218 6.7936 10.2738C6.46889 10.0258 6.2229 9.72321 6.05563 9.36607C5.98675 9.22718 5.98183 9.08333 6.04087 8.93452C6.09991 8.78571 6.20814 8.68155 6.36558 8.62202C6.51317 8.57242 6.66076 8.56994 6.80836 8.61458C6.95595 8.65923 7.0691 8.75099 7.14782 8.88988C7.31509 9.16766 7.51926 9.38343 7.76033 9.5372C8.0014 9.69097 8.25477 9.76786 8.52044 9.76786C8.89434 9.76786 9.2092 9.66369 9.46503 9.45536C9.72086 9.24702 9.84877 8.99405 9.84877 8.69643C9.84877 8.39881 9.743 8.15575 9.53145 7.96726C9.3199 7.77877 8.93862 7.58532 8.3876 7.38691C7.55124 7.08929 6.96579 6.77679 6.63124 6.4494C6.2967 6.12202 6.12943 5.69048 6.12943 5.15476C6.12943 4.66865 6.29424 4.23958 6.62386 3.86756C6.95349 3.49554 7.37905 3.26488 7.90055 3.1756V2.58036C7.90055 2.41171 7.9522 2.27282 8.05552 2.16369C8.15883 2.05456 8.28429 2 8.43188 2C8.57947 2 8.70493 2.05456 8.80824 2.16369C8.91156 2.27282 8.96321 2.41171 8.96321 2.58036V3.1756C9.28792 3.2252 9.58311 3.33185 9.84877 3.49554C10.1144 3.65923 10.3309 3.87004 10.4982 4.12798C10.5867 4.26687 10.6089 4.41071 10.5646 4.55952C10.5203 4.70833 10.4244 4.8125 10.2768 4.87202C10.139 4.92163 9.99391 4.92163 9.84139 4.87202C9.68888 4.82242 9.54867 4.72817 9.42075 4.58929C9.31252 4.46032 9.17722 4.36359 9.01487 4.29911C8.85252 4.23462 8.67295 4.20238 8.47616 4.20238C8.13177 4.20238 7.84643 4.29167 7.62012 4.47024C7.39381 4.64881 7.28065 4.86706 7.28065 5.125C7.28065 5.38294 7.41595 5.61111 7.68653 5.80952C7.95712 6.00794 8.41712 6.21627 9.06653 6.43452C9.74546 6.6627 10.2374 6.95536 10.5425 7.3125C10.8475 7.66964 11 8.13095 11 8.69643C11 9.23214 10.8081 9.70089 10.4244 10.1027C10.0406 10.5045 9.55359 10.755 8.96321 10.8542V11.4196C8.96321 11.5883 8.91156 11.7272 8.80824 11.8363C8.70493 11.9454 8.58439 12 8.44664 12Z" fill="#808080"/>
<path fill-rule="evenodd" clip-rule="evenodd" d="M9.42075 4.58929C9.31252 4.46032 9.17722 4.36359 9.01487 4.29911C8.85252 4.23462 8.67295 4.20238 8.47616 4.20238C8.13177 4.20238 7.84643 4.29167 7.62012 4.47024C7.39381 4.64881 7.28065 4.86706 7.28065 5.125C7.28065 5.38294 7.41595 5.61111 7.68653 5.80952C7.95712 6.00794 8.41712 6.21627 9.06653 6.43452C9.74546 6.6627 10.2374 6.95536 10.5425 7.3125C10.8475 7.66964 11 8.13095 11 8.69643C11 9.23214 10.8081 9.70089 10.4244 10.1027C10.0406 10.5045 9.55359 10.755 8.96321 10.8542V11.4196C8.96321 11.5883 8.91156 11.7272 8.80824 11.8363C8.70493 11.9454 8.58439 12 8.44664 12C8.29905 12 8.17113 11.9454 8.0629 11.8363C7.95466 11.7272 7.90055 11.5883 7.90055 11.4196V10.8095C7.48728 10.7004 7.1183 10.5218 6.7936 10.2738C6.46889 10.0258 6.2229 9.72321 6.05563 9.36607C5.98675 9.22718 5.98183 9.08333 6.04087 8.93452C6.09991 8.78571 6.20814 8.68155 6.36558 8.62202C6.51317 8.57242 6.66076 8.56994 6.80836 8.61458C6.95595 8.65923 7.0691 8.75099 7.14782 8.88988C7.31509 9.16766 7.51926 9.38343 7.76033 9.5372C8.0014 9.69097 8.25477 9.76786 8.52044 9.76786C8.89434 9.76786 9.2092 9.66369 9.46503 9.45536C9.72086 9.24702 9.84877 8.99405 9.84877 8.69643C9.84877 8.39881 9.743 8.15575 9.53145 7.96726C9.3199 7.77877 8.93862 7.58532 8.3876 7.38691C7.55124 7.08929 6.96579 6.77679 6.63124 6.4494C6.2967 6.12202 6.12943 5.69048 6.12943 5.15476C6.12943 4.66865 6.29424 4.23958 6.62386 3.86756C6.95349 3.49554 7.37905 3.26488 7.90055 3.1756V2.58036C7.90055 2.41171 7.9522 2.27282 8.05552 2.16369C8.15883 2.05456 8.28429 2 8.43188 2C8.57947 2 8.70493 2.05456 8.80824 2.16369C8.91156 2.27282 8.96321 2.41171 8.96321 2.58036V3.1756C9.28792 3.2252 9.58311 3.33185 9.84877 3.49554C10.1144 3.65923 10.3309 3.87004 10.4982 4.12798C10.5867 4.26687 10.6089 4.41071 10.5646 4.55952C10.5203 4.70833 10.4244 4.8125 10.2768 4.87202C10.139 4.92163 9.99391 4.92163 9.84139 4.87202C9.68888 4.82242 9.54867 4.72817 9.42075 4.58929ZM9.95654 2.42706C10.0997 2.48899 10.2388 2.56129 10.3733 2.64417C10.7633 2.88448 11.0879 3.19954 11.3372 3.58387L11.3414 3.59034C11.5751 3.95686 11.6556 4.3992 11.5231 4.84471C11.3894 5.29383 11.0726 5.62933 10.6508 5.79944L10.6333 5.8065L10.6156 5.81289C10.5178 5.8481 10.4195 5.87316 10.3214 5.88889C10.7017 6.09736 11.0366 6.35129 11.3029 6.66306C11.7926 7.23642 12 7.94359 12 8.69643C12 9.4998 11.7016 10.2132 11.1475 10.7934C10.803 11.1541 10.4009 11.4246 9.9531 11.6081C9.91766 11.9354 9.78711 12.2569 9.5344 12.5238C9.2613 12.8123 8.88564 13 8.44662 13C8.02032 13 7.6402 12.8302 7.35288 12.5405C7.06213 12.2474 6.92118 11.8804 6.90264 11.5056C6.65011 11.3854 6.41095 11.2399 6.18657 11.0685C5.74125 10.7284 5.39198 10.3032 5.15403 9.79874C4.96014 9.39973 4.95316 8.96444 5.11133 8.56575C5.27996 8.14071 5.60662 7.83988 6.0119 7.68665L6.02933 7.68006L6.04699 7.67412C6.1856 7.62754 6.32713 7.59866 6.46962 7.58778C6.26763 7.45657 6.08689 7.31588 5.93181 7.16412C5.37674 6.62093 5.12941 5.91709 5.12941 5.15476C5.12941 4.41831 5.38771 3.75479 5.87538 3.20439C6.17025 2.87158 6.51743 2.61756 6.90604 2.44069C6.93341 2.09667 7.06407 1.75636 7.32932 1.47619C7.61761 1.17167 8.00396 1 8.43186 1C8.85976 1 9.24611 1.17167 9.5344 1.47619C9.79615 1.75266 9.92684 2.08768 9.95654 2.42706Z" fill="white"/>
</svg>
