<svg width="18" height="18" viewBox="0 0 18 18" fill="none" xmlns="http://www.w3.org/2000/svg">
<circle cx="9" cy="9" r="8.5" fill="#808080" stroke="white"/>
<path d="M4 13.5002V12.0002C4 11.8919 4.01667 11.7877 4.05 11.6877C4.08333 11.5877 4.13333 11.4919 4.2 11.4002L8.375 5.77521L7.8 5.00021C7.75833 4.94188 7.72917 4.88138 7.7125 4.81871C7.69583 4.75638 7.69167 4.69388 7.7 4.63121C7.70833 4.56888 7.72917 4.50854 7.7625 4.45021C7.79583 4.39188 7.84167 4.34188 7.9 4.30021C8.01667 4.21688 8.14167 4.18354 8.275 4.20021C8.40833 4.21688 8.51667 4.28354 8.6 4.40021L9 4.93771L9.4 4.40021C9.48333 4.28354 9.59167 4.21688 9.725 4.20021C9.85833 4.18354 9.98333 4.21688 10.1 4.30021C10.2167 4.38354 10.2833 4.49188 10.3 4.62521C10.3167 4.75854 10.2833 4.88355 10.2 5.00021L9.625 5.77521L13.8 11.4002C13.8667 11.4919 13.9167 11.5877 13.95 11.6877C13.9833 11.7877 14 11.8919 14 12.0002V13.5002C14 13.6419 13.952 13.7605 13.856 13.8562C13.7603 13.9522 13.6417 14.0002 13.5 14.0002H4.5C4.35833 14.0002 4.23967 13.9522 4.144 13.8562C4.048 13.7605 4 13.6419 4 13.5002ZM7.1125 13.0002H10.8875L9 10.3627L7.1125 13.0002Z" fill="white"/>
</svg>
