<svg width="15" height="14" viewBox="0 0 15 14" fill="none" xmlns="http://www.w3.org/2000/svg">
<path d="M10.1228 13H12.7775C13.5085 13 14.0808 12.3706 14.0115 11.6428L13.5482 6.77875C13.5303 6.59006 13.4693 6.40801 13.3699 6.24659L11.2613 2.82004C11.1189 2.58855 10.9043 2.4103 10.6506 2.31272L7.45245 1.08263C7.16937 0.973747 6.85619 0.972431 6.5722 1.07893L4.94698 1.6884C4.67976 1.78861 4.4553 1.97796 4.31149 2.22449L2.47913 5.36576C2.40336 5.49565 2.35185 5.63825 2.32713 5.78658L1.76071 9.18517C1.75007 9.24904 1.73444 9.31197 1.71397 9.37338L1.04899 11.3684C0.78143 12.1711 1.37888 13 2.22498 13H4.82603L5.09689 11.6332C5.10737 11.5803 5.11265 11.5265 5.11265 11.4726V9.80257C5.11265 9.59971 5.18726 9.40394 5.32228 9.25254L6.40962 8.0332C6.49895 7.93303 6.61133 7.85612 6.73705 7.80913L7.45018 7.54257C7.6573 7.46514 7.88682 7.47396 8.0874 7.56704L8.9495 7.96713C9.14705 8.05881 9.30043 8.22477 9.37628 8.42892L10.2186 10.6958C10.26 10.8073 10.2769 10.9264 10.2681 11.0449L10.1228 13Z" fill="#808080"/>
<path fill-rule="evenodd" clip-rule="evenodd" d="M9.06303 14L9.28515 11.011L8.48192 8.8492L7.73363 8.50194L7.11105 8.73465L6.09529 9.87372V11.4726C6.09529 11.5929 6.0835 11.713 6.06013 11.8309L5.63028 14H2.22498C0.730761 14 -0.373162 12.522 0.118449 11.0471L0.783427 9.05215L1.71397 9.37338L1.04899 11.3684C0.78143 12.1711 1.37888 13 2.22498 13H4.82603L5.09689 11.6332C5.10737 11.5803 5.11265 11.5265 5.11265 11.4726V9.80257C5.11265 9.59971 5.18726 9.40394 5.32228 9.25254L6.40962 8.0332C6.49895 7.93303 6.61133 7.85612 6.73705 7.80913L7.45018 7.54257C7.6573 7.46514 7.88682 7.47396 8.0874 7.56704L8.9495 7.96713C9.14705 8.05881 9.30043 8.22477 9.37628 8.42892L10.2186 10.6958C10.26 10.8073 10.2769 10.9264 10.2681 11.0449L10.1228 13H12.7775C13.5085 13 14.0808 12.3706 14.0115 11.6428L13.5482 6.77875C13.5303 6.59006 13.4693 6.40801 13.3699 6.24659L11.2613 2.82004C11.1189 2.58855 10.9043 2.4103 10.6506 2.31272L7.45245 1.08263C7.16937 0.973747 6.85619 0.972431 6.5722 1.07893L4.94698 1.6884C4.67976 1.78861 4.4553 1.97796 4.31149 2.22449L2.47913 5.36576C2.40336 5.49565 2.35185 5.63825 2.32713 5.78658L1.76071 9.18517L0.791928 9.01795L1.35835 5.61936C1.40335 5.34934 1.497 5.09045 1.63417 4.8553L3.46654 1.71402C3.72686 1.26775 4.13086 0.928721 4.60723 0.75008L6.23245 0.140607C6.73834 -0.0491067 7.2955 -0.046779 7.79985 0.147206L10.998 1.3773C11.4503 1.55128 11.8364 1.87045 12.0942 2.28928L14.2027 5.71583C14.3825 6.00796 14.4936 6.33857 14.5263 6.68228L14.9895 11.5464C15.1166 12.8806 14.07 14 12.7775 14H9.06303ZM1.76071 9.18517C1.75007 9.24904 1.73444 9.31197 1.71397 9.37338L0.783427 9.05215C0.787179 9.04089 0.790011 9.02945 0.791928 9.01795L1.76071 9.18517Z" fill="white"/>
</svg>
