<svg width="18" height="18" viewBox="0 0 18 18" fill="none" xmlns="http://www.w3.org/2000/svg">
<circle cx="9" cy="9" r="8.5" fill="#808080" stroke="white"/>
<path d="M4 4.5C3.72386 4.5 3.5 4.72386 3.5 5C3.5 5.27614 3.72386 5.5 4 5.5H4.87592L6.22746 11.714C6.45311 11.5781 6.71743 11.5 7 11.5C7.0744 11.5 7.14754 11.5054 7.21904 11.5159L7.01288 10.5003H12.0901C12.3284 10.5003 12.5336 10.332 12.5804 10.0983L13.3804 6.09834C13.4423 5.78894 13.2056 5.50028 12.8901 5.50028H5.99787C5.99787 5.50028 5.78088 4.87764 5.66982 4.72832C5.55876 4.579 5.42597 4.5 5.25 4.5H4Z" fill="white"/>
<path d="M6 13.0002C6.00009 13.5524 6.44777 14 7 14C7.37003 14 7.69311 13.799 7.86606 13.5003C7.95124 13.3531 8 13.1823 8 13C8 12.818 7.95136 12.6473 7.86638 12.5003C7.74724 12.2942 7.55668 12.1345 7.32853 12.0552C7.22563 12.0194 7.11509 12 7 12C6.44772 12 6 12.4479 6 13.0002Z" fill="white"/>
<path d="M8.41455 13.5003C8.46989 13.3438 8.5 13.1754 8.5 13C8.5 12.8248 8.46996 12.6566 8.41475 12.5003H10.5853C10.53 12.6566 10.5 12.8248 10.5 13C10.5 13.1754 10.5301 13.3438 10.5855 13.5003H8.41455Z" fill="white"/>
<path d="M11.1247 12.516C11.0453 12.6594 11 12.8244 11 13C11 13.1758 11.0454 13.341 11.125 13.4845C11.2956 13.7919 11.6235 14 12 14C12.5523 14 13 13.5523 13 13C13 12.4477 12.5523 12 12 12C11.6233 12 11.2953 12.2083 11.1247 12.516Z" fill="white"/>
</svg>
