<svg width="18" height="18" viewBox="0 0 18 18" fill="none" xmlns="http://www.w3.org/2000/svg">
<circle cx="9" cy="9" r="8.5" fill="#808080" stroke="white"/>
<path d="M8.06172 5.05522C8.02881 4.75903 8.26065 4.5 8.55866 4.5H9.44139C9.7394 4.5 9.97124 4.75903 9.93833 5.05522L9.54945 8.55522C9.54925 8.55696 9.54905 8.5587 9.54884 8.56043C9.37222 8.52087 9.18855 8.5 9 8.5C8.81147 8.5 8.62781 8.52087 8.45121 8.56042C8.451 8.55869 8.4508 8.55695 8.4506 8.55522L8.06172 5.05522Z" fill="white"/>
<path d="M8.02879 8.69566L5.7641 5.9277C5.57678 5.69875 5.23274 5.6816 5.02357 5.89077L4.3907 6.52363C4.18153 6.7328 4.19869 7.07685 4.42763 7.26417L7.0625 9.41997C7.31886 9.10599 7.65002 8.85549 8.02879 8.69566Z" fill="white"/>
<path d="M6.71064 9.99403L4.40859 9.34649C4.12383 9.26639 3.83217 9.44967 3.7808 9.74099L3.62538 10.6224C3.57402 10.9137 3.78541 11.1857 4.08039 11.2078L6.53049 11.3916C6.51042 11.264 6.5 11.1332 6.5 11C6.5 10.6421 6.57519 10.3018 6.71064 9.99403Z" fill="white"/>
<path d="M11.4695 11.3916L13.9197 11.2078C14.2146 11.1857 14.426 10.9137 14.3747 10.6224L14.2192 9.74099C14.1679 9.44967 13.8762 9.26639 13.5915 9.34649L11.2894 9.99404C11.4248 10.3018 11.5 10.6421 11.5 11C11.5 11.1332 11.4896 11.264 11.4695 11.3916Z" fill="white"/>
<path d="M9.93361 8.68015C10.3181 8.83502 10.6552 9.08269 10.9172 9.39541L13.5222 7.26407C13.7511 7.07675 13.7683 6.73271 13.5591 6.52354L12.9262 5.89067C12.717 5.6815 12.373 5.69866 12.1857 5.92761L9.93361 8.68015Z" fill="white"/>
<path d="M10.5 11C10.5 11.8284 9.82845 12.5 9.00002 12.5C8.1716 12.5 7.5 11.8284 7.5 11C7.5 10.1716 8.17157 9.5 9 9.5C9.82843 9.5 10.5 10.1716 10.5 11Z" fill="white"/>
</svg>
