<?xml version="1.0" encoding="UTF-8" standalone="no"?>
<svg
   width="18"
   height="18"
   viewBox="0 0 18 18"
   fill="none"
   version="1.1"
   id="svg6"
   sodipodi:docname="poi_spring.svg"
   inkscape:version="1.2 (dc2aedaf03, 2022-05-15)"
   xmlns:inkscape="http://www.inkscape.org/namespaces/inkscape"
   xmlns:sodipodi="http://sodipodi.sourceforge.net/DTD/sodipodi-0.dtd"
   xmlns="http://www.w3.org/2000/svg"
   xmlns:svg="http://www.w3.org/2000/svg">
  <defs
     id="defs10" />
  <sodipodi:namedview
     id="namedview8"
     pagecolor="#ffffff"
     bordercolor="#000000"
     borderopacity="0.25"
     inkscape:showpageshadow="2"
     inkscape:pageopacity="0.0"
     inkscape:pagecheckerboard="0"
     inkscape:deskcolor="#d1d1d1"
     showgrid="false"
     inkscape:zoom="45.254834"
     inkscape:cx="7.1594562"
     inkscape:cy="5.8446795"
     inkscape:window-width="2560"
     inkscape:window-height="1511"
     inkscape:window-x="-9"
     inkscape:window-y="-9"
     inkscape:window-maximized="1"
     inkscape:current-layer="svg6" />
  <circle
     cx="9"
     cy="9"
     r="8.5"
     fill="#808080"
     stroke="white"
     id="circle2" />
  <path
     id="path5966"
     style="color:#000000;fill:#ffffff;stroke-linecap:round;stroke-linejoin:round;-inkscape-stroke:none;paint-order:fill markers stroke"
     d="m 9.7659561,6.6695908 c 0.025129,0.00441 -0.6157606,0.6328459 -0.9966566,0.8611627 -0.5226822,0.3038002 -0.8883624,0.4914157 -1.011487,0.945809 -0.1231246,0.4543933 0.018356,0.9000867 0.2363281,1.2675781 0.435945,0.7349824 1.2033752,1.3618634 1.8261719,2.0097654 0.6227965,0.647903 0.8024305,1.158664 0.7672795,1.62169 -0.01758,0.231513 -0.17639,0.555467 -0.502515,0.873146 -0.3261249,0.317679 -1.8687366,1.062291 -2.7083225,1.437996 0.9268386,0.432133 2.4767749,0.760821 3.6096405,0.841466 0,0 0.11034,-1.136599 0.194418,-1.452165 0.162163,-0.60864 0.704273,-1.079127 0.742188,-1.578554 0.07583,-0.998856 -0.715641,-1.73381 -1.385892,-2.431079 C 9.8668589,10.369137 9.1330326,9.7141664 8.8496094,9.2363281 8.7078978,8.997409 8.7330353,8.6807148 8.7644664,8.5647179 8.7958974,8.4487211 9.126291,8.0278403 9.126291,8.0278403 9.5540966,7.4789415 9.7659561,6.6695908 9.7659561,6.6695908 Z"
     sodipodi:nodetypes="ccssscsccssssscc" />
  <g
     id="path6694">
    <path
       style="color:#000000;fill:#ffffff;stroke-width:0.994;stroke-linecap:round;stroke-linejoin:round;-inkscape-stroke:none;paint-order:fill markers stroke"
       d="m 11.383474,5.6726694 c -0.02772,-0.019722 -1.131455,0.9057204 -2.221398,0.9057204 -1.0899433,0 -2.0879237,-0.9247882 -2.0879237,-0.9247882 0,0 0.9864421,-0.9040739 2.0879237,-0.8866525 1.089943,0 2.221398,0.9057203 2.221398,0.9057203 z"
       id="path8896" />
    <path
       style="color:#000000;fill:#ffffff;stroke-linecap:round;stroke-linejoin:round;-inkscape-stroke:none;paint-order:fill markers stroke"
       d="M 8.4414394,5.2820776 C 7.0658321,5.2628289 7.0242982,5.325245 7.0242981,5.325245 c -0.075912,0.0098 -0.6366004,0.2209122 -0.6756927,0.328416 -0.112707,0.064404 0.1446898,0.3459291 0.3877258,0.3639171 0,0 0.6314575,0.099041 1.2625865,0.4079025 0.3903382,0.1910232 0.7727359,0.1930642 1.2966694,0.1930642 0.6856341,0 0.9703969,-0.1020845 1.4238939,-0.3518273 0.131637,0.029101 0.687754,-0.030474 0.882085,-0.147577 0.014,-0.00938 0.02483,-0.016205 0.01367,-0.00977 -0.0037,0.00212 -0.02144,0.00914 -0.03516,0.015625 0.190364,-0.084102 0.548848,-0.4572927 0.548848,-0.4572927 0.03993,-0.039931 -0.179906,-0.4090166 -0.435567,-0.3825511 0,0 -0.02288,-0.015145 -0.02344,-0.015625 l 0.002,-0.00195 c -1.1e-5,-7.6e-6 -0.01063,-0.00348 -0.01172,-0.00391 -0.04914,-0.042191 -0.455091,-0.3225149 -1.7886318,-0.3248146 z m 0.7128572,-0.018406 c 0.0026,2.05e-5 0.00521,2.05e-5 0.00781,0 0.4772593,0 0.7256464,0.240293 1.1191404,0.4667968 C 9.9277288,5.9080964 9.5185518,6.0820313 9.1621094,6.0820312 8.728426,6.0820312 8.2876882,5.8675597 7.9433594,5.65625 8.2819549,5.4560942 8.720483,5.2568105 9.1542966,5.2636716 Z M 11.095703,6.078125 c 0.141424,0.098928 0.324043,0.1174115 0.482422,0.048828 -0.0068,0.00314 -0.0041,0.00321 -0.01563,0.00781 -0.0193,0.00771 -0.182694,-0.2947095 -0.18174,-0.2948555 4.77e-4,-7.31e-5 -0.05494,0.3260625 -0.05459,0.3261025 3.47e-4,3.96e-5 -0.230685,-0.088045 -0.230469,-0.087891 z"
       id="path8898"
       sodipodi:nodetypes="ccccssccccccccccccccsccsccssss" />
  </g>
</svg>
