<svg width="18" height="18" viewBox="0 0 18 18" fill="none" xmlns="http://www.w3.org/2000/svg">
<circle cx="9" cy="9" r="8.5" fill="#808080" stroke="white"/>
<path d="M5.5 13.5C5.35833 13.5 5.2395 13.452 5.1435 13.356C5.04783 13.2603 5 13.1417 5 13V5.5C5 5.35833 5.04783 5.2395 5.1435 5.1435C5.2395 5.04783 5.35833 5 5.5 5H9.0875C9.20417 5 9.30833 5.0375 9.4 5.1125C9.49167 5.1875 9.55 5.28333 9.575 5.4L9.7 6H12C12.1417 6 12.2603 6.04783 12.356 6.1435C12.452 6.2395 12.5 6.35833 12.5 6.5V10.5C12.5 10.6417 12.452 10.7603 12.356 10.856C12.2603 10.952 12.1417 11 12 11H9.4125C9.29583 11 9.19167 10.9625 9.1 10.8875C9.00833 10.8125 8.95 10.7167 8.925 10.6L8.8 10H6V13C6 13.1417 5.95217 13.2603 5.8565 13.356C5.7605 13.452 5.64167 13.5 5.5 13.5Z" fill="white"/>
</svg>
