<svg width="18" height="18" viewBox="0 0 18 18" fill="none" xmlns="http://www.w3.org/2000/svg">
<circle cx="9" cy="9" r="8.5" fill="#808080" stroke="white"/>
<path d="M4.5 13.9996C4.35833 13.9996 4.23967 13.9516 4.144 13.8556C4.048 13.7599 4 13.6413 4 13.4996C4 13.3579 4.048 13.2393 4.144 13.1436C4.23967 13.0476 4.35833 12.9996 4.5 12.9996H5V8.49961H4.675C4.48333 8.49961 4.323 8.43294 4.194 8.29961C4.06467 8.16628 4 8.00378 4 7.81211C4 7.72044 4.02717 7.62878 4.0815 7.53711C4.1355 7.44544 4.19583 7.37461 4.2625 7.32461L8.425 4.39961C8.51667 4.33294 8.6105 4.28711 8.7065 4.26211C8.80217 4.23711 8.9 4.22461 9 4.22461C9.1 4.22461 9.198 4.23711 9.294 4.26211C9.38967 4.28711 9.48333 4.33294 9.575 4.39961L13.7375 7.32461C13.8042 7.37461 13.8645 7.44744 13.9185 7.54311C13.9728 7.63911 14 7.73294 14 7.82461C14 8.01628 13.9355 8.17678 13.8065 8.30611C13.6772 8.43511 13.5167 8.49961 13.325 8.49961H13V12.9996H13.5C13.6417 12.9996 13.7603 13.0476 13.856 13.1436C13.952 13.2393 14 13.3579 14 13.4996C14 13.6413 13.952 13.7599 13.856 13.8556C13.7603 13.9516 13.6417 13.9996 13.5 13.9996H4.5ZM7.5 11.9996C7.64167 11.9996 7.7605 11.9516 7.8565 11.8556C7.95217 11.7599 8 11.6413 8 11.4996V9.99961L8.5875 10.8746C8.6375 10.9496 8.7 11.0058 8.775 11.0431C8.85 11.0808 8.925 11.0996 9 11.0996C9.08333 11.0996 9.1605 11.0808 9.2315 11.0431C9.30217 11.0058 9.3625 10.9496 9.4125 10.8746L10 9.99961V11.4996C10 11.6413 10.048 11.7599 10.144 11.8556C10.2397 11.9516 10.3583 11.9996 10.5 11.9996C10.6417 11.9996 10.7605 11.9516 10.8565 11.8556C10.9522 11.7599 11 11.6413 11 11.4996V9.14961C11 8.96628 10.9355 8.81211 10.8065 8.68711C10.6772 8.56211 10.5208 8.49961 10.3375 8.49961C10.2458 8.49961 10.148 8.52878 10.044 8.58711C9.93967 8.64544 9.8625 8.71211 9.8125 8.78711L9 9.99961L8.1875 8.78711C8.1375 8.71211 8.0605 8.64544 7.9565 8.58711C7.85217 8.52878 7.75 8.49961 7.65 8.49961C7.46667 8.49961 7.3125 8.56211 7.1875 8.68711C7.0625 8.81211 7 8.96628 7 9.14961L7 11.4996C7 11.6413 7.048 11.7599 7.144 11.8556C7.23967 11.9516 7.35833 11.9996 7.5 11.9996Z" fill="white"/>
</svg>
