<svg width="18" height="18" viewBox="0 0 18 18" fill="none" xmlns="http://www.w3.org/2000/svg">
<circle cx="9" cy="9" r="8.5" fill="#808080" stroke="white"/>
<path d="M5.5 12.9996C4.79167 12.9996 4.198 12.76 3.719 12.2806C3.23967 11.8016 3 11.208 3 10.4996C3 9.7913 3.24383 9.19763 3.7315 8.71863C4.21883 8.2393 4.80833 7.99963 5.5 7.99963C6.14167 7.99963 6.68133 8.1913 7.119 8.57463C7.55633 8.95797 7.83333 9.43297 7.95 9.99963H8.275L7.375 7.49963H7C6.85833 7.49963 6.7395 7.45163 6.6435 7.35563C6.54783 7.25997 6.5 7.1413 6.5 6.99963C6.5 6.85797 6.54783 6.73913 6.6435 6.64313C6.7395 6.54747 6.85833 6.49963 7 6.49963H8.5C8.64167 6.49963 8.7605 6.54747 8.8565 6.64313C8.95217 6.73913 9 6.85797 9 6.99963C9 7.1413 8.95217 7.25997 8.8565 7.35563C8.7605 7.45163 8.64167 7.49963 8.5 7.49963H8.45L8.625 7.99963H11.025L10.3 5.99963H9.5C9.35834 5.99963 9.23967 5.9518 9.144 5.85613C9.048 5.76013 9 5.6413 9 5.49963C9 5.35797 9.048 5.23913 9.144 5.14313C9.23967 5.04747 9.35834 4.99963 9.5 4.99963H10.3C10.5167 4.99963 10.7105 5.05797 10.8815 5.17463C11.0522 5.2913 11.175 5.44963 11.25 5.64963L12.1 7.97463H12.5C13.1917 7.97463 13.7813 8.2183 14.269 8.70563C14.7563 9.1933 15 9.78297 15 10.4746C15 11.1746 14.7583 11.7705 14.275 12.2621C13.7917 12.7538 13.2 12.9996 12.5 12.9996C11.9 12.9996 11.373 12.8121 10.919 12.4371C10.4647 12.0621 10.175 11.583 10.05 10.9996H7.95C7.83333 11.5746 7.55 12.0518 7.1 12.4311C6.65 12.8101 6.11667 12.9996 5.5 12.9996ZM9.35 9.99963H10.05C10.0917 9.80797 10.148 9.6288 10.219 9.46213C10.2897 9.29547 10.3833 9.1413 10.5 8.99963H8.975L9.35 9.99963ZM12.475 10.4996C12.6 10.458 12.6938 10.3726 12.7565 10.2436C12.8188 10.1143 12.825 9.98297 12.775 9.84963L12.45 8.99963L11.525 9.34963L11.825 10.1996C11.8667 10.3246 11.9522 10.4163 12.0815 10.4746C12.2105 10.533 12.3417 10.5413 12.475 10.4996ZM6 10.9996H6.9V9.99963H6C5.85833 9.99963 5.7395 10.0475 5.6435 10.1431C5.54783 10.2391 5.5 10.358 5.5 10.4996C5.5 10.6413 5.54783 10.76 5.6435 10.8556C5.7395 10.9516 5.85833 10.9996 6 10.9996Z" fill="white"/>
</svg>
