<svg width="18" height="18" viewBox="0 0 18 18" fill="none" xmlns="http://www.w3.org/2000/svg">
<circle cx="9" cy="9" r="8.5" fill="#808080" stroke="white"/>
<path fill-rule="evenodd" clip-rule="evenodd" d="M13.2991 5.81696C13.5383 5.95503 13.5491 6.31696 13.4821 6.49997C13.4152 6.68298 12.7088 8.45732 12.1472 9.51797C11.599 10.5534 10.7991 11.817 10.5491 12.067C10.2991 12.3171 10.1053 12.3881 9.86612 12.25L8.23213 11.2991C7.99299 11.161 7.4372 11.0779 7.29913 11.317L6.29912 13.6471C6.16105 13.8863 5.85526 13.9682 5.61611 13.8301L4.75008 13.3301C4.51094 13.1921 4.429 12.8863 4.56707 12.6471C4.56707 12.6471 5.36614 11.7279 6.04913 10.567C6.83132 9.2375 7.53916 7.83691 8.04913 6.81701C8.54913 5.81706 9.18311 4.25002 9.18311 4.25002C9.32118 4.01088 9.62697 3.92894 9.86612 4.06701L13.2991 5.81696ZM10.0491 6.81696C10.4633 6.81696 10.7991 6.48117 10.7991 6.06696C10.7991 5.65274 10.4633 5.31696 10.0491 5.31696C9.63492 5.31696 9.29913 5.65274 9.29913 6.06696C9.29913 6.48117 9.63492 6.81696 10.0491 6.81696Z" fill="white"/>
</svg>
