<?xml version="1.0" encoding="UTF-8" standalone="no"?>
<svg
   width="18"
   height="14"
   viewBox="0 0 18 14"
   fill="none"
   version="1.1"
   id="svg14"
   sodipodi:docname="poi_gate.svg"
   inkscape:version="1.2 (dc2aedaf03, 2022-05-15)"
   xmlns:inkscape="http://www.inkscape.org/namespaces/inkscape"
   xmlns:sodipodi="http://sodipodi.sourceforge.net/DTD/sodipodi-0.dtd"
   xmlns="http://www.w3.org/2000/svg"
   xmlns:svg="http://www.w3.org/2000/svg">
  <defs
     id="defs18" />
  <path
     d="m 14.50856,2.3366603 c 0.276473,0 0.500602,0.1348203 0.500602,0.3011263 V 3.240039 c 0,0.166306 -0.224129,0.3011262 -0.500602,0.3011262 H 3.4953192 c -0.2764323,0 -0.5006019,-0.1348202 -0.5006019,-0.3011262 V 2.6377866 c 0,-0.166306 0.2241696,-0.3011263 0.5006019,-0.3011263 z"
     fill="#808080"
     id="path2-9"
     style="stroke-width:0.776516" />
  <path
     fill-rule="evenodd"
     clip-rule="evenodd"
     d="M 16.010366,2.6377866 V 3.240039 c 0,0.498924 -0.672381,0.9033786 -1.501806,0.9033786 H 3.4953192 C 2.665922,4.1434176 1.9935137,3.738963 1.9935137,3.240039 V 2.6377866 c 0,-0.498924 0.6724083,-0.9033787 1.5018055,-0.9033787 H 14.50856 c 0.829424,0 1.501806,0.4044547 1.501806,0.9033787 z m -1.001204,0 c 0,-0.166306 -0.224129,-0.3011263 -0.500602,-0.3011263 H 3.4953192 c -0.2764323,0 -0.5006019,0.1348203 -0.5006019,0.3011263 V 3.240039 c 0,0.166306 0.2241696,0.3011262 0.5006019,0.3011262 H 14.50856 c 0.276473,0 0.500602,-0.1348202 0.500602,-0.3011262 z"
     fill="#ffffff"
     id="path4-8"
     style="stroke-width:0.776516" />
  <path
     d="m 15.726683,10.309808 c 0.304916,0.2033 0.477315,0.480283 0.385058,0.618653 l -0.334095,0.501088 c -0.09227,0.138369 -0.414234,0.08574 -0.71915,-0.117564 L 2.9122087,3.2136084 C 2.6073369,3.0103393 2.4348949,2.7333268 2.5271516,2.5949564 L 2.8612455,2.0938682 c 0.092257,-0.1383703 0.4142792,-0.085705 0.719151,0.1175641 z"
     fill="#808080"
     id="path2-9-7"
     style="stroke-width:0.894019" />
  <path
     fill-rule="evenodd"
     clip-rule="evenodd"
     d="m 17.215949,11.664676 -0.334094,0.501089 c -0.276773,0.415116 -1.242696,0.25721 -2.157452,-0.352693 L 2.5781149,3.7146964 C 1.6633889,3.1048151 1.1461703,2.2738569 1.4229437,1.8587405 L 1.7570377,1.3576524 C 2.0338111,0.94253596 2.9997643,1.1004627 3.9144902,1.7103441 L 16.060776,9.8087212 c 0.914757,0.6098988 1.431946,1.4408408 1.155173,1.8559548 z m -1.104208,-0.736215 c 0.09226,-0.138369 -0.08014,-0.415353 -0.385058,-0.618653 L 3.5803965,2.2114321 C 3.2755247,2.008163 2.953502,1.9554979 2.8612455,2.0938682 L 2.5271516,2.5949564 c -0.092257,0.1383704 0.080186,0.4153829 0.3850571,0.618652 L 15.058496,11.311985 c 0.304917,0.203298 0.626895,0.255935 0.71915,0.117564 z"
     fill="#ffffff"
     id="path4-8-5"
     style="stroke-width:0.894019" />
  <path
     d="m 14.522232,9.7170872 c 0.276473,0 0.500602,0.1348203 0.500602,0.3011258 v 0.602253 c 0,0.166306 -0.224129,0.301126 -0.500602,0.301126 H 3.5089908 c -0.2764323,0 -0.5006019,-0.13482 -0.5006019,-0.301126 v -0.602253 c 0,-0.1663055 0.2241696,-0.3011258 0.5006019,-0.3011258 z"
     fill="#808080"
     id="path2-9-2"
     style="stroke-width:0.776516" />
  <path
     fill-rule="evenodd"
     clip-rule="evenodd"
     d="m 16.024038,10.018213 v 0.602253 c 0,0.498924 -0.672381,0.903378 -1.501806,0.903378 H 3.5089908 c -0.8293972,0 -1.5018055,-0.404454 -1.5018055,-0.903378 v -0.602253 c 0,-0.4989235 0.6724083,-0.9033782 1.5018055,-0.9033782 H 14.522232 c 0.829424,0 1.501806,0.4044547 1.501806,0.9033782 z m -1.001204,0 c 0,-0.1663055 -0.224129,-0.3011258 -0.500602,-0.3011258 H 3.5089908 c -0.2764323,0 -0.5006019,0.1348203 -0.5006019,0.3011258 v 0.602253 c 0,0.166306 0.2241696,0.301126 0.5006019,0.301126 H 14.522232 c 0.276473,0 0.500602,-0.13482 0.500602,-0.301126 z"
     fill="#ffffff"
     id="path4-8-2"
     style="stroke-width:0.776516" />
  <path
     d="m 1.0001349,1.497536 c 0,-0.2761401 0.22386,-0.50000005 0.5,-0.50000005 h 1 c 0.27614,0 0.5,0.22385995 0.5,0.50000005 v 11.000001 c 0,0.2761 -0.22386,0.5 -0.5,0.5 h -1 c -0.27614,0 -0.5,-0.2239 -0.5,-0.5 z"
     fill="#808080"
     id="path2" />
  <path
     fill-rule="evenodd"
     clip-rule="evenodd"
     d="m 1.5001349,-0.00246399 h 1 c 0.82843,0 1.5,0.671573 1.5,1.49999989 V 12.497537 c 0,0.8284 -0.67157,1.5 -1.5,1.5 h -1 c -0.82842997,0 -1.49999997,-0.6716 -1.49999997,-1.5 V 1.497536 c 0,-0.82842599 0.67157,-1.49999999 1.49999997,-1.49999999 z m 0,0.99999994 c -0.27614,0 -0.5,0.22385995 -0.5,0.50000005 v 11.000001 c 0,0.2761 0.22386,0.5 0.5,0.5 h 1 c 0.27614,0 0.5,-0.2239 0.5,-0.5 V 1.497536 c 0,-0.2761401 -0.22386,-0.50000005 -0.5,-0.50000005 z"
     fill="#ffffff"
     id="path4" />
  <path
     d="m 15.006962,1.4960937 c 0,-0.27614 0.2239,-0.49999995 0.5,-0.49999995 h 1 c 0.2762,0 0.5,0.22385995 0.5,0.49999995 V 12.496094 c 0,0.2761 -0.2238,0.5 -0.5,0.5 h -1 c -0.2761,0 -0.5,-0.2239 -0.5,-0.5 z"
     fill="#808080"
     id="path6" />
  <path
     fill-rule="evenodd"
     clip-rule="evenodd"
     d="m 15.506962,-0.00390625 h 1 c 0.8284,0 1.5,0.671573 1.5,1.49999995 V 12.496094 c 0,0.8284 -0.6716,1.5 -1.5,1.5 h -1 c -0.8284,0 -1.5,-0.6716 -1.5,-1.5 V 1.4960937 c 0,-0.82842595 0.6716,-1.49999995 1.5,-1.49999995 z m 0,1 c -0.2761,0 -0.5,0.22385995 -0.5,0.49999995 V 12.496094 c 0,0.2761 0.2239,0.5 0.5,0.5 h 1 c 0.2762,0 0.5,-0.2239 0.5,-0.5 V 1.4960937 c 0,-0.27614 -0.2238,-0.49999995 -0.5,-0.49999995 z"
     fill="#ffffff"
     id="path8" />
</svg>
