<svg width="18" height="18" viewBox="0 0 18 18" fill="none" xmlns="http://www.w3.org/2000/svg">
<circle cx="9" cy="9" r="8.5" fill="#808080" stroke="white"/>
<path d="M7.47773 5.61113C7.49237 5.53792 7.52322 5.46892 7.56802 5.40919L8.59997 4.03325C8.79997 3.76659 9.19997 3.76659 9.39997 4.03325L10.4319 5.40919C10.4767 5.46892 10.5076 5.53792 10.5222 5.61113L11.5 10.4999H12.191C12.3803 10.4999 12.5535 10.6069 12.6382 10.7763C12.8044 11.1088 12.5626 11.4999 12.191 11.4999H5.80899C5.4373 11.4999 5.19555 11.1088 5.36177 10.7763C5.44647 10.6069 5.6196 10.4999 5.80899 10.4999H6.49997L7.47773 5.61113Z" fill="white"/>
<path d="M4.80899 11.9999C4.61961 11.9999 4.44648 12.1069 4.36178 12.2763C4.19556 12.6087 4.4373 12.9999 4.809 12.9999H13.191C13.5627 12.9999 13.8044 12.6087 13.6382 12.2763C13.5535 12.1069 13.3803 11.9999 13.191 11.9999H4.80899Z" fill="white"/>
</svg>
