<svg width="18" height="18" viewBox="0 0 18 18" fill="none" xmlns="http://www.w3.org/2000/svg">
<circle cx="9" cy="9" r="8.5" fill="#808080" stroke="white"/>
<path d="M5.75 6C5.475 6 5.23958 5.90208 5.04375 5.70625C4.84792 5.51042 4.75 5.275 4.75 5C4.75 4.725 4.84792 4.48958 5.04375 4.29375C5.23958 4.09792 5.475 4 5.75 4C6.025 4 6.26042 4.09792 6.45625 4.29375C6.65208 4.48958 6.75 4.725 6.75 5C6.75 5.275 6.65208 5.51042 6.45625 5.70625C6.26042 5.90208 6.025 6 5.75 6ZM4.75 13.5V10.5H4.5C4.35833 10.5 4.23958 10.4521 4.14375 10.3563C4.04792 10.2604 4 10.1417 4 10V7.5C4 7.225 4.09792 6.98958 4.29375 6.79375C4.48958 6.59792 4.725 6.5 5 6.5H6.5C6.68333 6.5 6.85 6.54375 7 6.63125C7.15 6.71875 7.27083 6.84167 7.3625 7L9.15 10.0875C9.36566 9.76663 9.37638 11 9 11C8.90833 11 8.61458 10.9792 8.54375 10.9375C8.47292 10.8958 8.41667 10.8375 8.375 10.7625L7.25 8.8V13.5C7.25 13.6417 7.20208 13.7604 7.10625 13.8562C7.01042 13.9521 6.89167 14 6.75 14H5.25C5.10833 14 4.98958 13.9521 4.89375 13.8562C4.79792 13.7604 4.75 13.6417 4.75 13.5Z" fill="white"/>
<path d="M12.25 6C12.525 6 12.7604 5.90208 12.9563 5.70625C13.1521 5.51042 13.25 5.275 13.25 5C13.25 4.725 13.1521 4.48958 12.9563 4.29375C12.7604 4.09792 12.525 4 12.25 4C11.975 4 11.7396 4.09792 11.5437 4.29375C11.3479 4.48958 11.25 4.725 11.25 5C11.25 5.275 11.3479 5.51042 11.5437 5.70625C11.7396 5.90208 11.975 6 12.25 6ZM13.25 13.5V10.5H13.5C13.6417 10.5 13.7604 10.4521 13.8562 10.3563C13.9521 10.2604 14 10.1417 14 10V7.5C14 7.225 13.9021 6.98958 13.7063 6.79375C13.5104 6.59792 13.275 6.5 13 6.5H11.5C11.3167 6.5 11.15 6.54375 11 6.63125C10.85 6.71875 10.7292 6.84167 10.6375 7L8.85 10.0875C8.63434 9.76663 8.62362 11 9 11C9.09167 11 9.38542 10.9792 9.45625 10.9375C9.52708 10.8958 9.58333 10.8375 9.625 10.7625L10.75 8.8V13.5C10.75 13.6417 10.7979 13.7604 10.8938 13.8562C10.9896 13.9521 11.1083 14 11.25 14H12.75C12.8917 14 13.0104 13.9521 13.1062 13.8562C13.2021 13.7604 13.25 13.6417 13.25 13.5Z" fill="white"/>
</svg>
