<svg width="18" height="18" viewBox="0 0 18 18" fill="none" xmlns="http://www.w3.org/2000/svg">
<circle cx="9" cy="9" r="8.5" fill="#808080" stroke="white"/>
<path d="M9 6.00018C9.55229 6.00018 10 5.55247 10 5.00018C10 4.4479 9.55229 4.00018 9 4.00018C8.44772 4.00018 8 4.4479 8 5.00018C8 5.55247 8.44772 6.00018 9 6.00018Z" fill="white"/>
<path d="M10 7.75018C10 7.33597 9.66421 7.00018 9.25 7.00018H7.75C7.33579 7.00018 7 7.33597 7 7.75018C7 8.1644 7.33579 8.50018 7.75 8.50018H8.5V12.5002H7.25C6.83579 12.5002 6.5 12.836 6.5 13.2502C6.5 13.6644 6.83579 14.0002 7.25 14.0002H11.25C11.6642 14.0002 12 13.6644 12 13.2502C12 12.836 11.6642 12.5002 11.25 12.5002H10V7.75018Z" fill="white"/>
</svg>
