<svg width="18" height="14" viewBox="0 0 18 14" fill="none" xmlns="http://www.w3.org/2000/svg">
<path fill-rule="evenodd" clip-rule="evenodd" d="M2 1.5C2 1.22386 2.22386 1 2.5 1H4.5C4.77614 1 5 1.22386 5 1.5V11H5.5C5.77614 11 6 11.2239 6 11.5V12.5C6 12.7761 5.77614 13 5.5 13H1.5C1.22386 13 1 12.7761 1 12.5V11.5C1 11.2239 1.22386 11 1.5 11H2V1.5ZM3.5 4C3.77614 4 4 3.77614 4 3.5C4 3.22386 3.77614 3 3.5 3C3.22386 3 3 3.22386 3 3.5C3 3.77614 3.22386 4 3.5 4Z" fill="#808080"/>
<path fill-rule="evenodd" clip-rule="evenodd" d="M1 1.5C1 0.671574 1.67157 0 2.5 0H4.5C5.32843 0 6 0.671573 6 1.5V10.0854C6.5826 10.2913 7 10.8469 7 11.5V12.5C7 13.3284 6.32843 14 5.5 14H1.5C0.671573 14 0 13.3284 0 12.5V11.5C0 10.8469 0.417404 10.2913 1 10.0854V1.5ZM2 1.5C2 1.22386 2.22386 1 2.5 1H4.5C4.77614 1 5 1.22386 5 1.5V11H5.5C5.77614 11 6 11.2239 6 11.5V12.5C6 12.7761 5.77614 13 5.5 13H1.5C1.22386 13 1 12.7761 1 12.5V11.5C1 11.2239 1.22386 11 1.5 11H2V1.5Z" fill="white"/>
<path d="M4 3.5C4 3.77614 3.77614 4 3.5 4C3.22386 4 3 3.77614 3 3.5C3 3.22386 3.22386 3 3.5 3C3.77614 3 4 3.22386 4 3.5Z" fill="white"/>
<path d="M13.9879 3H11.0326L8.82179 6H11.777L13.9879 3Z" fill="#808080"/>
<path d="M13.5205 6H16.5417C16.7948 6 17 5.77614 17 5.5V3.5C17 3.22386 16.7948 3 16.5417 3H15.7314L13.5205 6Z" fill="#808080"/>
<path d="M6 3H9.28915L7.0783 6H6V3Z" fill="#808080"/>
<path fill-rule="evenodd" clip-rule="evenodd" d="M5 7V2H16.5417C17.4272 2 18 2.75526 18 3.5V5.5C18 6.24474 17.4272 7 16.5417 7H5ZM9.28915 3L7.0783 6H6V3H9.28915ZM8.82179 6L11.0326 3H13.9879L11.777 6H8.82179ZM13.5205 6L15.7314 3H16.5417C16.7948 3 17 3.22386 17 3.5V5.5C17 5.77614 16.7948 6 16.5417 6H13.5205Z" fill="white"/>
</svg>
