<svg width="18" height="18" viewBox="0 0 18 18" fill="none" xmlns="http://www.w3.org/2000/svg">
<circle cx="9" cy="9" r="8.5" fill="#808080" stroke="white"/>
<path d="M7 6.49988C6.58333 6.49988 6.22917 6.35405 5.9375 6.06238C5.64583 5.77071 5.5 5.41655 5.5 4.99988C5.5 4.58321 5.64583 4.22904 5.9375 3.93738C6.22917 3.64571 6.58333 3.49988 7 3.49988C7.31667 3.49988 7.60417 3.59354 7.8625 3.78088C8.12083 3.96854 8.30833 4.20821 8.425 4.49988H12C12.1417 4.49988 12.2603 4.54771 12.356 4.64338C12.452 4.73938 12.5 4.85821 12.5 4.99988C12.5 5.14154 12.452 5.26021 12.356 5.35588C12.2603 5.45188 12.1417 5.49988 12 5.49988V5.99988C12 6.14155 11.952 6.26038 11.856 6.35638C11.7603 6.45205 11.6417 6.49988 11.5 6.49988C11.3583 6.49988 11.2397 6.45205 11.144 6.35638C11.048 6.26038 11 6.14155 11 5.99988V5.49988H8.425C8.30833 5.79155 8.12083 6.03121 7.8625 6.21888C7.60417 6.40621 7.31667 6.49988 7 6.49988ZM7 5.49988C7.14167 5.49988 7.2605 5.45188 7.3565 5.35588C7.45217 5.26021 7.5 5.14154 7.5 4.99988C7.5 4.85821 7.45217 4.73938 7.3565 4.64338C7.2605 4.54771 7.14167 4.49988 7 4.49988C6.85833 4.49988 6.7395 4.54771 6.6435 4.64338C6.54783 4.73938 6.5 4.85821 6.5 4.99988C6.5 5.14154 6.54783 5.26021 6.6435 5.35588C6.7395 5.45188 6.85833 5.49988 7 5.49988ZM7.5 11.7499C7.64167 11.7499 7.7605 11.7019 7.8565 11.6059C7.95217 11.5102 8 11.3915 8 11.2499C8 11.1082 7.95217 10.9894 7.8565 10.8934C7.7605 10.7977 7.64167 10.7499 7.5 10.7499C7.35833 10.7499 7.23967 10.7977 7.144 10.8934C7.048 10.9894 7 11.1082 7 11.2499C7 11.3915 7.048 11.5102 7.144 11.6059C7.23967 11.7019 7.35833 11.7499 7.5 11.7499ZM10.5 11.7499C10.6417 11.7499 10.7605 11.7019 10.8565 11.6059C10.9522 11.5102 11 11.3915 11 11.2499C11 11.1082 10.9522 10.9894 10.8565 10.8934C10.7605 10.7977 10.6417 10.7499 10.5 10.7499C10.3583 10.7499 10.2397 10.7977 10.144 10.8934C10.048 10.9894 10 11.1082 10 11.2499C10 11.3915 10.048 11.5102 10.144 11.6059C10.2397 11.7019 10.3583 11.7499 10.5 11.7499ZM6 13.9999C5.85833 13.9999 5.7395 13.9519 5.6435 13.8559C5.54783 13.7602 5.5 13.6415 5.5 13.4999V10.2999L6.325 7.89988C6.36667 7.78321 6.43533 7.68738 6.531 7.61238C6.627 7.53738 6.73333 7.49988 6.85 7.49988H11.15C11.2667 7.49988 11.373 7.53738 11.469 7.61238C11.5647 7.68738 11.6333 7.78321 11.675 7.89988L12.5 10.2999V13.4999C12.5 13.6415 12.452 13.7602 12.356 13.8559C12.2603 13.9519 12.1417 13.9999 12 13.9999C11.8583 13.9999 11.7397 13.9519 11.644 13.8559C11.548 13.7602 11.5 13.6415 11.5 13.4999V12.9999H6.5V13.4999C6.5 13.6415 6.45217 13.7602 6.3565 13.8559C6.2605 13.9519 6.14167 13.9999 6 13.9999ZM6.825 9.49988H11.175L10.825 8.49988H7.175L6.825 9.49988Z" fill="white"/>
</svg>
