<svg width="18" height="18" viewBox="0 0 18 18" fill="none" xmlns="http://www.w3.org/2000/svg">
<circle cx="9" cy="9" r="8.5" fill="#808080" stroke="white"/>
<path d="M5.49995 13.5001C5.35828 13.5001 5.22912 13.4564 5.11245 13.3691C4.99578 13.2814 4.91662 13.1667 4.87495 13.0251L3.47495 7.97506C3.43328 7.8584 3.45195 7.75006 3.53095 7.65006C3.61028 7.55006 3.71662 7.50006 3.84995 7.50006H6.37495L8.57495 4.22506C8.61662 4.15839 8.67495 4.10423 8.74995 4.06256C8.82495 4.02089 8.90412 4.00006 8.98745 4.00006C9.07079 4.00006 9.14995 4.02089 9.22495 4.06256C9.29995 4.10423 9.35829 4.15839 9.39995 4.22506L11.6 7.50006H14.15C14.2833 7.50006 14.3896 7.55006 14.469 7.65006C14.548 7.75006 14.5666 7.8584 14.525 7.97506L13.125 13.0251C13.0833 13.1667 13.0041 13.2814 12.8875 13.3691C12.7708 13.4564 12.6416 13.5001 12.5 13.5001H5.49995ZM8.99995 11.5001C9.27495 11.5001 9.51045 11.4022 9.70645 11.2066C9.90212 11.0106 9.99995 10.7751 9.99995 10.5001C9.99995 10.2251 9.90212 9.98956 9.70645 9.79356C9.51045 9.5979 9.27495 9.50006 8.99995 9.50006C8.72495 9.50006 8.48962 9.5979 8.29395 9.79356C8.09795 9.98956 7.99995 10.2251 7.99995 10.5001C7.99995 10.7751 8.09795 11.0106 8.29395 11.2066C8.48962 11.4022 8.72495 11.5001 8.99995 11.5001ZM7.58745 7.50006H10.4L8.98745 5.40006L7.58745 7.50006Z" fill="white"/>
</svg>
