<svg width="18" height="18" viewBox="0 0 18 18" fill="none" xmlns="http://www.w3.org/2000/svg">
<circle cx="9" cy="9" r="8.5" fill="#808080" stroke="white"/>
<path d="M4.5875 13.4248C4.4375 13.4665 4.302 13.4332 4.181 13.3248C4.06033 13.2165 4 13.0748 4 12.8998C4 12.8082 4.0355 12.7185 4.1065 12.6308C4.17717 12.5435 4.27083 12.4748 4.3875 12.4248C4.55417 12.3582 4.71883 12.2707 4.8815 12.1623C5.04383 12.054 5.3 11.9998 5.65 11.9998C6.11667 11.9998 6.4375 12.0832 6.6125 12.2498C6.7875 12.4165 7.025 12.4998 7.325 12.4998C7.625 12.4998 7.8625 12.4165 8.0375 12.2498C8.2125 12.0832 8.53333 11.9998 9 11.9998C9.46667 11.9998 9.7875 12.0832 9.9625 12.2498C10.1375 12.4165 10.375 12.4998 10.675 12.4998C10.975 12.4998 11.2125 12.4165 11.3875 12.2498C11.5625 12.0832 11.8833 11.9998 12.35 11.9998C12.7 11.9998 12.9563 12.054 13.119 12.1623C13.2813 12.2707 13.4458 12.3582 13.6125 12.4248C13.7292 12.4748 13.823 12.5415 13.894 12.6248C13.9647 12.7082 14 12.7998 14 12.8998C14 13.0748 13.9397 13.2165 13.819 13.3248C13.698 13.4332 13.5625 13.4665 13.4125 13.4248C13.1792 13.3582 13 13.2707 12.875 13.1623C12.75 13.054 12.575 12.9998 12.35 12.9998C12.05 12.9998 11.8125 13.0832 11.6375 13.2498C11.4625 13.4165 11.1417 13.4998 10.675 13.4998C10.2083 13.4998 9.8875 13.4165 9.7125 13.2498C9.5375 13.0832 9.3 12.9998 9 12.9998C8.7 12.9998 8.4625 13.0832 8.2875 13.2498C8.1125 13.4165 7.79167 13.4998 7.325 13.4998C6.85833 13.4998 6.5375 13.4165 6.3625 13.2498C6.1875 13.0832 5.95 12.9998 5.65 12.9998C5.425 12.9998 5.25 13.054 5.125 13.1623C5 13.2707 4.82083 13.3582 4.5875 13.4248ZM4.5875 11.1748C4.4375 11.2165 4.302 11.1832 4.181 11.0748C4.06033 10.9665 4 10.8248 4 10.6498C4 10.5582 4.0355 10.4685 4.1065 10.3808C4.17717 10.2935 4.27083 10.2248 4.3875 10.1748C4.55417 10.1082 4.71883 10.0207 4.8815 9.91235C5.04383 9.80401 5.3 9.74985 5.65 9.74985C6.11667 9.74985 6.43967 9.83318 6.619 9.99985C6.798 10.1665 7.03333 10.2498 7.325 10.2498C7.625 10.2498 7.8625 10.1665 8.0375 9.99985C8.2125 9.83318 8.53333 9.74985 9 9.74985C9.46667 9.74985 9.7875 9.83318 9.9625 9.99985C10.1375 10.1665 10.375 10.2498 10.675 10.2498C10.975 10.2498 11.2125 10.1665 11.3875 9.99985C11.5625 9.83318 11.8833 9.74985 12.35 9.74985C12.7 9.74985 12.9563 9.80401 13.119 9.91235C13.2813 10.0207 13.4458 10.1082 13.6125 10.1748C13.7292 10.2248 13.823 10.2915 13.894 10.3748C13.9647 10.4582 14 10.5498 14 10.6498C14 10.8248 13.9397 10.9665 13.819 11.0748C13.698 11.1832 13.5625 11.2165 13.4125 11.1748C13.1792 11.1082 13 11.0207 12.875 10.9123C12.75 10.804 12.575 10.7498 12.35 10.7498C12.05 10.7498 11.8187 10.8332 11.656 10.9998C11.4937 11.1665 11.1667 11.2498 10.675 11.2498C10.2 11.2498 9.87717 11.1665 9.7065 10.9998C9.5355 10.8332 9.3 10.7498 9 10.7498C8.68333 10.7498 8.448 10.8332 8.294 10.9998C8.13967 11.1665 7.81667 11.2498 7.325 11.2498C6.83333 11.2498 6.50633 11.1665 6.344 10.9998C6.18133 10.8332 5.95 10.7498 5.65 10.7498C5.425 10.7498 5.25 10.804 5.125 10.9123C5 11.0207 4.82083 11.1082 4.5875 11.1748ZM7.325 8.99985C7.15 8.99985 6.99583 8.97268 6.8625 8.91835C6.72917 8.86435 6.59167 8.79151 6.45 8.69985L8.1125 7.03735L7.6125 6.53735C7.40417 6.32901 7.18967 6.16235 6.969 6.03735C6.748 5.91235 6.49167 5.82901 6.2 5.78735C6.03333 5.76235 5.89167 5.68935 5.775 5.56835C5.65833 5.44768 5.6 5.30401 5.6 5.13735C5.6 4.95401 5.66467 4.80185 5.794 4.68085C5.923 4.56018 6.07083 4.50818 6.2375 4.52485C6.67917 4.56651 7.0625 4.66018 7.3875 4.80585C7.7125 4.95185 8.03333 5.18318 8.35 5.49985L11.55 8.69985C11.4083 8.79151 11.2708 8.86435 11.1375 8.91835C11.0042 8.97268 10.85 8.99985 10.675 8.99985C10.375 8.99985 10.1375 8.91651 9.9625 8.74985C9.7875 8.58318 9.46667 8.49985 9 8.49985C8.53333 8.49985 8.2125 8.58318 8.0375 8.74985C7.8625 8.91651 7.625 8.99985 7.325 8.99985ZM11.35 6.99985C11 6.99985 10.7042 6.87901 10.4625 6.63735C10.2208 6.39568 10.1 6.09985 10.1 5.74985C10.1 5.40818 10.2208 5.11435 10.4625 4.86835C10.7042 4.62268 11 4.49985 11.35 4.49985C11.7 4.49985 11.9958 4.62268 12.2375 4.86835C12.4792 5.11435 12.6 5.40818 12.6 5.74985C12.6 6.09985 12.4792 6.39568 12.2375 6.63735C11.9958 6.87901 11.7 6.99985 11.35 6.99985Z" fill="white"/>
</svg>
