<svg width="18" height="18" viewBox="0 0 18 18" fill="none" xmlns="http://www.w3.org/2000/svg">
<circle cx="9" cy="9" r="8.5" fill="#808080" stroke="white"/>
<path fill-rule="evenodd" clip-rule="evenodd" d="M7.23634 13.3162C7.80704 13.4891 8.39792 13.5407 9.00898 13.4711C9.27944 13.4404 9.50086 13.3562 9.67325 13.2188C9.46851 13.069 9.28776 12.8834 9.13464 12.6647C8.77192 12.1467 8.63669 11.5465 8.74678 10.9221C8.85687 10.2978 9.18924 9.77999 9.70725 9.41728C9.96344 9.23789 10.2397 9.11415 10.5291 9.04821C10.5219 9.04294 10.5148 9.0375 10.5078 9.0319C10.3667 8.91964 10.2851 8.76663 10.2631 8.57288C10.241 8.37913 10.2861 8.21171 10.3984 8.07061C10.5106 7.9295 10.6636 7.84793 10.8574 7.82587C11.0273 7.80653 11.177 7.83886 11.3065 7.92286L11.4689 7.00193C11.529 6.66091 11.7137 6.35063 12.0157 6.13917C12.0419 6.12088 12.0684 6.10366 12.0953 6.08751C11.8627 5.79707 11.5949 5.54293 11.2917 5.32508C10.8519 5.00905 10.3558 4.77868 9.8034 4.63397C9.25099 4.48927 8.67671 4.45084 8.08056 4.5187C7.4546 4.58995 6.87926 4.77432 6.35454 5.07182C5.82982 5.36933 5.38357 5.74282 5.01579 6.19229C4.64801 6.64177 4.37399 7.15228 4.19373 7.72384C4.01346 8.29539 3.95853 8.89042 4.02893 9.50893C4.09848 10.12 4.28158 10.6841 4.57823 11.2014C4.87489 11.7187 5.24939 12.1573 5.70175 12.5172C6.1541 12.8771 6.66563 13.1434 7.23634 13.3162ZM6.55084 9.4823C6.43858 9.6234 6.28558 9.70497 6.09183 9.72703C5.89808 9.74908 5.73065 9.70398 5.58955 9.59171C5.44845 9.47945 5.36687 9.32645 5.34482 9.1327C5.32277 8.93895 5.36787 8.77152 5.48013 8.63042C5.5924 8.48932 5.7454 8.40774 5.93915 8.38569C6.1329 8.36364 6.30032 8.40874 6.44143 8.521C6.58253 8.63327 6.6641 8.78627 6.68616 8.98002C6.70821 9.17377 6.66311 9.34119 6.55084 9.4823ZM7.68861 7.54117C7.57635 7.68227 7.42335 7.76385 7.2296 7.7859C7.03585 7.80795 6.86842 7.76285 6.72732 7.65058C6.58622 7.53832 6.50464 7.38532 6.48259 7.19157C6.46054 6.99782 6.50564 6.83039 6.6179 6.68929C6.73017 6.54819 6.88317 6.46661 7.07692 6.44456C7.27067 6.42251 7.43809 6.46761 7.5792 6.57987C7.7203 6.69214 7.80187 6.84514 7.82393 7.03889C7.84598 7.23264 7.80088 7.40007 7.68861 7.54117ZM9.92418 7.28671C9.81192 7.42781 9.65891 7.50938 9.46516 7.53144C9.27141 7.55349 9.10399 7.50839 8.96289 7.39612C8.82178 7.28386 8.74021 7.13086 8.71815 6.93711C8.6961 6.74336 8.7412 6.57593 8.85347 6.43483C8.96573 6.29373 9.11874 6.21215 9.31248 6.1901C9.50623 6.16805 9.67366 6.21315 9.81476 6.32541C9.95586 6.43768 10.0374 6.59068 10.0595 6.78443C10.0815 6.97818 10.0364 7.1456 9.92418 7.28671Z" fill="white"/>
<path d="M12.62 6.93911C12.6096 6.94488 12.5993 6.95129 12.5893 6.95832C12.5153 7.01015 12.4701 7.08256 12.4537 7.17557L11.9009 10.3105C11.813 10.233 11.7184 10.1698 11.617 10.1209C11.6106 10.1178 11.6041 10.1147 11.5975 10.1117C11.5011 10.0675 11.394 10.035 11.2762 10.0142C11.1615 9.99401 11.0498 9.98768 10.9411 9.99524C10.7073 10.0115 10.4873 10.0919 10.2808 10.2364C9.97834 10.4482 9.79526 10.7347 9.73159 11.0958C9.72987 11.1055 9.72826 11.1152 9.72674 11.1249L10.543 11.032C11.2882 10.9472 11.8955 10.6459 12.365 10.1283C12.4972 9.98241 12.607 9.82307 12.6943 9.65027L12.9366 8.27615L12.9413 8.27698C12.9371 8.20794 12.931 8.13772 12.9228 8.06633C12.8771 7.6649 12.7762 7.28916 12.62 6.93911Z" fill="white"/>
<path d="M9.98289 12.1313C9.9468 11.9646 9.87546 11.8181 9.76888 11.6919C9.76383 11.6859 9.75887 11.68 9.754 11.6741C9.79384 11.8188 9.86044 11.9578 9.95379 12.0912C9.96334 12.1048 9.97304 12.1182 9.98289 12.1313Z" fill="white"/>
<path d="M10.8131 12.6404C10.452 12.5767 10.1656 12.3936 9.95379 12.0912C9.74198 11.7887 9.66792 11.4569 9.73159 11.0958C9.79526 10.7347 9.97834 10.4482 10.2808 10.2364C10.5833 10.0246 10.9151 9.95056 11.2762 10.0142C11.402 10.0364 11.5156 10.072 11.617 10.1209C11.7184 10.1698 11.813 10.233 11.9009 10.3105L12.4537 7.17557C12.4701 7.08256 12.5153 7.01015 12.5893 6.95832C12.6633 6.9065 12.7468 6.88879 12.8398 6.90519L14.1529 7.13672C14.2459 7.15312 14.3183 7.19832 14.3701 7.27234C14.422 7.34635 14.4397 7.42986 14.4233 7.52287L14.3075 8.17941C14.2911 8.27242 14.2459 8.34483 14.1719 8.39666C14.0979 8.44848 14.0144 8.46619 13.9214 8.44979L12.9366 8.27615L12.3577 11.5588C12.2941 11.9199 12.111 12.2064 11.8085 12.4182C11.506 12.63 11.1742 12.7041 10.8131 12.6404Z" fill="white"/>
</svg>
