<svg width="18" height="18" viewBox="0 0 18 18" fill="none" xmlns="http://www.w3.org/2000/svg">
<circle cx="9" cy="9" r="8.5" fill="#808080" stroke="white"/>
<path d="M4 9.5V7C4 6.725 4.098 6.48967 4.294 6.294C4.48967 6.098 4.725 6 5 6H7V5C7 4.725 7.098 4.4895 7.294 4.2935C7.48967 4.09783 7.725 4 8 4H10C10.275 4 10.5105 4.09783 10.7065 4.2935C10.9022 4.4895 11 4.725 11 5V6H13C13.275 6 13.5105 6.098 13.7065 6.294C13.9022 6.48967 14 6.725 14 7V9.5H10.5V9C10.5 8.85833 10.4522 8.7395 10.3565 8.6435C10.2605 8.54783 10.1417 8.5 10 8.5H8C7.85833 8.5 7.73967 8.54783 7.644 8.6435C7.548 8.7395 7.5 8.85833 7.5 9V9.5H4ZM8 6H10V5H8V6ZM8.5 10.5V9.5H9.5V10.5H8.5ZM5 13.5C4.725 13.5 4.48967 13.4022 4.294 13.2065C4.098 13.0105 4 12.775 4 12.5V10.5H7.5V11C7.5 11.1417 7.548 11.2603 7.644 11.356C7.73967 11.452 7.85833 11.5 8 11.5H10C10.1417 11.5 10.2605 11.452 10.3565 11.356C10.4522 11.2603 10.5 11.1417 10.5 11V10.5H14V12.5C14 12.775 13.9022 13.0105 13.7065 13.2065C13.5105 13.4022 13.275 13.5 13 13.5H5Z" fill="white"/>
</svg>
