<svg width="14" height="14" viewBox="0 0 14 14" fill="none" xmlns="http://www.w3.org/2000/svg">
<path fill-rule="evenodd" clip-rule="evenodd" d="M11 5.99993H12.4398C12.9262 5.99993 13.1262 5.37579 12.7304 5.09306L7.29061 1.20751C7.11677 1.08334 6.88323 1.08334 6.70938 1.20751L1.26961 5.09306C0.873794 5.37579 1.07381 5.99993 1.56023 5.99993H3.00001V12.5C3.00001 12.7761 3.22387 13 3.50001 13C3.77615 13 4.00001 12.7761 4.00001 12.5V5.99993H10V12.5C10 12.7761 10.2239 13 10.5 13C10.7762 13 11 12.7761 11 12.5V5.99993Z" fill="#808080"/>
<path fill-rule="evenodd" clip-rule="evenodd" d="M7.29061 1.20751L7.87185 0.393779L13.3116 4.27933C14.4991 5.1275 13.899 6.99993 12.4398 6.99993H12V12.5C12 13.3284 11.3284 14 10.5 14C9.67158 14 9.00001 13.3284 9.00001 12.5V6.99993H5.00001V12.5C5.00001 13.3284 4.32844 14 3.50001 14C2.67158 14 2.00001 13.3284 2.00001 12.5V6.99993H1.56023C0.10097 6.99993 -0.499076 5.1275 0.688371 4.27933L1.26961 5.09306C0.873794 5.37579 1.07381 5.99993 1.56023 5.99993H3.00001V12.5C3.00001 12.7761 3.22387 13 3.50001 13C3.77615 13 4.00001 12.7761 4.00001 12.5V5.99993H10V12.5C10 12.7761 10.2239 13 10.5 13C10.7762 13 11 12.7761 11 12.5V5.99993H12.4398C12.9262 5.99993 13.1262 5.37579 12.7304 5.09306L7.29061 1.20751ZM7.29061 1.20751L7.87185 0.393779C7.35031 0.0212467 6.64968 0.0212466 6.12814 0.39378L0.688371 4.27933L1.26961 5.09306L6.70938 1.20751C6.88323 1.08334 7.11677 1.08334 7.29061 1.20751Z" fill="white"/>
</svg>
