<?xml version="1.0" encoding="UTF-8" standalone="no"?>
<svg
   width="13"
   height="11"
   viewBox="0 0 13 11"
   fill="none"
   version="1.1"
   id="svg6"
   sodipodi:docname="poi_cave_entrance.svg"
   inkscape:version="1.2 (dc2aedaf03, 2022-05-15)"
   xmlns:inkscape="http://www.inkscape.org/namespaces/inkscape"
   xmlns:sodipodi="http://sodipodi.sourceforge.net/DTD/sodipodi-0.dtd"
   xmlns="http://www.w3.org/2000/svg"
   xmlns:svg="http://www.w3.org/2000/svg">
  <defs
     id="defs10" />
  <path
     fill-rule="evenodd"
     clip-rule="evenodd"
     d="m 12.112805,4.8680913 0.522694,3.4603148 C 12.793612,9.5275612 12.06204,10.619171 11.10033,10.619171 H 1.8531887 c -1.18668147,0 -2.04757126,-1.3869266 -1.47126824,-2.6982191 L 1.2967282,5.8668667 2.7735252,6.739259 C 2.465537,7.4054961 2.21683,7.5361743 2.0127977,8.4351189 1.86224,9.1053891 2.4122479,9.2915336 2.8077994,9.2933464 l 7.7834056,0.035673 c 0.320599,0.00147 0.652276,-0.3954093 0.599567,-0.7951317 L 11.10059,6.1712442 C 8.6946498,2.1489672 7.4001377,1.9318091 5.0069973,4.0053576 3.0680736,5.5864429 3.4659661,5.8675737 2.7730753,6.7366431 L 1.3035773,5.8733564 1.9256344,5.1449895 C 6.1498853,0.69261096 9.1017016,-1.0341645 12.112805,4.8680913 Z"
     fill="#ffffff"
     id="path4-9"
     style="stroke-width:1.16654"
     sodipodi:nodetypes="ccssccccssccccccc" />
  <path
     d="m 9.8088013,4.1640269 c 0.4597017,0.5554861 1.1025577,1.5895542 1.3167887,2.0335847 -0.0033,0.276948 0.06144,1.1488467 0.08049,2.2408211 0.0074,0.023396 -0.02419,0.8212083 -0.523034,0.8775203 C 10.550294,9.330987 3.1876669,9.2767732 2.7485491,9.2704435 2.2544781,9.2633237 1.8515214,9.0655263 2.0031458,8.3787864 2.1147174,7.8734544 2.4652978,7.2146465 2.9094026,6.54239 3.2837258,5.9757646 3.5009283,5.3552275 4.1022944,4.786924 5.916956,3.1975777 7.5242248,1.353564 9.8088013,4.1640269 Z"
     fill="#808080"
     id="path2-9"
     sodipodi:nodetypes="cccsssscc"
     style="fill:#222222;fill-opacity:1;stroke-width:1.97964" />
</svg>
