<svg width="18" height="18" viewBox="0 0 18 18" fill="none" xmlns="http://www.w3.org/2000/svg">
<circle cx="9" cy="9" r="8.5" fill="#808080" stroke="white"/>
<path d="M12.375 13.9875C12.3083 13.9875 12.2458 13.9772 12.1875 13.9565C12.1291 13.9355 12.075 13.9 12.025 13.85L9.47495 11.3C9.42495 11.25 9.38962 11.1958 9.36895 11.1375C9.34795 11.0792 9.33745 11.0167 9.33745 10.95C9.33745 10.8833 9.34795 10.8208 9.36895 10.7625C9.38962 10.7042 9.42495 10.65 9.47495 10.6L10.5375 9.5375C10.5875 9.4875 10.6416 9.452 10.7 9.431C10.7583 9.41033 10.8208 9.4 10.8875 9.4C10.9541 9.4 11.0166 9.41033 11.075 9.431C11.1333 9.452 11.1875 9.4875 11.2375 9.5375L13.7875 12.0875C13.8375 12.1375 13.873 12.1917 13.894 12.25C13.9146 12.3083 13.925 12.3708 13.925 12.4375C13.925 12.5042 13.9146 12.5667 13.894 12.625C13.873 12.6833 13.8375 12.7375 13.7875 12.7875L12.725 13.85C12.675 13.9 12.6208 13.9355 12.5625 13.9565C12.5041 13.9772 12.4416 13.9875 12.375 13.9875ZM5.51245 14C5.44578 14 5.38128 13.9875 5.31895 13.9625C5.25628 13.9375 5.19995 13.9 5.14995 13.85L4.09995 12.8C4.04995 12.75 4.01245 12.6937 3.98745 12.631C3.96245 12.5687 3.94995 12.5042 3.94995 12.4375C3.94995 12.3708 3.96245 12.3083 3.98745 12.25C4.01245 12.1917 4.04995 12.1375 4.09995 12.0875L6.74995 9.4375H7.81245L8.23745 9.0125L6.17495 6.95H5.46245L3.94995 5.4375L5.36245 4.025L6.87495 5.5375V6.25L8.93745 8.3125L10.3875 6.8625L9.84995 6.325L10.55 5.625H9.13745L8.78745 5.275L10.5625 3.5L10.9125 3.85V5.2625L11.6125 4.5625L13.3875 6.3375C13.5291 6.47917 13.6375 6.6395 13.7125 6.8185C13.7875 6.99783 13.825 7.1875 13.825 7.3875C13.825 7.5875 13.7875 7.77917 13.7125 7.9625C13.6375 8.14583 13.5291 8.30833 13.3875 8.45L12.325 7.3875L11.625 8.0875L11.1 7.5625L8.51245 10.15V11.2L5.86245 13.85C5.81245 13.9 5.75828 13.9375 5.69995 13.9625C5.64162 13.9875 5.57912 14 5.51245 14Z" fill="white"/>
</svg>
