<svg width="18" height="18" viewBox="0 0 18 18" fill="none" xmlns="http://www.w3.org/2000/svg">
<circle cx="9" cy="9" r="8.5" fill="#808080" stroke="white"/>
<path fill-rule="evenodd" clip-rule="evenodd" d="M4 6L4 12C4 12.5523 4.44772 13 5 13L12.9999 13C13.5522 13 13.9999 12.5523 13.9999 12V6C13.9999 5.44772 13.5522 5 12.9999 5L5 5C4.44772 5 4 5.44772 4 6ZM12.9999 6.77778L9.5 9C9.31944 9.14043 8.68055 9.14043 8.5 9L5 6.77778L5 11.5C5 11.7761 5.22386 12 5.5 12L12.4999 12C12.7761 12 12.9999 11.7761 12.9999 11.5V6.77778Z" fill="white"/>
</svg>
