<svg width="16" height="16" fill="none" version="1.1" viewBox="0 0 16 16" xmlns="http://www.w3.org/2000/svg">
 <g fill="#808080" stroke="#ffffff" stroke-linecap="round" stroke-linejoin="round" stroke-width=".7">
  <path d="m1.291 4.8027a0.65 0.65 0 0 0-0.66211 0.63867 0.65 0.65 0 0 0 0.64062 0.66211l3.7891 0.0625a0.65 0.65 0 0 0 0.66016-0.63867 0.65 0.65 0 0 0-0.63867-0.66211z" color="#000000" style="paint-order:stroke fill markers"/>
  <path d="m1.2676 11.352a0.65 0.65 0 0 0-0.6543 0.64648 0.65 0.65 0 0 0 0.64844 0.6543l3.4961 0.01563a0.65 0.65 0 0 0 0.65234-0.64649 0.65 0.65 0 0 0-0.64648-0.6543z" color="#000000" style="paint-order:stroke fill markers"/>
  <path d="m11.33 4.8242a0.65 0.65 0 0 0-0.6543 0.64648 0.65 0.65 0 0 0 0.64648 0.6543l3.4609 0.019531a0.65 0.65 0 0 0 0.65234-0.64648 0.65 0.65 0 0 0-0.64453-0.65234z" color="#000000" style="paint-order:stroke fill markers"/>
  <path d="m14.762 11.355-3.4902 0.01563a0.65 0.65 0 0 0-0.64844 0.65234 0.65 0.65 0 0 0 0.6543 0.64648l3.4902-0.01563a0.65 0.65 0 0 0 0.64844-0.65234 0.65 0.65 0 0 0-0.6543-0.64648z" color="#000000" style="paint-order:stroke fill markers"/>
  <path d="m8.3496 2.2168c-1.3426 0.0046036-2.4313 0.47885-3.0547 1.3691-0.62443 0.89178-0.79317 2.042-0.79297 3.3809l0.00195 6.4941c0 0.41421 0.47942 0.75 0.89363 0.75 0.41421 0 0.91573-0.31369 0.91573-0.7279l-0.00195-6.4941c-1.793e-4 -1.1971 0.20124-2.1348 0.53253-2.6079 0.33129-0.47314 1.0809-0.67484 1.5136-0.66613 0.00326 2.12e-5 0.00651 2.12e-5 0.00977 0 0.38028 0.021477 0.92866 0.16685 1.2798 0.67523 0.35109 0.50838 0.58658 1.3781 0.59961 2.5469l0.01172 6.4941c0.0011 0.41421 0.51452 0.74913 0.92873 0.74805 0.41422-0.0011 0.83752-0.2825 0.83644-0.69671l-0.01172-6.5c1.4e-5 -0.0026 1.4e-5 -0.00521 0-0.00781-0.015041-1.3491-0.2587-2.5026-0.86524-3.3809-0.60576-0.87712-1.6255-1.3932-2.7969-1.377z" color="#000000" style="paint-order:stroke fill markers"/>
  <path d="m7.2371 6.989-0.011661 1.6392-4.9512-0.027344c-0.24792-6.506e-4 -0.44967 0.19935-0.45117 0.44727-6.502e-4 0.24792 0.19935 0.44967 0.44727 0.45117l4.9609 0.027344 0.011723 1.5403c5.016e-4 0.40153 0.48673 0.60146 0.76953 0.31641l1.3109-1.9797c0.18281-0.18315 0.17388-0.48237-0.019531-0.6543l-1.361-2.067c-0.21357-0.22029-0.67506-0.1383-0.70581 0.3067z" color="#000000" style="paint-order:stroke markers fill"/>
 </g>
</svg>
