<svg width="18" height="18" viewBox="0 0 18 18" fill="none" xmlns="http://www.w3.org/2000/svg">
<circle cx="9" cy="9" r="8.5" fill="#808080" stroke="white"/>
<path d="M4 12.0002C4.14167 12.0002 4.26033 11.9522 4.356 11.8562C4.452 11.7605 4.5 11.6419 4.5 11.5002V8.5502L5.96249 9.34751V9.2331C5.96249 8.88721 6.15125 8.51512 6.54237 8.36662C6.95212 8.21103 7.73515 8 8.96249 8C10.1898 8 10.9729 8.21103 11.3826 8.36662C11.7737 8.51512 11.9625 8.88721 11.9625 9.2331V9.38636L13.7375 8.4375C13.8208 8.39583 13.8853 8.33534 13.931 8.256C13.977 8.177 14 8.09167 14 8C14 7.90833 13.977 7.823 13.931 7.744C13.8853 7.66467 13.8208 7.60417 13.7375 7.5625L9.475 5.125C9.4 5.08333 9.323 5.052 9.244 5.031C9.16467 5.01033 9.08333 5 9 5C8.91667 5 8.83533 5.01033 8.756 5.031C8.677 5.052 8.6 5.08333 8.525 5.125L3.7625 7.8627C3.67917 7.90436 3.6145 7.9647 3.5685 8.0437C3.52283 8.12303 3.5 8.20853 3.5 8.3002V11.5002C3.5 11.6419 3.548 11.7605 3.644 11.8562C3.73967 11.9522 3.85833 12.0002 4 12.0002Z" fill="white"/>
<path d="M11.4625 12V9.2331C11.4625 9.05747 11.3693 8.8964 11.2051 8.83405C10.854 8.70072 10.1313 8.5 8.96249 8.5C7.79373 8.5 7.07101 8.70072 6.71986 8.83405C6.55566 8.8964 6.46249 9.05747 6.46249 9.2331L6.4625 12C6.4625 12 6.62636 11.898 6.96249 11.7861C6.99839 11.7741 7.03625 11.7621 7.07609 11.75C7.48895 11.625 8.11395 11.5 8.9625 11.5C9.89291 11.5 10.5546 11.6503 10.9625 11.7861C10.9731 11.7896 10.9835 11.7931 10.9938 11.7966C11.2188 11.8735 11.3615 11.9443 11.4247 11.9785C11.4496 11.992 11.4625 12 11.4625 12Z" fill="white"/>
</svg>
