<svg width="16" height="12" viewBox="0 0 16 12" fill="none" xmlns="http://www.w3.org/2000/svg">
<path d="M10.4059 1.09047C10.1474 0.975102 9.85224 0.975103 9.59369 1.09047L5.29689 3.00776C5.04456 3.12035 4.93091 3.417 5.04306 3.67033C5.15521 3.92367 5.45068 4.03777 5.70302 3.92517L9.99981 2.00789L14.2966 3.92517C14.5489 4.03777 14.8444 3.92367 14.9566 3.67033C15.0687 3.417 14.9551 3.12035 14.7027 3.00776L10.4059 1.09047Z" fill="#808080"/>
<path fill-rule="evenodd" clip-rule="evenodd" d="M8.20075 10.7669C8.35293 10.9197 8.53596 10.9961 8.74984 10.9961C8.96372 10.9961 9.14688 10.9197 9.29932 10.7669C9.4515 10.6138 9.5276 10.4299 9.5276 10.2152V8.65352H10.6942C11.3424 8.65352 11.8933 8.42577 12.347 7.97028C12.8006 7.51478 13.0275 6.96168 13.0275 6.31098C13.0275 5.66027 12.8006 5.10717 12.347 4.65168C11.8933 4.19618 11.3424 3.96844 10.6942 3.96844H8.74984C8.53596 3.96844 8.35293 4.04483 8.20075 4.19762C8.04831 4.35066 7.97209 4.53455 7.97209 4.74928V10.2152C7.97209 10.4299 8.04831 10.6138 8.20075 10.7669ZM10.772 7.09182H9.5276V5.53013H10.772C10.9859 5.53013 11.169 5.60652 11.3215 5.75931C11.4737 5.91235 11.5498 6.09624 11.5498 6.31098C11.5498 6.52571 11.4737 6.70947 11.3215 6.86225C11.169 7.0153 10.9859 7.09182 10.772 7.09182Z" fill="#808080"/>
<path d="M6.2498 6.86193C6.58313 7.05514 6.58313 7.53816 6.2498 7.73137L3.99988 9.03553C3.66655 9.22874 3.2499 8.98723 3.2499 8.60081V7.79864H1.49995C1.22382 7.79864 0.999969 7.5739 0.999969 7.29667C0.999969 7.01944 1.22382 6.79469 1.49995 6.79469H3.2499V5.99248C3.2499 5.60607 3.66655 5.36455 3.99988 5.55776L6.2498 6.86193Z" fill="#808080"/>
<path fill-rule="evenodd" clip-rule="evenodd" d="M10.405 1.09005C10.1467 0.975103 9.85193 0.975245 9.59369 1.09047L5.29689 3.00776C5.04456 3.12035 4.93091 3.417 5.04306 3.67033C5.15521 3.92367 5.45068 4.03777 5.70302 3.92517L9.99981 2.00789L14.2966 3.92517C14.5489 4.03777 14.8444 3.92367 14.9566 3.67033C15.0687 3.417 14.9551 3.12035 14.7027 3.00776L15.1089 2.09034C15.8659 2.42812 16.2068 3.31806 15.8703 4.07808C15.5339 4.83809 14.6475 5.18037 13.8905 4.84259L13.6438 4.73252C13.8982 5.20811 14.0275 5.73907 14.0275 6.31098C14.0275 7.22491 13.6974 8.03426 13.054 8.68017C12.4107 9.32608 11.6045 9.65746 10.6942 9.65746H10.5276V10.2152C10.5276 10.698 10.3449 11.1364 10.007 11.4762L10.0058 11.4774C9.66738 11.8166 9.23074 12 8.74984 12C8.2689 12 7.83206 11.8165 7.49366 11.4768C7.15537 11.1371 6.97212 10.6986 6.97212 10.2152V8.4446C6.90451 8.50171 6.8304 8.55409 6.74979 8.60081L4.49986 9.90497C3.55928 10.4502 2.39753 9.84153 2.26284 8.80259H1.49995C0.671552 8.80259 0 8.12836 0 7.29667C0 6.46497 0.671552 5.79075 1.49995 5.79075H2.26284C2.33589 5.22711 2.74274 4.77083 3.2499 4.55835C3.67759 4.37917 4.60695 4.62281 4.60695 4.62281C4.43136 4.45055 4.23017 4.31507 4.12928 4.07808C3.79283 3.31806 4.13376 2.42812 4.89076 2.09034L9.18756 0.173057C9.70467 -0.0576854 10.2949 -0.057686 10.8121 0.173057L15.1089 2.09034L14.7027 3.00776L10.4059 1.09047L10.405 1.09005ZM9.5276 8.65352H10.6942C11.3424 8.65352 11.8933 8.42577 12.347 7.97028C12.8006 7.51478 13.0275 6.96168 13.0275 6.31098C13.0275 5.66027 12.8006 5.10717 12.347 4.65168C11.8933 4.19618 11.3424 3.96844 10.6942 3.96844H8.74984C8.53596 3.96844 8.35293 4.04483 8.20075 4.19762C8.04831 4.35066 7.97209 4.53455 7.97209 4.74928V10.2152C7.97209 10.4299 8.04831 10.6138 8.20075 10.7669C8.35293 10.9197 8.53596 10.9961 8.74984 10.9961C8.96372 10.9961 9.14688 10.9197 9.29932 10.7669C9.4515 10.6138 9.5276 10.4299 9.5276 10.2152V8.65352ZM10.772 7.09182C10.9859 7.09182 11.169 7.0153 11.3215 6.86225C11.4737 6.70947 11.5498 6.52571 11.5498 6.31098C11.5498 6.09624 11.4737 5.91235 11.3215 5.75931C11.169 5.60652 10.9859 5.53013 10.772 5.53013H9.5276V7.09182H10.772ZM6.2498 7.73137C6.58313 7.53816 6.58313 7.05514 6.2498 6.86193L3.99988 5.55776C3.66655 5.36455 3.2499 5.60607 3.2499 5.99248V6.79469H1.49995C1.22382 6.79469 0.999969 7.01944 0.999969 7.29667C0.999969 7.5739 1.22382 7.79864 1.49995 7.79864H3.2499V8.60081C3.2499 8.98723 3.66655 9.22874 3.99988 9.03553L6.2498 7.73137Z" fill="white"/>
</svg>
