<svg width="18" height="18" viewBox="0 0 18 18" fill="none" xmlns="http://www.w3.org/2000/svg">
<path fill-rule="evenodd" clip-rule="evenodd" d="M6 2.5C6 2.22386 6.22386 2 6.5 2H12.5C12.7761 2 13 2.22386 13 2.5C13 2.77614 12.7761 3 12.5 3H10.9142L9.89438 4.01983C11.2248 4.08211 12.2079 4.29103 12.8437 4.6466C13.6146 5.07767 14 5.79418 14 6.79612V12.3204C14 13.3097 14 14.1845 12.8437 14.6505C12.7049 14.7065 12.5064 14.7557 12.2627 14.7983L12.6464 15.182C12.8417 15.3772 12.8417 15.6938 12.6464 15.8891C12.4512 16.0843 12.1346 16.0843 11.9393 15.8891L10.9892 14.9389C9.76879 15.022 8.23235 15.0203 7.01576 14.934L6.06066 15.8891C5.8654 16.0843 5.54882 16.0843 5.35355 15.8891C5.15829 15.6938 5.15829 15.3772 5.35355 15.182L5.7465 14.789C5.52223 14.7486 5.33731 14.7025 5.20313 14.6505C4 14.1845 4 13.3222 4 12.3204V6.79612C4 5.82913 4.40104 5.12124 5.20313 4.67247C5.92468 4.26916 7.02138 4.04727 8.49322 4.00678L9.5 3H6.5C6.22386 3 6 2.77614 6 2.5ZM9 12C9.55228 12 10 11.5523 10 11C10 10.4477 9.55228 10 9 10C8.44772 10 8 10.4477 8 11C8 11.5523 8.44772 12 9 12ZM5 6.5C5 6.22386 5.22386 6 5.5 6H12.5C12.7761 6 13 6.22386 13 6.5V7.5C13 7.77614 12.7761 8 12.5 8H5.5C5.22386 8 5 7.77614 5 7.5V6.5Z" fill="#808080"/>
<path fill-rule="evenodd" clip-rule="evenodd" d="M9.5 3H6.5C6.22386 3 6 2.77614 6 2.5C6 2.22386 6.22386 2 6.5 2H12.5C12.7761 2 13 2.22386 13 2.5C13 2.77614 12.7761 3 12.5 3H10.9142L9.89438 4.01983C10.3691 4.04205 10.7996 4.08295 11.1859 4.14251C11.8822 4.24988 12.4348 4.41791 12.8437 4.6466C13.3603 4.93544 13.7037 5.35243 13.8741 5.89758C13.9322 6.08348 13.9702 6.28429 13.9881 6.5C13.996 6.59577 14 6.69447 14 6.79612V12.3204C14 13.1606 14 13.9182 13.2917 14.413C13.166 14.5008 13.018 14.5803 12.8437 14.6505C12.7049 14.7065 12.5064 14.7557 12.2627 14.7983L12.6464 15.182C12.7914 15.3269 12.8287 15.5387 12.7585 15.7181C12.7341 15.7804 12.6968 15.8388 12.6464 15.8891C12.4512 16.0843 12.1346 16.0843 11.9393 15.8891L10.9892 14.9389C9.76879 15.022 8.23235 15.0203 7.01576 14.934L6.06066 15.8891C6.06083 15.8889 6.06049 15.8892 6.06066 15.8891C5.8654 16.0843 5.54882 16.0843 5.35355 15.8891C5.29934 15.8349 5.26018 15.7713 5.23607 15.7036C5.17334 15.5274 5.2125 15.323 5.35355 15.182L5.7465 14.789C5.52223 14.7486 5.33731 14.7025 5.20313 14.6505C5.01364 14.5771 4.85399 14.4939 4.71949 14.4018C4 13.9094 4 13.1644 4 12.3204V6.79612C4 6.69455 4.00442 6.59585 4.01327 6.5C4.0375 6.23751 4.09492 5.99646 4.18551 5.77685C4.37679 5.31315 4.716 4.94502 5.20313 4.67247C5.92468 4.26916 7.02138 4.04727 8.49322 4.00678L9.5 3ZM5.37969 3.49747C5.14351 3.2324 5 2.88296 5 2.5C5 1.67157 5.67157 1 6.5 1H12.5C13.3284 1 14 1.67157 14 2.5C14 3.0297 13.7254 3.49528 13.3109 3.76217C13.3179 3.76603 13.3249 3.76991 13.3318 3.77381C14.467 4.40863 15 5.49088 15 6.79612V12.3204C15 12.3416 15 12.3632 15.0001 12.3853C15.0006 12.8308 15.0013 13.4523 14.7961 14.021C14.6089 14.5401 14.2745 14.9712 13.7734 15.2935C13.8482 15.7534 13.7082 16.2415 13.3536 16.5962C12.7678 17.182 11.818 17.182 11.2322 16.5962L10.5993 15.9633C9.581 16.0134 8.4212 16.0122 7.40442 15.9595L6.76777 16.5962C6.18198 17.182 5.23223 17.182 4.64645 16.5962C4.28735 16.2371 4.14839 15.7412 4.22955 15.2763C3.74146 14.9639 3.40665 14.5485 3.21464 14.039C2.99853 13.4656 2.99935 12.837 2.99994 12.3876C2.99997 12.3647 3 12.3423 3 12.3204V6.79612C3 5.49035 3.57695 4.43645 4.71484 3.79978C4.91955 3.68536 5.14186 3.58482 5.37969 3.49747ZM12.9391 6.26065C12.8543 6.10534 12.6894 6 12.5 6H5.5C5.32797 6 5.17622 6.08688 5.08626 6.21916C5.03182 6.29922 5 6.39589 5 6.5V7.5C5 7.77614 5.22386 8 5.5 8H12.5C12.7761 8 13 7.77614 13 7.5V6.5C13 6.41329 12.9779 6.33173 12.9391 6.26065ZM10 11C10 11.5523 9.55228 12 9 12C8.44772 12 8 11.5523 8 11C8 10.4477 8.44772 10 9 10C9.55228 10 10 10.4477 10 11Z" fill="white"/>
</svg>
