<svg width="12" height="8" viewBox="0 0 12 8" fill="none" xmlns="http://www.w3.org/2000/svg">
<path d="M9.02433 7H2C1.23751 7 0.755546 6.18089 1.12584 5.51435L1.5 5C1.92072 4.71952 2.83244 4.30935 2.83244 4.30935C2.97724 4.21281 3.09434 4.08016 3.17217 3.92451L3.70518 2.85848C3.76989 2.72906 3.86192 2.61522 3.97491 2.52483L4.9474 1.74684C5.01775 1.69056 5.09538 1.64405 5.17818 1.60856L6.40949 1.08086C6.66104 0.973048 6.94578 0.973048 7.19733 1.08086L8.10159 1.50941C8.3307 1.6076 8.51488 1.78783 8.61803 2.01475L9.6533 4.29233C9.68942 4.37179 9.71498 4.45564 9.72933 4.54174L10.0107 5.8356C10.1123 6.44513 9.64227 7 9.02433 7Z" fill="#808080"/>
<path fill-rule="evenodd" clip-rule="evenodd" d="M10.5637 3.87854C10.6359 4.03745 10.687 4.20514 10.7157 4.37734L10.9971 5.6712C11.2003 6.89026 10.2602 8 9.02433 8H2C0.47503 8 -0.485991 6.77382 0.254599 5.44075L0.561505 4.88832C0.561505 4.88832 1.03386 4.94563 1.5 5L1.12584 5.51435C0.755546 6.18089 1.23751 7 2 7H9.02433C9.64227 7 10.1123 6.44513 10.0107 5.8356L9.72933 4.54174C9.71498 4.45564 9.68942 4.37179 9.6533 4.29233L8.61803 2.01475C8.51488 1.78783 8.3307 1.6076 8.10159 1.50941L7.19733 1.08086C6.94578 0.973048 6.66104 0.973048 6.40949 1.08086L5.17818 1.60856C5.09538 1.64405 5.01775 1.69056 4.9474 1.74684L4.32271 0.965966C4.4634 0.853413 4.61865 0.760388 4.78426 0.689414L6.01557 0.16171C6.51867 -0.0539033 7.08815 -0.0539033 7.59125 0.16171L8.4955 0.590265C8.95374 0.78665 9.3221 1.14709 9.5284 1.60095L10.5637 3.87854ZM1.5 5C1.03386 4.94563 0.561505 4.88832 0.561505 4.88832C0.716247 4.60979 0.935299 4.37226 1.20042 4.19551L2.27774 3.4773L2.81075 2.41127C2.94017 2.15242 3.12423 1.92475 3.35022 1.74396L4.32271 0.965966L4.9474 1.74684L3.97491 2.52483C3.86192 2.61522 3.76989 2.72906 3.70518 2.85848L3.17217 3.92451C3.09434 4.08016 2.97724 4.21281 2.83244 4.30935C2.83244 4.30935 1.92072 4.71952 1.5 5Z" fill="white"/>
</svg>
