<svg width="18" height="18" viewBox="0 0 18 18" fill="none" xmlns="http://www.w3.org/2000/svg">
<circle cx="9" cy="9" r="8.5" fill="#808080" stroke="white"/>
<path fill-rule="evenodd" clip-rule="evenodd" d="M9.97277 12.5856C10.2254 12.7547 10.5024 12.8948 10.8002 13C12.612 13.017 14.1705 11.7217 14.4851 9.93729C14.4851 9.93729 14.9999 7.5 15 7.00002C15 6.50003 14.6789 5.86526 14.0775 5.81014L12.4426 5.6603C12.2145 5.6394 11.9886 5.59956 11.7671 5.5412L10.3501 5.16777C10.4227 5.32548 10.4764 5.49501 10.508 5.67401L11.0384 8.68206C11.0821 8.92987 11.1056 9.17718 11.1101 9.42215C11.2148 9.41714 11.3211 9.4236 11.4275 9.44235C12.0346 9.54941 12.5052 10.033 12.5956 10.6428L12.6249 10.8401C12.6499 11.0091 12.475 11.1406 12.3173 11.0748C12.0073 10.9455 11.5583 10.7758 11.2034 10.7132C11.1279 10.6999 11.0467 10.6897 10.9624 10.682C10.7819 11.3849 10.442 12.0365 9.97277 12.5856ZM13.0143 8.62616C13.2951 8.67566 13.5628 8.4882 13.6123 8.20744C13.6618 7.92669 13.4743 7.65896 13.1936 7.60945C12.9128 7.55995 12.6451 7.74741 12.5956 8.02817C12.5461 8.30892 12.7336 8.57665 13.0143 8.62616Z" fill="white"/>
<path fill-rule="evenodd" clip-rule="evenodd" d="M3.17491 6.15229C3.02066 6.36956 3 6.5 3 6.92922C3 7.35844 3.5304 9.93727 3.5304 9.93727C3.84503 11.7216 5.40358 13.017 7.21539 13C7.85483 12.774 8.39804 12.3874 8.81098 11.8985C9.50048 11.0814 9.82635 9.97897 9.62959 8.86311L9.09919 5.85506C9.00018 5.29355 8.46472 4.91862 7.90321 5.01763L6.40793 5.47835C6.08033 5.57929 5.74144 5.63905 5.39907 5.65624L3.83639 5.73472C3.55866 5.78369 3.32657 5.93943 3.17491 6.15229ZM5.25368 10.0627L5.34862 10.238C5.64219 10.7802 6.24974 11.0736 6.85691 10.9666C7.46408 10.8595 7.93461 10.3759 8.02505 9.76607L8.0543 9.56885C8.07937 9.39979 7.90444 9.2683 7.74671 9.3341C7.43676 9.46339 6.98769 9.63311 6.63282 9.69569C6.27794 9.75826 5.7979 9.75237 5.46243 9.73688C5.2917 9.72899 5.1723 9.91238 5.25368 10.0627ZM8.35232 7.55793C8.40182 7.83868 8.21436 8.10641 7.9336 8.15592C7.65285 8.20542 7.38512 8.01796 7.33561 7.7372C7.28611 7.45645 7.47357 7.18872 7.75433 7.13921C8.03508 7.08971 8.30281 7.27717 8.35232 7.55793ZM4.88365 8.69374C5.1644 8.64423 5.35187 8.3765 5.30236 8.09575C5.25286 7.81499 4.98513 7.62753 4.70437 7.67703C4.42362 7.72654 4.23615 7.99427 4.28566 8.27502C4.33516 8.55578 4.60289 8.74324 4.88365 8.69374Z" fill="white"/>
</svg>
