<svg width="18" height="18" viewBox="0 0 18 18" fill="none" xmlns="http://www.w3.org/2000/svg">
<circle cx="9" cy="9" r="8.5" fill="#808080" stroke="white"/>
<path d="M5.9375 14.4998C5.31771 14.4998 4.79825 14.2901 4.37913 13.8707C3.95971 13.4516 3.75 12.9321 3.75 12.3123C3.75 11.6925 3.96335 11.1731 4.39006 10.7539C4.81648 10.3345 5.33229 10.1248 5.9375 10.1248C6.49896 10.1248 6.97117 10.2925 7.35413 10.6279C7.73679 10.9634 7.97917 11.379 8.08125 11.8748H8.36563L7.57813 9.68732H7.25C7.12604 9.68732 7.02206 9.64532 6.93806 9.56132C6.85436 9.47761 6.8125 9.37378 6.8125 9.24982C6.8125 9.12586 6.85436 9.02188 6.93806 8.93788C7.02206 8.85417 7.12604 8.81232 7.25 8.81232H8.5625C8.68646 8.81232 8.79044 8.85417 8.87444 8.93788C8.95815 9.02188 9 9.12586 9 9.24982C9 9.37378 8.95815 9.47761 8.87444 9.56132C8.79044 9.64532 8.68646 9.68732 8.5625 9.68732H8.51875L8.67188 10.1248H10.7719L10.1375 8.37482H9.4375C9.31354 8.37482 9.20971 8.33296 9.126 8.24925C9.042 8.16525 9 8.06128 9 7.93732C9 7.81336 9.042 7.70938 9.126 7.62538C9.20971 7.54167 9.31354 7.49982 9.4375 7.49982H10.1375C10.3271 7.49982 10.4967 7.55086 10.6463 7.65294C10.7956 7.75503 10.9031 7.89357 10.9688 8.06857L11.7125 10.1029H12.0625C12.6677 10.1029 13.1837 10.3162 13.6104 10.7426C14.0368 11.1693 14.25 11.6852 14.25 12.2904C14.25 12.9029 14.0385 13.4243 13.6156 13.8545C13.1927 14.2847 12.675 14.4998 12.0625 14.4998C11.5375 14.4998 11.0764 14.3358 10.6791 14.0076C10.2816 13.6795 10.0281 13.2602 9.91875 12.7498H8.08125C7.97917 13.2529 7.73125 13.6705 7.3375 14.0024C6.94375 14.334 6.47708 14.4998 5.9375 14.4998ZM9.30625 11.8748H9.91875C9.95521 11.7071 10.0045 11.5503 10.0666 11.4045C10.1285 11.2587 10.2104 11.1238 10.3125 10.9998H8.97813L9.30625 11.8748ZM12.0406 12.3123C12.15 12.2759 12.2321 12.2012 12.2869 12.0883C12.3415 11.9752 12.3469 11.8602 12.3031 11.7436L12.0188 10.9998L11.2094 11.3061L11.4719 12.0498C11.5083 12.1592 11.5831 12.2394 11.6963 12.2904C11.8092 12.3415 11.924 12.3488 12.0406 12.3123ZM6.375 12.7498H7.1625V11.8748H6.375C6.25104 11.8748 6.14706 11.9167 6.06306 12.0004C5.97935 12.0844 5.9375 12.1884 5.9375 12.3123C5.9375 12.4363 5.97935 12.5401 6.06306 12.6238C6.14706 12.7078 6.25104 12.7498 6.375 12.7498Z" fill="white"/>
<path d="M11.7985 5.7339C11.7308 5.8016 11.6538 5.85326 11.5676 5.88887C11.4812 5.92434 11.3872 5.94208 11.2856 5.94208L9.24958 5.937C9.20896 6.03178 9.16076 6.1206 9.10498 6.20347C9.04906 6.28647 8.98217 6.3669 8.90431 6.44475C8.56582 6.78325 8.15962 6.9525 7.68572 6.9525C7.21182 6.9525 6.80563 6.78325 6.46713 6.44475C6.34527 6.32289 6.24622 6.19 6.16999 6.04607C6.0939 5.90227 6.03724 5.75083 6 5.59174H7.48262V4.86058H6C6.03724 4.70149 6.0939 4.55004 6.16999 4.40625C6.24622 4.26232 6.34527 4.12942 6.46713 4.00756C6.80563 3.66907 7.21182 3.49982 7.68572 3.49982C8.15962 3.49982 8.56582 3.66907 8.90431 4.00756C8.98217 4.08542 9.04899 4.16578 9.10477 4.24864C9.16069 4.33164 9.20896 4.42053 9.24958 4.51531L11.2907 4.50516C11.3923 4.50516 11.4862 4.52289 11.5726 4.55837C11.6589 4.59398 11.7359 4.64563 11.8036 4.71333C11.8713 4.78103 11.9228 4.8597 11.9583 4.94933C11.9939 5.0391 12.0117 5.13138 12.0117 5.22616C12.0117 5.32771 11.9931 5.42079 11.9559 5.50542C11.9186 5.59004 11.8662 5.6662 11.7985 5.7339Z" fill="white"/>
</svg>
