<svg width="18" height="18" viewBox="0 0 18 18" fill="none" xmlns="http://www.w3.org/2000/svg">
<circle cx="9" cy="9" r="8.5" fill="#808080" stroke="white"/>
<path d="M6.06066 6.35374C5.8654 6.15847 5.8654 5.84189 6.06066 5.64663L6.85355 4.85374C7.04882 4.65847 7.04882 4.34189 6.85355 4.14663C6.65829 3.95137 6.34171 3.95137 6.14645 4.14663L5.35355 4.93952C4.76777 5.52531 4.76777 6.47506 5.35355 7.06084L5.47071 7.178C5.64865 7.35594 5.64865 7.64443 5.47071 7.82237C4.97712 8.31596 4.92045 9.05895 5.25711 9.61085C5.1434 9.67574 5.03638 9.7567 4.93934 9.85374L4.14645 10.6466C3.95118 10.8419 3.95118 11.1585 4.14645 11.3537C4.34171 11.549 4.65829 11.549 4.85355 11.3537L5.64645 10.5608C5.84171 10.3656 6.15829 10.3656 6.35355 10.5608L6.43934 10.6466C7.02513 11.2324 7.97487 11.2324 8.56066 10.6466L8.64645 10.5608C8.84171 10.3656 9.15829 10.3656 9.35355 10.5608L9.43934 10.6466C10.0251 11.2324 10.9749 11.2324 11.5607 10.6466L11.6464 10.5608C11.8417 10.3656 12.1583 10.3656 12.3536 10.5608L13.1464 11.3537C13.3417 11.549 13.6583 11.549 13.8536 11.3537C14.0488 11.1585 14.0488 10.8419 13.8536 10.6466L13.0607 9.85374C13.0161 9.80919 12.9695 9.76804 12.921 9.73027C12.8849 9.6738 12.8367 9.62373 12.7774 9.58416L12.2473 9.23076C12.008 9.07127 11.9745 8.73278 12.1778 8.52947C12.7463 7.96101 12.7463 7.03936 12.1778 6.47089L12.0607 6.35374C11.8654 6.15847 11.8654 5.84189 12.0607 5.64663L12.8536 4.85374C13.0488 4.65847 13.0488 4.34189 12.8536 4.14663C12.6583 3.95137 12.3417 3.95137 12.1464 4.14663L11.3536 4.93952C10.7678 5.52531 10.7678 6.47506 11.3536 7.06084L11.4707 7.178C11.6486 7.35594 11.6486 7.64443 11.4707 7.82237C10.9771 8.31596 10.9205 9.05895 11.2571 9.61085C11.1434 9.67574 11.0364 9.7567 10.9393 9.85374L10.8536 9.93952C10.6583 10.1348 10.3417 10.1348 10.1464 9.93952L10.0607 9.85374C10.0161 9.80919 9.96947 9.76804 9.92104 9.73027C9.88488 9.6738 9.83671 9.62373 9.77735 9.58416L9.24726 9.23076C9.00802 9.07127 8.97451 8.73278 9.17782 8.52947C9.74628 7.96101 9.74628 7.03936 9.17782 6.47089L9.06066 6.35374C8.8654 6.15847 8.8654 5.84189 9.06066 5.64663L9.85355 4.85374C10.0488 4.65847 10.0488 4.34189 9.85355 4.14663C9.65829 3.95137 9.34171 3.95137 9.14645 4.14663L8.35355 4.93952C7.76777 5.52531 7.76777 6.47506 8.35355 7.06084L8.47071 7.178C8.64865 7.35594 8.64865 7.64443 8.47071 7.82237C7.97712 8.31596 7.92045 9.05895 8.25711 9.61085C8.1434 9.67574 8.03638 9.7567 7.93934 9.85374L7.85355 9.93952C7.65829 10.1348 7.34171 10.1348 7.14645 9.93952L7.06066 9.85374C7.01612 9.80919 6.96947 9.76804 6.92104 9.73027C6.88488 9.6738 6.83671 9.62373 6.77735 9.58416L6.24726 9.23076C6.00802 9.07127 5.97451 8.73278 6.17782 8.52947C6.74628 7.96101 6.74628 7.03936 6.17782 6.47089L6.06066 6.35374Z" fill="white"/>
<path d="M6.35355 13.0608C6.15829 12.8656 5.84171 12.8656 5.64645 13.0608L4.85355 13.8537C4.65829 14.049 4.34171 14.049 4.14645 13.8537C3.95118 13.6585 3.95118 13.3419 4.14645 13.1466L4.93934 12.3537C5.52513 11.768 6.47487 11.7679 7.06066 12.3537L7.14645 12.4395C7.34171 12.6348 7.65829 12.6348 7.85355 12.4395L7.93934 12.3537C8.52513 11.768 9.47487 11.7679 10.0607 12.3537L10.1464 12.4395C10.3417 12.6348 10.6583 12.6348 10.8536 12.4395L10.9393 12.3537C11.5251 11.768 12.4749 11.7679 13.0607 12.3537L13.8536 13.1466C14.0488 13.3419 14.0488 13.6585 13.8536 13.8537C13.6583 14.049 13.3417 14.049 13.1464 13.8537L12.3536 13.0608C12.1583 12.8656 11.8417 12.8656 11.6464 13.0608L11.5607 13.1466C10.9749 13.7324 10.0251 13.7324 9.43934 13.1466L9.35355 13.0608C9.15829 12.8656 8.84171 12.8656 8.64645 13.0608L8.56066 13.1466C7.97487 13.7324 7.02513 13.7324 6.43934 13.1466L6.35355 13.0608Z" fill="white"/>
</svg>
