<svg width="18" height="18" viewBox="0 0 18 18" fill="none" xmlns="http://www.w3.org/2000/svg">
<g clip-path="url(#clip0_2002_2309)">
<path d="M9 17.5C13.6944 17.5 17.5 13.6944 17.5 9C17.5 4.30558 13.6944 0.5 9 0.5C4.30558 0.5 0.5 4.30558 0.5 9C0.5 13.6944 4.30558 17.5 9 17.5Z" fill="#808080" stroke="white"/>
<path fill-rule="evenodd" clip-rule="evenodd" d="M9.51567 2.49485C9.51614 2.21871 9.29266 1.99447 9.01652 1.994C8.74038 1.99354 8.51614 2.21701 8.51567 2.49315L8.51409 3.42146C7.33793 3.52075 6.26646 3.98726 5.4132 4.70608L4.85357 4.14644C4.65831 3.95118 4.34173 3.95118 4.14646 4.14644C3.9512 4.34171 3.9512 4.65829 4.14646 4.85355L4.70893 5.41602C4.00432 6.26601 3.54633 7.32913 3.44476 8.49425L2.50846 8.4935C2.23231 8.49328 2.00828 8.71696 2.00806 8.9931C2.00784 9.26925 2.23151 9.49328 2.50766 9.4935L3.44595 9.49425C3.55044 10.6603 4.01199 11.7237 4.72031 12.5727L4.14656 13.1464C3.95129 13.3417 3.95129 13.6583 4.14656 13.8536C4.34182 14.0488 4.6584 14.0488 4.85366 13.8536L5.42683 13.2804C6.27327 13.9889 7.33268 14.4498 8.49516 14.5519L8.49356 15.4942C8.49309 15.7703 8.71656 15.9945 8.99271 15.995C9.26885 15.9955 9.49309 15.772 9.49356 15.4959L9.49516 14.5504C10.6576 14.4447 11.7163 13.9801 12.5611 13.2681L13.1465 13.8536C13.3417 14.0488 13.6583 14.0488 13.8536 13.8536C14.0488 13.6583 14.0488 13.3417 13.8536 13.1464L13.2652 12.558C13.9648 11.7136 14.4211 10.659 14.5266 9.50312L15.4997 9.5039C15.7758 9.50412 15.9998 9.28044 16.0001 9.0043C16.0003 8.72815 15.7766 8.50412 15.5005 8.5039L14.5293 8.50312C14.4299 7.34123 13.976 6.2804 13.2765 5.4307L13.8537 4.85355C14.0489 4.65829 14.0489 4.34171 13.8537 4.14644C13.6584 3.95118 13.3418 3.95118 13.1466 4.14644L12.5746 4.71836C11.7323 4.00381 10.6754 3.53597 9.51408 3.42637L9.51567 2.49485ZM13.3236 8.50215C13.2325 7.6704 12.9102 6.90912 12.4229 6.28427L10.2076 8.49966L13.3236 8.50215ZM7.79064 8.49773L5.56214 6.26923C5.06965 6.89516 4.74333 7.65949 4.65052 8.49522L7.79064 8.49773ZM4.65226 9.49522L7.79527 9.49773L5.57321 11.7198C5.07759 11.0951 4.74807 10.3312 4.65226 9.49522ZM10.2068 9.49966L13.3203 9.50215C13.2242 10.3287 12.8996 11.0846 12.4119 11.7048L10.2068 9.49966ZM6.26577 5.55865C6.89578 5.05295 7.66806 4.71909 8.51204 4.62727L8.50664 7.79952L6.26577 5.55865ZM8.49721 13.3461C7.66522 13.2527 6.90345 12.924 6.27971 12.4275L8.50255 10.2047L8.49721 13.3461ZM11.7085 12.4156C11.0873 12.9145 10.3276 13.2463 9.49722 13.3437L9.50255 10.2096L11.7085 12.4156ZM9.51203 4.63309C10.3428 4.73337 11.1023 5.06843 11.7224 5.57062L9.50667 7.78633L9.51203 4.63309ZM8.5 9C8.5 8.72386 8.72385 8.5 9 8.5C9.27614 8.5 9.5 8.72386 9.5 9C9.5 9.27614 9.27614 9.5 9 9.5C8.72385 9.5 8.5 9.27614 8.5 9Z" fill="white"/>
</g>
<defs>
<clipPath id="clip0_2002_2309">
<rect width="18" height="18" fill="white"/>
</clipPath>
</defs>
</svg>
