<svg width="15" height="14" viewBox="0 0 15 14" fill="none" xmlns="http://www.w3.org/2000/svg">
<path d="M10.1977 13.0667L9.50893 7.46667H5.49108L4.8023 13.0667H2.88437C1.57692 13.0667 0.61099 11.7857 1.04115 10.5075L1.62301 8.77853C1.62629 8.76877 1.62877 8.75886 1.63044 8.74889L2.12606 5.80344C2.16544 5.56943 2.24738 5.34506 2.36741 5.14126L3.97073 2.41882C4.19851 2.03205 4.55201 1.73823 4.96883 1.5834L6.3909 1.05519C6.83356 0.890774 7.32107 0.892792 7.76237 1.06091L10.5608 2.12699C10.9566 2.27777 11.2944 2.55439 11.5199 2.91737L13.3649 5.88705C13.5222 6.14023 13.6194 6.42676 13.648 6.72464L14.0533 10.9402C14.1645 12.0965 13.2487 13.0667 12.1178 13.0667H10.1977Z" fill="#808080"/>
<path fill-rule="evenodd" clip-rule="evenodd" d="M10.1977 13.0667L9.50893 7.46667H5.49108L4.8023 13.0667H2.88437C1.57692 13.0667 0.61099 11.7857 1.04115 10.5075L1.62301 8.77853C1.62629 8.76877 1.62877 8.75886 1.63044 8.74889L2.12606 5.80344C2.16544 5.56943 2.24738 5.34506 2.36741 5.14126L3.97073 2.41882C4.19851 2.03205 4.55201 1.73823 4.96883 1.5834L6.3909 1.05519C6.83356 0.890774 7.32107 0.892792 7.76237 1.06091L10.5608 2.12699C10.9566 2.27777 11.2944 2.55439 11.5199 2.91737L13.3649 5.88705C13.5222 6.14023 13.6194 6.42676 13.648 6.72464L14.0533 10.9402C14.1645 12.0965 13.2487 13.0667 12.1178 13.0667H10.1977ZM6.32079 8.4L5.686 13.561C5.65517 13.8117 5.44228 14 5.18974 14H2.88437C0.948638 14 -0.485286 12.1053 0.152213 10.211L0.7155 8.5372L1.20144 5.64924C1.25971 5.303 1.38097 4.97092 1.55866 4.66919L3.16199 1.94675C3.49925 1.37408 4.02299 0.938546 4.64112 0.708949L6.06319 0.180739C6.71973 -0.0631233 7.4429 -0.0601296 8.09743 0.18922L10.8958 1.2553C11.4828 1.4789 11.9833 1.88893 12.3172 2.42641L14.1622 5.39608C14.3951 5.77093 14.5389 6.195 14.5812 6.63571L14.9866 10.8513C15.1512 12.5635 13.7938 14 12.1178 14H9.81027C9.55774 14 9.34484 13.8117 9.31401 13.561L8.67923 8.4H6.32079Z" fill="white"/>
<path d="M4.68751 8.86667C4.68751 9.1244 4.89737 9.33333 5.15626 9.33333H9.84376C10.1026 9.33333 10.3125 9.1244 10.3125 8.86667V7.93333C10.3125 7.6756 10.1026 7.46667 9.84376 7.46667H5.15626C4.89737 7.46667 4.68751 7.6756 4.68751 7.93333V8.86667Z" fill="white"/>
</svg>
