<svg width="18" height="18" viewBox="0 0 18 18" fill="none" xmlns="http://www.w3.org/2000/svg">
<circle cx="9" cy="9" r="8" fill="#808080"/>
<circle cx="9" cy="9" r="8.5" stroke="white" stroke-opacity="0.5"/>
<path d="M6.5 14.5C6.225 14.5 5.98967 14.4022 5.794 14.2065C5.598 14.0105 5.5 13.775 5.5 13.5V4.5C5.5 4.225 5.598 3.9895 5.794 3.7935C5.98967 3.59783 6.225 3.5 6.5 3.5H11.5C11.775 3.5 12.0105 3.59783 12.2065 3.7935C12.4022 3.9895 12.5 4.225 12.5 4.5V13.5C12.5 13.775 12.4022 14.0105 12.2065 14.2065C12.0105 14.4022 11.775 14.5 11.5 14.5H6.5ZM6.5 12H11.5V6H6.5V12Z" fill="white"/>
</svg>
