<svg width="18" height="18" viewBox="0 0 18 18" fill="none" xmlns="http://www.w3.org/2000/svg">
<circle cx="9" cy="9" r="8.5" fill="#808080" stroke="white"/>
<path d="M7.74987 14C7.53598 14 7.35294 13.9239 7.20076 13.7717C7.04831 13.6193 6.97209 13.4361 6.97209 13.2222V7.77777C6.97209 7.56388 7.04831 7.38071 7.20076 7.22827C7.35294 7.07608 7.53598 6.99999 7.74987 6.99999H9.69431C10.3425 6.99999 10.8934 7.22684 11.3471 7.68055C11.8008 8.13425 12.0276 8.68518 12.0276 9.33332C12.0276 9.98147 11.8008 10.5324 11.3471 10.9861C10.8934 11.4398 10.3425 11.6667 9.69431 11.6667H8.52765V13.2222C8.52765 13.4361 8.45156 13.6193 8.29937 13.7717C8.14693 13.9239 7.96376 14 7.74987 14ZM8.52765 10.1111H9.77209C9.98598 10.1111 10.1691 10.0349 10.3216 9.88244C10.4738 9.73025 10.5499 9.54721 10.5499 9.33332C10.5499 9.11944 10.4738 8.93627 10.3216 8.78382C10.1691 8.63164 9.98598 8.55555 9.77209 8.55555H8.52765V10.1111Z" fill="white"/>
<path fill-rule="evenodd" clip-rule="evenodd" d="M8.59374 4.13334C8.85231 4.01842 9.14745 4.01842 9.40602 4.13334L13.703 6.04309C13.9553 6.15524 14.0689 6.45072 13.9568 6.70306C13.8446 6.9554 13.5492 7.06905 13.2968 6.9569L8.99988 5.04715L4.70295 6.9569C4.45061 7.06905 4.15513 6.9554 4.04297 6.70306C3.93082 6.45072 4.04447 6.15524 4.29681 6.04309L8.59374 4.13334Z" fill="white"/>
</svg>
