<svg width="18" height="18" viewBox="0 0 18 18" fill="none" xmlns="http://www.w3.org/2000/svg">
<circle cx="9" cy="9" r="8.5" fill="#808080" stroke="white"/>
<path d="M7.28035 4.78029C6.59693 5.46371 6.59693 6.57175 7.28034 7.25517L8.87134 8.84616L11.3462 6.37128L9.75522 4.78029C9.0718 4.09688 7.96376 4.09688 7.28035 4.78029Z" fill="white"/>
<path d="M12.0533 7.07839L9.57844 9.55327L11.1694 11.1443C11.8528 11.8277 12.9609 11.8277 13.6443 11.1443C14.3277 10.4608 14.3277 9.3528 13.6443 8.66938L12.0533 7.07839Z" fill="white"/>
<path d="M4 11H8.89998C8.66835 9.85891 7.65947 9.00003 6.44999 9.00003C5.24051 9.00003 4.23164 9.85891 4 11Z" fill="white"/>
<path d="M8.89998 12H4C4.23164 13.1412 5.24051 14 6.44999 14C7.65947 14 8.66835 13.1412 8.89998 12Z" fill="white"/>
</svg>
