<svg width="18" height="18" viewBox="0 0 18 18" fill="none" xmlns="http://www.w3.org/2000/svg">
<circle cx="9" cy="9" r="8.5" fill="#808080" stroke="white"/>
<path d="M9.06049 13C9.93321 13 10.7696 12.8514 11.5696 12.5542C12.3696 12.2575 13.0969 11.8242 13.7514 11.2545C13.8605 11.1576 13.9182 11.0364 13.9245 10.8909C13.9303 10.7455 13.8787 10.6182 13.7696 10.5091C13.6726 10.4121 13.5485 10.3607 13.3972 10.3549C13.2455 10.3486 13.109 10.3939 12.9878 10.4909C12.9272 10.5515 12.8636 10.6029 12.7972 10.6451C12.7303 10.6878 12.6605 10.7333 12.5878 10.7818L11.9696 9.72727V7.90909H12.3332C12.4302 7.90909 12.515 7.87273 12.5878 7.8C12.6605 7.72727 12.6969 7.64242 12.6969 7.54545C12.6969 7.44849 12.6605 7.36364 12.5878 7.29091C12.515 7.21818 12.4302 7.18182 12.3332 7.18182H8.82412C8.76352 7.18182 8.70606 7.16679 8.65176 7.13673C8.59697 7.10618 8.5514 7.06061 8.51503 7L7.46049 5.18182C7.42412 5.12121 7.37879 5.07564 7.32449 5.04509C7.2697 5.01503 7.212 5 7.1514 5H4.78776C4.71503 5 4.67576 5.01212 4.66994 5.03636C4.66364 5.06061 4.69079 5.09697 4.7514 5.14545C4.812 5.19394 4.89685 5.24533 5.00594 5.29964C5.11503 5.35442 5.19988 5.39394 5.26049 5.41818C5.32109 5.44242 5.3514 5.48485 5.3514 5.54545C5.3514 5.60606 5.33321 5.66061 5.29685 5.70909L4.67867 6.41818C4.5817 6.52727 4.53637 6.65746 4.54267 6.80873C4.54849 6.96049 4.59988 7.09091 4.69685 7.2C4.79382 7.29697 4.91212 7.35442 5.05176 7.37236C5.19091 7.39079 5.31503 7.36364 5.42412 7.29091L6.1514 6.81818V9.72727L5.53321 10.7818C5.46049 10.7333 5.39091 10.6878 5.32449 10.6451C5.25758 10.6029 5.19382 10.5515 5.13321 10.4909C5.012 10.3939 4.87867 10.3455 4.73321 10.3455C4.58776 10.3455 4.46049 10.4 4.3514 10.5091C4.24231 10.6182 4.19067 10.7455 4.19649 10.8909C4.20279 11.0364 4.26049 11.1576 4.36958 11.2545C5.02412 11.8242 5.7514 12.2575 6.5514 12.5542C7.3514 12.8514 8.18776 13 9.06049 13ZM9.06049 11.9091C8.59988 11.9091 8.15455 11.8635 7.72449 11.7724C7.29394 11.6817 6.87867 11.5333 6.47867 11.3273L7.09685 10.2727C7.73928 10.5152 8.39382 10.6364 9.06049 10.6364C9.72715 10.6364 10.3817 10.5152 11.0241 10.2727L11.6423 11.3273C11.2423 11.5091 10.8273 11.6516 10.3972 11.7549C9.96667 11.8577 9.52109 11.9091 9.06049 11.9091Z" fill="white"/>
</svg>
