<svg width="18" height="18" viewBox="0 0 18 18" fill="none" xmlns="http://www.w3.org/2000/svg">
<circle cx="9" cy="9" r="8.5" fill="#808080" stroke="white"/>
<path fill-rule="evenodd" clip-rule="evenodd" d="M5.33704 4.60516C5.2026 4.50572 5 4.60064 5 4.76786V8.37592C5 10.7991 6.64917 12.9113 9 13.499C11.3508 12.9113 13 10.7991 13 8.37592V4.76786C13 4.60064 12.7974 4.50572 12.663 4.60516C12.2625 4.90136 11.5761 5.33657 11 5.33657C10.4287 5.33657 9.74896 4.9086 9.34714 4.61261C9.1433 4.46246 8.8567 4.46246 8.65286 4.61261C8.25104 4.9086 7.57127 5.33657 7 5.33657C6.42392 5.33657 5.73749 4.90136 5.33704 4.60516ZM8.0305 10.3728L8.99996 9.78883L9.96941 10.3728C10.0122 10.4001 10.057 10.4118 10.1037 10.4079C10.1505 10.404 10.1913 10.3884 10.2264 10.3612C10.2614 10.3339 10.2887 10.2999 10.3081 10.2591C10.3276 10.2181 10.3315 10.1723 10.3198 10.1217L10.0628 9.01794L10.9213 8.27626C10.9603 8.24122 10.9846 8.20127 10.9945 8.15642C11.0041 8.11172 11.0012 8.06796 10.9856 8.02514C10.97 7.98231 10.9466 7.94727 10.9155 7.92001C10.8844 7.89276 10.8415 7.87524 10.787 7.86745L9.65404 7.76817L9.21604 6.72864C9.19657 6.68192 9.16644 6.64688 9.12563 6.62352C9.08468 6.60016 9.04278 6.58848 8.99996 6.58848C8.95713 6.58848 8.91531 6.60016 8.87451 6.62352C8.83355 6.64688 8.80334 6.68192 8.78387 6.72864L8.34587 7.76817L7.21289 7.86745C7.15839 7.87524 7.11556 7.89276 7.08441 7.92001C7.05327 7.94727 7.02991 7.98231 7.01433 8.02514C6.99876 8.06796 6.99588 8.11172 7.00569 8.15642C7.01534 8.20127 7.03964 8.24122 7.07857 8.27626L7.93706 9.01794L7.6801 10.1217C7.66842 10.1723 7.67231 10.2181 7.69178 10.2591C7.71125 10.2999 7.7385 10.3339 7.77354 10.3612C7.80858 10.3884 7.84946 10.404 7.89618 10.4079C7.9429 10.4118 7.98768 10.4001 8.0305 10.3728Z" fill="white"/>
</svg>
