<svg width="18" height="18" viewBox="0 0 18 18" fill="none" xmlns="http://www.w3.org/2000/svg">
<circle cx="9" cy="9" r="8.5" fill="#808080" stroke="white"/>
<path d="M11.0001 6.27747C10.6875 6.17699 10.3448 6.09767 9.9696 6.04693L9.59442 6.82854C9.4659 7.09631 9.38611 7.38483 9.35881 7.68058L9.2664 8.68173C9.2397 8.97094 8.82434 8.98976 8.77161 8.70414L8.54164 7.45843C8.514 7.30872 8.50009 7.1568 8.50009 7.00456V6C8.10692 6.02594 7.74586 6.08209 7.41459 6.16152L7.09442 6.82854C6.9659 7.09631 6.88611 7.38483 6.85881 7.68058L6.7664 8.68173C6.7397 8.97094 6.32434 8.98976 6.27161 8.70414L6.04164 7.45843C6.014 7.30872 6.00009 7.1568 6.00009 7.00456V6.718C5.59616 6.95083 5.26657 7.21732 5.00009 7.48381C4.25009 8.23385 3.99998 9.75 4 10.25C4.00002 10.8023 4.24997 11.5 4.99997 11.75C6 12.0834 12 12.0834 13 11.75C13.75 11.5 14 10.8023 14 10.25C14 9.75 13.7501 8.23381 13.0001 7.48381C12.7593 7.243 12.4669 7.00218 12.1147 6.7862L12.0944 6.82854C11.9659 7.09631 11.8861 7.38483 11.8588 7.68058L11.7664 8.68173C11.7397 8.97094 11.3243 8.98976 11.2716 8.70414L11.0416 7.45843C11.014 7.30872 11.0001 7.1568 11.0001 7.00456V6.27747Z" fill="white"/>
</svg>
