<svg width="16" height="14" viewBox="0 0 16 14" fill="none" xmlns="http://www.w3.org/2000/svg">
<path d="M3.00001 1.5C3.00001 1.22386 3.22387 1 3.50001 1H4.50001C4.77615 1 5.00001 1.22386 5.00001 1.5V12.5C5.00001 12.7761 4.77615 13 4.50001 13H3.50001C3.22387 13 3.00001 12.7761 3.00001 12.5V1.5Z" fill="#808080"/>
<path fill-rule="evenodd" clip-rule="evenodd" d="M3.50001 0H4.50001C5.32844 0 6.00001 0.671573 6.00001 1.5V12.5C6.00001 13.3284 5.32844 14 4.50001 14H3.50001C2.67158 14 2.00001 13.3284 2.00001 12.5V1.5C2.00001 0.671574 2.67158 0 3.50001 0ZM3.50001 1C3.22387 1 3.00001 1.22386 3.00001 1.5V12.5C3.00001 12.7761 3.22387 13 3.50001 13H4.50001C4.77615 13 5.00001 12.7761 5.00001 12.5V1.5C5.00001 1.22386 4.77615 1 4.50001 1H3.50001Z" fill="white"/>
<path d="M11 1.5C11 1.22386 11.2239 1 11.5 1H12.5C12.7762 1 13 1.22386 13 1.5V12.5C13 12.7761 12.7762 13 12.5 13H11.5C11.2239 13 11 12.7761 11 12.5V1.5Z" fill="#808080"/>
<path fill-rule="evenodd" clip-rule="evenodd" d="M11.5 0H12.5C13.3284 0 14 0.671573 14 1.5V12.5C14 13.3284 13.3284 14 12.5 14H11.5C10.6716 14 10 13.3284 10 12.5V1.5C10 0.671574 10.6716 0 11.5 0ZM11.5 1C11.2239 1 11 1.22386 11 1.5V12.5C11 12.7761 11.2239 13 11.5 13H12.5C12.7762 13 13 12.7761 13 12.5V1.5C13 1.22386 12.7762 1 12.5 1H11.5Z" fill="white"/>
<path fill-rule="evenodd" clip-rule="evenodd" d="M6.30138 4H2.16668C1.52235 4 1.00001 4.44772 1.00001 5V7C1.00001 7.10229 1.01793 7.20098 1.05122 7.29392L6.30138 4ZM2.85381 8H7.43476L13.8103 4H9.2294L2.85381 8ZM13.8333 8H10.3628L15 5.09063V7C15 7.55228 14.4777 8 13.8333 8Z" fill="#808080"/>
<path fill-rule="evenodd" clip-rule="evenodd" d="M1.1701e-06 7C-4.43967e-06 6.21895 1.19436e-05 5 1.19436e-05 5C1.19436e-05 3.75636 1.12024 3 2.16668 3C2.16668 3 9.96753 3.00003 13.8333 3C14.88 2.99999 16 3.76 16 5C16 6.22152 16 7 16 7C16 8.24364 14.8798 9 13.8333 9C13.8333 9 6.7228 9 2.16668 9C1.12 9 1.19436e-05 8.24 1.1701e-06 7ZM6.30138 4L1.05122 7.29392C1.01793 7.20098 1.00001 7.10229 1.00001 7V5C1.00001 4.44772 1.52235 4 2.16668 4H6.30138ZM13.8103 4L7.43476 8H2.85381L9.2294 4H13.8103ZM10.3628 8L15 5.09063V7C15 7.55228 14.4777 8 13.8333 8H10.3628Z" fill="white"/>
</svg>
