<svg width="18" height="18" viewBox="0 0 18 18" fill="none" xmlns="http://www.w3.org/2000/svg">
<path d="M4.97493 14L3.02493 9.65C2.99993 9.55 3.01026 9.43333 3.05593 9.3C3.10193 9.16667 3.19993 9.075 3.34993 9.025L3.99993 8.8V5.5C3.99993 5.225 4.09793 4.98967 4.29393 4.794C4.4896 4.598 4.72493 4.5 4.99993 4.5H6.49993V2.5C6.49993 2.35833 6.54793 2.2395 6.64393 2.1435C6.7396 2.04783 6.85826 2 6.99993 2H10.9999C11.1416 2 11.2604 2.04783 11.3564 2.1435C11.4521 2.2395 11.4999 2.35833 11.4999 2.5V4.5H12.9999C13.2749 4.5 13.5104 4.598 13.7064 4.794C13.9021 4.98967 13.9999 5.225 13.9999 5.5V8.8L14.6499 9.025C14.8249 9.09167 14.9291 9.1895 14.9624 9.3185C14.9958 9.44783 14.9999 9.55833 14.9749 9.65L13.0249 14C12.7249 14 12.4438 13.9458 12.1814 13.8375C11.9188 13.7292 11.6791 13.5917 11.4624 13.425C11.3958 13.375 11.3229 13.3353 11.2439 13.306C11.1646 13.277 11.0833 13.2625 10.9999 13.2625C10.9166 13.2625 10.8353 13.277 10.7559 13.306C10.6769 13.3353 10.6041 13.375 10.5374 13.425C10.3208 13.5917 10.0833 13.7292 9.82493 13.8375C9.5666 13.9458 9.2916 14 8.99993 14C8.70826 14 8.43326 13.9458 8.17493 13.8375C7.9166 13.7292 7.6791 13.5917 7.46243 13.425C7.39576 13.375 7.32293 13.3353 7.24393 13.306C7.1646 13.277 7.08326 13.2625 6.99993 13.2625C6.9166 13.2625 6.83543 13.277 6.75643 13.306C6.6771 13.3353 6.6041 13.375 6.53743 13.425C6.32076 13.5917 6.08126 13.7292 5.81893 13.8375C5.55626 13.9458 5.27493 14 4.97493 14ZM4.49993 16C4.35826 16 4.2396 15.952 4.14393 15.856C4.04793 15.7603 3.99993 15.6417 3.99993 15.5C3.99993 15.3583 4.04793 15.2397 4.14393 15.144C4.2396 15.048 4.35826 15 4.49993 15H4.99993C5.2916 15 5.5791 14.9625 5.86243 14.8875C6.14576 14.8125 6.42076 14.7 6.68743 14.55C6.7291 14.525 6.77693 14.5062 6.83093 14.4935C6.88526 14.4812 6.9416 14.475 6.99993 14.475C7.05826 14.475 7.1146 14.4812 7.16893 14.4935C7.22293 14.5062 7.27076 14.525 7.31243 14.55C7.5791 14.6917 7.8541 14.7978 8.13743 14.8685C8.42076 14.9395 8.70826 14.975 8.99993 14.975C9.2916 14.975 9.5791 14.9395 9.86243 14.8685C10.1458 14.7978 10.4208 14.6917 10.6874 14.55C10.7291 14.525 10.7771 14.5062 10.8314 14.4935C10.8854 14.4812 10.9416 14.475 10.9999 14.475C11.0583 14.475 11.1144 14.4812 11.1684 14.4935C11.2228 14.5062 11.2708 14.525 11.3124 14.55C11.5791 14.7 11.8541 14.8125 12.1374 14.8875C12.4208 14.9625 12.7083 15 12.9999 15H13.4999C13.6416 15 13.7603 15.048 13.8559 15.144C13.9519 15.2397 13.9999 15.3583 13.9999 15.5C13.9999 15.6417 13.9519 15.7603 13.8559 15.856C13.7603 15.952 13.6416 16 13.4999 16H12.9999C12.6499 16 12.3083 15.9583 11.9749 15.875C11.6416 15.7917 11.3166 15.6667 10.9999 15.5C10.6833 15.6667 10.3563 15.7917 10.0189 15.875C9.68127 15.9583 9.3416 16 8.99993 16C8.65826 16 8.31876 15.9583 7.98143 15.875C7.64376 15.7917 7.3166 15.6667 6.99993 15.5C6.68326 15.6667 6.35826 15.7917 6.02493 15.875C5.6916 15.9583 5.34993 16 4.99993 16H4.49993ZM4.99993 8.475L8.68743 7.6C8.78743 7.56667 8.8916 7.55 8.99993 7.55C9.10826 7.55 9.21243 7.56667 9.31243 7.6L12.9999 8.475V5.5H4.99993V8.475Z" fill="#808080"/>
<path fill-rule="evenodd" clip-rule="evenodd" d="M5.10065 14.9985C5.06722 14.9995 5.03365 15 4.99993 15H4.49993C4.35826 15 4.2396 15.048 4.14393 15.144C4.04793 15.2397 3.99993 15.3583 3.99993 15.5C3.99993 15.6417 4.04793 15.7603 4.14393 15.856C4.2396 15.952 4.35826 16 4.49993 16H4.99993C5.04724 16 5.09447 15.9992 5.14162 15.9977C5.44229 15.988 5.73672 15.9471 6.02493 15.875C6.05583 15.8673 6.08666 15.8592 6.11741 15.8508C6.41405 15.7693 6.70403 15.6546 6.98735 15.5066C6.99154 15.5044 6.99574 15.5022 6.99993 15.5C7.0053 15.5028 7.01068 15.5056 7.01606 15.5084C7.12599 15.5657 7.23717 15.618 7.34962 15.6653C7.55597 15.7521 7.76658 15.822 7.98143 15.875C8.31876 15.9583 8.65826 16 8.99993 16C9.3416 16 9.68127 15.9583 10.0189 15.875C10.2339 15.8219 10.4446 15.7519 10.6511 15.665C10.7632 15.6178 10.8741 15.5656 10.9838 15.5084C10.9892 15.5056 10.9946 15.5028 10.9999 15.5C11.0041 15.5022 11.0083 15.5044 11.0125 15.5066C11.2958 15.6546 11.5858 15.7693 11.8825 15.8508C11.9132 15.8592 11.944 15.8673 11.9749 15.875C12.2571 15.9456 12.5453 15.9862 12.8395 15.9971C12.8928 15.999 12.9463 16 12.9999 16H13.4999C13.6416 16 13.7603 15.952 13.8559 15.856C13.9519 15.7603 13.9999 15.6417 13.9999 15.5C13.9999 15.3583 13.9519 15.2397 13.8559 15.144C13.7603 15.048 13.6416 15 13.4999 15H12.9999C12.9662 15 12.9326 14.9995 12.8992 14.9985C12.6691 14.9917 12.4417 14.9613 12.2168 14.9075C12.1903 14.9012 12.1639 14.8945 12.1374 14.8875C11.9056 14.8261 11.6794 14.7397 11.4588 14.6281C11.4097 14.6033 11.3609 14.5773 11.3124 14.55C11.2708 14.525 11.2228 14.5062 11.1684 14.4935C11.1144 14.4812 11.0583 14.475 10.9999 14.475C10.9416 14.475 10.8854 14.4812 10.8314 14.4935C10.7771 14.5062 10.7291 14.525 10.6874 14.55C10.6383 14.5761 10.5889 14.601 10.5392 14.6247C10.4523 14.6661 10.3645 14.7038 10.2759 14.7379C10.2414 14.7512 10.2067 14.7639 10.1719 14.776C10.0699 14.8117 9.96672 14.8425 9.86243 14.8685C9.5791 14.9395 9.2916 14.975 8.99993 14.975C8.70826 14.975 8.42076 14.9395 8.13743 14.8685C8.03315 14.8425 7.92999 14.8117 7.82797 14.776C7.79338 14.764 7.75891 14.7513 7.72458 14.7381C7.63573 14.704 7.54775 14.6662 7.46063 14.6247C7.41095 14.601 7.36155 14.5761 7.31243 14.55C7.27076 14.525 7.22293 14.5062 7.16893 14.4935C7.1146 14.4812 7.05826 14.475 6.99993 14.475C6.9416 14.475 6.88526 14.4812 6.83093 14.4935C6.77693 14.5062 6.7291 14.525 6.68743 14.55C6.63892 14.5773 6.59013 14.6033 6.54106 14.6281C6.32043 14.7397 6.09422 14.8261 5.86243 14.8875C5.83601 14.8945 5.80955 14.9012 5.78306 14.9075C5.5582 14.9613 5.33073 14.9917 5.10065 14.9985ZM8.18032 13.8398C8.24468 13.8665 8.31007 13.8899 8.37649 13.91L8.37754 13.9103C8.57581 13.9701 8.78327 14 8.99993 14C9.21659 14 9.42406 13.9701 9.62233 13.9103L9.62337 13.91C9.6898 13.8899 9.75519 13.8665 9.81956 13.8397L9.82493 13.8375C10.0833 13.7292 10.3208 13.5917 10.5374 13.425C10.6041 13.375 10.6769 13.3353 10.7559 13.306C10.8353 13.277 10.9166 13.2625 10.9999 13.2625C11.0833 13.2625 11.1646 13.277 11.2439 13.306C11.3229 13.3353 11.3958 13.375 11.4624 13.425C11.6791 13.5917 11.9188 13.7292 12.1814 13.8375C12.4438 13.9458 12.7249 14 13.0249 14L14.9749 9.65C14.9999 9.55833 14.9958 9.44783 14.9624 9.3185C14.9291 9.1895 14.8249 9.09167 14.6499 9.025L13.9999 8.8V5.5C13.9999 5.225 13.9021 4.98967 13.7064 4.794C13.5104 4.598 13.2749 4.5 12.9999 4.5H11.4999V2.5C11.4999 2.35833 11.4521 2.2395 11.3564 2.1435C11.2604 2.04783 11.1416 2 10.9999 2H6.99993C6.85826 2 6.7396 2.04783 6.64393 2.1435C6.54793 2.2395 6.49993 2.35833 6.49993 2.5V4.5H4.99993C4.72493 4.5 4.4896 4.598 4.29393 4.794C4.09793 4.98967 3.99993 5.225 3.99993 5.5V8.8L3.34993 9.025C3.19993 9.075 3.10193 9.16667 3.05593 9.3C3.01026 9.43333 2.99993 9.55 3.02493 9.65L4.97493 14C5.27493 14 5.55626 13.9458 5.81893 13.8375C6.08126 13.7292 6.32076 13.5917 6.53743 13.425C6.6041 13.375 6.6771 13.3353 6.75643 13.306C6.83543 13.277 6.9166 13.2625 6.99993 13.2625C7.08326 13.2625 7.1646 13.277 7.24393 13.306C7.32293 13.3353 7.39576 13.375 7.46243 13.425C7.6791 13.5917 7.9166 13.7292 8.17493 13.8375L8.18032 13.8398ZM12.9999 5.5H4.99993V8.475L8.68743 7.6C8.78743 7.56667 8.8916 7.55 8.99993 7.55C9.10826 7.55 9.21243 7.56667 9.31243 7.6L12.9999 8.475V5.5ZM2.99993 8.08799C2.60957 8.2278 2.26683 8.52105 2.11061 8.97386L2.10988 8.97598C2.02393 9.22693 1.96873 9.5483 2.05479 9.89254L2.07624 9.97835L3.92818 14.1096C3.74901 14.1822 3.5824 14.2911 3.43682 14.4369C3.14406 14.7293 2.99993 15.1065 2.99993 15.5C2.99993 15.8935 3.14407 16.2707 3.43684 16.5631C3.72923 16.8559 4.10642 17 4.49993 17H4.99993C5.43016 17 5.85334 16.9487 6.26747 16.8451C6.51706 16.7827 6.76145 16.7019 7.00044 16.6031C7.24165 16.7023 7.48879 16.7834 7.74161 16.8458M2.99993 8.08799V5.5C2.99993 4.95766 3.20481 4.46856 3.58682 4.08689C3.96849 3.70487 4.45759 3.5 4.99993 3.5H5.49993V2.5C5.49993 2.10597 5.64439 1.72883 5.93682 1.43639C6.22964 1.14358 6.60696 1 6.99993 1H10.9999C11.3929 1 11.7696 1.1435 12.0623 1.43516L12.0648 1.43762C12.3564 1.73031 12.4999 2.10707 12.4999 2.5V3.5H12.9999C13.5425 3.5 14.0317 3.70503 14.4135 4.08689C14.7954 4.46878 14.9999 4.95793 14.9999 5.5V8.08823L15.0059 8.09051C15.3519 8.2223 15.7864 8.50997 15.9306 9.06832C15.9907 9.30124 16.0253 9.59932 15.9397 9.91312L15.9192 9.98812L14.0717 14.1096C14.2509 14.1822 14.4175 14.2911 14.563 14.4369C14.8558 14.7293 14.9999 15.1065 14.9999 15.5C14.9999 15.8935 14.8558 16.2707 14.563 16.5631C14.2706 16.8559 13.8934 17 13.4999 17H12.9999C12.5697 17 12.1465 16.9487 11.7324 16.8451C11.4828 16.7827 11.2384 16.7019 10.9995 16.6031C10.7584 16.7023 10.5114 16.7834 10.2588 16.8458C9.84411 16.9481 9.42379 17 8.99993 17C8.57614 17 8.15599 16.9482 7.74161 16.8458" fill="white"/>
</svg>
