<svg width="18" height="18" viewBox="0 0 18 18" fill="none" xmlns="http://www.w3.org/2000/svg">
<path d="M9 17.5C13.6944 17.5 17.5 13.6944 17.5 9C17.5 4.30558 13.6944 0.5 9 0.5C4.30558 0.5 0.5 4.30558 0.5 9C0.5 13.6944 4.30558 17.5 9 17.5Z" fill="#808080" stroke="white"/>
<path fill-rule="evenodd" clip-rule="evenodd" d="M6 4C6 3.44772 6.4472 3 6.99948 3H11.0005C11.5528 3 12 3.44772 12 4V6.58579C12 6.851 11.883 7.09736 11.6335 7.18722C11.476 7.24394 11.2572 7.30527 10.958 7.35847L11.888 14.1784C11.953 14.6549 11.6691 15.1087 11.2009 15.2184C10.8661 15.2969 10.45 15.3796 10 15.4349V14C10 13.4477 9.55228 13 9 13C8.44772 13 8 13.4477 8 14V15.4349C7.55002 15.3796 7.13394 15.2969 6.79915 15.2184C6.33095 15.1087 6.04708 14.6549 6.11206 14.1784L7.04205 7.35848C6.74285 7.30528 6.52405 7.24394 6.36653 7.18722C6.11699 7.09736 6 6.851 6 6.58579V4ZM7.5 4C7.22386 4 7 4.22386 7 4.5V6H8V4.5C8 4.22386 7.77614 4 7.5 4ZM10 4.5C10 4.22386 10.2239 4 10.5 4C10.7761 4 11 4.22386 11 4.5V6H10V4.5Z" fill="white"/>
</svg>
