<svg width="18" height="18" viewBox="0 0 18 18" fill="none" xmlns="http://www.w3.org/2000/svg">
<circle cx="9" cy="9" r="8.5" fill="#808080" stroke="white"/>
<path d="M5 9.99998C5 10.7333 5.17917 11.402 5.5375 12.006C5.89583 12.6103 6.36667 13.0875 6.95 13.4375C6.80833 13.2375 6.698 13.0187 6.619 12.781C6.53967 12.5437 6.5 12.2916 6.5 12.025C6.5 11.6916 6.5625 11.3791 6.6875 11.0875C6.8125 10.7958 6.99583 10.5291 7.2375 10.2875L9 8.54998L10.775 10.2875C11.0083 10.5208 11.1875 10.7855 11.3125 11.0815C11.4375 11.3771 11.5 11.6916 11.5 12.025C11.5 12.2916 11.4605 12.5437 11.3815 12.781C11.3022 13.0187 11.1917 13.2375 11.05 13.4375C11.6333 13.0875 12.1042 12.6103 12.4625 12.006C12.8208 11.402 13 10.7333 13 9.99998C13 9.34165 12.85 8.72081 12.55 8.13748C12.25 7.55415 11.8375 7.07498 11.3125 6.69998C11.2208 6.63331 11.123 6.61031 11.019 6.63098C10.9147 6.65198 10.8292 6.70415 10.7625 6.78748C10.6625 6.90415 10.548 6.99381 10.419 7.05648C10.2897 7.11881 10.1542 7.14998 10.0125 7.14998C9.72917 7.14998 9.48967 7.05415 9.294 6.86248C9.098 6.67081 9 6.43331 9 6.14998V5.49998C9 5.27498 8.90217 5.10615 8.7065 4.99348C8.5105 4.88115 8.32083 4.88748 8.1375 5.01248C7.1625 5.66248 6.39583 6.42081 5.8375 7.28748C5.27917 8.15415 5 9.05832 5 9.99998ZM9 9.94998L7.9375 10.9875C7.79583 11.1291 7.6875 11.2896 7.6125 11.469C7.5375 11.648 7.5 11.8333 7.5 12.025C7.5 12.4333 7.64583 12.7811 7.9375 13.0685C8.22917 13.3561 8.58333 13.5 9 13.5C9.41667 13.5 9.77083 13.3561 10.0625 13.0685C10.3542 12.7811 10.5 12.4333 10.5 12.025C10.5 11.825 10.4625 11.6375 10.3875 11.4625C10.3125 11.2875 10.2042 11.1291 10.0625 10.9875L9 9.94998Z" fill="white"/>
</svg>
