<svg width="18" height="18" viewBox="0 0 18 18" fill="none" xmlns="http://www.w3.org/2000/svg">
<circle cx="9" cy="9" r="8.5" fill="#808080" stroke="white"/>
<path d="M6 12.5V13C6 13.1417 5.95217 13.2603 5.8565 13.356C5.7605 13.452 5.64167 13.5 5.5 13.5C5.35833 13.5 5.2395 13.452 5.1435 13.356C5.04783 13.2603 5 13.1417 5 13V5C5 4.85833 5.04783 4.7395 5.1435 4.6435C5.2395 4.54783 5.35833 4.5 5.5 4.5C5.64167 4.5 5.7605 4.54783 5.8565 4.6435C5.95217 4.7395 6 4.85833 6 5V5.5H7V5C7 4.85833 7.048 4.7395 7.144 4.6435C7.23967 4.54783 7.35833 4.5 7.5 4.5H10.5C10.6417 4.5 10.7605 4.54783 10.8565 4.6435C10.9522 4.7395 11 4.85833 11 5V5.5H12V5C12 4.85833 12.048 4.7395 12.144 4.6435C12.2397 4.54783 12.3583 4.5 12.5 4.5C12.6417 4.5 12.7603 4.54783 12.856 4.6435C12.952 4.7395 13 4.85833 13 5V13C13 13.1417 12.952 13.2603 12.856 13.356C12.7603 13.452 12.6417 13.5 12.5 13.5C12.3583 13.5 12.2397 13.452 12.144 13.356C12.048 13.2603 12 13.1417 12 13V12.5H11V13C11 13.1417 10.9522 13.2603 10.8565 13.356C10.7605 13.452 10.6417 13.5 10.5 13.5H7.5C7.35833 13.5 7.23967 13.452 7.144 13.356C7.048 13.2603 7 13.1417 7 13V12.5H6ZM6 11.5H7V10.5H6V11.5ZM6 9.5H7V8.5H6V9.5ZM6 7.5H7V6.5H6V7.5ZM11 11.5H12V10.5H11V11.5ZM11 9.5H12V8.5H11V9.5ZM11 7.5H12V6.5H11V7.5Z" fill="white"/>
</svg>
