<svg width="18" height="18" viewBox="0 0 18 18" fill="none" xmlns="http://www.w3.org/2000/svg">
<circle cx="9" cy="9" r="8.5" fill="#808080" stroke="white"/>
<path fill-rule="evenodd" clip-rule="evenodd" d="M6 5C6 4.72386 6.22386 4.5 6.5 4.5H11.5C11.7761 4.5 12 4.72386 12 5V5.5C13.1046 5.5 14 6.39543 14 7.5C14 8.60457 13.1046 9.5 12 9.5C12 10.8807 10.8807 11.5 9.5 11.5H8.5C7.11929 11.5 6 10.8807 6 9.5V5ZM12 8.5C12.5523 8.5 13 8.05228 13 7.5C13 6.94772 12.5523 6.5 12 6.5V8.5Z" fill="white"/>
<path d="M5 12.8333C5 12.6492 5.14924 12.5 5.33333 12.5H12.6667C12.8508 12.5 13 12.6492 13 12.8333C13 13.2015 12.7015 13.5 12.3333 13.5H5.66667C5.29848 13.5 5 13.2015 5 12.8333Z" fill="white"/>
</svg>
