<svg width="18" height="18" viewBox="0 0 18 18" fill="none" xmlns="http://www.w3.org/2000/svg">
<circle cx="9" cy="9" r="8.5" fill="#808080" stroke="white"/>
<path d="M9.0125 13.675C8.89583 13.675 8.78125 13.6542 8.66875 13.6125C8.55625 13.5708 8.45417 13.5083 8.3625 13.425C7.45417 12.625 6.71667 11.9521 6.15 11.4062C5.58333 10.8604 5.13958 10.3812 4.81875 9.96875C4.49792 9.55625 4.28125 9.17917 4.16875 8.8375C4.05625 8.49583 4 8.13333 4 7.75C4 6.98333 4.26667 6.33333 4.8 5.8C5.33333 5.26667 5.98333 5 6.75 5C7.3 5 7.78333 5.10625 8.2 5.31875C8.61667 5.53125 8.76667 5.8375 8.65 6.2375L8.1875 7.8625C8.14583 8.02917 8.17292 8.17708 8.26875 8.30625C8.36458 8.43542 8.49583 8.5 8.6625 8.5H9.5L9.175 11.675C9.16667 11.7417 9.19375 11.7792 9.25625 11.7875C9.31875 11.7958 9.35833 11.7708 9.375 11.7125L10.3 8.65C10.35 8.48333 10.325 8.33333 10.225 8.2C10.125 8.06667 9.99167 8 9.825 8H9L9.7625 5.7375C9.85417 5.44583 10.0458 5.25 10.3375 5.15C10.6292 5.05 10.9333 5 11.25 5C12.0167 5 12.6667 5.26667 13.2 5.8C13.7333 6.33333 14 6.98333 14 7.75C14 8.11667 13.9333 8.47917 13.8 8.8375C13.6667 9.19583 13.4354 9.59167 13.1062 10.025C12.7771 10.4583 12.3354 10.9479 11.7812 11.4938C11.2271 12.0396 10.525 12.6833 9.675 13.425C9.58333 13.5083 9.47917 13.5708 9.3625 13.6125C9.24583 13.6542 9.12917 13.675 9.0125 13.675Z" fill="white"/>
</svg>
