<svg width="18" height="18" viewBox="0 0 18 18" fill="none" xmlns="http://www.w3.org/2000/svg">
<circle cx="9" cy="9" r="8.5" fill="#808080" stroke="white"/>
<path d="M6.50003 14C6.23336 14 6.00636 13.9166 5.81903 13.75C5.63136 13.5833 5.52503 13.375 5.50003 13.125L4.56253 4.54997C4.54586 4.39997 4.58753 4.2708 4.68753 4.16247C4.78753 4.05414 4.91253 3.99997 5.06253 3.99997H12.9375C13.0875 3.99997 13.2125 4.05414 13.3125 4.16247C13.4125 4.2708 13.4542 4.39997 13.4375 4.54997L12.5 13.125C12.475 13.375 12.3689 13.5833 12.1815 13.75C11.9939 13.9166 11.7667 14 11.5 14H6.50003ZM5.82503 6.99997H12.175L12.375 4.99997H5.62503L5.82503 6.99997ZM9.00003 12.5C9.40003 12.5 9.75003 12.3625 10.05 12.0875C10.35 11.8125 10.5 11.475 10.5 11.075C10.5 10.7833 10.4125 10.477 10.2375 10.156C10.0625 9.8353 9.79587 9.45414 9.43753 9.01247C9.32087 8.8708 9.17503 8.79997 9.00003 8.79997C8.82503 8.79997 8.6792 8.8708 8.56253 9.01247C8.2042 9.45414 7.93753 9.8353 7.76253 10.156C7.58753 10.477 7.50003 10.7833 7.50003 11.075C7.50003 11.475 7.65003 11.8125 7.95003 12.0875C8.25003 12.3625 8.60003 12.5 9.00003 12.5Z" fill="white"/>
</svg>
