<svg width="18" height="18" viewBox="0 0 18 18" fill="none" xmlns="http://www.w3.org/2000/svg">
<circle cx="9" cy="9" r="8.5" fill="#808080" stroke="white"/>
<path d="M8.5 13.5C7.66667 13.5 6.95833 13.2083 6.375 12.625C5.79167 12.0417 5.5 11.3333 5.5 10.5V8.1C5.5 7.98333 5.55 7.90417 5.65 7.8625C5.75 7.82083 5.84167 7.84167 5.925 7.925L7.65 9.65C7.74167 9.74167 7.7875 9.85617 7.7875 9.9935C7.7875 10.1312 7.74167 10.25 7.65 10.35C7.55 10.45 7.43133 10.5 7.294 10.5C7.15633 10.5 7.0375 10.45 6.9375 10.35L6.5 9.9125V10.5C6.5 11.05 6.69583 11.5208 7.0875 11.9125C7.47917 12.3042 7.95 12.5 8.5 12.5C9.05 12.5 9.52083 12.3042 9.9125 11.9125C10.3042 11.5208 10.5 11.05 10.5 10.5V8.9125C10.2083 8.80417 9.96867 8.623 9.781 8.369C9.59367 8.11467 9.5 7.825 9.5 7.5C9.5 7.175 9.59367 6.88533 9.781 6.631C9.96867 6.377 10.2083 6.19583 10.5 6.0875V4.5C10.5 4.35833 10.548 4.2395 10.644 4.1435C10.7397 4.04783 10.8583 4 11 4C11.1417 4 11.2603 4.04783 11.356 4.1435C11.452 4.2395 11.5 4.35833 11.5 4.5V6.0875C11.7917 6.19583 12.0313 6.377 12.219 6.631C12.4063 6.88533 12.5 7.175 12.5 7.5C12.5 7.825 12.4063 8.11667 12.219 8.375C12.0313 8.63334 11.7917 8.8125 11.5 8.9125V10.5C11.5 11.3333 11.2083 12.0417 10.625 12.625C10.0417 13.2083 9.33333 13.5 8.5 13.5Z" fill="white"/>
</svg>
