<svg width="18" height="18" viewBox="0 0 18 18" fill="none" xmlns="http://www.w3.org/2000/svg">
<circle cx="9" cy="9" r="8.5" fill="#808080" stroke="white"/>
<path d="M9.50003 13.425C9.5167 13.5833 9.4647 13.7188 9.34403 13.8315C9.22303 13.9438 9.08753 13.9875 8.93753 13.9625C7.48753 13.7458 6.33753 13.1853 5.48753 12.281C4.63753 11.377 4.1542 10.1458 4.03753 8.58749C4.02087 8.42082 4.0687 8.28116 4.18103 8.16849C4.2937 8.05616 4.43337 8.01249 4.60003 8.03749C6.12503 8.24582 7.30003 8.83332 8.12503 9.79999C8.95003 10.7667 9.40837 11.975 9.50003 13.425ZM8.61253 4.48749C8.71253 4.34582 8.8437 4.27699 9.00603 4.28099C9.1687 4.28532 9.30003 4.35832 9.40003 4.49999C9.77503 5.02499 10.1022 5.59999 10.3815 6.22499C10.6605 6.84999 10.8292 7.37499 10.8875 7.79999C10.5625 7.94999 10.2 8.19366 9.80003 8.53099C9.40003 8.86866 9.13753 9.12916 9.01253 9.31249C8.89587 9.12916 8.6272 8.86032 8.20653 8.50599C7.78553 8.15199 7.4292 7.91666 7.13753 7.79999C7.2042 7.38332 7.37303 6.85615 7.64403 6.21849C7.9147 5.58115 8.23753 5.00415 8.61253 4.48749ZM13.4375 8.03749C13.5959 8.02082 13.7292 8.06449 13.8375 8.16849C13.9459 8.27282 13.9959 8.40832 13.9875 8.57499C13.9209 9.91666 13.5564 11.0063 12.894 11.844C12.2314 12.6813 11.4292 13.2667 10.4875 13.6C10.4709 13.0917 10.3939 12.5147 10.2565 11.869C10.1189 11.223 9.9042 10.6667 9.61253 10.2C9.97087 9.64999 10.5022 9.17499 11.2065 8.77499C11.9105 8.37499 12.6542 8.12916 13.4375 8.03749Z" fill="white"/>
</svg>
