<svg width="18" height="18" viewBox="0 0 18 18" fill="none" xmlns="http://www.w3.org/2000/svg">
<g clip-path="url(#clip0_2002_2308)">
<path d="M9 17.5C13.6944 17.5 17.5 13.6944 17.5 9C17.5 4.30558 13.6944 0.5 9 0.5C4.30558 0.5 0.5 4.30558 0.5 9C0.5 13.6944 4.30558 17.5 9 17.5Z" fill="#808080" stroke="white"/>
<path fill-rule="evenodd" clip-rule="evenodd" d="M11.5079 13.7751C10.6949 14.2601 9.75013 14.5378 8.7422 14.5378C5.69674 14.5378 3.22791 12.0025 3.22791 8.875C3.22791 5.74753 5.69674 3.2122 8.7422 3.2122C9.75012 3.2122 10.6949 3.4899 11.5079 3.97486C11.3212 3.9502 11.131 3.9375 10.938 3.9375C8.39231 3.9375 6.32861 6.14809 6.32861 8.875C6.32861 11.6019 8.39231 13.8125 10.938 13.8125C11.131 13.8125 11.3212 13.7998 11.5079 13.7751Z" fill="white"/>
<path fill-rule="evenodd" clip-rule="evenodd" d="M11.5156 6.29329L12.3616 8.00746L14.2533 8.28234L12.8845 9.61662L13.2076 11.5007L11.5156 10.6111L9.82367 11.5007L10.1468 9.61662L8.77795 8.28234L10.6696 8.00746L11.5156 6.29329Z" fill="white"/>
</g>
<defs>
<clipPath id="clip0_2002_2308">
<rect width="18" height="18" fill="white"/>
</clipPath>
</defs>
</svg>
