<?xml version="1.0" encoding="UTF-8"?>
<svg width="18" height="18" version="1.1" viewBox="0 0 18 18" xmlns="http://www.w3.org/2000/svg">
 <circle cx="9" cy="9" r="8.5" fill="#808080" stroke="white"/>
 <path d="m8.9905 1.1331c-0.030764 0.23842-0.336 1.3393-0.75043 1.9123-0.567 0.78397-1.1307 1.1381-1.1556 2.1273-0.026988 1.0752 0.80873 1.6834 1.9048 1.6834 1.0961 0 1.9247-0.6245 1.9344-1.7 0.009179-1.0157-1.0495-1.7292-1.3029-2.1435-0.35664-0.58299-0.60198-1.6503-0.63025-1.8795z" color="#000000" fill="#ffffff" stroke-linecap="round" stroke-linejoin="round" style="-inkscape-stroke:none;paint-order:fill markers stroke"/>
 <path d="m7.5 11.75c0.14167 0 0.2605-0.048 0.3565-0.144 0.09567-0.0956 0.1435-0.2143 0.1435-0.356 0-0.1416-0.04783-0.2605-0.1435-0.3565-0.096-0.0956-0.21483-0.1435-0.3565-0.1435s-0.26033 0.0479-0.356 0.1435c-0.096 0.096-0.144 0.2149-0.144 0.3565 0 0.1417 0.048 0.2604 0.144 0.356 0.09567 0.096 0.21433 0.144 0.356 0.144zm3 0c0.1417 0 0.2605-0.048 0.3565-0.144 0.0957-0.0956 0.1435-0.2143 0.1435-0.356 0-0.1416-0.0478-0.2605-0.1435-0.3565-0.096-0.0956-0.2148-0.1435-0.3565-0.1435s-0.2603 0.0479-0.356 0.1435c-0.096 0.096-0.144 0.2149-0.144 0.3565 0 0.1417 0.048 0.2604 0.144 0.356 0.0957 0.096 0.2143 0.144 0.356 0.144zm-4.5 2.25c-0.14167 0-0.2605-0.048-0.3565-0.144-0.09567-0.0956-0.1435-0.2143-0.1435-0.356v-3.2l0.825-2.4c0.04167-0.11666 0.11033-0.2125 0.206-0.2875 0.096-0.075 0.20233-0.1125 0.319-0.1125h4.3c0.1167 0 0.223 0.0375 0.319 0.1125 0.0957 0.075 0.1643 0.17084 0.206 0.2875l0.825 2.4v3.2c0 0.1417-0.048 0.2604-0.144 0.356-0.0957 0.096-0.2143 0.144-0.356 0.144s-0.2603-0.048-0.356-0.144c-0.096-0.0956-0.144-0.2143-0.144-0.356v-0.5h-5v0.5c0 0.1417-0.04783 0.2604-0.1435 0.356-0.096 0.096-0.21483 0.144-0.3565 0.144zm0.825-4.5h4.35l-0.35-1h-3.65l-0.35 1z" fill="white"/>
</svg>
