<svg width="18" height="18" viewBox="0 0 18 18" fill="none" xmlns="http://www.w3.org/2000/svg">
<circle cx="9" cy="9" r="8.5" fill="#808080" stroke="white"/>
<path d="M3.5 12.5V8C3.5 7.85833 3.54792 7.73958 3.64375 7.64375C3.73958 7.54792 3.85833 7.5 4 7.5C4.14167 7.5 4.26042 7.54792 4.35625 7.64375C4.45208 7.73958 4.5 7.85833 4.5 8V8.5H5.5V5C5.5 4.85833 5.54792 4.73958 5.64375 4.64375C5.73958 4.54792 5.85833 4.5 6 4.5C6.14167 4.5 6.26042 4.54792 6.35625 4.64375C6.45208 4.73958 6.5 4.85833 6.5 5V5.5H7.5V5C7.5 4.85833 7.54792 4.73958 7.64375 4.64375C7.73958 4.54792 7.85833 4.5 8 4.5C8.14167 4.5 8.26042 4.54792 8.35625 4.64375C8.45208 4.73958 8.5 4.85833 8.5 5V5.5H9.5V5C9.5 4.85833 9.54792 4.73958 9.64375 4.64375C9.73958 4.54792 9.85833 4.5 10 4.5C10.1417 4.5 10.2604 4.54792 10.3563 4.64375C10.4521 4.73958 10.5 4.85833 10.5 5V5.5H11.5V5C11.5 4.85833 11.5479 4.73958 11.6438 4.64375C11.7396 4.54792 11.8583 4.5 12 4.5C12.1417 4.5 12.2604 4.54792 12.3562 4.64375C12.4521 4.73958 12.5 4.85833 12.5 5V8.5H13.5V8C13.5 7.85833 13.5479 7.73958 13.6438 7.64375C13.7396 7.54792 13.8583 7.5 14 7.5C14.1417 7.5 14.2604 7.54792 14.3562 7.64375C14.4521 7.73958 14.5 7.85833 14.5 8V12.5C14.5 12.775 14.4021 13.0104 14.2063 13.2063C14.0104 13.4021 13.775 13.5 13.5 13.5H10.5C10.3583 13.5 10.2396 13.4521 10.1438 13.3562C10.0479 13.2604 10 13.1417 10 13V12C10 11.725 9.90208 11.4896 9.70625 11.2938C9.51042 11.0979 9.275 11 9 11C8.725 11 8.48958 11.0979 8.29375 11.2938C8.09792 11.4896 8 11.725 8 12V13C8 13.1417 7.95208 13.2604 7.85625 13.3562C7.76042 13.4521 7.64167 13.5 7.5 13.5H4.5C4.225 13.5 3.98958 13.4021 3.79375 13.2063C3.59792 13.0104 3.5 12.775 3.5 12.5ZM7.625 9H8.375C8.41667 9 8.44792 8.98958 8.46875 8.96875C8.48958 8.94792 8.5 8.91667 8.5 8.875V8C8.5 7.85833 8.45208 7.73958 8.35625 7.64375C8.26042 7.54792 8.14167 7.5 8 7.5C7.85833 7.5 7.73958 7.54792 7.64375 7.64375C7.54792 7.73958 7.5 7.85833 7.5 8V8.875C7.5 8.91667 7.51042 8.94792 7.53125 8.96875C7.55208 8.98958 7.58333 9 7.625 9ZM9.625 9H10.375C10.4167 9 10.4479 8.98958 10.4688 8.96875C10.4896 8.94792 10.5 8.91667 10.5 8.875V8C10.5 7.85833 10.4521 7.73958 10.3563 7.64375C10.2604 7.54792 10.1417 7.5 10 7.5C9.85833 7.5 9.73958 7.54792 9.64375 7.64375C9.54792 7.73958 9.5 7.85833 9.5 8V8.875C9.5 8.91667 9.51042 8.94792 9.53125 8.96875C9.55208 8.98958 9.58333 9 9.625 9Z" fill="white"/>
</svg>
