<svg width="18" height="18" viewBox="0 0 18 18" fill="none" xmlns="http://www.w3.org/2000/svg">
<circle cx="9" cy="9" r="8.5" fill="#808080" stroke="white"/>
<path d="M6.525 14C6.375 14 6.25633 13.9355 6.169 13.8065C6.08133 13.6772 6.07083 13.5417 6.1375 13.4L6.55 12.475C6.43333 12.3833 6.32083 12.2938 6.2125 12.2065C6.10417 12.1188 6 12.025 5.9 11.925C5.83333 11.95 5.76883 11.9687 5.7065 11.981C5.64383 11.9937 5.575 12 5.5 12C5.225 12 4.98967 11.9022 4.794 11.7065C4.598 11.5105 4.5 11.275 4.5 11C4.5 10.8333 4.5355 10.6812 4.6065 10.5435C4.67717 10.4062 4.775 10.2917 4.9 10.2C4.83333 10.0083 4.7875 9.8145 4.7625 9.6185C4.7375 9.42283 4.725 9.21667 4.725 9C4.725 8.78333 4.7375 8.577 4.7625 8.381C4.7875 8.18533 4.83333 7.99167 4.9 7.8C4.775 7.70833 4.67717 7.59367 4.6065 7.456C4.5355 7.31867 4.5 7.16667 4.5 7C4.5 6.725 4.598 6.48967 4.794 6.294C4.98967 6.098 5.225 6 5.5 6C5.575 6 5.64383 6.00617 5.7065 6.0185C5.76883 6.03117 5.83333 6.05 5.9 6.075C6.175 5.775 6.48967 5.525 6.844 5.325C7.198 5.125 7.575 4.975 7.975 4.875C8.01667 4.625 8.13133 4.41667 8.319 4.25C8.50633 4.08333 8.725 4 8.975 4C9.225 4 9.44383 4.08533 9.6315 4.256C9.81883 4.427 9.93333 4.63333 9.975 4.875C10.375 4.975 10.7522 5.12283 11.1065 5.3185C11.4605 5.5145 11.775 5.75833 12.05 6.05C12.1167 6.025 12.1792 6.00617 12.2375 5.9935C12.2958 5.98117 12.3583 5.975 12.425 5.975C12.7 5.975 12.9353 6.07283 13.131 6.2685C13.327 6.4645 13.425 6.7 13.425 6.975C13.425 7.14167 13.3917 7.2895 13.325 7.4185C13.2583 7.54783 13.1667 7.65833 13.05 7.75C13.1167 7.95 13.1625 8.15417 13.1875 8.3625C13.2125 8.57083 13.225 8.78333 13.225 9C13.225 9.21667 13.2125 9.427 13.1875 9.631C13.1625 9.83533 13.1167 10.0333 13.05 10.225C13.1667 10.3167 13.2583 10.4272 13.325 10.5565C13.3917 10.6855 13.425 10.8333 13.425 11C13.425 11.275 13.327 11.5105 13.131 11.7065C12.9353 11.9022 12.7 12 12.425 12C12.3583 12 12.2958 11.9937 12.2375 11.981C12.1792 11.9687 12.1167 11.95 12.05 11.925C11.95 12.025 11.8478 12.123 11.7435 12.219C11.6395 12.3147 11.525 12.4083 11.4 12.5L11.7875 13.4125C11.8542 13.5542 11.8437 13.6875 11.756 13.8125C11.6687 13.9375 11.55 14 11.4 14C11.3083 14 11.2292 13.975 11.1625 13.925C11.0958 13.875 11.0458 13.8125 11.0125 13.7375L10.65 12.9C10.5333 12.95 10.4208 12.9937 10.3125 13.031C10.2042 13.0687 10.0917 13.1 9.975 13.125C9.93333 13.3667 9.81883 13.573 9.6315 13.744C9.44383 13.9147 9.225 14 8.975 14C8.725 14 8.50633 13.9167 8.319 13.75C8.13133 13.5833 8.01667 13.375 7.975 13.125C7.85 13.1 7.73117 13.0687 7.6185 13.031C7.50617 12.9937 7.39167 12.95 7.275 12.9L6.9125 13.75C6.87917 13.8167 6.82717 13.875 6.7565 13.925C6.6855 13.975 6.60833 14 6.525 14ZM6.825 11.825L7.6 10.075C7.48333 9.925 7.39167 9.75833 7.325 9.575C7.25833 9.39167 7.225 9.2 7.225 9C7.225 8.525 7.39783 8.1145 7.7435 7.7685C8.0895 7.42283 8.5 7.25 8.975 7.25C9.45 7.25 9.8605 7.42283 10.2065 7.7685C10.5522 8.1145 10.725 8.525 10.725 9C10.725 9.2 10.6895 9.39583 10.6185 9.5875C10.5478 9.77917 10.45 9.95 10.325 10.1L11.1 11.825C11.175 11.7583 11.2478 11.698 11.3185 11.644C11.3895 11.5897 11.4583 11.525 11.525 11.45C11.4833 11.3833 11.4562 11.3103 11.4435 11.231C11.4312 11.152 11.425 11.075 11.425 11C11.425 10.7333 11.5167 10.5042 11.7 10.3125C11.8833 10.1208 12.1083 10.0167 12.375 10C12.425 9.83333 12.4625 9.66867 12.4875 9.506C12.5125 9.34367 12.525 9.175 12.525 9C12.525 8.825 12.5125 8.652 12.4875 8.481C12.4625 8.31033 12.425 8.14167 12.375 7.975C12.1083 7.95833 11.8833 7.85417 11.7 7.6625C11.5167 7.47083 11.425 7.24167 11.425 6.975C11.425 6.9 11.4355 6.827 11.4565 6.756C11.4772 6.68533 11.5 6.61667 11.525 6.55C11.2833 6.30833 11.0167 6.10417 10.725 5.9375C10.4333 5.77083 10.125 5.64167 9.8 5.55C9.70833 5.69167 9.59167 5.802 9.45 5.881C9.30833 5.96033 9.15 6 8.975 6C8.8 6 8.64167 5.96033 8.5 5.881C8.35833 5.802 8.24167 5.69167 8.15 5.55C7.80833 5.64167 7.49167 5.77283 7.2 5.9435C6.90833 6.1145 6.64167 6.325 6.4 6.575C6.425 6.64167 6.448 6.71033 6.469 6.781C6.48967 6.852 6.5 6.925 6.5 7C6.5 7.26667 6.4125 7.49367 6.2375 7.681C6.0625 7.86867 5.84167 7.975 5.575 8C5.525 8.16667 5.4875 8.33133 5.4625 8.494C5.4375 8.65633 5.425 8.825 5.425 9C5.425 9.175 5.4375 9.34367 5.4625 9.506C5.4875 9.66867 5.525 9.83333 5.575 10C5.84167 10.0167 6.0625 10.1208 6.2375 10.3125C6.4125 10.5042 6.5 10.7333 6.5 11C6.5 11.075 6.49367 11.148 6.481 11.219C6.46867 11.2897 6.44167 11.3583 6.4 11.425C6.46667 11.5 6.53533 11.5687 6.606 11.631L6.825 11.825ZM7.575 12.25C7.66667 12.2917 7.7605 12.3292 7.8565 12.3625C7.95217 12.3958 8.05 12.425 8.15 12.45C8.24167 12.3083 8.35833 12.198 8.5 12.119C8.64167 12.0397 8.8 12 8.975 12C9.15 12 9.30833 12.0397 9.45 12.119C9.59167 12.198 9.70833 12.3083 9.8 12.45C9.9 12.425 9.99383 12.3958 10.0815 12.3625C10.1688 12.3292 10.2583 12.2917 10.35 12.25L9.625 10.625C9.525 10.6667 9.42083 10.698 9.3125 10.719C9.20417 10.7397 9.09167 10.75 8.975 10.75C8.85 10.75 8.73117 10.7375 8.6185 10.7125C8.50617 10.6875 8.4 10.65 8.3 10.6L7.575 12.25Z" fill="white"/>
</svg>
