<svg width="18" height="18" viewBox="0 0 18 18" fill="none" xmlns="http://www.w3.org/2000/svg">
<circle cx="9" cy="9" r="8.5" fill="#808080" stroke="white"/>
<path d="M6.24994 13C6.10828 13 5.98944 12.952 5.89344 12.856C5.79778 12.7603 5.74994 12.6416 5.74994 12.5C5.74994 12.3583 5.79778 12.2396 5.89344 12.144C5.98944 12.048 6.10828 12 6.24994 12H6.74994V9.99997L4.26244 6.27497C4.14578 6.1083 4.13744 5.93747 4.23744 5.76247C4.33744 5.58747 4.48744 5.49997 4.68744 5.49997H9.81245C10.0124 5.49997 10.1624 5.58747 10.2624 5.76247C10.3624 5.93747 10.3541 6.1083 10.2374 6.27497L7.74994 9.99997V12H8.24994C8.39161 12 8.51045 12.048 8.60644 12.144C8.70211 12.2396 8.74994 12.3583 8.74994 12.5C8.74994 12.6416 8.70211 12.7603 8.60644 12.856C8.51045 12.952 8.39161 13 8.24994 13H6.24994ZM6.19994 7.49997H8.29994L8.99994 6.49997H5.49994L6.19994 7.49997ZM11.2499 13C10.8333 13 10.4791 12.8541 10.1874 12.5625C9.89578 12.2708 9.74995 11.9166 9.74995 11.5C9.74995 11.0833 9.89578 10.7291 10.1874 10.4375C10.4791 10.1458 10.8333 9.99997 11.2499 9.99997C11.3416 9.99997 11.4291 10.0061 11.5124 10.0185C11.5958 10.0311 11.6749 10.0583 11.7499 10.1V6.49997C11.7499 6.22497 11.8478 5.98964 12.0434 5.79397C12.2394 5.59797 12.4749 5.49997 12.7499 5.49997H13.4999C13.7083 5.49997 13.8853 5.57297 14.0309 5.71897C14.1769 5.86464 14.2499 6.04164 14.2499 6.24997C14.2499 6.4583 14.1769 6.6353 14.0309 6.78097C13.8853 6.92697 13.7083 6.99997 13.4999 6.99997H12.7499V11.5C12.7499 11.9166 12.6041 12.2708 12.3124 12.5625C12.0208 12.8541 11.6666 13 11.2499 13Z" fill="white"/>
</svg>
