<svg width="18" height="18" viewBox="0 0 18 18" fill="none" xmlns="http://www.w3.org/2000/svg">
<circle cx="9" cy="9" r="8.5" fill="#808080" stroke="white"/>
<path d="M4.75 14C4.60833 14 4.4895 13.952 4.3935 13.856C4.29783 13.7603 4.25 13.6417 4.25 13.5V10.25H4C3.85833 10.25 3.7395 10.202 3.6435 10.106C3.54783 10.0103 3.5 9.89167 3.5 9.75V7.5C3.5 7.225 3.598 6.9895 3.794 6.7935C3.98967 6.59783 4.225 6.5 4.5 6.5H6C6.275 6.5 6.5105 6.59783 6.7065 6.7935C6.90217 6.9895 7 7.225 7 7.5V9.75C7 9.89167 6.95217 10.0103 6.8565 10.106C6.7605 10.202 6.64167 10.25 6.5 10.25H6.25V13.5C6.25 13.6417 6.20217 13.7603 6.1065 13.856C6.0105 13.952 5.89167 14 5.75 14H4.75ZM12.475 14C12.3333 14 12.2147 13.952 12.119 13.856C12.023 13.7603 11.975 13.6417 11.975 13.5V11H11.1625C10.9958 11 10.8625 10.9312 10.7625 10.7935C10.6625 10.6562 10.6417 10.5042 10.7 10.3375L11.75 7.175C11.8167 6.95833 11.9397 6.79167 12.119 6.675C12.298 6.55833 12.5 6.5 12.725 6.5C12.95 6.5 13.152 6.55833 13.331 6.675C13.5103 6.79167 13.6333 6.95833 13.7 7.175L14.75 10.3375C14.8083 10.5042 14.7875 10.6562 14.6875 10.7935C14.5875 10.9312 14.4542 11 14.2875 11H13.475V13.5C13.475 13.6417 13.427 13.7603 13.331 13.856C13.2353 13.952 13.1167 14 12.975 14H12.475ZM5.25 6C4.975 6 4.73967 5.902 4.544 5.706C4.348 5.51033 4.25 5.275 4.25 5C4.25 4.725 4.348 4.4895 4.544 4.2935C4.73967 4.09783 4.975 4 5.25 4C5.525 4 5.7605 4.09783 5.9565 4.2935C6.15217 4.4895 6.25 4.725 6.25 5C6.25 5.275 6.15217 5.51033 5.9565 5.706C5.7605 5.902 5.525 6 5.25 6ZM12.725 6C12.45 6 12.2147 5.902 12.019 5.706C11.823 5.51033 11.725 5.275 11.725 5C11.725 4.725 11.823 4.4895 12.019 4.2935C12.2147 4.09783 12.45 4 12.725 4C13 4 13.2355 4.09783 13.4315 4.2935C13.6272 4.4895 13.725 4.725 13.725 5C13.725 5.275 13.6272 5.51033 13.4315 5.706C13.2355 5.902 13 6 12.725 6Z" fill="white"/>
<path d="M8.5 4.5C8.5 4.22386 8.72386 4 9 4C9.27614 4 9.5 4.22386 9.5 4.5V13.5C9.5 13.7761 9.27614 14 9 14C8.72386 14 8.5 13.7761 8.5 13.5V4.5Z" fill="white"/>
</svg>
