<svg width="10" height="12" viewBox="0 0 10 12" fill="none" xmlns="http://www.w3.org/2000/svg">
<path d="M2 11.0005C1.85833 11.0005 1.7395 10.9525 1.6435 10.8565C1.54783 10.7608 1.5 10.6421 1.5 10.5005C1.5 10.3588 1.54783 10.2401 1.6435 10.1445C1.7395 10.0485 1.85833 10.0005 2 10.0005H4.5V8.00046H3.5C2.80833 8.00046 2.21883 7.75663 1.7315 7.26896C1.24383 6.78163 1 6.19213 1 5.50046C1 5.00046 1.1375 4.53996 1.4125 4.11896C1.6875 3.69829 2.05833 3.39213 2.525 3.20046C2.6 2.57546 2.873 2.05246 3.344 1.63146C3.81467 1.21079 4.36667 1.00046 5 1.00046C5.63333 1.00046 6.18533 1.21079 6.656 1.63146C7.127 2.05246 7.4 2.57546 7.475 3.20046C7.94167 3.39213 8.3125 3.69829 8.5875 4.11896C8.8625 4.53996 9 5.00046 9 5.50046C9 6.19213 8.75633 6.78163 8.269 7.26896C7.78133 7.75663 7.19167 8.00046 6.5 8.00046H5.5V10.0005H8C8.14167 10.0005 8.26033 10.0485 8.356 10.1445C8.452 10.2401 8.5 10.3588 8.5 10.5005C8.5 10.6421 8.452 10.7608 8.356 10.8565C8.26033 10.9525 8.14167 11.0005 8 11.0005H2Z" fill="#808080"/>
<path fill-rule="evenodd" clip-rule="evenodd" d="M0.575484 3.57178C0.8568 3.14145 1.21478 2.79239 1.64093 2.53089C1.8189 1.89602 2.1682 1.34119 2.67758 0.885886C3.33221 0.30079 4.12171 0.000457764 5 0.000457764C5.87829 0.000457764 6.66776 0.300762 7.32239 0.885858C7.83177 1.34116 8.1811 1.89602 8.35908 2.53089C8.78522 2.79239 9.1432 3.14145 9.42452 3.57178C9.80509 4.15441 10 4.80505 10 5.50046C10 6.45627 9.65173 7.30044 8.97611 7.97607C8.30029 8.65188 7.45602 9.00046 6.5 9.00046H8C8.39352 9.00046 8.77071 9.14459 9.06311 9.43735C9.35587 9.72975 9.5 10.1069 9.5 10.5005C9.5 10.894 9.35587 11.2712 9.06311 11.5636C8.77071 11.8563 8.39352 12.0005 8 12.0005H2C1.60597 12.0005 1.22883 11.856 0.936393 11.5636C0.643576 11.2707 0.5 10.8934 0.5 10.5005C0.5 10.1075 0.643576 9.73017 0.936393 9.43735C1.22883 9.14492 1.60597 9.00046 2 9.00046H3.5C2.5442 9.00046 1.70013 8.65203 1.02463 7.97631C0.348916 7.30081 0 6.45626 0 5.50046C0 4.80505 0.194909 4.15441 0.575484 3.57178ZM8.356 10.8565C8.452 10.7608 8.5 10.6421 8.5 10.5005C8.5 10.3588 8.452 10.2401 8.356 10.1445C8.26033 10.0485 8.14167 10.0005 8 10.0005H5.5V8.00046H6.5C7.19167 8.00046 7.78133 7.75663 8.269 7.26896C8.75633 6.78163 9 6.19213 9 5.50046C9 5.00046 8.8625 4.53996 8.5875 4.11896C8.3125 3.69829 7.94167 3.39213 7.475 3.20046C7.4 2.57546 7.127 2.05246 6.656 1.63146C6.18533 1.21079 5.63333 1.00046 5 1.00046C4.36667 1.00046 3.81467 1.21079 3.344 1.63146C2.873 2.05246 2.6 2.57546 2.525 3.20046C2.05833 3.39213 1.6875 3.69829 1.4125 4.11896C1.1375 4.53996 1 5.00046 1 5.50046C1 6.19213 1.24383 6.78163 1.7315 7.26896C2.21883 7.75663 2.80833 8.00046 3.5 8.00046H4.5V10.0005H2C1.85833 10.0005 1.7395 10.0485 1.6435 10.1445C1.54783 10.2401 1.5 10.3588 1.5 10.5005C1.5 10.6421 1.54783 10.7608 1.6435 10.8565C1.7395 10.9525 1.85833 11.0005 2 11.0005H8C8.14167 11.0005 8.26033 10.9525 8.356 10.8565Z" fill="white"/>
</svg>
