<svg width="10" height="13" viewBox="0 0 10 13" fill="none" xmlns="http://www.w3.org/2000/svg">
<path fill-rule="evenodd" clip-rule="evenodd" d="M8.194 11.9628C8.11407 11.9964 8.02678 12.0086 7.9407 11.9982C7.85461 11.9879 7.7727 11.9553 7.703 11.9038L5 9.93778L2.297 11.9038L2.28 11.9158C2.18718 11.9795 2.07543 12.0098 1.96311 12.0017C1.85079 11.9935 1.7446 11.9473 1.662 11.8708C1.59513 11.8094 1.54621 11.731 1.52049 11.644C1.49477 11.557 1.49322 11.4646 1.516 11.3768L2.356 8.01578L2.337 8.00178H1.5C1.36739 8.00178 1.24021 7.9491 1.14645 7.85533C1.05268 7.76156 1 7.63438 1 7.50178C1 7.36917 1.05268 7.24199 1.14645 7.14822C1.24021 7.05446 1.36739 7.00178 1.5 7.00178H8.5C8.63261 7.00178 8.75979 7.05446 8.85355 7.14822C8.94732 7.24199 9 7.36917 9 7.50178C9 7.63438 8.94732 7.76156 8.85355 7.85533C8.75979 7.9491 8.63261 8.00178 8.5 8.00178H7.663L7.643 8.01578L8.484 11.3768C8.5017 11.4454 8.50461 11.517 8.49254 11.5868C8.48047 11.6566 8.4537 11.7231 8.414 11.7818C8.35977 11.8622 8.28333 11.9251 8.194 11.9628ZM6.772 8.64978L5.85 9.31978L7.181 10.2878L6.772 8.64978ZM4.15 9.31978L2.819 10.2878L3.229 8.64978L4.15 9.31978ZM5 8.70178L5.962 8.00178H4.038L5 8.70178ZM4.705 1.09178C4.79176 1.03201 4.89464 1 5 1C5.10536 1 5.20824 1.03201 5.295 1.09178L8.3 3.17078C8.683 3.43578 8.482 4.00278 8.005 4.00278H7.5V5.50278C7.49974 5.63521 7.44694 5.76213 7.3532 5.85568C7.25946 5.94924 7.13244 6.00178 7 6.00178H3C2.86739 6.00178 2.74021 5.9491 2.64645 5.85533C2.55268 5.76156 2.5 5.63438 2.5 5.50178V4.00178H1.996C1.519 4.00178 1.318 3.43478 1.701 3.16978L4.705 1.09178ZM4.292 4.77378C4.48667 4.96578 4.72267 5.06144 5 5.06078C5.13129 5.06335 5.26174 5.03925 5.38344 4.98991C5.50514 4.94058 5.61556 4.86705 5.708 4.77378C5.80214 4.68341 5.87665 4.57462 5.92689 4.45418C5.97713 4.33375 6.00201 4.20425 6 4.07378C6.00032 3.94417 5.97411 3.81588 5.923 3.69678C5.819 3.45178 5.677 3.27378 5.533 3.09278C5.39571 2.93252 5.27571 2.75822 5.175 2.57278C5.15037 2.55101 5.12233 2.53345 5.092 2.52078C5.06284 2.50867 5.03157 2.50244 5 2.50244C4.96843 2.50244 4.93716 2.50867 4.908 2.52078C4.8776 2.53375 4.84956 2.55166 4.825 2.57378C4.72454 2.75883 4.60488 2.93278 4.468 3.09278C4.323 3.27378 4.181 3.45178 4.077 3.69678C4.02589 3.81588 3.99968 3.94417 4 4.07378C4 4.34844 4.09733 4.58178 4.292 4.77378Z" fill="#808080"/>
<path fill-rule="evenodd" clip-rule="evenodd" d="M8.58301 12.884L8.58131 12.8847C8.3415 12.9855 8.07963 13.0221 7.82139 12.9911C7.56486 12.9603 7.32066 12.8637 7.11245 12.7108L5 11.1743L2.87946 12.7167L2.84632 12.7401C2.56637 12.9324 2.22925 13.0237 1.89049 12.999C1.5526 12.9744 1.23311 12.8359 0.984248 12.6061C0.784538 12.4223 0.638424 12.1877 0.561494 11.9275C0.484866 11.6682 0.479748 11.393 0.546629 11.1312L1.09289 8.94548C0.848005 8.87641 0.622441 8.74554 0.43934 8.56244C0.158035 8.28113 0 7.8996 0 7.50178C0 7.10395 0.158035 6.72242 0.43934 6.44112C0.720644 6.15981 1.10217 6.00178 1.5 6.00178H1.58579C1.52953 5.84267 1.5 5.67375 1.5 5.50178V4.92105C1.0644 4.77324 0.731108 4.43569 0.583483 4.01931C0.379958 3.44525 0.546583 2.75249 1.13201 2.34743L4.13769 0.268269C4.39131 0.0935536 4.69202 0 5 0C5.30798 0 5.60869 0.0935536 5.86231 0.268271L5.86396 0.269406L8.86895 2.34841C9.45438 2.75347 9.62104 3.44625 9.41752 4.02031C9.26978 4.43701 8.93609 4.77476 8.5 4.92239V5.50478C8.49966 5.67572 8.47014 5.84361 8.41422 6.00178H8.5C8.89783 6.00178 9.27936 6.15981 9.56066 6.44112C9.84196 6.72242 10 7.10395 10 7.50178C10 7.8996 9.84196 8.28113 9.56066 8.56244C9.37741 8.74569 9.15162 8.87663 8.90651 8.94565L9.45346 11.1315C9.50553 11.336 9.51387 11.5492 9.47793 11.7571C9.44172 11.9666 9.36141 12.166 9.24231 12.342C9.07967 12.5827 8.85063 12.771 8.58301 12.884ZM7.703 11.9038C7.7727 11.9553 7.85461 11.9879 7.9407 11.9982C8.02678 12.0086 8.11407 11.9964 8.194 11.9628C8.28333 11.9251 8.35977 11.8622 8.414 11.7818C8.4537 11.7231 8.48047 11.6566 8.49254 11.5868C8.50327 11.5247 8.50216 11.4612 8.48932 11.3996C8.48773 11.392 8.48595 11.3844 8.484 11.3768L7.643 8.01578L7.663 8.00178H8.5C8.55617 8.00178 8.61136 7.99233 8.66345 7.97431C8.73435 7.94978 8.7995 7.90938 8.85355 7.85533C8.94732 7.76156 9 7.63439 9 7.50178C9 7.36917 8.94732 7.24199 8.85355 7.14822C8.85089 7.14556 8.8482 7.14293 8.84548 7.14033C8.75255 7.0515 8.62884 7.00178 8.5 7.00178H1.5C1.37116 7.00178 1.24745 7.0515 1.15452 7.14033C1.1518 7.14293 1.14911 7.14556 1.14645 7.14822C1.05268 7.24199 1 7.36917 1 7.50178C1 7.63439 1.05268 7.76156 1.14645 7.85533C1.20028 7.90916 1.26512 7.94945 1.33568 7.97401C1.38803 7.99222 1.44352 8.00178 1.5 8.00178H2.337L2.356 8.01578L1.516 11.3768C1.49322 11.4646 1.49477 11.557 1.52049 11.644C1.54621 11.731 1.59513 11.8094 1.662 11.8708C1.7446 11.9473 1.85079 11.9935 1.96311 12.0017C2.07543 12.0098 2.18718 11.9795 2.28 11.9158L2.297 11.9038L5.00049 9.93814L7.703 11.9038ZM4.03812 8.00178L4.99963 8.70151L5.962 8.00178H4.03812ZM5.8502 9.31963L7.1806 10.2875L6.772 8.64978L5.8502 9.31963ZM3.229 8.64978L2.81906 10.2875L4.14985 9.31989L3.229 8.64978ZM7.5 4.00278H8.005C8.482 4.00278 8.683 3.43578 8.3 3.17078L5.295 1.09178C5.20824 1.03201 5.10536 1 5 1C4.89464 1 4.79176 1.03201 4.705 1.09178L1.701 3.16978C1.318 3.43478 1.519 4.00178 1.996 4.00178H2.5V5.50178C2.5 5.63439 2.55268 5.76156 2.64645 5.85533C2.74021 5.9491 2.86739 6.00178 3 6.00178H7C7.13244 6.00178 7.25946 5.94924 7.3532 5.85568C7.44694 5.76213 7.49974 5.63521 7.5 5.50278V4.00278ZM4.64689 5.00178C4.75603 5.04141 4.87373 5.06108 5 5.06078C5.1203 5.06314 5.23989 5.0431 5.35269 5.00178C5.363 4.998 5.37325 4.99404 5.38344 4.98991C5.50514 4.94058 5.61556 4.86705 5.708 4.77378C5.80214 4.68341 5.87665 4.57462 5.92689 4.45418C5.97713 4.33375 6.00201 4.20425 6 4.07378C6.00032 3.94417 5.97411 3.81588 5.923 3.69678C5.83965 3.50041 5.73188 3.34709 5.61824 3.20077C5.59069 3.16529 5.5628 3.13023 5.53482 3.09507L5.533 3.09278C5.46914 3.01823 5.40902 2.94065 5.35285 2.86033C5.28825 2.76796 5.22887 2.67196 5.175 2.57278C5.15037 2.55101 5.12233 2.53345 5.092 2.52078C5.06284 2.50867 5.03157 2.50244 5 2.50244C4.96843 2.50244 4.93716 2.50867 4.908 2.52078C4.8776 2.53375 4.84956 2.55166 4.825 2.57378C4.77176 2.67185 4.71312 2.76682 4.64938 2.85824C4.59286 2.9393 4.53233 3.01758 4.468 3.09278C4.43924 3.12868 4.41059 3.16447 4.38234 3.20068C4.26816 3.34703 4.16037 3.50038 4.077 3.69678C4.02589 3.81588 3.99968 3.94417 4 4.07378C4 4.34844 4.09733 4.58178 4.292 4.77378C4.39803 4.87836 4.51633 4.95436 4.64689 5.00178Z" fill="white"/>
</svg>
