<svg width="18" height="18" viewBox="0 0 18 18" fill="none" xmlns="http://www.w3.org/2000/svg">
<circle cx="9" cy="9" r="8.5" fill="#808080" stroke="white"/>
<path d="M5.25 9.06207C4.9 9.06207 4.60417 8.94124 4.3625 8.69957C4.12083 8.45791 4 8.16207 4 7.81207C4 7.46207 4.12083 7.16624 4.3625 6.92457C4.60417 6.68291 4.9 6.56207 5.25 6.56207C5.6 6.56207 5.89583 6.68291 6.1375 6.92457C6.37917 7.16624 6.5 7.46207 6.5 7.81207C6.5 8.16207 6.37917 8.45791 6.1375 8.69957C5.89583 8.94124 5.6 9.06207 5.25 9.06207ZM7.5 7.06207C7.15 7.06207 6.85417 6.94124 6.6125 6.69957C6.37083 6.45791 6.25 6.16207 6.25 5.81207C6.25 5.46207 6.37083 5.16624 6.6125 4.92457C6.85417 4.68291 7.15 4.56207 7.5 4.56207C7.85 4.56207 8.14583 4.68291 8.3875 4.92457C8.62917 5.16624 8.75 5.46207 8.75 5.81207C8.75 6.16207 8.62917 6.45791 8.3875 6.69957C8.14583 6.94124 7.85 7.06207 7.5 7.06207ZM10.5 7.06207C10.15 7.06207 9.85417 6.94124 9.6125 6.69957C9.37083 6.45791 9.25 6.16207 9.25 5.81207C9.25 5.46207 9.37083 5.16624 9.6125 4.92457C9.85417 4.68291 10.15 4.56207 10.5 4.56207C10.85 4.56207 11.1458 4.68291 11.3875 4.92457C11.6292 5.16624 11.75 5.46207 11.75 5.81207C11.75 6.16207 11.6292 6.45791 11.3875 6.69957C11.1458 6.94124 10.85 7.06207 10.5 7.06207ZM12.75 9.06207C12.4 9.06207 12.1042 8.94124 11.8625 8.69957C11.6208 8.45791 11.5 8.16207 11.5 7.81207C11.5 7.46207 11.6208 7.16624 11.8625 6.92457C12.1042 6.68291 12.4 6.56207 12.75 6.56207C13.1 6.56207 13.3958 6.68291 13.6375 6.92457C13.8792 7.16624 14 7.46207 14 7.81207C14 8.16207 13.8792 8.45791 13.6375 8.69957C13.3958 8.94124 13.1 9.06207 12.75 9.06207ZM6.325 14.0621C5.95 14.0621 5.6355 13.9182 5.3815 13.6306C5.12717 13.3432 5 13.0037 5 12.6121C5 12.1787 5.148 11.7996 5.444 11.4746C5.73967 11.1496 6.03333 10.8287 6.325 10.5121C6.56667 10.2537 6.775 9.97241 6.95 9.66807C7.125 9.36407 7.33333 9.07874 7.575 8.81207C7.75833 8.59541 7.97083 8.41624 8.2125 8.27457C8.45417 8.13291 8.71667 8.06207 9 8.06207C9.28333 8.06207 9.54583 8.12874 9.7875 8.26207C10.0292 8.39541 10.2417 8.57041 10.425 8.78707C10.6583 9.05374 10.8645 9.34124 11.0435 9.64957C11.2228 9.95791 11.4333 10.2454 11.675 10.5121C11.9667 10.8287 12.2605 11.1496 12.5565 11.4746C12.8522 11.7996 13 12.1787 13 12.6121C13 13.0037 12.873 13.3432 12.619 13.6306C12.3647 13.9182 12.05 14.0621 11.675 14.0621C11.225 14.0621 10.7792 14.0246 10.3375 13.9496C9.89583 13.8746 9.45 13.8371 9 13.8371C8.55 13.8371 8.10417 13.8746 7.6625 13.9496C7.22083 14.0246 6.775 14.0621 6.325 14.0621Z" fill="white"/>
</svg>
