<svg width="18" height="18" viewBox="0 0 18 18" fill="none" xmlns="http://www.w3.org/2000/svg">
<circle cx="9" cy="9" r="8.5" fill="#808080" stroke="white"/>
<path d="M6.5 9.5V8.5C6.5 8.075 6.375 7.68533 6.125 7.331C5.875 6.977 5.5 6.7625 5 6.6875V6C5 5.58333 5.14583 5.22917 5.4375 4.9375C5.72917 4.64583 6.08333 4.5 6.5 4.5H11.5C11.9167 4.5 12.2708 4.64583 12.5625 4.9375C12.8542 5.22917 13 5.58333 13 6V6.6875C12.5 6.8125 12.125 7.03967 11.875 7.369C11.625 7.698 11.5 8.075 11.5 8.5V9.5H6.5ZM5.5 13.5C5.35833 13.5 5.2395 13.452 5.1435 13.356C5.04783 13.2603 5 13.1417 5 13V12.5C4.58333 12.5 4.22917 12.3542 3.9375 12.0625C3.64583 11.7708 3.5 11.4167 3.5 11V8.5C3.5 8.20833 3.59367 7.96867 3.781 7.781C3.96867 7.59367 4.20833 7.5 4.5 7.5C4.79167 7.5 5.03133 7.59367 5.219 7.781C5.40633 7.96867 5.5 8.20833 5.5 8.5V10.5H12.5V8.5C12.5 8.20833 12.5937 7.96867 12.781 7.781C12.9687 7.59367 13.2083 7.5 13.5 7.5C13.7917 7.5 14.0313 7.59367 14.219 7.781C14.4063 7.96867 14.5 8.20833 14.5 8.5V11C14.5 11.4167 14.3542 11.7708 14.0625 12.0625C13.7708 12.3542 13.4167 12.5 13 12.5V13C13 13.1417 12.952 13.2603 12.856 13.356C12.7603 13.452 12.6417 13.5 12.5 13.5C12.3583 13.5 12.2397 13.452 12.144 13.356C12.048 13.2603 12 13.1417 12 13V12.5H6V13C6 13.1417 5.95217 13.2603 5.8565 13.356C5.7605 13.452 5.64167 13.5 5.5 13.5Z" fill="white"/>
</svg>
