<svg width="16" height="16" version="1.1" viewBox="0 0 16 16" xmlns="http://www.w3.org/2000/svg">
 <path d="m1.3546 2.3516c0-0.27614 0.22386-0.5 0.5-0.5h1c0.27614 0 0.5 0.22386 0.5 0.5v11c0 0.2761-0.22386 0.5-0.5 0.5h-1c-0.27614 0-0.5-0.2239-0.5-0.5z" fill="#808080"/>
 <path d="m1.8546 0.8516h1c0.82843 0 1.5 0.67157 1.5 1.5v11c0 0.8284-0.67157 1.5-1.5 1.5h-1c-0.82843 0-1.5-0.6716-1.5-1.5v-11c0-0.82843 0.67157-1.5 1.5-1.5zm0 1c-0.27614 0-0.5 0.22386-0.5 0.5v11c0 0.2761 0.22386 0.5 0.5 0.5h1c0.27614 0 0.5-0.2239 0.5-0.5v-11c0-0.27614-0.22386-0.5-0.5-0.5z" clip-rule="evenodd" fill="#ffffff" fill-rule="evenodd"/>
 <path d="m12.846 2.2853c0-0.27614 0.2239-0.5 0.5-0.5h1c0.2762 0 0.5 0.22386 0.5 0.5v11c0 0.2761-0.2238 0.5-0.5 0.5h-1c-0.2761 0-0.5-0.2239-0.5-0.5z" fill="#808080"/>
 <path d="m13.346 0.78531h1c0.8284 0 1.5 0.67157 1.5 1.5v11c0 0.8284-0.6716 1.5-1.5 1.5h-1c-0.8284 0-1.5-0.6716-1.5-1.5v-11c0-0.82843 0.6716-1.5 1.5-1.5zm0 1c-0.2761 0-0.5 0.22386-0.5 0.5v11c0 0.2761 0.2239 0.5 0.5 0.5h1c0.2762 0 0.5-0.2239 0.5-0.5v-11c0-0.27614-0.2238-0.5-0.5-0.5z" clip-rule="evenodd" fill="#ffffff" fill-rule="evenodd"/>
 <path d="m8.0694 11.549-0.0019 1.6785m0.03315-9.0848 0.020201-1.8248m1.2976 2.4268c-0.80541-0.80392-1.9513-0.58133-2.4295-0.16119-0.64949 0.57069-0.8416 1.6332-0.15394 2.3938 0.78089 0.86372 1.885 0.82699 2.4621 1.6894 0.44726 0.66846 0.66804 1.7057 0.0637 2.3212-0.60156 0.61267-2.2118 0.79421-2.7713-0.01301" fill="none" stroke="#ffffff" stroke-linecap="round" stroke-linejoin="round" stroke-width="2.907" style="paint-order:stroke markers fill"/>
 <path d="m8.0694 11.549 0.020201 1.7338m0.011049-9.14 0.00915-1.9132m1.3087 2.5152c-0.80541-0.80392-1.9513-0.58133-2.4295-0.16119-0.64949 0.57069-0.8416 1.6332-0.15394 2.3938 0.78089 0.86372 2.0729 0.91538 2.5505 1.6342 0.44511 0.6699 0.57965 1.761-0.024688 2.3764-0.60156 0.61267-2.2118 0.79421-2.7713-0.01301" fill="none" stroke="#7f7f7f" stroke-linecap="round" stroke-linejoin="round" stroke-width="1.3039" style="paint-order:stroke markers fill"/>
</svg>
