<?xml version="1.0" encoding="UTF-8"?>
<svg width="18" height="18" version="1.1" viewBox="0 0 18 18" xmlns="http://www.w3.org/2000/svg">
 <circle cx="9" cy="9" r="8.5" fill="#808080" stroke="white"/>
 <path d="m2.7656 7.1719 12.688 0.015625" fill="none" stroke="#ffffff" stroke-linecap="round" stroke-linejoin="round" stroke-width="1.5" style="paint-order:fill markers stroke"/>
 <path d="m13.287 5.2009c-0.56029 0.074093-0.956 0.19148-1.2559 0.44531s-0.40048 0.66844-0.36719 0.9707c0.03329 0.30226 0.13514 0.54637 0.21094 0.76758 0.0758 0.2212 0.12498 0.41161 0.12305 0.53906 0.0015-0.097782-0.07812 0.20609-0.23438 0.50977-0.15625 0.30367-0.3552 0.67376-0.49414 1.0723-0.17812 0.51089-0.04899 0.98943 0.07617 1.3477 0.06258 0.17912 0.12854 0.33595 0.17188 0.45117 0.04334 0.11522 0.04994 0.20264 0.05078 0.13867a0.5 0.5 0 0 0 0.49414 0.50781 0.5 0.5 0 0 0 0.50586-0.49414c3e-3 -0.22832-0.05897-0.35951-0.11328-0.50391-0.05431-0.14439-0.11486-0.28692-0.16406-0.42774-0.09839-0.28163-0.13412-0.52886-0.07813-0.68945 0.10248-0.29391 0.27871-0.63292 0.43945-0.94531s0.33934-0.5315 0.3457-0.95117c0.0052-0.34443-0.09225-0.63516-0.17578-0.87891-0.08353-0.24375-0.15257-0.44835-0.16406-0.55273-0.0115-0.10438-0.03139-0.054551 0.01953-0.097656s0.27315-0.15503 0.74023-0.2168a0.5 0.5 0 0 0 0.43164-0.56055 0.5 0.5 0 0 0-0.5625-0.43164z" color="#000000" fill="#ffffff" stroke="#808080" stroke-linecap="round" stroke-linejoin="round" stroke-width=".3" style="paint-order:fill markers stroke"/>
 <path d="m7.3496 5.2441c-0.56029 0.074093-0.956 0.19148-1.2559 0.44531s-0.40048 0.66844-0.36719 0.9707c0.033289 0.30226 0.13514 0.54637 0.21094 0.76758 0.0758 0.2212 0.12498 0.41161 0.12305 0.53906 0.00148-0.097782-0.078123 0.20609-0.23438 0.50977-0.15625 0.30367-0.3552 0.67376-0.49414 1.0723-0.17812 0.51089-0.048985 0.98943 0.076172 1.3477 0.062579 0.17912 0.12854 0.33595 0.17188 0.45117 0.043339 0.11522 0.049938 0.20264 0.050781 0.13867a0.5 0.5 0 0 0 0.49414 0.50781 0.5 0.5 0 0 0 0.50586-0.49414c0.0030097-0.22832-0.058968-0.35951-0.11328-0.50391-0.054313-0.14439-0.11487-0.28692-0.16406-0.42774-0.098394-0.28163-0.13412-0.52886-0.078125-0.68945 0.10248-0.29391 0.27871-0.63292 0.43945-0.94531 0.16074-0.3124 0.33934-0.53151 0.3457-0.95117 0.0052219-0.34443-0.092255-0.63516-0.17578-0.87891s-0.15257-0.44835-0.16406-0.55273c-0.011496-0.10438-0.031389-0.054551 0.019531-0.097656 0.05092-0.043105 0.27315-0.15503 0.74023-0.2168a0.5 0.5 0 0 0 0.43164-0.56055 0.5 0.5 0 0 0-0.5625-0.43164z" color="#000000" fill="#ffffff" stroke="#808080" stroke-linecap="round" stroke-linejoin="round" stroke-width=".3" style="paint-order:fill markers stroke"/>
 <path d="m3.875 14.188c0.40369-0.59434 0.76315-0.86983 1.5518-0.8553 0.87673 0.01615 1.0285 0.87041 1.815 0.88714 0.82219 0.01748 0.98457-0.91976 1.9427-0.90637 0.85704 0.01197 0.86167 0.84094 1.7382 0.88544 1.092 0.05543 0.87715-0.85117 1.9893-0.8817 0.94084-0.0047 1.0115 0.40284 1.338 0.8708" fill="none" stroke="#ffffff" stroke-linecap="round" stroke-linejoin="round" stroke-width=".8" style="paint-order:fill markers stroke"/>
 <path d="m10.359 5.1788c-0.56029 0.074093-0.956 0.19148-1.2559 0.44531s-0.40048 0.66844-0.36719 0.9707c0.033289 0.30226 0.13514 0.54637 0.21094 0.76758 0.0758 0.2212 0.12498 0.41161 0.12305 0.53906 0.00148-0.097782-0.078123 0.20609-0.23438 0.50977-0.15625 0.30367-0.3552 0.67376-0.49414 1.0723-0.17812 0.51089-0.048985 0.98943 0.076172 1.3477 0.062579 0.17912 0.12854 0.33595 0.17188 0.45117 0.043339 0.11522 0.049938 0.20264 0.050781 0.13867a0.5 0.5 0 0 0 0.49414 0.50781 0.5 0.5 0 0 0 0.50586-0.49414c0.0030097-0.22832-0.058968-0.35951-0.11328-0.50391-0.054313-0.14439-0.11487-0.28692-0.16406-0.42774-0.098394-0.28163-0.13412-0.52886-0.078125-0.68945 0.10248-0.29391 0.27871-0.63292 0.43945-0.94531 0.16074-0.3124 0.33934-0.53151 0.3457-0.95117 0.005222-0.34443-0.092254-0.63516-0.17578-0.87891s-0.15257-0.44835-0.16406-0.55273c-0.011496-0.10438-0.031389-0.054551 0.019531-0.097656 0.05092-0.043105 0.27315-0.15503 0.74023-0.2168a0.5 0.5 0 0 0 0.43164-0.56055 0.5 0.5 0 0 0-0.5625-0.43164z" color="#000000" fill="#ffffff" stroke="#808080" stroke-linecap="round" stroke-linejoin="round" stroke-width=".3" style="paint-order:fill markers stroke"/>
 <path d="m3.7812 12.343c0.40369-0.59434 0.76315-0.86983 1.5518-0.8553 0.87673 0.01615 1.0285 0.87041 1.815 0.88714 0.82219 0.01748 0.98457-0.91976 1.9427-0.90637 0.85704 0.01197 0.86167 0.84094 1.7382 0.88544 1.092 0.05543 0.87715-0.85117 1.9893-0.8817 0.94084-0.0047 1.0115 0.40284 1.338 0.8708" fill="none" stroke="#ffffff" stroke-linecap="round" stroke-linejoin="round" stroke-width=".8" style="paint-order:fill markers stroke"/>
</svg>
