<svg width="18" height="18" viewBox="0 0 18 18" fill="none" xmlns="http://www.w3.org/2000/svg">
<path d="M5.28222 6.34444C4.98889 6.05112 4.98889 5.57554 5.28222 5.28222C5.57554 4.98889 6.05112 4.98889 6.34444 5.28222L9 7.93778L11.6556 5.28222C11.9489 4.98889 12.4245 4.98889 12.7178 5.28222C13.0111 5.57554 13.0111 6.05112 12.7178 6.34444L10.0622 9L12.7178 11.6556C13.0111 11.9489 13.0111 12.4245 12.7178 12.7178C12.4245 13.0111 11.9489 13.0111 11.6556 12.7178L9 10.0622L6.34444 12.7178C6.05112 13.0111 5.57554 13.0111 5.28222 12.7178C4.98889 12.4245 4.98889 11.9489 5.28222 11.6556L7.93778 9L5.28222 6.34444Z" fill="#808080"/>
<path fill-rule="evenodd" clip-rule="evenodd" d="M9 7.93778L6.34444 5.28222C6.05112 4.98889 5.57554 4.98889 5.28222 5.28222C4.98889 5.57554 4.98889 6.05112 5.28222 6.34444L7.93778 9L5.28222 11.6556C4.98889 11.9489 4.98889 12.4245 5.28222 12.7178C5.57554 13.0111 6.05112 13.0111 6.34444 12.7178L9 10.0622L11.6556 12.7178C11.9489 13.0111 12.4245 13.0111 12.7178 12.7178C13.0111 12.4245 13.0111 11.9489 12.7178 11.6556L10.0622 9L12.7178 6.34444C13.0111 6.05112 13.0111 5.57554 12.7178 5.28222C12.4245 4.98889 11.9489 4.98889 11.6556 5.28222L9 7.93778ZM9 6.43557L7.09555 4.53111C6.3874 3.82296 5.23926 3.82296 4.53111 4.53111C3.82296 5.23926 3.82296 6.3874 4.53111 7.09555L6.43557 9L4.53111 10.9045C3.82296 11.6126 3.82296 12.7607 4.53111 13.4689C5.23926 14.177 6.3874 14.177 7.09555 13.4689L9 11.5644L10.9045 13.4689C11.6126 14.177 12.7607 14.177 13.4689 13.4689C14.177 12.7607 14.177 11.6126 13.4689 10.9045L11.5644 9L13.4689 7.09555C14.177 6.3874 14.177 5.23926 13.4689 4.53111C12.7607 3.82296 11.6126 3.82296 10.9045 4.53111L9 6.43557Z" fill="white"/>
</svg>
