<svg width="18" height="18" viewBox="0 0 18 18" fill="none" xmlns="http://www.w3.org/2000/svg">
<circle cx="9" cy="9" r="8.5" fill="#808080" stroke="white"/>
<path d="M8.79258 10.8543C8.60428 10.8543 8.44512 10.7893 8.31511 10.6593C8.1851 10.5292 8.12009 10.3701 8.12009 10.1818C8.12009 9.99349 8.1851 9.83433 8.31511 9.70432C8.44512 9.5743 8.60428 9.50929 8.79258 9.50929C8.98087 9.50929 9.14003 9.5743 9.27005 9.70432C9.40006 9.83433 9.46507 9.99349 9.46507 10.1818C9.46507 10.3701 9.40006 10.5292 9.27005 10.6593C9.14003 10.7893 8.98087 10.8543 8.79258 10.8543ZM10.0031 9.77829C9.81476 9.77829 9.65561 9.71328 9.52559 9.58327C9.39558 9.45325 9.33057 9.2941 9.33057 9.1058C9.33057 8.9175 9.39558 8.75835 9.52559 8.62833C9.65561 8.49832 9.81476 8.43331 10.0031 8.43331C10.1914 8.43331 10.3505 8.49832 10.4805 8.62833C10.6105 8.75835 10.6755 8.9175 10.6755 9.1058C10.6755 9.2941 10.6105 9.45325 10.4805 9.58327C10.3505 9.71328 10.1914 9.77829 10.0031 9.77829ZM11.617 9.77829C11.4287 9.77829 11.2696 9.71328 11.1396 9.58327C11.0096 9.45325 10.9445 9.2941 10.9445 9.1058C10.9445 8.9175 11.0096 8.75835 11.1396 8.62833C11.2696 8.49832 11.4287 8.43331 11.617 8.43331C11.8053 8.43331 11.9645 8.49832 12.0945 8.62833C12.2245 8.75835 12.2895 8.9175 12.2895 9.1058C12.2895 9.2941 12.2245 9.45325 12.0945 9.58327C11.9645 9.71328 11.8053 9.77829 11.617 9.77829ZM12.8275 10.8543C12.6392 10.8543 12.4801 10.7893 12.35 10.6593C12.22 10.5292 12.155 10.3701 12.155 10.1818C12.155 9.99349 12.22 9.83433 12.35 9.70432C12.4801 9.5743 12.6392 9.50929 12.8275 9.50929C13.0158 9.50929 13.175 9.5743 13.305 9.70432C13.435 9.83433 13.5 9.99349 13.5 10.1818C13.5 10.3701 13.435 10.5292 13.305 10.6593C13.175 10.7893 13.0158 10.8543 12.8275 10.8543ZM9.37092 13.5442C9.16917 13.5442 8.99997 13.4668 8.86332 13.3121C8.72649 13.1575 8.65808 12.9749 8.65808 12.7641C8.65808 12.531 8.7377 12.327 8.89695 12.1522C9.05601 11.9773 9.214 11.8047 9.37092 11.6344C9.50093 11.4954 9.61301 11.344 9.70716 11.1803C9.80131 11.0167 9.91339 10.8632 10.0434 10.7198C10.142 10.6032 10.2564 10.5068 10.3864 10.4306C10.5164 10.3544 10.6576 10.3163 10.81 10.3163C10.9625 10.3163 11.1037 10.3521 11.2337 10.4239C11.3637 10.4956 11.4781 10.5898 11.5767 10.7063C11.7022 10.8498 11.8131 11.0045 11.9094 11.1703C12.0059 11.3362 12.1192 11.4909 12.2492 11.6344C12.4061 11.8047 12.5642 11.9773 12.7234 12.1522C12.8825 12.327 12.962 12.531 12.962 12.7641C12.962 12.9749 12.8937 13.1575 12.757 13.3121C12.6202 13.4668 12.4509 13.5442 12.2492 13.5442C12.0071 13.5442 11.7672 13.5241 11.5296 13.4837C11.292 13.4434 11.0521 13.4232 10.81 13.4232C10.5679 13.4232 10.3281 13.4434 10.0905 13.4837C9.85287 13.5241 9.61301 13.5442 9.37092 13.5442Z" fill="white"/>
<path d="M6.75 3.99969C6.33579 3.99969 6 4.33548 6 4.74969V5.9997H4.75C4.33579 5.9997 4 6.33548 4 6.7497C4 7.16391 4.33579 7.4997 4.75 7.4997H6V8.7497C6 9.16391 6.33579 9.4997 6.75 9.4997C7.16421 9.4997 7.5 9.16391 7.5 8.7497V7.4997H8.75C9.16422 7.4997 9.5 7.16391 9.5 6.7497C9.5 6.33548 9.16422 5.9997 8.75 5.9997H7.5V4.74969C7.5 4.33548 7.16421 3.99969 6.75 3.99969Z" fill="white"/>
</svg>
