<?xml version="1.0" encoding="UTF-8" standalone="no"?>
<svg width="30px" height="33px" viewBox="0 0 30 33" version="1.1" xmlns="http://www.w3.org/2000/svg" xmlns:xlink="http://www.w3.org/1999/xlink" xmlns:sketch="http://www.bohemiancoding.com/sketch/ns">
    <!-- Generator: Sketch 3.2.2 (9983) - http://www.bohemiancoding.com/sketch -->
    <title>police</title>
    <desc>Created with Sketch.</desc>
    <defs></defs>
    <g id="p" stroke="none" stroke-width="1" fill="none" fill-rule="evenodd" sketch:type="MSPage">
        <g id="police" sketch:type="MSLayerGroup" fill="#888888">
            <path d="M15,32.395 C1.701,28.559 0.003,16.666 0.003,12.745 C0.003,8.82 1,4.686 4,0.396 C4,2.396 12,4.396 15,0.398 C18,4.396 26,2.396 26,0.396 C29,4.686 29.997,8.82 29.997,12.744 C29.997,16.666 28.299,28.559 15,32.395 L15,32.395 Z M17.966,12.052 L15,6.396 L12.033,12.052 L6.001,13.271 L10.2,17.985 L9.437,24.395 L15,21.65 L20.562,24.394 L19.798,17.984 L23.997,13.27 L17.966,12.052 L17.966,12.052 Z" id="Shape" sketch:type="MSShapeGroup"></path>
        </g>
    </g>
</svg>