<svg width="32" height="30" xmlns="http://www.w3.org/2000/svg"><path d="M28.5 30c-1.934 0-3.5-.896-3.5-2h-1c0 1.104-1.566 2-3.5 2-.172 0-.336-.016-.5-.029-.165.013-.329.029-.5.029-1.934 0-3.5-.896-3.5-2h-1c0 1.104-1.567 2-3.5 2-1.934 0-3.5-.896-3.5-2H7c0 1.104-1.567 2-3.5 2-1.934 0-3.5-.896-3.5-2v-4c0 1.104 1.566 2 3.5 2 1.933 0 3.5-.896 3.5-2h1c0 1.104 1.566 2 3.5 2 1.933 0 3.5-.896 3.5-2h1c0 1.104 1.566 2 3.5 2 .171 0 .335-.016.5-.029.164.013.328.029.5.029 1.934 0 3.5-.896 3.5-2h1c0 1.104 1.566 2 3.5 2s3.5-.896 3.5-2v4c0 1.104-1.566 2-3.5 2Zm0-7c-1.934 0-3.5-.896-3.5-2h-1c0 1.104-1.566 2-3.5 2-.172 0-.336-.016-.5-.029-.165.013-.329.029-.5.029-1.934 0-3.5-.896-3.5-2h-1c0 1.104-1.567 2-3.5 2-1.934 0-3.5-.896-3.5-2H7c0 1.104-1.567 2-3.5 2-1.934 0-3.5-.896-3.5-2v-4c0 1.104 1.566 2 3.5 2 1.933 0 3.5-.896 3.5-2h1c0 1.104 1.566 2 3.5 2 1.933 0 3.5-.896 3.5-2h1c0 1.104 1.566 2 3.5 2 .171 0 .335-.016.5-.029.164.013.328.029.5.029 1.934 0 3.5-.896 3.5-2h1c0 1.104 1.566 2 3.5 2s3.5-.896 3.5-2v4c0 1.104-1.566 2-3.5 2ZM16 7.077V16h-2V6c0-3.313 2.688-6 6-6h2v2h-1.412C18.055 2 16 4.273 16 7.077ZM6 16H4V6a6 6 0 0 1 6-6h2v2h-1.412C8.055 2 6 4.273 6 7.077V10h8v2H6v4Z" fill="#888" fill-rule="evenodd"/></svg>