<svg xmlns="http://www.w3.org/2000/svg" width="31" height="29"><path fill="gray" d="M8.105.566a.288.288 0 0 1 .387.018l4.039 4.039a.288.288 0 0 1-.03.434A34.282 34.282 0 0 0 9.58 7.54l6.209 6.208 5.988-5.988-2.73-2.73a.289.289 0 0 1-.041-.355l.041-.052L23.084.584a.288.288 0 0 1 .408 0l6.923 6.924a.288.288 0 0 1 .085.204v4.038c0 .16-.13.288-.288.288h-4.039a.288.288 0 0 1-.204-.084L23.816 9.8l-5.988 5.988 10.519 10.519-2.04 2.04-10.519-10.519L5.27 28.347l-2.04-2.04 10.518-10.519-6.174-6.175c-.74.83-1.443 1.7-2.112 2.608l-.4.553a.288.288 0 0 1-.431.045L.592 9.077a.288.288 0 0 1-.047-.366c1.821-2.875 4.23-5.406 7.56-8.145Z"/></svg>