<svg xmlns="http://www.w3.org/2000/svg" width="64" height="64" viewBox="0 0 64 64"><g fill="none" fill-rule="evenodd"><rect width="64" height="64" fill="#C4C2C2"/><path fill="#A6A6A6" fill-rule="nonzero" d="M7.44660511,0.188544263 C7.48294421,0.152205164 7.54186153,0.152205164 7.57820063,0.188544263 L9.81145062,2.42179425 C9.82890127,2.4392449 9.83870494,2.46291306 9.83870494,2.48759201 L9.83870494,3.79032117 C9.83870494,3.84171242 9.7970441,3.88337325 9.74565286,3.88337325 L8.4429237,3.88337325 C8.41824475,3.88337325 8.39457659,3.87356958 8.37712594,3.85611893 L7.68228559,3.16128942 L5.75028559,5.09228942 L9.14412082,8.48614485 L8.48614323,9.14412244 L5.09228559,5.75028942 L1.69995419,9.14412244 L1.0419766,8.48614485 L4.43428559,5.09228942 L2.44370417,3.10042758 C2.25302285,3.31463363 2.06974762,3.53682958 1.89354675,3.76709547 L1.63295755,4.12074375 C1.60044156,4.16656777 1.53504004,4.17333977 1.49382487,4.13515025 L0.191095706,2.92805574 C0.158178436,2.89755496 0.151719488,2.8479057 0.175737411,2.80999813 C0.763316013,1.88262088 1.54051667,1.06617854 2.61457353,0.182485256 C2.65156537,0.152049771 2.70561965,0.154671597 2.73949232,0.188544263 L4.04222148,1.49127342 C4.08212912,1.53118107 4.07760862,1.59714045 4.03262957,1.63123041 C3.70174615,1.88200953 3.38790131,2.14888793 3.09010913,2.43210349 L5.09228559,4.43428942 L7.02428559,2.50328942 L6.14387595,1.62286894 C6.11662162,1.59561462 6.10980804,1.55566004 6.12343521,1.52205559 L6.14387595,1.49127342 Z" transform="translate(11 11)"/><path fill="#A6A6A6" fill-rule="nonzero" d="M7.44660511,0.188544263 C7.48294421,0.152205164 7.54186153,0.152205164 7.57820063,0.188544263 L9.81145062,2.42179425 C9.82890127,2.4392449 9.83870494,2.46291306 9.83870494,2.48759201 L9.83870494,3.79032117 C9.83870494,3.84171242 9.7970441,3.88337325 9.74565286,3.88337325 L8.4429237,3.88337325 C8.41824475,3.88337325 8.39457659,3.87356958 8.37712594,3.85611893 L7.68228559,3.16128942 L5.75028559,5.09228942 L9.14412082,8.48614485 L8.48614323,9.14412244 L5.09228559,5.75028942 L1.69995419,9.14412244 L1.0419766,8.48614485 L4.43428559,5.09228942 L2.44370417,3.10042758 C2.25302285,3.31463363 2.06974762,3.53682958 1.89354675,3.76709547 L1.63295755,4.12074375 C1.60044156,4.16656777 1.53504004,4.17333977 1.49382487,4.13515025 L0.191095706,2.92805574 C0.158178436,2.89755496 0.151719488,2.8479057 0.175737411,2.80999813 C0.763316013,1.88262088 1.54051667,1.06617854 2.61457353,0.182485256 C2.65156537,0.152049771 2.70561965,0.154671597 2.73949232,0.188544263 L4.04222148,1.49127342 C4.08212912,1.53118107 4.07760862,1.59714045 4.03262957,1.63123041 C3.70174615,1.88200953 3.38790131,2.14888793 3.09010913,2.43210349 L5.09228559,4.43428942 L7.02428559,2.50328942 L6.14387595,1.62286894 C6.11662162,1.59561462 6.10980804,1.55566004 6.12343521,1.52205559 L6.14387595,1.49127342 Z" transform="translate(43 44)"/></g></svg>