<svg width="22" height="34" xmlns="http://www.w3.org/2000/svg"><path d="m19.016 34-.789-2H3.773l-.789 2H.834l.789-2H0v-2h2.412l.789-2H2v-2h1.99l.79-2H3a3 3 0 0 1-3-3V3a3 3 0 0 1 3-3h16a3 3 0 0 1 3 3v18a3 3 0 0 1-3 3h-1.779l.789 2H20v2h-1.201l.789 2H22v2h-1.623l.789 2h-2.15ZM3.5 20a1.5 1.5 0 1 0-.001-3.001A1.5 1.5 0 0 0 3.5 20ZM12 2H9a1 1 0 1 0 0 2h3a1 1 0 1 0 0-2Zm8 5a2 2 0 0 0-2-2H4a2 2 0 0 0-2 2v6a2 2 0 0 0 2 2h14a2 2 0 0 0 2-2V7ZM6 26h10l-.812-2H6.812L6 26Zm12.5-6a1.5 1.5 0 1 0-.001-3.001A1.5 1.5 0 0 0 18.5 20Zm-1.298 8H5.797L5 30h13l-.798-2Z" fill="#888" fill-rule="evenodd"/></svg>