<svg width="64mm" height="64mm" version="1.1" viewBox="0 0 64 64" xmlns="http://www.w3.org/2000/svg">
 <g fill="none" stroke="#2980c4" stroke-linecap="round">
  <g stroke-width=".94916">
   <path d="m12.698 23.48c-1.1333-0.71748-1.8767-1.2257-2.394-2.4685-1.5365-3.6913 0.22295-8.2473-3.3437-10.09"/>
   <path d="m9.3771 17.088c-1.3329-0.36513-2.0262-1.5977-2.7268-3.6804"/>
   <path d="m9.948 21.124c-2.2138 0.63398-2.3514-2.0927-3.4929-3.1994"/>
   <path d="m10.002 19.568c0.62911-0.85167 1.4794-0.85994 1.4864-2.9608"/>
   <path d="m12.763 23.455c1.1333-0.71748 2.2017-1.1827 2.7297-2.4213 1.5409-3.6147-0.95256-5.38 1.5642-8.9067"/>
   <path d="m16.419 17.111c1.3329-0.36513 1.6887-1.8047 2.3279-2.6749"/>
   <path d="m15.848 21.147c2.2138 0.63398 2.6275-1.2942 3.7691-2.401"/>
   <path d="m15.794 19.591c-0.6291-0.85166-1.4027-0.16497-1.4097-2.2658"/>
  </g>
  <path d="m31.846 16.303c-0.9296 1.5624 0.46491 2.7736 0.59183 5.0598 0.18885 3.4018-0.01696 4.1128 1.6112 5.2267 0.87626-0.52633 0.93772-1.3262 1.2161-2.3001l0.40334-1.6354 0.10873-2.6278c0.15613-0.58255 0.06604-1.0893 0.94862-1.8954" stroke-width=".70556"/>
  <path d="m33.931 26.331c-0.01932-1.9937-0.2643-2.5957 0.22792-5.6125-0.02584-1.0449-0.36516-1.8212-0.54774-2.7318 0.06985-1.0397 0.297-1.2142 0.47722-1.6469" stroke-width=".70556"/>
  <g stroke-width=".94916">
   <path d="m28.668 51.879c-1.1333-0.71748-1.8767-1.2257-2.394-2.4685-1.5365-3.6913 0.22295-8.2473-3.3437-10.09"/>
   <path d="m25.347 45.487c-1.3329-0.36513-2.0262-1.5977-2.7268-3.6804"/>
   <path d="m25.918 49.523c-2.2138 0.63398-2.3514-2.0927-3.4929-3.1994"/>
   <path d="m25.972 47.967c0.62911-0.85167 1.4794-0.85994 1.4864-2.9608"/>
   <path d="m28.733 51.854c1.1333-0.71748 2.2017-1.1827 2.7297-2.4213 1.5409-3.6147-0.95256-5.38 1.5642-8.9067"/>
   <path d="m32.389 45.51c1.3329-0.36513 1.6887-1.8047 2.3279-2.6749"/>
   <path d="m31.818 49.546c2.2138 0.63398 2.6275-1.2942 3.7691-2.401"/>
   <path d="m31.764 47.99c-0.6291-0.85166-1.4027-0.16497-1.4097-2.2658"/>
  </g>
  <path d="m50.661 34.976c-0.9296 1.5624 0.46491 2.7736 0.59183 5.0598 0.18885 3.4018-0.01696 4.1128 1.6112 5.2267 0.87626-0.52633 0.93772-1.3262 1.2161-2.3001l0.40334-1.6354 0.10873-2.6278c0.15613-0.58255 0.06604-1.0893 0.94862-1.8954" stroke-width=".70556"/>
  <path d="m52.746 45.005c-0.01932-1.9937-0.2643-2.5957 0.22792-5.6125-0.02584-1.0449-0.36516-1.8212-0.54774-2.7318 0.06985-1.0397 0.297-1.2142 0.47722-1.6469" stroke-width=".70556"/>
 </g>
</svg>
