<svg width="22" height="32" xmlns="http://www.w3.org/2000/svg"><path d="M22 28.984c0 1.998-1 2.998-3.062 3.015-1.659.015-2.938-1.017-2.938-3.015l3-10.994c-6.314-.016-3-10.994-1-14.992C19.264.469 22 0 22 0l-.064 14.009L22 28.984ZM10 9.996c0 2.343-3 2.999-3.563 4.998L8 28.984c0 3-1.494 3.017-3.063 3.017-1.657 0-2.938-.017-2.938-3.017l1.469-13.991C3 12.994 0 12.338 0 9.996V1a1 1 0 0 1 2 0l.003 7.012A1 1 0 0 0 4 7.995V1a1 1 0 1 1 2 0v6.996c.009.545.453 1 1 1a1 1 0 0 0 1-1V1a1 1 0 1 1 2 0v8.996Z" fill="#888" fill-rule="evenodd"/></svg>