<svg xmlns="http://www.w3.org/2000/svg" width="64" height="64" viewBox="0 0 64 64"><g fill="none" fill-rule="evenodd"><rect width="64" height="64" fill="#455327"/><g stroke="#5E6C41" stroke-linecap="square" transform="translate(7 11)"><line x1="1.5" x2="5.5" y1="6.5" y2="6.5"/><line x1="3.5" x2="3.5" y1=".5" y2="5.5"/><line x1="3.5" x2="6.5" y1="5.5" y2="2.5"/><line x1="3.5" x2=".5" y1="5.5" y2="2.5"/></g><g stroke="#5E6C41" stroke-linecap="square" transform="translate(45 20)"><line x1="1.5" x2="5.5" y1="6.5" y2="6.5"/><line x1="3.5" x2="3.5" y1=".5" y2="5.5"/><line x1="3.5" x2="6.5" y1="5.5" y2="2.5"/><line x1="3.5" x2=".5" y1="5.5" y2="2.5"/></g><g stroke="#5E6C41" stroke-linecap="square" transform="translate(18 38)"><line x1="1.5" x2="5.5" y1="6.5" y2="6.5"/><line x1="3.5" x2="3.5" y1=".5" y2="5.5"/><line x1="3.5" x2="6.5" y1="5.5" y2="2.5"/><line x1="3.5" x2=".5" y1="5.5" y2="2.5"/></g><g stroke="#5E6C41" stroke-linecap="square" transform="translate(50 51)"><line x1="1.5" x2="5.5" y1="6.5" y2="6.5"/><line x1="3.5" x2="3.5" y1=".5" y2="5.5"/><line x1="3.5" x2="6.5" y1="5.5" y2="2.5"/><line x1="3.5" x2=".5" y1="5.5" y2="2.5"/></g></g></svg>