<svg width="32" height="32" xmlns="http://www.w3.org/2000/svg"><path d="M31.859 22.749c-.565 1.33-1.672 1.211-1.887 1.24-.217.03.377.442.377 1.862 0 1.418-1.134 1.713-3.588 2.274-2.455.562-4.908 1.241-4.908 1.241s.322 1.389-.379 1.861c-.701.472-2.509.235-3.209 0-.701-.235-2.265-.413-2.265-.413s-1.564.179-2.266.414c-.702.236-2.509.474-3.21 0-.701-.473-.378-1.86-.378-1.86s-2.454-.681-4.909-1.241c-2.454-.562-3.587-.855-3.587-2.275 0-1.418.593-1.832.377-1.861-.215-.029-1.321.09-1.888-1.24s.755-2.275.755-2.275l6.231-3.516s1.187-1.714 3.021-4.758c1.834-3.043 1.673-1.98 2.644-2.275.972-.295 3.21-.414 3.21-.414s2.238.118 3.21.414.81-.768 2.644 2.275c1.834 3.044 3.021 4.758 3.021 4.758l6.23 3.516c0-.002 1.322.943.754 2.273Zm-20.39-5.999-2.077 3.309-6.231 3.517h8.875l-.567-6.826Zm1.529 9.747 3 1 3-1h-6Zm9.609-6.437-2.076-3.309-.566 6.826h8.875l-6.233-3.517ZM16.003 8.488a3.993 3.993 0 0 1-3.991-3.995A3.994 3.994 0 0 1 16.003.497a3.994 3.994 0 0 1 3.991 3.996 3.993 3.993 0 0 1-3.991 3.995Z" fill="#888" fill-rule="evenodd"/></svg>