<?xml version="1.0" encoding="UTF-8" standalone="no"?>
<svg width="32px" height="32px" viewBox="0 0 32 32" version="1.1" xmlns="http://www.w3.org/2000/svg" xmlns:xlink="http://www.w3.org/1999/xlink" xmlns:sketch="http://www.bohemiancoding.com/sketch/ns">
    <!-- Generator: Sketch 3.2.2 (9983) - http://www.bohemiancoding.com/sketch -->
    <title>yoga</title>
    <desc>Created with Sketch.</desc>
    <defs></defs>
    <g id="p" stroke="none" stroke-width="1" fill="none" fill-rule="evenodd" sketch:type="MSPage">
        <g id="yoga" sketch:type="MSLayerGroup" transform="translate(-1.000000, 0.000000)" fill="#888888">
            <path d="M32.859,22.749 C32.294,24.079 31.187,23.96 30.972,23.989 C30.755,24.019 31.349,24.431 31.349,25.851 C31.349,27.269 30.215,27.564 27.761,28.125 C25.306,28.687 22.853,29.366 22.853,29.366 C22.853,29.366 23.175,30.755 22.474,31.227 C21.773,31.699 19.965,31.462 19.265,31.227 C18.564,30.992 17,30.814 17,30.814 C17,30.814 15.436,30.993 14.734,31.228 C14.032,31.464 12.225,31.702 11.524,31.228 C10.823,30.755 11.146,29.368 11.146,29.368 C11.146,29.368 8.692,28.687 6.237,28.127 C3.783,27.565 2.65,27.272 2.65,25.852 C2.65,24.434 3.243,24.02 3.027,23.991 C2.812,23.962 1.706,24.081 1.139,22.751 C0.572,21.421 1.894,20.476 1.894,20.476 L8.125,16.96 C8.125,16.96 9.312,15.246 11.146,12.202 C12.98,9.159 12.819,10.222 13.79,9.927 C14.762,9.632 17,9.513 17,9.513 C17,9.513 19.238,9.631 20.21,9.927 C21.182,10.223 21.02,9.159 22.854,12.202 C24.688,15.246 25.875,16.96 25.875,16.96 L32.105,20.476 C32.105,20.474 33.427,21.419 32.859,22.749 L32.859,22.749 Z M12.469,16.75 L10.392,20.059 L4.161,23.576 L13.036,23.576 L12.469,16.75 L12.469,16.75 Z M13.998,26.497 L16.998,27.497 L19.998,26.497 L13.998,26.497 L13.998,26.497 Z M23.607,20.06 L21.531,16.751 L20.965,23.577 L29.84,23.577 L23.607,20.06 L23.607,20.06 Z M17.003,8.488 C14.799,8.488 13.012,6.699 13.012,4.493 C13.012,2.287 14.799,0.497 17.003,0.497 C19.207,0.497 20.994,2.286 20.994,4.493 C20.994,6.7 19.207,8.488 17.003,8.488 L17.003,8.488 Z" id="Shape" sketch:type="MSShapeGroup"></path>
        </g>
    </g>
</svg>