<svg width="32" height="30" xmlns="http://www.w3.org/2000/svg"><path d="M30 15.006h-.154l-1.846 12a2 2 0 0 1-2 2H6a2 2 0 0 1-2-2l-1.846-12H2a2 2 0 0 1 0-4h28a2 2 0 0 1 0 4Zm-20 1a1 1 0 1 0-2 0v10a1 1 0 1 0 2 0v-10Zm4 0a1 1 0 1 0-2 0v10a1 1 0 1 0 2 0v-10Zm6 0a1 1 0 1 0-2 0v10a1 1 0 1 0 2 0v-10Zm4 0a1 1 0 1 0-2 0v10a1 1 0 1 0 2 0v-10ZM17.206 2.117c-.413-.68-.164-1.546.558-1.936.721-.389 1.639-.154 2.051.525l5.986 9.198c.02.032.02.068.035.102H22.34l-5.134-7.889ZM9.66 10.006H6.163c.017-.033.017-.069.036-.102L12.184.706c.413-.68 1.332-.914 2.053-.525.721.39.97 1.256.557 1.936L9.66 10.006Z" fill="#888" fill-rule="evenodd"/></svg>