<?xml version="1.0" encoding="UTF-8" standalone="no"?>
<svg width="32px" height="30px" viewBox="0 0 32 30" version="1.1" xmlns="http://www.w3.org/2000/svg" xmlns:xlink="http://www.w3.org/1999/xlink" xmlns:sketch="http://www.bohemiancoding.com/sketch/ns">
    <!-- Generator: Sketch 3.2.2 (9983) - http://www.bohemiancoding.com/sketch -->
    <title>small-shop</title>
    <desc>Created with Sketch.</desc>
    <defs></defs>
    <g id="p" stroke="none" stroke-width="1" fill="none" fill-rule="evenodd" sketch:type="MSPage">
        <g id="small-shop" sketch:type="MSLayerGroup" transform="translate(0.000000, -1.000000)" fill="#888888">
            <path d="M30,16.006 L29.846,16.006 L28,28.006 C28,29.11 27.104,30.006 26,30.006 L6,30.006 C4.896,30.006 4,29.11 4,28.006 L2.154,16.006 L2,16.006 C0.896,16.006 0,15.11 0,14.006 C0,12.902 0.896,12.006 2,12.006 L30,12.006 C31.104,12.006 32,12.902 32,14.006 C32,15.11 31.104,16.006 30,16.006 L30,16.006 L30,16.006 Z M10,17.006 C10,16.453 9.552,16.006 9,16.006 C8.447,16.006 8,16.453 8,17.006 L8,27.006 C8,27.559 8.447,28.006 9,28.006 C9.552,28.006 10,27.559 10,27.006 L10,17.006 L10,17.006 Z M14,17.006 C14,16.453 13.553,16.006 13,16.006 C12.447,16.006 12,16.453 12,17.006 L12,27.006 C12,27.559 12.447,28.006 13,28.006 C13.553,28.006 14,27.559 14,27.006 L14,17.006 L14,17.006 Z M20,17.006 C20,16.453 19.552,16.006 19,16.006 C18.447,16.006 18,16.453 18,17.006 L18,27.006 C18,27.559 18.447,28.006 19,28.006 C19.552,28.006 20,27.559 20,27.006 L20,17.006 L20,17.006 Z M24,17.006 C24,16.453 23.553,16.006 23,16.006 C22.447,16.006 22,16.453 22,17.006 L22,27.006 C22,27.559 22.447,28.006 23,28.006 C23.553,28.006 24,27.559 24,27.006 L24,17.006 L24,17.006 Z M17.206,3.117 C16.793,2.437 17.042,1.571 17.764,1.181 C18.485,0.792 19.403,1.027 19.815,1.706 L25.801,10.904 C25.821,10.936 25.821,10.972 25.836,11.006 L22.34,11.006 L17.206,3.117 L17.206,3.117 Z M9.66,11.006 L6.163,11.006 C6.18,10.973 6.18,10.937 6.199,10.904 L12.184,1.706 C12.597,1.026 13.516,0.792 14.237,1.181 C14.958,1.571 15.207,2.437 14.794,3.117 L9.66,11.006 L9.66,11.006 Z" id="Shape" sketch:type="MSShapeGroup"></path>
        </g>
    </g>
</svg>