<?xml version="1.0" encoding="UTF-8" standalone="no"?>
<svg width="30px" height="32px" viewBox="0 0 30 32" version="1.1" xmlns="http://www.w3.org/2000/svg" xmlns:xlink="http://www.w3.org/1999/xlink" xmlns:sketch="http://www.bohemiancoding.com/sketch/ns">
    <!-- Generator: Sketch 3.2.2 (9983) - http://www.bohemiancoding.com/sketch -->
    <title>shop</title>
    <desc>Created with Sketch.</desc>
    <defs></defs>
    <g id="p" stroke="none" stroke-width="1" fill="none" fill-rule="evenodd" sketch:type="MSPage">
        <g id="shop" sketch:type="MSLayerGroup" fill="#888888">
            <path d="M24,21.083 L14,21.083 L12,21.083 L6,21.083 L6,24 L6,25.083 L4,26.083 L4,24 L4,22 L4,20 L4,18 L4,12 L4,10 L4,2.083 L0,2.083 L0,0 L4,0 L6,0 L6,2 L6,6.083 L30,6.083 L24,21.083 L24,21.083 Z M7,26 C8.656,26 10,27.343 10,29 C10,30.657 8.656,32 7,32 C5.343,32 4,30.657 4,29 C4,27.343 5.343,26 7,26 L7,26 Z M17,27.917 L11,27.917 L10,26 L18,26 L17,27.917 L17,27.917 Z M21,26 C22.656,26 24,27.343 24,29 C24,30.657 22.656,32 21,32 C19.343,32 18,30.657 18,29 C18,27.343 19.343,26 21,26 L21,26 Z" id="Shape" sketch:type="MSShapeGroup"></path>
        </g>
    </g>
</svg>