<svg width="30" height="31" xmlns="http://www.w3.org/2000/svg"><path d="M29.466 21.678c-.679 2.359-2.913 9.344-11.791 9.319-1.637-1.005-2.813-2.129-3.676-3.292.721.072 1.473.111 2.269.107a20.99 20.99 0 0 0 1.59-1.105c.322.057.651.129.988.225 1.397.396 2.553 1.062 3.176 1.625.211-.961-.406-3.156-1.793-4.022 1.271-1.403 2.154-2.868 2.735-4.334.478-.062.976-.089 1.448.045.947.271 1.645 1.146 2.285 1.554.271-1.132-.44-2.839-1.805-3.226-.471-.134-.957-.084-1.412.072.461-1.731.564-3.412.479-4.937 2.869.472 5.146-.274 5.146-.274 1.111 3.103 1.04 5.885.361 8.243ZM15.9 26.818C4.61 26.883 1.641 17.922.734 14.896c-.906-3.027-1.048-6.599.309-10.591 0 0 3.953 1.184 8.109-.025 4.335-1.261 6.826-4.319 6.826-4.319 3.336 2.627 5.187 5.703 6.092 8.729.907 3.028 3.349 12.144-6.17 18.128Zm-.962-3.216c2.876-.838 4.132-5.167 3.728-6.918-.979.907-2.799 1.981-5.013 2.624-2.214.645-4.335.717-5.655.479.624 1.686 4.064 4.651 6.94 3.815ZM6.493 10.888c-1.726.502-2.6 2.698-2.236 4.151.811-.529 1.678-1.655 2.879-2.004s2.55.132 3.521.143c-.494-1.415-2.437-2.792-4.164-2.29Zm8.534-2.482c-1.726.502-2.601 2.698-2.236 4.151.812-.528 1.679-1.655 2.879-2.004s2.551.132 3.521.143c-.494-1.416-2.438-2.792-4.164-2.29Z" fill="#888" fill-rule="evenodd"/></svg>