<?xml version="1.0" encoding="UTF-8" standalone="no"?>
<svg width="30px" height="31px" viewBox="0 0 30 31" version="1.1" xmlns="http://www.w3.org/2000/svg" xmlns:xlink="http://www.w3.org/1999/xlink" xmlns:sketch="http://www.bohemiancoding.com/sketch/ns">
    <!-- Generator: Sketch 3.2.2 (9983) - http://www.bohemiancoding.com/sketch -->
    <title>theater</title>
    <desc>Created with Sketch.</desc>
    <defs></defs>
    <g id="p" stroke="none" stroke-width="1" fill="none" fill-rule="evenodd" sketch:type="MSPage">
        <g id="theater" sketch:type="MSLayerGroup" transform="translate(0.000000, -1.000000)" fill="#888888">
            <path d="M29.466,22.678 C28.787,25.037 26.553,32.022 17.675,31.997 C16.038,30.992 14.862,29.868 13.999,28.705 C14.72,28.777 15.472,28.816 16.268,28.812 C16.841,28.455 17.362,28.083 17.858,27.707 C18.18,27.764 18.509,27.836 18.846,27.932 C20.243,28.328 21.399,28.994 22.022,29.557 C22.233,28.596 21.616,26.401 20.229,25.535 C21.5,24.132 22.383,22.667 22.964,21.201 C23.442,21.139 23.94,21.112 24.412,21.246 C25.359,21.517 26.057,22.392 26.697,22.8 C26.968,21.668 26.257,19.961 24.892,19.574 C24.421,19.44 23.935,19.49 23.48,19.646 C23.941,17.915 24.044,16.234 23.959,14.709 C26.828,15.181 29.105,14.435 29.105,14.435 C30.216,17.538 30.145,20.32 29.466,22.678 L29.466,22.678 Z M15.9,27.818 C4.61,27.883 1.641,18.922 0.734,15.896 C-0.172,12.869 -0.314,9.297 1.043,5.305 C1.043,5.305 4.996,6.489 9.152,5.28 C13.487,4.019 15.978,0.961 15.978,0.961 C19.314,3.588 21.165,6.664 22.07,9.69 C22.977,12.718 25.419,21.834 15.9,27.818 L15.9,27.818 Z M14.938,24.602 C17.814,23.764 19.07,19.435 18.666,17.684 C17.687,18.591 15.867,19.665 13.653,20.308 C11.439,20.953 9.318,21.025 7.998,20.787 C8.622,22.473 12.062,25.438 14.938,24.602 L14.938,24.602 Z M6.493,11.888 C4.767,12.39 3.893,14.586 4.257,16.039 C5.068,15.51 5.935,14.384 7.136,14.035 C8.337,13.686 9.686,14.167 10.657,14.178 C10.163,12.763 8.22,11.386 6.493,11.888 L6.493,11.888 Z M15.027,9.406 C13.301,9.908 12.426,12.104 12.791,13.557 C13.603,13.029 14.47,11.902 15.67,11.553 C16.87,11.204 18.221,11.685 19.191,11.696 C18.697,10.28 16.753,8.904 15.027,9.406 L15.027,9.406 Z" id="Shape" sketch:type="MSShapeGroup"></path>
        </g>
    </g>
</svg>