<svg width="30" height="34" xmlns="http://www.w3.org/2000/svg"><g fill="#888" fill-rule="evenodd"><path d="m14.847 16.412 9.069 15.589H6.132l8.715-15.589Zm0-4.412L2 34h26L14.847 12Z"/><path d="M15 19.624a4.651 4.651 0 0 0 4.646-4.655A4.651 4.651 0 0 0 15 10.313a4.651 4.651 0 0 0-4.646 4.656A4.651 4.651 0 0 0 15 19.624Zm0-15.366c-5.895 0-10.69 4.805-10.69 10.71 0 5.906 4.796 10.713 10.69 10.713 5.894 0 10.69-4.806 10.69-10.711 0-5.906-4.796-10.712-10.69-10.712ZM8.516 25.354a12.146 12.146 0 0 0 3.729 1.554A2.776 2.776 0 0 0 15 30a2.776 2.776 0 0 0 2.755-3.092 12.146 12.146 0 0 0 3.7-1.536 2.766 2.766 0 0 0 2.17 1.048 2.776 2.776 0 0 0 2.772-2.778c0-.877-.405-1.659-1.038-2.168a12.196 12.196 0 0 0 1.556-3.744A2.776 2.776 0 0 0 30 14.969a2.776 2.776 0 0 0-3.085-2.761c-.31-1.341-.84-2.599-1.549-3.732a2.775 2.775 0 0 0 1.03-2.161 2.776 2.776 0 0 0-2.773-2.779c-.873 0-1.651.404-2.16 1.036a12.146 12.146 0 0 0-3.701-1.54A2.776 2.776 0 0 0 15 0a2.776 2.776 0 0 0-2.762 3.032c-1.339.31-2.594.843-3.726 1.555A2.765 2.765 0 0 0 6.376 3.58a2.776 2.776 0 0 0-2.773 2.778c0 .865.394 1.638 1.012 2.147a12.195 12.195 0 0 0-1.53 3.703A2.776 2.776 0 0 0 0 14.969a2.776 2.776 0 0 0 3.085 2.76c.308 1.338.836 2.591 1.542 3.722a2.776 2.776 0 0 0-1.068 2.19 2.776 2.776 0 0 0 2.773 2.78c.887 0 1.677-.418 2.184-1.067Z"/></g></svg>