<svg width="26" height="36" xmlns="http://www.w3.org/2000/svg"><g fill="#888" fill-rule="evenodd"><path d="M22 7a3 3 0 0 1 3 3l1 13v8c0 1.656-1.344 3-3 3H3a3 3 0 0 1-3-3v-8l1-13a3 3 0 0 1 3-3h18ZM4 31a2 2 0 1 0-.001-4.001A2 2 0 0 0 4 31ZM20 9H6a1 1 0 1 0 0 2h14a1 1 0 1 0 0-2Zm3 4c0-1.104-.896-1-2-1H5c-1.104 0-2-.104-2 1l-1 8c0 1.104.896 3 2 3h18c1.104 0 2-1.896 2-3l-1-8Zm-1 14a2 2 0 1 0 .001 4.001A2 2 0 0 0 22 27ZM3 32a1 1 0 0 1 1 1v2a1 1 0 1 1-2 0v-2a1 1 0 0 1 1-1Zm20 0a1 1 0 0 1 1 1v2a1 1 0 1 1-2 0v-2a1 1 0 0 1 1-1ZM17.771 4H8.23C7 4 6 3.103 6 2s1-2 2.229-2h9.541C19 0 20 .897 20 2s-1 2-2.229 2ZM8.229 1C7.552 1 7 1.449 7 2c0 .551.552 1 1.229 1h9.541C18.448 3 19 2.551 19 2c0-.551-.552-1-1.229-1H8.229ZM9 4h1v3H9zM16 4h1v3h-1z"/></g></svg>