<svg width="31" height="30" xmlns="http://www.w3.org/2000/svg"><g fill="#888" fill-rule="evenodd"><path d="M30.735 21.587c-.523 1.12-1.665 1.736-2.549 1.376-.885-.359-1.176-1.558-.652-2.678.524-1.12 1.666-1.735 2.55-1.376.884.36 1.175 1.558.651 2.678Zm-5.767-2.266c-.992-.198-1.596-1.544-1.348-3.006.248-1.463 1.253-2.488 2.246-2.29.992.198 1.596 1.544 1.348 3.006-.248 1.463-1.254 2.488-2.246 2.29Zm1.054 4.614c.961 1.037 1.705 1.433 2.17 2.762.41 1.171-.025 2.456-1.162 3.07-1.137.613-2.867-.154-3.486-.308a3.587 3.587 0 0 0-.689-.09l-.008.014s-.142-.014-.35-.018c-.209.004-.35.018-.35.018l-.01-.014c-.22.01-.463.035-.688.09-.619.153-2.352.921-3.487.308-1.136-.614-1.57-1.898-1.16-3.07.464-1.33 1.208-1.726 2.17-2.762 1.233-1.333 1.315-1.995 2.245-2.608.576-.38.896-.386 1.28-.384.383-.002.702.004 1.276.384.933.613 1.015 1.275 2.25 2.608Zm-5.998-4.63c-.99.196-1.996-.826-2.244-2.284-.248-1.458.355-2.8 1.348-2.997.993-.197 1.998.825 2.246 2.283s-.356 2.8-1.35 2.997Zm-3.216 3.658c-.885.36-2.024-.256-2.548-1.376-.524-1.12-.232-2.319.652-2.678.883-.359 2.023.256 2.55 1.376.521 1.12.228 2.32-.654 2.678ZM18 12h-6v6H6v-6H0V6h6V0h6v6h6v6Z"/></g></svg>