<svg width="32" height="30" xmlns="http://www.w3.org/2000/svg"><g fill="#888" fill-rule="evenodd"><path d="M14 14.94C14 12.938 3 12 3 12c-2.081 0-3 .937-3 2.94C0 16.945.981 18 3 18c.771 0 11-1.056 11-3.06ZM29 18c2.081 0 3-.937 3-2.94 0-2.004-.981-3.06-3-3.06-.771 0-11 1.056-11 3.06C18 17.062 29 18 29 18ZM14.949 16.702c-1.735-1.001-8.047 8.056-8.047 8.056-1.04 1.803-.688 3.067 1.047 4.069 1.735 1.001 3.14.68 4.15-1.069.385-.668 4.585-10.054 2.85-11.056Zm10.15-11.46c1.04-1.803.687-3.067-1.048-4.069-1.735-1.001-3.14-.68-4.15 1.069-.385.668-4.585 10.054-2.85 11.056 1.735 1.001 8.047-8.056 8.047-8.056ZM16.949 16.762c-1.735 1.001 2.953 10.996 2.953 10.996 1.04 1.803 2.312 2.13 4.047 1.128 1.735-1.002 2.158-2.38 1.15-4.128-.387-.668-6.415-8.998-8.15-7.996Zm-4.85-14.52C11.056.439 9.785.112 8.05 1.114c-1.735 1.002-2.158 2.38-1.15 4.128.387.668 6.415 8.998 8.15 7.996 1.735-1.001-2.953-10.996-2.953-10.996Z"/></g></svg>