<svg xmlns="http://www.w3.org/2000/svg" width="26" height="26" viewBox="0 0 26 26">
  <path fill="#888" d="M2,20 C3.282,20 5.658,22 6.8,22 C7.87,22 10.39,20 11.6,20 C12.81,20 15.332,22 16.4,22 C17.684,22 20.05,20 21.198,20 C22.48,19.942 25.002,22 25.998,22 L25.998,26 C24.79,26 22.338,24 21.198,24 C20.06,24 17.608,26 16.4,26 C15.252,26 12.81,24 11.6,24 C10.382,24 7.942,26 6.8,26 C5.52,26 3.212,24 2,24 L2,20 Z M2,4 C4.188,4 6.002,4.6 6.002,7.5 L6,12.5 C6,16.5 9,18.5 11,18.5 C11,18.5 10,16.5 10,12.5 L10,7.5 C10,5.67 8.702,4.884 7.998,4 C10.186,4 12,4.6 12,7.5 L12,12.5 C12,16.5 15,18.5 17,18.5 C17,18.5 16,16.5 16,12.5 L16.2,7.5 C16.273142,5.67146 14.702,4.884 14,4 C16.186,4 18,4.6 18,7.5 L18,12.5 C18,16.5 21,18.5 23,18.5 C23,18.5 22,16.5 22,12.5 L22,7.5 C22,1.5 16,0 14,0 L0,0 L0.001,4 L2,4 Z"/>
</svg>
