<svg xmlns="http://www.w3.org/2000/svg" width="26" height="26"><path fill="#888" d="M2 20c1.282 0 3.658 2 4.8 2 1.07 0 3.59-2 4.8-2s3.732 2 4.8 2c1.284 0 3.65-2 4.798-2 1.282-.058 3.804 2 4.8 2v4c-1.208 0-3.66-2-4.8-2-1.138 0-3.59 2-4.798 2-1.148 0-3.59-2-4.8-2-1.218 0-3.658 2-4.8 2-1.28 0-3.588-2-4.8-2v-4ZM2 4c2.188 0 4.002.6 4.002 3.5L6 12.5c0 4 3 6 5 6 0 0-1-2-1-6v-5C10 5.67 8.702 4.884 7.998 4 10.186 4 12 4.6 12 7.5v5c0 4 3 6 5 6 0 0-1-2-1-6l.2-5c.073-1.829-1.498-2.616-2.2-3.5 2.186 0 4 .6 4 3.5v5c0 4 3 6 5 6 0 0-1-2-1-6v-5c0-6-6-7.5-8-7.5H0l.001 4H2Z"/></svg>