<svg width="43" height="37" xmlns="http://www.w3.org/2000/svg"><path d="M22 37h3V0h-3v37ZM12.342 6.894H6.47c-.916 0-1.739.33-2.47.99-.55.514-.915 1.083-1.097 1.708L.38 18.013a1.367 1.367 0 0 0-.109.496c0 .844.42 1.266 1.261 1.266.586 0 .97-.33 1.154-.99l2.304-7.708h1.26L2.465 24.783H6.14v10.68c0 .954.457 1.43 1.371 1.43.915 0 1.372-.476 1.372-1.43V24.728h1.373v10.789c0 .917.457 1.376 1.371 1.376.914 0 1.372-.459 1.372-1.376V24.783h3.675l-3.84-13.706h1.317l2.304 7.707c.183.661.567.991 1.152.991.841 0 1.262-.422 1.262-1.266 0-.184-.036-.35-.109-.496l-2.525-8.421c-.183-.588-.603-1.157-1.26-1.707-.805-.66-1.683-.991-2.634-.991Zm-2.8-.627c.886 0 1.638-.303 2.256-.91.617-.606.926-1.326.926-2.161 0-.873-.309-1.612-.926-2.219-.618-.606-1.37-.91-2.256-.91-.849 0-1.582.304-2.199.91a2.992 2.992 0 0 0-.926 2.219c0 .835.309 1.555.926 2.161.617.607 1.35.91 2.2.91ZM35.5 6.212c.849 0 1.582-.304 2.2-.911.617-.607.925-1.328.925-2.162 0-.872-.308-1.601-.926-2.19A3.08 3.08 0 0 0 35.5.069c-.849 0-1.581.294-2.198.882-.617.588-.925 1.317-.925 2.189 0 .834.308 1.555.925 2.162s1.35.91 2.198.91ZM39.29 7H31.71c-1.024 0-1.899.376-2.623 1.129-.725.752-1.087 1.68-1.087 2.78v9.137c0 .88.389 1.322 1.166 1.322.742 0 1.113-.441 1.113-1.322v-8.917h1.378v24.22c0 1.1.53 1.651 1.59 1.651s1.59-.55 1.59-1.651V21.312h1.378V35.35c0 1.1.53 1.651 1.59 1.651 1.095 0 1.643-.55 1.643-1.651v-24.22h1.325v8.917c0 .917.37 1.375 1.113 1.375.742 0 1.114-.458 1.114-1.375v-9.083c0-1.064-.345-1.99-1.034-2.78C41.277 7.395 40.386 7 39.29 7Z" fill="#888" fill-rule="evenodd"/></svg>