<svg xmlns="http://www.w3.org/2000/svg" width="64" height="64" viewBox="0 0 64 64"><g fill="none" fill-rule="evenodd"><rect width="64" height="64" fill="#2C4F1B"/><g stroke="#4F7240" stroke-linecap="round" transform="translate(19 -22)"><line x1="25" x2="25" y1="46" y2="57" stroke-width="1.5"/><path stroke-width="1.5" d="M25 52C22.3333333 52 21 51 21 49M25 50C27.6666667 50 29 49 29 47"/></g><g stroke="#4F7240" stroke-linecap="round" transform="translate(-15 -38)"><line x1="25" x2="25" y1="46" y2="57" stroke-width="1.5"/><path stroke-width="1.5" d="M25 52C22.3333333 52 21 51 21 49M25 50C27.6666667 50 29 49 29 47"/></g><g stroke="#4F7240" stroke-linecap="round"><line x1="25" x2="25" y1="46" y2="57" stroke-width="1.5"/><path stroke-width="1.5" d="M25 52C22.3333333 52 21 51 21 49M25 50C27.6666667 50 29 49 29 47"/></g></g></svg>