<svg width="32" height="32" xmlns="http://www.w3.org/2000/svg"><path d="M31.738 8.087c-.523 1.12-1.665 1.736-2.549 1.376-.885-.359-1.176-1.558-.652-2.678.524-1.12 1.666-1.735 2.549-1.376.885.359 1.176 1.558.652 2.678Zm-5.767-2.266c-.992-.198-1.596-1.544-1.348-3.006.248-1.463 1.253-2.488 2.246-2.29.992.198 1.596 1.544 1.348 3.006-.248 1.463-1.254 2.488-2.246 2.29Zm1.054 4.614c.961 1.037 1.705 1.433 2.17 2.762.41 1.171-.025 2.456-1.162 3.07-1.137.613-2.867-.154-3.486-.308a3.587 3.587 0 0 0-.689-.09l-.008.014s-.142-.014-.35-.018c-.209.004-.35.018-.35.018l-.01-.014c-.22.01-.463.035-.688.09-.619.153-2.352.921-3.487.308-1.136-.614-1.571-1.898-1.161-3.07.465-1.33 1.209-1.726 2.17-2.762 1.234-1.333 1.316-1.995 2.246-2.608.576-.38.896-.386 1.279-.384.384-.002.703.004 1.277.384.933.613 1.015 1.275 2.249 2.608Zm-5.998-4.631c-.991.197-1.996-.825-2.244-2.283-.248-1.458.355-2.8 1.348-2.997.993-.197 1.998.825 2.246 2.283s-.356 2.8-1.35 2.997Zm-3.216 3.659c-.885.36-2.024-.256-2.548-1.376-.524-1.12-.232-2.319.652-2.678.883-.359 2.023.256 2.549 1.376.522 1.12.229 2.319-.653 2.678Zm-1.725 10.946c.885.358 1.176 1.558.652 2.677-.524 1.119-1.665 1.736-2.549 1.377-.884-.359-1.176-1.559-.652-2.68.525-1.118 1.666-1.733 2.549-1.374Zm-5.115.411c-.992-.197-1.596-1.544-1.348-3.006.248-1.463 1.253-2.488 2.246-2.29.992.198 1.596 1.544 1.348 3.006-.248 1.463-1.254 2.488-2.246 2.29Zm1.055 4.614c.96 1.037 1.705 1.435 2.17 2.762.409 1.173-.026 2.457-1.163 3.07s-2.867-.154-3.486-.307a3.515 3.515 0 0 0-.689-.092l-.009.014s-.141-.014-.349-.018a4.806 4.806 0 0 0-.349.018l-.01-.014c-.22.01-.464.035-.688.092-.62.152-2.351.92-3.488.307-1.136-.613-1.572-1.897-1.162-3.07.465-1.327 1.209-1.725 2.17-2.762 1.235-1.332 1.317-1.994 2.248-2.606.576-.382.895-.388 1.279-.386.384-.002.703.004 1.278.386.931.611 1.013 1.274 2.248 2.606Zm-5.998-4.629c-.992.195-1.998-.825-2.246-2.283s.356-2.8 1.349-2.997c.992-.198 1.998.824 2.246 2.283.248 1.457-.356 2.797-1.349 2.997Zm-3.217 3.658c-.884.359-2.025-.258-2.549-1.377S.03 20.77.914 20.409c.884-.36 2.025.256 2.549 1.374.523 1.121.231 2.321-.652 2.68Z" fill="#888" fill-rule="evenodd"/></svg>